<svg width="173" height="80" viewBox="0 0 173 80" fill="none" xmlns="http://www.w3.org/2000/svg">
<path d="M30.6355 21.9663L46.5503 59.6941V21.9663H30.6355ZM3.49634 21.9663V59.6941L19.4235 21.9663H3.49634ZM18.0706 52.1057H25.4914L28.524 59.6941H35.1692L25.0304 35.87L18.0706 52.1057Z" fill="black"/>
<path d="M69.2785 21.8672L60.6626 59.6951H65.8775L68.1448 49.2564H76.0805L78.2912 59.6951H83.5627L75.457 21.8672H69.2785ZM68.7683 45.0459L70.5822 36.0103C71.0924 33.5969 71.6592 30.117 72.056 27.3677H72.2827C72.6795 30.0618 73.1897 33.4285 73.6998 36.0103L75.457 45.0459H68.7683ZM103.467 20.8569H98.1389V35.0562H98.0255C97.0619 32.9795 95.3047 31.9692 93.0941 31.9692C88.7304 31.9692 84.5915 36.5136 84.5915 46.1684C84.5915 54.6437 87.7091 60.1432 92.8107 60.1432C95.5863 60.1432 97.6845 58.291 98.5914 56.3817H98.7624L99.1016 59.6932H103.692C103.579 57.7849 103.465 54.755 103.465 52.6783L103.467 20.8569ZM98.1389 50.0983C98.1389 50.7147 98.0813 51.3892 97.9689 51.8364C97.0619 55.0908 95.4738 55.7101 94.2844 55.7101C91.4503 55.7101 89.9765 51.7821 89.9765 46.1694C89.9765 41.1179 91.1092 36.5155 94.4535 36.5155C96.3808 36.5155 97.7979 38.6483 98.0813 41.1179C98.1389 41.6801 98.1389 42.2975 98.1389 42.8027V50.0983ZM116.441 31.9692C111.397 31.9692 106.692 36.1787 106.692 46.1123C106.692 55.4865 110.66 60.1441 116.16 60.1441H116.217C120.411 60.1441 125.797 56.8326 125.797 46.001C125.794 36.7971 121.883 31.9692 116.441 31.9692ZM116.329 55.9898H116.271C112.814 55.9898 112.02 50.6016 112.02 46.0562C112.02 41.9589 112.701 36.1217 116.213 36.1217C119.614 36.1217 120.351 41.9589 120.351 46.0562C120.353 50.2105 119.615 55.9898 116.329 55.9898ZM140.227 31.9692C137.791 31.9692 135.864 33.0356 134.447 35.5043H134.333V20.8569H129.005V52.6801C129.005 54.7568 128.892 57.8448 128.778 59.6951H133.37L133.653 56.2723H133.879C135.07 58.6857 136.6 60.146 139.32 60.146C143.855 60.146 147.881 55.3733 147.881 45.609C147.879 37.2451 144.931 31.9692 140.227 31.9692ZM138.13 55.7101C137.052 55.7101 135.409 55.0356 134.559 51.725C134.389 51.277 134.333 50.6577 134.333 50.0403V42.4089C134.333 41.8457 134.391 41.117 134.504 40.5567C134.901 38.5922 136.318 36.5155 138.073 36.5155C141.248 36.5155 142.497 40.725 142.497 45.9449C142.495 51.5567 141.303 55.7101 138.13 55.7101ZM160.389 31.9692C154.663 31.9692 150.527 37.4697 150.527 46.392C150.527 54.8111 154.155 59.9748 161.07 59.9748C163.506 59.9748 166.001 59.5267 167.645 58.6848L166.851 54.8682C165.659 55.4304 164.017 55.8775 162.09 55.8775C158.858 55.8775 155.798 54.1385 155.741 47.1235L168.665 47.1806C168.722 46.4509 168.777 45.6081 168.777 44.262C168.777 37.4135 166.114 31.9692 160.389 31.9692ZM155.797 43.3621C155.968 39.9383 157.214 35.9533 159.991 35.9533C162.088 35.9533 163.79 38.5351 163.732 43.3621H155.797ZM168.544 33.1553V33.1451C168.69 33.102 168.81 32.9935 168.81 32.8148C168.81 32.6848 168.767 32.5941 168.684 32.5342C168.603 32.4753 168.468 32.4322 168.26 32.4322C168.097 32.4322 167.988 32.4491 167.874 32.464V33.8186H168.091V33.2358H168.243C168.418 33.2358 168.504 33.3003 168.538 33.4734C168.564 33.6511 168.597 33.7755 168.632 33.8186H168.859C168.839 33.7755 168.804 33.6942 168.772 33.4846C168.745 33.2844 168.664 33.1769 168.544 33.1553ZM168.25 33.0683H168.092V32.61C168.13 32.6053 168.179 32.5997 168.25 32.5997C168.495 32.5997 168.582 32.7176 168.582 32.8364C168.581 33.0047 168.429 33.0683 168.25 33.0683ZM168.326 31.8981H168.321C167.651 31.8981 167.106 32.4379 167.106 33.1123C167.106 33.7971 167.651 34.3312 168.321 34.3312C168.996 34.3312 169.53 33.798 169.53 33.1123C169.53 32.4379 168.996 31.8981 168.326 31.8981ZM168.326 34.1422C167.781 34.1422 167.34 33.6904 167.34 33.1123C167.34 32.5464 167.781 32.0871 168.321 32.0871H168.326C168.871 32.0871 169.306 32.5454 169.306 33.1179C169.306 33.6886 168.871 34.1479 168.326 34.1422Z" fill="black"/>
</svg>
