<svg width="92" height="90" viewBox="0 0 92 90" fill="none" xmlns="http://www.w3.org/2000/svg">
<g opacity="0.85" clip-path="url(#clip0_1240_534)">
<path d="M1 86.5V2.5H91V86.5H1Z" stroke="black"/>
<path d="M0.5 4.47549V2.00195H91.5V4.47549H0.5Z" fill="black"/>
<path d="M19.9132 20.9035C20.0592 20.2878 20.2051 19.6722 20.3508 19.0568C20.6184 17.9246 20.8862 16.7923 21.1541 15.6601C21.268 15.1817 21.3336 15.1337 21.8168 15.1327C22.0029 15.1327 22.1889 15.1281 22.3749 15.1365C22.6773 15.1495 22.7666 15.2261 22.8373 15.5238C23.1204 16.7158 23.4028 17.9081 23.6847 19.1007C23.8239 19.689 23.9634 20.2775 24.1033 20.8662C24.1172 20.9245 24.14 20.981 24.1781 21.0996C24.3367 20.4877 24.48 19.9365 24.6223 19.3849C24.942 18.1459 25.2615 16.907 25.5809 15.668C25.7032 15.1967 25.7553 15.1607 26.2343 15.1607H26.7222C27.0432 15.1607 27.0906 15.2177 26.9976 15.5378C26.8613 16.0045 26.7125 16.4712 26.5674 16.9379C26.0235 18.6775 25.4815 20.4169 24.9414 22.1562C24.873 22.3769 24.7395 22.5011 24.5088 22.5053C24.2456 22.5099 23.9819 22.5155 23.7182 22.5053C23.4391 22.4941 23.3419 22.3951 23.2749 22.1207C22.8588 20.4023 22.4416 18.684 22.0233 16.9659C22.0186 16.9437 22.0092 16.9227 21.9959 16.9044C21.9825 16.886 21.9654 16.8708 21.9457 16.8595C21.8615 17.1998 21.7754 17.5391 21.6945 17.8798C21.3661 19.2603 21.0386 20.6411 20.7117 22.0222C20.6108 22.4465 20.528 22.509 20.0871 22.5099C19.9164 22.5099 19.7462 22.5099 19.5755 22.5099C19.2034 22.5071 19.1207 22.4521 19.0109 22.0899C18.803 21.4076 18.6011 20.7234 18.3974 20.0401C17.959 18.5688 17.5206 17.0976 17.0821 15.6265C17.0603 15.5518 17.0356 15.4781 17.0193 15.4025C16.9817 15.2307 17.0379 15.1309 17.2277 15.1327C17.4835 15.1327 17.7393 15.1285 17.9946 15.1327C18.3202 15.1397 18.3928 15.1864 18.4844 15.5136C18.6156 15.984 18.7295 16.4596 18.8486 16.9333C19.1639 18.1893 19.4791 19.4454 19.7941 20.7015C19.8104 20.7677 19.8355 20.8317 19.8564 20.897L19.9132 20.9035Z" fill="black"/>
<path d="M21.6087 29.8216C17.4694 29.782 13.7327 28.5447 10.4329 26.0189C10.0826 25.7506 9.75149 25.4561 9.41662 25.1681C9.3115 25.0785 9.18406 24.9688 9.29708 24.8158C9.4101 24.6627 9.55103 24.7691 9.66916 24.8372C11.6342 25.9904 13.7318 26.8123 15.9382 27.3574C17.0791 27.6403 18.2321 27.8708 19.4065 27.945C20.5167 28.0136 21.632 28.1079 22.7408 28.0687C25.5907 27.9737 28.4003 27.3644 31.0349 26.27C31.1608 26.2104 31.2923 26.1634 31.4275 26.13C31.5958 26.0978 31.7642 26.13 31.8354 26.3139C31.9028 26.488 31.8354 26.6368 31.6856 26.739C31.3196 26.9864 30.9614 27.2478 30.5805 27.4694C28.7666 28.5261 26.809 29.179 24.7482 29.5365C23.7121 29.7244 22.6616 29.8199 21.6087 29.8216Z" fill="black"/>
<path d="M30.031 22.7608C29.4645 22.6478 28.8971 22.541 28.3334 22.4178C28.1939 22.3874 28.0627 22.3067 27.9297 22.2451C27.6506 22.1172 27.5413 21.9025 27.5492 21.5917C27.5632 21.005 27.6195 20.957 28.1618 21.1861C29.0171 21.5478 29.8971 21.6995 30.8128 21.4876C31.2137 21.3943 31.5444 21.1856 31.65 20.7409C31.7463 20.3395 31.6291 20.003 31.2695 19.8051C30.9885 19.6596 30.6963 19.5369 30.3956 19.4383C29.9659 19.2857 29.5222 19.1723 29.0971 19.0085C28.0473 18.6052 27.5311 17.6966 27.7362 16.6311C27.8446 16.071 28.2013 15.672 28.6636 15.3747C29.3306 14.9444 30.0784 14.845 30.8496 14.9449C31.2545 15.0036 31.6549 15.09 32.0481 15.2034C32.5849 15.35 32.7741 15.6953 32.6472 16.2302C32.5969 16.4416 32.4574 16.4169 32.3039 16.3632C31.9826 16.254 31.6663 16.1196 31.337 16.0482C30.8114 15.9348 30.277 15.9189 29.7519 16.0724C29.3645 16.1854 29.0943 16.4103 29.0515 16.843C29.012 17.2429 29.1687 17.5687 29.5966 17.7507C30.1496 17.9864 30.7291 18.1595 31.2956 18.3649C31.5202 18.4466 31.7458 18.5296 31.9621 18.6314C33.4127 19.3132 33.2913 21.3271 32.1756 22.0967C31.53 22.5414 30.8119 22.6992 30.0445 22.6917C30.0408 22.7178 30.0366 22.7393 30.031 22.7608Z" fill="black"/>
<path d="M10.9016 58.6629C10.9263 59.2943 10.9668 59.9183 11.1644 60.525C11.5588 61.7338 12.4165 62.368 13.6397 62.5463C14.5015 62.6723 15.3508 62.5878 16.1898 62.3629C16.3149 62.3293 16.4889 62.2094 16.5619 62.4287C16.6549 62.7134 16.5596 62.9626 16.348 63.0303C15.519 63.292 14.6467 63.3872 13.7811 63.3103C13.049 63.251 12.349 63.0648 11.7346 62.6331C10.8868 62.0362 10.4426 61.1863 10.2584 60.1909C10.0259 58.9378 10.0161 57.6856 10.4445 56.4693C10.9616 55.01 12.0332 54.2217 13.5425 54.0131C14.4257 53.8838 15.3265 53.9484 16.1824 54.2026C16.3996 54.2679 16.5545 54.6963 16.4042 54.8648C16.3577 54.9147 16.2345 54.9115 16.1508 54.9021C15.6466 54.8331 15.1466 54.7201 14.641 54.6861C13.9643 54.6394 13.2969 54.7355 12.6713 55.0226C11.6128 55.5084 11.1542 56.4119 10.9928 57.5059C10.9388 57.8863 10.9314 58.2764 10.9016 58.6629Z" fill="black"/>
<path d="M57.592 57.3036C57.9017 57.1324 58.1706 56.9653 58.4538 56.8295C59.2529 56.4468 60.0877 56.2554 60.9732 56.4379C61.703 56.5882 62.1825 57.1268 62.2639 57.8669C62.2916 58.1138 62.3065 58.362 62.3085 58.6104C62.3123 60.0245 62.3123 61.4386 62.3085 62.8528C62.3085 62.9582 62.262 63.1473 62.2155 63.1543C62.0268 63.1772 61.8356 63.1703 61.649 63.1337C61.6169 63.1281 61.5951 62.9699 61.5951 62.8822C61.5914 61.5455 61.5951 60.2093 61.5904 58.8727C61.5894 58.6399 61.5748 58.4074 61.5467 58.1764C61.4621 57.466 61.0742 57.0745 60.3677 57.0343C59.3989 56.9793 58.5236 57.2854 57.7236 57.817C57.6566 57.8637 57.6231 58 57.6227 58.097C57.6166 59.6666 57.6204 61.2361 57.6143 62.8056C57.6143 62.9274 57.5776 63.1379 57.5171 63.1543C57.3455 63.2009 57.1529 63.171 56.9687 63.1598C56.9427 63.1598 56.9092 63.0931 56.899 63.0525C56.8896 62.9989 56.8869 62.9443 56.8911 62.8901C56.8911 60.8854 56.8911 58.8808 56.8911 56.8761C56.8911 56.7277 56.8655 56.5779 57.0976 56.5704C57.4697 56.5588 57.5101 56.5704 57.5497 56.836C57.5645 56.9769 57.5738 57.1226 57.592 57.3036Z" fill="black"/>
<path d="M34.63 70.9188C34.7611 70.838 34.8625 70.7736 34.9667 70.7111C35.735 70.2444 36.5592 69.9583 37.4671 69.969C38.3749 69.9798 39.014 70.4035 39.2247 71.1699C39.3001 71.4546 39.3383 71.748 39.3382 72.0426C39.3493 73.5113 39.3461 74.9796 39.3382 76.4483C39.3382 76.558 39.2833 76.7489 39.2247 76.761C39.0455 76.7912 38.862 76.7852 38.6852 76.7433C38.6456 76.7353 38.6182 76.5692 38.6182 76.4754C38.614 75.0846 38.6182 73.6938 38.6112 72.303C38.608 72.0551 38.5795 71.8082 38.5261 71.5661C38.4028 70.9911 37.9931 70.67 37.4038 70.6411C36.4401 70.5944 35.5774 70.888 34.7695 71.3911C34.63 71.4788 34.63 71.5955 34.63 71.7295C34.63 73.2851 34.63 74.8391 34.63 76.3914C34.63 76.7647 34.3709 76.9351 34.0277 76.7797C33.9762 76.7492 33.9384 76.7001 33.9221 76.6425C33.906 76.5666 33.9002 76.4889 33.9049 76.4114C33.9049 74.4612 33.9049 72.511 33.9049 70.5608C33.9049 70.1949 34.0872 70.0633 34.4318 70.1945C34.4914 70.2173 34.5439 70.313 34.5597 70.3839C34.5941 70.5464 34.6044 70.7148 34.63 70.9188Z" fill="black"/>
<path d="M43.1072 62.4753C42.9779 62.5565 42.8812 62.6153 42.7858 62.6769C42.0082 63.1768 41.1663 63.4237 40.2352 63.3709C39.2925 63.3154 38.5981 62.6709 38.5827 61.7244C38.5557 60.0778 38.5725 58.4309 38.5678 56.7838C38.5678 56.6382 38.6195 56.5771 38.7697 56.5682C39.2743 56.5398 39.2776 56.5384 39.2776 57.0429C39.2776 58.3403 39.2748 59.6382 39.2776 60.9357C39.2753 61.1759 39.2947 61.4158 39.3357 61.6525C39.4753 62.3862 39.8762 62.7161 40.6236 62.7259C41.5003 62.7385 42.2751 62.4347 42.9798 61.9363C43.0467 61.8896 43.0816 61.7533 43.0816 61.6562C43.0881 60.0872 43.0863 58.5177 43.0863 56.9481C43.086 56.8722 43.1062 56.7976 43.1447 56.7323C43.1833 56.667 43.2388 56.6134 43.3053 56.5772C43.3718 56.541 43.4469 56.5235 43.5225 56.5267C43.5981 56.5299 43.6714 56.5536 43.7346 56.5953C43.7904 56.6312 43.81 56.7563 43.8104 56.8403C43.8165 57.532 43.8142 58.2232 43.8142 58.9148C43.8142 60.2356 43.8142 61.5564 43.8142 62.8771C43.8142 63.0097 43.8556 63.1656 43.6323 63.1805C43.2537 63.2062 43.2053 63.187 43.1612 62.9108C43.1416 62.7838 43.1291 62.6531 43.1072 62.4753Z" fill="black"/>
<path d="M26.3032 57.3098C26.3962 57.257 26.4651 57.2164 26.5358 57.1744C27.3729 56.6485 28.2655 56.312 29.2729 56.381C30.3821 56.459 30.9821 57.0662 30.9984 58.1937C31.0212 59.7712 31.003 61.3491 31.0068 62.927C31.0068 63.1165 30.9351 63.1847 30.744 63.1833C30.297 63.1795 30.2965 63.1875 30.2965 62.7455C30.2965 61.4168 30.3003 60.0876 30.2938 58.7584C30.294 58.5179 30.2703 58.2779 30.2231 58.042C30.0835 57.3887 29.758 57.0816 29.0966 57.0349C28.1096 56.9653 27.2208 57.2832 26.4092 57.826C26.339 57.8726 26.3162 58.0285 26.3162 58.1335C26.3102 59.5803 26.312 61.0248 26.312 62.4706V62.7506C26.312 63.1632 26.1186 63.3027 25.7144 63.1707C25.6637 63.1539 25.6158 63.0773 25.5986 63.0218C25.5837 62.9449 25.5798 62.8664 25.5869 62.7884C25.5869 60.8451 25.5869 58.902 25.5869 56.9593C25.5869 56.5859 25.7469 56.4627 26.1069 56.5827C26.1665 56.6027 26.2241 56.6984 26.239 56.7693C26.2702 56.9345 26.2795 57.1058 26.3032 57.3098Z" fill="black"/>
<path d="M34.6826 63.3748C34.0707 63.375 33.4636 63.2674 32.8887 63.057C32.6483 62.9715 32.5632 62.8283 32.579 62.5846C32.592 62.4003 32.652 62.3406 32.8441 62.3891C33.3148 62.5076 33.7868 62.6313 34.2654 62.706C34.7333 62.7793 35.2087 62.7643 35.6607 62.594C36.0672 62.4414 36.3295 62.1595 36.4128 61.7222C36.4937 61.2979 36.3844 60.9353 36.0082 60.7155C35.69 60.5288 35.3431 60.3888 35.0017 60.2488C34.6091 60.085 34.2013 59.9576 33.8148 59.7821C32.9204 59.3775 32.5353 58.6223 32.7669 57.723C32.9529 56.9963 33.4883 56.6132 34.1743 56.4531C34.9956 56.2613 35.8021 56.3863 36.5872 56.6785C36.7709 56.7471 36.8746 57.0925 36.7449 57.2325C36.6956 57.2852 36.5616 57.2936 36.4779 57.2736C35.8975 57.1359 35.3198 56.9842 34.7166 57.0243C34.5241 57.0358 34.3334 57.0679 34.1478 57.12C33.6985 57.2511 33.4501 57.5657 33.4064 58.0301C33.3641 58.4823 33.5227 58.8538 33.9454 59.0466C34.5003 59.2995 35.0724 59.5133 35.6347 59.7522C35.8672 59.8512 36.103 59.9543 36.3281 60.0728C37.4286 60.6525 37.2816 62.1884 36.584 62.7844C36.0337 63.2576 35.3831 63.3869 34.6826 63.3748Z" fill="black"/>
<path d="M50.3765 57.2065C50.3718 57.319 50.3648 57.4025 50.3648 57.4865C50.3648 58.8309 50.3648 60.1755 50.3648 61.5203V61.5898C50.3737 62.3337 50.656 62.6231 51.3987 62.6123C51.6746 62.6081 51.9494 62.5447 52.2257 62.519C52.3373 62.5078 52.481 62.4257 52.542 62.6025C52.6071 62.7916 52.5392 63.0529 52.3964 63.094C51.7169 63.2877 51.0271 63.402 50.3588 63.0767C49.8007 62.8046 49.6523 62.2768 49.6477 61.7093C49.636 60.3091 49.6439 58.9118 49.6439 57.5126V57.2088C49.3137 57.2088 49.0067 57.2028 48.6998 57.2112C48.5137 57.2158 48.4063 57.1579 48.4072 56.9498C48.4072 56.7594 48.4751 56.6698 48.6793 56.6651C48.9337 56.659 49.1872 56.6054 49.4416 56.5984C49.6518 56.5923 49.6863 56.492 49.6918 56.3067C49.7063 55.8339 49.756 55.3616 49.7677 54.8884C49.7742 54.6205 49.9407 54.6475 50.1141 54.641C50.3034 54.6345 50.3727 54.7115 50.3681 54.9042C50.3574 55.3784 50.3732 55.8526 50.3607 56.3263C50.3555 56.5246 50.4253 56.5788 50.6141 56.5755C51.1406 56.5652 51.6676 56.582 52.1955 56.5676C52.4327 56.5606 52.4885 56.6665 52.4843 56.8733C52.4778 57.1612 52.448 57.2074 52.1997 57.2084C51.6811 57.2084 51.162 57.2084 50.643 57.2084L50.3765 57.2065Z" fill="black"/>
<path d="M29.5973 73.2773C29.5973 72.539 29.5922 71.8002 29.601 71.0619C29.601 70.8728 29.5508 70.7944 29.3541 70.8047C29.1066 70.8178 28.8583 70.8098 28.6099 70.8047C28.4732 70.8019 28.3453 70.787 28.3462 70.5924C28.3462 70.4234 28.3462 70.2834 28.5755 70.2727C28.8457 70.2605 29.1141 70.2115 29.3843 70.2022C29.5494 70.1966 29.6169 70.1448 29.6257 69.9754C29.6434 69.5021 29.6755 69.0294 29.6973 68.5557C29.7103 68.27 29.9578 68.116 30.2057 68.2621C30.2647 68.2971 30.2987 68.4175 30.2987 68.4992C30.308 68.9734 30.3108 69.448 30.2987 69.9217C30.2945 70.1117 30.3508 70.1807 30.5471 70.1765C31.0735 70.1649 31.6005 70.1765 32.1284 70.1705C32.327 70.1705 32.4302 70.2227 32.4223 70.4477C32.4107 70.7641 32.4005 70.8014 32.1368 70.8047C31.5945 70.8109 31.0518 70.8109 30.5089 70.8047C30.3652 70.8047 30.3001 70.8453 30.301 71.0021C30.3112 72.4713 30.3066 73.94 30.3266 75.4092C30.3336 75.9226 30.6219 76.1975 31.1354 76.2059C31.4652 76.2115 31.7954 76.1475 32.1261 76.1289C32.24 76.1223 32.3995 76.0071 32.4633 76.2035C32.5465 76.4598 32.4563 76.6703 32.2442 76.73C31.759 76.871 31.2492 76.906 30.7494 76.8327C30.0661 76.7342 29.621 76.2222 29.6029 75.5147C29.5843 74.768 29.5987 74.0212 29.5987 73.2745L29.5973 73.2773Z" fill="black"/>
<path d="M46.643 57.9348C46.643 59.3038 46.643 60.6717 46.643 62.0386C46.643 62.4647 46.7992 62.6108 47.2271 62.5907C47.2578 62.5907 47.289 62.5841 47.3202 62.5846C47.455 62.5846 47.6313 62.4978 47.6671 62.7307C47.7183 63.0625 47.6709 63.1624 47.3834 63.1881C47.1238 63.2168 46.8615 63.208 46.6044 63.1619C46.2295 63.0849 45.9635 62.72 45.9244 62.3088C45.9156 62.2155 45.916 62.1221 45.916 62.0288C45.916 59.2777 45.9171 56.5262 45.9193 53.7742C45.9193 53.6692 45.9597 53.4801 46.0035 53.4736C46.1923 53.4473 46.3842 53.4523 46.5714 53.4885C46.6104 53.496 46.6397 53.6654 46.6402 53.7602C46.6439 55.1519 46.6425 56.5431 46.643 57.9348Z" fill="black"/>
<path d="M32.3409 24.2256C32.7222 24.2802 33.1078 24.3133 33.4831 24.3941C34.0143 24.5084 34.1287 24.6638 34.0761 25.2117C33.9701 26.3146 33.6255 27.3348 32.9418 28.2187C32.7908 28.4063 32.6216 28.5783 32.4367 28.7321C32.3743 28.7862 32.259 28.7788 32.1674 28.7984C32.1674 28.7111 32.1502 28.6173 32.1753 28.5375C32.4078 27.7991 32.6553 27.0641 32.8869 26.3253C32.9284 26.1757 32.95 26.0213 32.9511 25.8661C32.966 25.4731 32.7427 25.2215 32.2716 25.2127C31.5739 25.1987 30.8702 25.2421 30.1698 25.2677C30.0163 25.2733 29.8642 25.3177 29.7112 25.3223C29.6382 25.3223 29.5642 25.2757 29.4907 25.25C29.5223 25.1763 29.5335 25.068 29.5889 25.0358C29.8679 24.8724 30.1502 24.7035 30.4498 24.5845C31.0539 24.3437 31.6893 24.2648 32.3409 24.2256Z" fill="black"/>
<path d="M48.9262 71.1147C49.1085 70.95 49.2518 70.8123 49.4053 70.683C49.9504 70.22 50.588 70.0628 51.2875 70.1286C51.5312 70.1514 51.5377 70.1897 51.5303 70.5733C51.5261 70.7838 51.4024 70.7932 51.2512 70.7833C50.5401 70.7367 49.8843 70.8678 49.3215 71.3471C49.0536 71.5758 48.9113 71.8138 48.9188 72.197C48.9457 73.6186 48.9299 75.0411 48.9295 76.4636C48.9295 76.7819 48.9118 76.7973 48.5802 76.7978C48.236 76.7978 48.202 76.7688 48.202 76.4599C48.202 74.4705 48.2013 72.4809 48.1997 70.4912C48.1997 70.3068 48.2193 70.1724 48.4541 70.1706C48.7843 70.1673 48.8443 70.1972 48.8699 70.4608C48.8913 70.6657 48.9057 70.8716 48.9262 71.1147Z" fill="black"/>
<path d="M25.3575 71.0844C25.497 70.9574 25.6263 70.837 25.7589 70.7199C26.2946 70.2466 26.9267 70.0702 27.6281 70.1234C27.9281 70.1458 27.9243 70.1673 27.922 70.5668C27.922 70.8188 27.7597 70.7745 27.6072 70.7857C27.2695 70.8099 26.9258 70.8127 26.5965 70.8818C26.1193 70.9821 25.744 71.2799 25.43 71.6435C25.3598 71.7247 25.337 71.8698 25.337 71.9856C25.331 73.4622 25.3328 74.9389 25.3324 76.4151C25.3324 76.759 25.0068 76.9504 24.711 76.7646C24.6477 76.724 24.6133 76.5943 24.6119 76.5047C24.6036 75.9143 24.6073 75.3234 24.6073 74.7312C24.6073 73.3311 24.6073 71.9322 24.6073 70.5346C24.6073 70.1981 24.8231 70.0529 25.1328 70.1967C25.1956 70.2261 25.2421 70.3367 25.2556 70.417C25.29 70.6232 25.3021 70.8328 25.3226 71.041C25.3226 71.0484 25.3333 71.0535 25.3575 71.0844Z" fill="black"/>
<path d="M27.1571 49.5563H26.3129C26.3073 49.4677 26.298 49.386 26.2976 49.3043C26.2976 48.7443 26.2999 48.1842 26.2952 47.6242C26.2952 47.3908 26.2952 47.1374 26.0208 47.0399C25.7176 46.9335 25.439 47.0399 25.1879 47.2055C25.1386 47.2377 25.132 47.3591 25.1316 47.4389C25.1269 48.0531 25.1316 48.6668 25.1288 49.281V49.547H24.2753C24.2697 49.4812 24.259 49.4145 24.259 49.3482C24.259 48.4544 24.2632 47.5602 24.2544 46.6665C24.2544 46.484 24.3056 46.4051 24.4869 46.4266C24.5255 46.4299 24.5642 46.4299 24.6028 46.4266C24.8251 46.4149 25.0539 46.3911 25.0465 46.7626L25.299 46.6072C25.6359 46.3944 26.035 46.303 26.4306 46.3482C26.8464 46.3949 27.1282 46.6231 27.1454 47.0422C27.1794 47.8734 27.1571 48.7041 27.1571 49.5563Z" fill="black"/>
<path d="M54.7416 59.8888C54.7416 60.8757 54.7416 61.863 54.7416 62.8505C54.7416 63.1772 54.7379 63.1795 54.4216 63.1805C54.0142 63.1805 54.0142 63.1805 54.0142 62.7665C54.0142 60.8225 54.0154 58.879 54.0179 56.936C54.0179 56.8212 54.0546 56.6181 54.1058 56.6093C54.2939 56.5769 54.4861 56.5769 54.6741 56.6093C54.7076 56.6139 54.7388 56.7703 54.7393 56.8566C54.743 57.8675 54.7416 58.8779 54.7416 59.8888Z" fill="black"/>
<path d="M20.361 46.4295C20.3308 46.5289 20.3145 46.5942 20.2908 46.6568C19.9513 47.5631 19.6076 48.4676 19.2736 49.3763C19.2234 49.5135 19.1606 49.5681 19.0108 49.569C18.3527 49.5746 18.3523 49.5798 18.1132 48.9516C17.8267 48.1986 17.5408 47.4458 17.2555 46.6932C17.229 46.6227 17.209 46.5504 17.1709 46.4346C17.4727 46.4346 17.7402 46.4248 18.0081 46.443C18.0592 46.4463 18.1257 46.5518 18.1476 46.6213C18.3253 47.2229 18.4932 47.8268 18.6657 48.4298C18.69 48.5327 18.7378 48.6286 18.8053 48.7098C18.9333 48.277 19.0609 47.8444 19.188 47.4119C19.2643 47.152 19.3485 46.8939 19.4117 46.6306C19.4471 46.4832 19.5145 46.4225 19.6657 46.4281C19.8861 46.437 20.1085 46.4295 20.361 46.4295Z" fill="black"/>
<path d="M50.9037 26.2165C51.0529 25.6875 51.2022 25.1595 51.3516 24.6325C51.44 24.3193 51.5377 24.0071 51.6125 23.6911C51.6544 23.5184 51.7163 23.4256 51.9195 23.4288C52.1153 23.4321 52.1851 23.5105 52.2325 23.6874C52.4432 24.4743 52.6674 25.2569 52.8874 26.041C52.9041 26.1003 52.9255 26.1586 52.9641 26.2743C53.013 26.1465 53.0469 26.0671 53.0739 25.985C53.3288 25.2032 53.5897 24.4239 53.8315 23.6384C53.9064 23.3962 54.0399 23.3668 54.2715 23.4386C54.2483 23.518 54.2315 23.5903 54.2069 23.6603C53.8743 24.6035 53.5353 25.5449 53.2134 26.4918C53.1502 26.6785 53.0543 26.7149 52.8762 26.7191C52.6758 26.7242 52.6534 26.5968 52.6158 26.461L51.8907 23.8722C51.8502 23.9842 51.8251 24.0416 51.8083 24.1014C51.5828 24.8999 51.3465 25.6956 51.1419 26.4993C51.0842 26.728 50.934 26.735 50.7865 26.7214C50.7107 26.714 50.6121 26.595 50.5819 26.5063C50.261 25.5757 49.9512 24.6395 49.6396 23.7061C49.6154 23.6342 49.5991 23.5595 49.5796 23.4872C49.8931 23.3766 49.9484 23.4041 50.0447 23.6986C50.3126 24.5387 50.5811 25.3798 50.8502 26.2221L50.9037 26.2165Z" fill="black"/>
<path d="M30.3031 48.8877C30.3031 49.0543 30.3184 49.2023 30.2961 49.3446C30.2863 49.3827 30.2682 49.4182 30.2431 49.4484C30.218 49.4787 30.1866 49.503 30.151 49.5196C29.6371 49.7063 29.118 49.7198 28.6162 49.4804C28.1045 49.2345 27.9292 48.7626 27.8929 48.2376C27.8742 47.9746 27.8949 47.7103 27.9543 47.4535C28.145 46.6578 28.8961 46.221 29.7538 46.3801C29.7612 46.3801 29.7687 46.3839 29.7761 46.3857C30.3584 46.5215 30.3128 46.4791 30.2631 47.0993C29.7803 47.0694 29.2194 46.8291 28.9045 47.3961C28.6789 47.8017 28.6682 48.2931 28.9468 48.6828C29.2864 49.1561 29.798 48.9563 30.3031 48.8877Z" fill="black"/>
<path d="M61.2657 24.8897C61.3801 24.7889 61.4587 24.7203 61.5363 24.6512C61.9289 24.2987 62.3213 23.9464 62.7135 23.5942C62.9121 23.4149 63.0089 23.3935 63.3554 23.4905L61.648 25.0078L63.4786 26.7104C63.206 26.779 63.0181 26.7776 62.8382 26.6025C62.3703 26.1494 61.8908 25.7083 61.4154 25.2631C61.3777 25.2281 61.3359 25.1968 61.2517 25.1268V25.6948C61.2517 25.9823 61.2475 26.2698 61.2517 26.5573C61.2545 26.6898 61.2205 26.757 61.0708 26.757C60.921 26.757 60.8633 26.7104 60.8643 26.5559C60.8689 25.8255 60.8643 25.0946 60.8643 24.3624V21.9028C61.227 21.8095 61.2484 21.8244 61.2484 22.1632C61.2484 22.9722 61.2484 23.7812 61.2484 24.5901C61.2522 24.6718 61.2591 24.7539 61.2657 24.8897Z" fill="black"/>
<path d="M52.7375 16.4376C53.1779 16.173 53.6119 15.9802 54.11 15.9844C54.7146 15.9896 55.03 16.2607 55.0481 16.8651C55.0718 17.6497 55.0523 18.4351 55.0565 19.2201C55.0565 19.39 54.9602 19.4007 54.8304 19.4035C54.6839 19.4068 54.649 19.3363 54.65 19.2028C54.6542 18.5579 54.65 17.9124 54.65 17.2674C54.65 17.1979 54.6528 17.1274 54.65 17.0579C54.6179 16.5445 54.3844 16.3279 53.8723 16.3578C53.7105 16.3684 53.5503 16.3968 53.3947 16.4427C52.7505 16.6294 52.6938 16.7088 52.6938 17.364C52.6938 17.9863 52.6938 18.6086 52.6938 19.2308C52.6938 19.3438 52.7049 19.4539 52.5366 19.4493C52.385 19.4451 52.3398 19.3699 52.3403 19.2266C52.344 18.2634 52.3403 17.2996 52.3436 16.3359C52.3436 16.2281 52.3026 16.0974 52.4924 16.081C52.6915 16.0642 52.7045 16.1795 52.7035 16.3237C52.7107 16.3628 52.722 16.401 52.7375 16.4376Z" fill="black"/>
<path d="M40.8112 23.7208C41.2229 23.5873 41.608 23.4244 42.0093 23.3409C42.5521 23.2284 42.9907 23.4851 43.1019 23.9242C43.134 24.0523 43.1507 24.1838 43.1516 24.3158C43.1563 25.0541 43.1516 25.7925 43.1549 26.5308C43.1549 26.6624 43.1358 26.7562 42.9688 26.7576C42.8144 26.7576 42.7461 26.7175 42.7479 26.5476C42.7554 25.9026 42.7512 25.2572 42.7507 24.6122C42.7507 23.788 42.46 23.5537 41.6484 23.7217C41.5803 23.735 41.5129 23.7518 41.4466 23.7721C40.8419 23.963 40.7954 24.0302 40.7954 24.6588C40.7954 25.2811 40.7954 25.9034 40.7954 26.5257C40.7954 26.64 40.8233 26.773 40.6378 26.7693C40.475 26.766 40.4327 26.6759 40.4336 26.5257C40.4368 25.5773 40.4336 24.6294 40.4336 23.6788C40.4336 23.5625 40.4159 23.4426 40.5954 23.4309C40.775 23.4193 40.8075 23.5107 40.801 23.6568C40.8001 23.6786 40.8036 23.7004 40.8112 23.7208Z" fill="black"/>
<path d="M47.8168 23.7588C47.6386 23.7588 47.4977 23.7728 47.3624 23.7523C47.2986 23.7429 47.2451 23.6659 47.187 23.6197C47.2356 23.5715 47.2875 23.5267 47.3424 23.4858C47.3782 23.4713 47.4167 23.4647 47.4554 23.4662C47.8544 23.4167 47.853 23.4167 47.8693 22.9995C47.8744 22.8679 47.8693 22.7316 47.9056 22.607C47.9215 22.5715 47.9457 22.5402 47.976 22.5159C48.0063 22.4915 48.042 22.4748 48.08 22.467C48.1191 22.4618 48.2102 22.5645 48.2135 22.6224C48.2284 22.8767 48.22 23.133 48.22 23.4335C48.5181 23.4335 48.8009 23.4251 49.0818 23.4401C49.1207 23.4473 49.1572 23.4638 49.1884 23.4882C49.2195 23.5126 49.2444 23.5441 49.2609 23.5801C49.3004 23.7028 49.2456 23.7812 49.093 23.7761C48.8139 23.7672 48.5381 23.7761 48.2749 23.7761C48.2512 23.8064 48.234 23.8181 48.234 23.8298C48.2312 24.5905 48.2228 25.3512 48.2312 26.1115C48.234 26.3518 48.3707 26.461 48.6256 26.4788C48.726 26.4852 48.8267 26.484 48.927 26.475C49.0256 26.4666 49.1232 26.4452 49.2186 26.4284C49.3069 26.6902 49.2883 26.7331 49.0502 26.7658C48.8897 26.7893 48.7277 26.8002 48.5656 26.7985C48.1191 26.7896 47.8261 26.4993 47.8214 26.0475C47.8126 25.3797 47.8186 24.7118 47.8182 24.0435L47.8168 23.7588Z" fill="black"/>
<path d="M51.602 19.113C51.6741 19.351 51.6089 19.4504 51.3815 19.4369C51.2508 19.429 51.1187 19.4481 50.9876 19.4472C50.4588 19.4434 50.1857 19.1802 50.1788 18.6468C50.1699 18.0102 50.1788 17.3736 50.176 16.737V16.4355C50.0209 16.4423 49.8657 16.4405 49.7109 16.4299C49.6546 16.4229 49.6053 16.3534 49.5527 16.3123C49.5992 16.2656 49.6369 16.1858 49.6923 16.1723C49.849 16.1368 50.0113 16.1256 50.1974 16.1042C50.2132 15.8549 50.2271 15.6099 50.2439 15.3644C50.2518 15.2468 50.2513 15.125 50.4299 15.1311C50.6085 15.1371 50.5694 15.2618 50.5732 15.3644C50.5764 15.5511 50.5806 15.7378 50.5732 15.9245C50.5671 16.0687 50.6257 16.1163 50.7643 16.1112C50.9806 16.1037 51.1973 16.1112 51.4155 16.1112C51.5424 16.1112 51.641 16.1186 51.6378 16.2936C51.635 16.4575 51.5406 16.4621 51.4248 16.4617C51.2006 16.4617 50.9759 16.4668 50.7518 16.4617C50.622 16.4579 50.5746 16.5083 50.575 16.6385C50.5792 17.3139 50.5708 17.9896 50.5797 18.665C50.5843 19.0383 50.7192 19.1634 51.0959 19.1592C51.2587 19.1578 51.4252 19.1298 51.602 19.113Z" fill="black"/>
<path d="M58.9902 23.8914C59.2883 23.5876 59.6097 23.4284 60.0027 23.4345C60.2938 23.4392 60.2994 23.4392 60.2506 23.7612C60.1699 23.7606 60.0893 23.7653 60.0092 23.7752C59.8059 23.813 59.5906 23.8312 59.4046 23.9096C59.1018 24.0361 58.9283 24.2438 58.9502 24.6251C58.9864 25.2603 58.9599 25.8987 58.9599 26.5358C58.9599 26.6543 58.9767 26.7789 58.7925 26.7691C58.6376 26.7612 58.6064 26.6758 58.6064 26.5358C58.6102 25.5712 58.6102 24.608 58.6064 23.6459C58.6064 23.5279 58.6064 23.434 58.7692 23.4298C58.932 23.4256 58.9702 23.5041 58.9688 23.6417C58.9692 23.7117 58.9804 23.7785 58.9902 23.8914Z" fill="black"/>
<path d="M59.8693 16.5447C60.179 16.2049 60.5395 16.0644 60.9641 16.0812C61.079 16.0859 61.1548 16.1013 61.1571 16.245C61.1594 16.3888 61.1059 16.4443 60.9669 16.4359C60.5892 16.4144 60.239 16.4928 59.9693 16.7761C59.8882 16.862 59.8389 16.9732 59.8297 17.0912C59.8172 17.7814 59.8246 18.4717 59.8223 19.1624C59.8223 19.288 59.86 19.4373 59.6423 19.4331C59.4386 19.4294 59.4758 19.2879 59.4753 19.1713C59.4728 18.2326 59.4728 17.2939 59.4753 16.3552C59.4753 16.2446 59.4246 16.0989 59.6283 16.0798C59.84 16.0607 59.8176 16.2082 59.8381 16.3323C59.8493 16.3902 59.8558 16.4485 59.8693 16.5447Z" fill="black"/>
<path d="M47.9645 16.5512C48.2817 16.1932 48.6472 16.0662 49.0714 16.0812C49.197 16.0854 49.2547 16.1279 49.2547 16.2576C49.2547 16.3873 49.1993 16.4443 49.0733 16.4359C48.7054 16.4167 48.3705 16.4928 48.0835 16.7462C47.9635 16.8522 47.9049 16.9581 47.9068 17.1229C47.9156 17.8057 47.9124 18.4889 47.9068 19.1717C47.9068 19.2832 47.9617 19.4317 47.7486 19.4335C47.5505 19.4335 47.5714 19.3057 47.5714 19.182C47.5714 18.2274 47.5714 17.2728 47.5714 16.3183C47.5714 16.2016 47.5561 16.0849 47.7389 16.0793C47.9217 16.0737 47.917 16.1797 47.9249 16.301C47.931 16.3696 47.9468 16.4373 47.9645 16.5512Z" fill="black"/>
<path d="M54.9384 54.5327C54.9416 54.8907 54.7342 55.11 54.3914 55.1105C54.0487 55.111 53.824 54.8771 53.8287 54.5383C53.8333 54.1995 54.0515 53.9783 54.3742 53.968C54.7142 53.9596 54.9356 54.1813 54.9384 54.5327Z" fill="black"/>
<path d="M16.5341 21.6733C16.2146 21.1599 16.1937 20.5938 16.196 20.0113C16.2002 19.0256 16.2085 18.0372 16.1495 17.0538C16.0806 15.9244 15.4137 15.2089 14.3016 15.0069C13.913 14.9401 13.5186 14.9121 13.1245 14.9233C12.379 14.9396 11.6477 15.1299 10.9883 15.4792C10.8953 15.5258 10.7883 15.6318 10.7729 15.7242C10.7423 15.9389 10.737 16.1565 10.7571 16.3724C10.7729 16.5927 10.8501 16.6324 11.0692 16.5591C11.2087 16.5124 11.345 16.4588 11.4831 16.4098C12.1906 16.1582 12.9096 15.9897 13.6691 16.1181C14.1026 16.1909 14.5063 16.3262 14.7016 16.7687C14.9291 17.282 14.8672 17.8253 14.8584 18.3825C14.7542 18.3629 14.6788 18.3499 14.604 18.3359C13.9277 18.1931 13.2491 18.1025 12.5543 18.1758C11.2915 18.3088 10.0055 19.147 10.2664 20.9578C10.3855 21.7867 10.8357 22.3803 11.6478 22.5987C12.7705 22.9007 13.7942 22.6702 14.6588 21.8576C14.7384 21.7722 14.8122 21.6817 14.8798 21.5865C15.0742 21.8856 15.2156 22.1362 15.3914 22.3617C15.5807 22.6067 15.7169 22.616 15.9695 22.4503C16.1183 22.3523 16.2606 22.244 16.4109 22.1484C16.5964 22.0275 16.6513 21.8623 16.5341 21.6733ZM13.9175 21.3288C13.4617 21.5365 12.9822 21.6532 12.4757 21.5417C12.0873 21.4567 11.8338 21.2285 11.7217 20.8388C11.4892 20.0281 11.8715 19.3589 12.6887 19.1923C13.3761 19.0523 14.0584 19.1554 14.7305 19.308C14.8039 19.3248 14.8407 19.5036 14.8946 19.6072C14.8691 20.3791 14.6412 20.9989 13.9175 21.3288Z" fill="black"/>
<path d="M69.7503 56.8497C69.7503 56.6784 69.721 56.5697 69.5126 56.5669C69.1661 56.5641 69.1024 56.593 69.074 56.8315C69.0596 56.9561 69.0429 57.0798 69.0215 57.2469C68.4029 56.7022 67.7415 56.4003 66.9662 56.3718C65.8523 56.3317 64.9663 56.7428 64.4654 57.7621C63.8542 59.0031 63.8314 60.2945 64.3798 61.5653C64.7054 62.3237 65.2932 62.8291 66.1127 63.0191C66.7085 63.1591 67.3015 63.1222 67.8629 62.8763C68.2494 62.7073 68.6136 62.487 69.0429 62.2602C69.0196 62.7078 69.0257 63.1423 68.9689 63.567C68.8582 64.3973 68.4675 65.0264 67.6145 65.2766C67.1285 65.4141 66.6185 65.4443 66.1197 65.3652C65.7011 65.3036 65.2946 65.1711 64.8793 65.0852C64.7816 65.0651 64.6179 65.0693 64.5765 65.1277C64.457 65.298 64.5765 65.6023 64.7719 65.6877C65.4802 65.999 66.2267 66.1078 66.9927 66.0578C67.6676 66.0158 68.3071 65.8487 68.8298 65.3816C69.5052 64.7786 69.7289 63.9763 69.7382 63.1176C69.7614 61.0295 69.7475 58.9378 69.7503 56.8497ZM68.8201 61.7324C68.1852 62.1828 67.5113 62.4931 66.7057 62.4152C65.7946 62.3274 65.1779 61.8453 64.9258 60.9605C64.69 60.1418 64.6947 59.2722 64.9393 58.4561C65.2742 57.3127 66.1686 56.9337 67.2183 57.0425C67.8476 57.1078 68.388 57.3846 68.868 57.7817C68.9546 57.8614 69.0077 57.9712 69.0164 58.0888C69.0238 58.3646 69.0252 58.6405 69.0252 58.9163C69.0252 59.1921 69.0252 59.4684 69.0252 59.7442C69.0252 60.0088 69.0252 60.273 69.0224 60.5376C69.0196 60.8022 69.0224 61.0664 69.0298 61.331C69.0345 61.5172 68.968 61.6292 68.8224 61.7324H68.8201Z" fill="black"/>
<path d="M16.2053 69.9837C16.0658 68.6195 15.1156 67.7117 13.7463 67.6753C12.7324 67.6487 11.7176 67.6585 10.7027 67.6553C10.3925 67.6553 10.3618 67.6903 10.3618 68.0062C10.3618 69.4064 10.3618 70.8055 10.3618 72.2038C10.3618 73.6257 10.3618 75.048 10.3618 76.4709C10.3618 76.7668 10.3986 76.7976 10.7278 76.7976C11.0729 76.7976 11.0888 76.7854 11.0892 76.4751C11.0892 75.4338 11.0953 74.3922 11.0846 73.3481C11.0822 73.1293 11.1311 73.0532 11.3636 73.0579C12.1078 73.0731 12.852 73.074 13.5961 73.0607C14.2472 73.0495 14.8542 72.8908 15.357 72.4493C16.1072 71.7931 16.3025 70.9381 16.2053 69.9837ZM15.3877 70.9143C15.2202 71.8537 14.65 72.3517 13.6924 72.3816C12.8873 72.4068 12.0813 72.3849 11.2739 72.3919C11.106 72.3919 11.0878 72.3079 11.0878 72.1734C11.0911 71.5667 11.0878 70.96 11.0878 70.3533C11.0878 69.7545 11.0915 69.1562 11.0855 68.5574C11.0855 68.4039 11.1241 68.3306 11.2916 68.3325C12.1287 68.3432 12.9659 68.3203 13.8003 68.3595C14.7579 68.4062 15.363 69.0386 15.4184 70.0079C15.443 70.3102 15.4327 70.6144 15.3877 70.9143Z" fill="black"/>
<path d="M22.5575 71.8586C22.5472 70.8785 22.1026 70.2769 21.2352 70.0786C20.1706 69.8354 19.1301 69.9909 18.119 70.3731C17.9469 70.4384 17.86 70.6835 17.9451 70.8902C18.0227 71.0769 18.1776 70.9611 18.3046 70.9443C18.3501 70.9352 18.3947 70.9224 18.4381 70.9061C19.0963 70.6997 19.7854 70.6106 20.4743 70.6428C21.1301 70.6751 21.5724 70.9467 21.7301 71.4558C21.9114 72.0388 21.8133 72.6375 21.8324 73.2573C21.7231 73.2354 21.6463 73.2251 21.5756 73.2055C20.891 73.0188 20.1966 72.9297 19.4873 72.9969C18.5251 73.0902 17.5428 73.648 17.4944 74.9571C17.4563 75.9815 18.0553 76.7529 19.0599 76.9023C19.9236 77.0302 20.6957 76.7809 21.4161 76.3236C21.5459 76.241 21.6701 76.1509 21.8226 76.0464C21.8421 76.1509 21.8584 76.219 21.8691 76.2876C21.8794 76.3721 21.8835 76.4575 21.891 76.5429C21.91 76.7641 21.9756 76.7991 22.2877 76.7996C22.4858 76.7996 22.5668 76.7175 22.5668 76.5196C22.5607 74.9669 22.5742 73.4127 22.5575 71.8586ZM21.8342 74.6654C21.8342 74.8287 21.8398 74.9921 21.8342 75.1545C21.8342 75.2089 21.8319 75.2631 21.8273 75.3169C21.8217 75.3972 21.7784 75.5087 21.7166 75.5456C21.0329 75.9512 20.3236 76.2806 19.5004 76.2652C18.8176 76.2526 18.4004 75.9521 18.2818 75.3598C18.133 74.6131 18.4088 74.0199 19.026 73.759C19.5418 73.5411 20.0845 73.5523 20.624 73.5989C20.9533 73.6274 21.2752 73.7152 21.6049 73.7618C21.791 73.7884 21.8463 73.8827 21.8375 74.0605C21.8347 74.1105 21.8328 74.1609 21.8319 74.2113C21.8291 74.3639 21.8342 74.5156 21.8342 74.6654Z" fill="black"/>
<path d="M46.449 71.8482C46.329 70.9148 45.7113 70.2399 44.8002 70.0621C44.3904 69.9887 43.9725 69.973 43.5584 70.0154C42.5612 70.1065 41.8207 70.6263 41.4189 71.5444C40.8919 72.7484 40.9143 73.995 41.3231 75.2271C41.6198 76.1213 42.2714 76.6631 43.1835 76.8811C43.7882 77.0268 44.4173 77.0387 45.0271 76.9161C45.4327 76.8349 45.8276 76.6898 46.2206 76.5544C46.3825 76.4989 46.4559 76.1997 46.3671 76.0275C46.2741 75.845 46.1346 75.9617 46.0257 76.0028C45.3136 76.2705 44.5507 76.3744 43.7932 76.3066C42.8444 76.2291 42.1896 75.6999 41.9426 74.7744C41.8594 74.4627 41.8393 74.1336 41.7924 73.8121C41.7668 73.6384 41.8459 73.5848 42.0175 73.5866C42.7068 73.5946 43.396 73.5899 44.0853 73.5899C44.7675 73.5899 45.4496 73.5899 46.1318 73.5899C46.4234 73.5899 46.4969 73.54 46.4997 73.2422C46.5015 72.7769 46.5104 72.3069 46.449 71.8482ZM45.2578 73.0149C44.2123 73.021 43.1649 73.0149 42.1207 73.0149H41.81C41.7938 71.9093 42.2821 70.8378 43.4588 70.6726C43.856 70.6159 44.2598 70.6283 44.6527 70.7094C45.3881 70.8672 45.8202 71.5336 45.8234 72.4302C45.8276 73.1185 45.9299 73.0126 45.2597 73.0168L45.2578 73.0149Z" fill="black"/>
<path d="M23.8169 59.2639C23.7546 58.6301 23.589 58.0281 23.216 57.5016C22.6579 56.7157 21.8672 56.403 20.937 56.3708C19.4487 56.3195 18.3357 57.0204 17.9325 58.499C17.6782 59.4169 17.6835 60.3878 17.9478 61.3029C18.2088 62.2219 18.7655 62.8958 19.6882 63.2164C20.1566 63.3802 20.6445 63.3989 21.1328 63.3653C22.1016 63.2985 22.8616 62.872 23.3574 62.0184C23.7439 61.3543 23.8397 60.6183 23.8458 59.8001C23.8379 59.6653 23.8365 59.4627 23.8169 59.2639ZM22.9439 61.1358C22.6026 62.3889 21.6817 62.8202 20.5487 62.7091C19.3627 62.5929 18.7129 61.9036 18.5697 60.7051C18.5367 60.4283 18.5232 60.1492 18.4906 59.7623C18.5334 59.466 18.5627 59.0623 18.6529 58.6721C18.9622 57.3425 19.9827 56.9084 21.138 57.0494C22.2677 57.1871 22.8067 57.7639 23.0295 59.0095C23.1597 59.7152 23.1304 60.4412 22.9439 61.134V61.1358Z" fill="black"/>
<path d="M13.2242 49.4673C12.7516 48.1139 12.2805 46.7637 11.8001 45.4149C11.7805 45.3594 11.681 45.3025 11.614 45.2978C11.3982 45.2829 11.1801 45.3034 10.9629 45.2885C10.8024 45.2773 10.7331 45.3351 10.6838 45.4863C10.3299 46.5187 9.96665 47.5478 9.60573 48.5778C9.4941 48.8975 9.38109 49.2167 9.2583 49.5663C9.5555 49.5663 9.81641 49.5751 10.0787 49.5597C10.1378 49.556 10.2206 49.4776 10.2429 49.416C10.322 49.198 10.3676 48.9675 10.4517 48.7519C10.4717 48.7117 10.5006 48.6766 10.5363 48.6495C10.5719 48.6224 10.6134 48.6039 10.6573 48.5955C11.0359 48.5801 11.4154 48.5927 11.7945 48.5857C11.9247 48.5857 11.9935 48.6324 12.027 48.7561C12.0898 48.9796 12.1521 49.2041 12.2335 49.4211C12.2489 49.4559 12.2721 49.4867 12.3013 49.511C12.3305 49.5353 12.3649 49.5525 12.4019 49.5611C12.6712 49.5761 12.9419 49.5677 13.2316 49.5677C13.2319 49.5341 13.2294 49.5005 13.2242 49.4673ZM10.6913 47.9389C10.8638 47.3527 11.0308 46.7861 11.1973 46.2191H11.2675C11.4387 46.7856 11.6103 47.3522 11.788 47.9407L10.6913 47.9389Z" fill="black"/>
<path d="M15.7861 45.0293V46.5834C15.693 46.5424 15.6312 46.5172 15.5717 46.4878C14.7987 46.1074 13.9857 46.4411 13.721 47.2574C13.5612 47.7401 13.5585 48.2613 13.7131 48.7457C13.9085 49.3687 14.4047 49.7197 15.0326 49.6418C15.3042 49.6077 15.5637 49.4714 15.8321 49.3804C15.9251 49.5914 16.1605 49.6427 16.646 49.5339V45.0293H15.7861ZM15.6065 48.9081C15.0345 49.1555 14.567 48.8913 14.5252 48.2659C14.4998 47.9819 14.5218 47.6956 14.5903 47.4188C14.7108 46.9862 15.4075 46.8289 15.7303 47.1388C15.7721 47.1789 15.7865 47.263 15.7889 47.3255C15.7889 47.3815 15.7912 47.438 15.7921 47.494C15.7921 47.6625 15.7921 47.8309 15.7921 47.9994C15.7921 48.1567 15.7879 48.3135 15.7921 48.4703C15.7921 48.5226 15.7921 48.5749 15.7968 48.6271C15.7996 48.7742 15.7349 48.8502 15.6065 48.9058V48.9081Z" fill="black"/>
<path d="M37.2261 45.1874C37.2261 45.1263 37.1508 45.0204 37.1047 45.0171C36.8606 45.0003 36.615 45.0092 36.3485 45.0092V46.5927L36.1694 46.4994C35.3671 46.0877 34.5462 46.4266 34.2755 47.2858C34.1462 47.6951 34.1286 48.1316 34.2244 48.5501C34.3885 49.2875 34.8718 49.6982 35.562 49.637C35.8411 49.6123 36.1117 49.4742 36.3945 49.385C36.4908 49.5642 36.4908 49.5642 36.7587 49.5647H36.8982C37.2326 49.5647 37.2331 49.5647 37.2331 49.217V46.1409C37.2326 45.8226 37.2401 45.5053 37.2261 45.1874ZM36.1648 48.9094C35.6294 49.133 35.1853 48.9192 35.0983 48.3494C35.0575 48.0588 35.0699 47.7632 35.135 47.4771C35.2425 47.0001 35.9071 46.8097 36.2829 47.1276C36.3257 47.1635 36.3434 47.2475 36.3457 47.31C36.348 47.3726 36.3485 47.4225 36.3489 47.4785C36.3489 47.647 36.3489 47.8155 36.3489 47.984C36.3489 48.1524 36.3434 48.3107 36.3462 48.4726C36.3462 48.5267 36.3489 48.5809 36.3522 48.635C36.3606 48.7844 36.2936 48.8562 36.1648 48.9094Z" fill="black"/>
<path d="M33.5805 47.3089C33.5261 46.7834 33.148 46.4138 32.6247 46.3625C32.4402 46.344 32.2544 46.344 32.0699 46.3625C31.5583 46.4147 31.1606 46.6667 30.988 47.1521C30.875 47.4804 30.8204 47.826 30.8267 48.1733C30.8387 48.99 31.2606 49.5206 31.9861 49.6317C32.3225 49.6805 32.6645 49.6725 32.9982 49.6079C33.661 49.4805 33.5317 49.5272 33.527 48.9298C33.527 48.9228 33.52 48.9158 33.5028 48.8831C33.4503 48.8985 33.3966 48.9097 33.3424 48.9167C32.9601 48.9373 32.574 48.9961 32.1964 48.9611C31.8187 48.9261 31.6108 48.5877 31.6727 48.2087H31.9196C32.3996 48.2087 32.8791 48.2036 33.3591 48.2087C33.5131 48.2115 33.5917 48.1705 33.5856 48.0034C33.5791 47.7733 33.6042 47.5386 33.5805 47.3089ZM32.8363 47.658H31.6471C31.6364 47.3962 31.728 47.1913 31.9378 47.0448C32.128 46.9113 32.4587 46.9048 32.6415 47.0266C32.8131 47.1414 32.8824 47.3589 32.8345 47.658H32.8363Z" fill="black"/>
<path d="M23.3469 47.1246C23.3352 46.7601 23.1055 46.5039 22.7422 46.4134C22.1632 46.2682 21.5916 46.3307 21.0344 46.531C21.0012 46.5452 20.9717 46.5667 20.9479 46.5939C20.9242 46.6212 20.9068 46.6534 20.8972 46.6882C20.8772 46.8283 20.8907 46.9762 20.8907 47.1489C20.9986 47.1265 21.0642 47.1069 21.1307 47.0994C21.4674 47.0621 21.8037 47.0191 22.1413 46.9963C22.3143 46.9846 22.479 47.056 22.5204 47.239C22.5599 47.4135 22.5502 47.5997 22.5604 47.7607C22.5139 47.7864 22.5046 47.7939 22.4981 47.7929C22.4515 47.7878 22.405 47.7789 22.3618 47.7743C21.952 47.7304 21.5432 47.6917 21.1614 47.904C20.7795 48.1164 20.6032 48.5107 20.687 48.9518C20.7637 49.3517 21.059 49.6103 21.4962 49.6644C21.8054 49.7025 22.1181 49.6306 22.3799 49.4614C22.4497 49.4185 22.5194 49.3746 22.5915 49.3293C22.6971 49.5842 22.9687 49.6462 23.3506 49.5197C23.3543 48.7231 23.372 47.9236 23.3469 47.1246ZM21.8655 49.0946C21.6492 49.0605 21.5162 48.9163 21.5055 48.7039C21.4948 48.4916 21.612 48.3161 21.8134 48.2671C21.9347 48.2451 22.0573 48.2311 22.1804 48.2251V48.24C22.234 48.2476 22.2881 48.2511 22.3422 48.2503C22.5222 48.2344 22.5618 48.3287 22.5627 48.4893C22.5673 48.8804 22.2562 49.1562 21.8655 49.0946Z" fill="black"/>
<path d="M43.3249 17.1295C43.0826 16.1363 42.2208 15.7265 41.298 16.1652C41.1404 16.2404 40.9906 16.3328 40.8329 16.4205C40.8201 16.397 40.8102 16.3719 40.8036 16.3459C40.7943 16.2058 40.8129 16.0551 40.5892 16.0808C40.3753 16.105 40.4357 16.2632 40.4353 16.3809C40.432 17.7642 40.4353 19.1475 40.4325 20.5308C40.4325 20.6708 40.4237 20.795 40.6278 20.7926C40.7855 20.7926 40.8469 20.746 40.8436 20.5803C40.8343 20.0879 40.8404 19.5951 40.8404 19.0719C40.9999 19.1718 41.1194 19.2558 41.2459 19.3248C42.0724 19.7752 42.9668 19.4242 43.2682 18.5314C43.4219 18.0795 43.4416 17.5924 43.3249 17.1295ZM42.8891 18.4586C42.7496 18.9141 42.4124 19.1587 41.9352 19.1587C41.7499 19.1571 41.5656 19.1296 41.3878 19.077C40.9813 18.9561 40.839 18.7466 40.839 18.3251V17.7408C40.839 17.6769 40.839 17.613 40.839 17.5486C40.8318 17.3569 40.8349 17.1649 40.8483 16.9736C40.8626 16.8587 40.919 16.7532 41.0064 16.6777C41.2818 16.4583 41.6251 16.3427 41.9766 16.351C42.4315 16.3622 42.7594 16.5993 42.8919 17.0356C43.0358 17.4991 43.0349 17.9957 42.8891 18.4586Z" fill="black"/>
<path d="M46.5601 16.8795C46.555 16.4002 46.3475 16.1356 45.8913 16.0311C45.4118 15.9214 44.9406 15.9886 44.4741 16.1319C44.2537 16.1995 44.1951 16.3237 44.2681 16.5519L44.5383 16.4782C44.922 16.3746 45.308 16.3003 45.7052 16.397C45.915 16.4478 46.0913 16.5589 46.1215 16.7839C46.1578 17.055 46.1545 17.3313 46.168 17.5707C45.7452 17.5399 45.3615 17.483 44.9797 17.4914C44.4909 17.5021 44.1151 17.8181 44.0211 18.2302C43.9109 18.7132 44.0737 19.1603 44.4588 19.3582C44.8853 19.5775 45.3169 19.5029 45.7345 19.3181C45.8866 19.2504 46.0252 19.1515 46.1829 19.0595C46.1919 19.1012 46.1983 19.1435 46.202 19.186C46.202 19.319 46.2392 19.4063 46.401 19.4044C46.5838 19.4021 46.5652 19.2826 46.5652 19.165C46.5624 18.4024 46.568 17.6412 46.5601 16.8795ZM45.8103 18.9489C45.5485 19.0315 45.282 19.13 45.0122 19.151C44.6667 19.1785 44.4657 18.9858 44.4109 18.6684C44.3504 18.3174 44.489 18.022 44.796 17.9105C45.2262 17.7541 45.6638 17.8218 46.0982 17.9142C46.1373 17.9226 46.1806 17.9996 46.1875 18.0496C46.1963 18.1676 46.1977 18.2861 46.1917 18.4043C46.295 18.6983 46.0941 18.8588 45.8103 18.9489Z" fill="black"/>
<path d="M44.7016 25.205H46.1434C46.8178 25.205 46.8378 25.184 46.7787 24.5003C46.7392 24.0476 46.569 23.671 46.1387 23.4647C45.3778 23.0997 44.4123 23.5085 44.1388 24.3103C43.9714 24.8023 43.9788 25.303 44.1025 25.8038C44.2546 26.4175 44.6676 26.8077 45.2932 26.8329C45.7192 26.8506 46.1513 26.7652 46.5769 26.7022C46.6373 26.6933 46.6783 26.5501 46.728 26.4689C46.6504 26.4502 46.5694 26.4068 46.4955 26.417C46.2062 26.4563 45.9197 26.5501 45.6309 26.5547C44.8211 26.5692 44.3788 26.0703 44.4393 25.2064L44.7016 25.205ZM44.41 24.8317C44.4286 24.4018 44.5253 24.0201 44.9216 23.8133C45.3071 23.6112 45.7216 23.5874 46.0904 23.8474C46.4215 24.0807 46.4104 24.4541 46.4076 24.8317H44.41Z" fill="black"/>
<path d="M57.7553 24.8529C57.7223 23.9661 57.1972 23.3958 56.3753 23.3244C55.5102 23.2492 54.8986 23.7076 54.7238 24.5728C54.699 24.7303 54.6835 24.8891 54.6772 25.0484C54.6865 25.222 54.6884 25.362 54.7028 25.5006C54.7819 26.266 55.3075 26.7985 56.0312 26.8485C56.9204 26.9096 57.5074 26.5185 57.6897 25.7074C57.7476 25.4265 57.7697 25.1393 57.7553 24.8529ZM57.2823 25.7242C57.1474 26.2422 56.7707 26.5125 56.2195 26.512C55.6684 26.5115 55.2949 26.2427 55.1591 25.7214C55.0396 25.2622 55.0368 24.7987 55.1958 24.3469C55.3586 23.8826 55.7009 23.6707 56.2446 23.6753C56.7595 23.6795 57.1116 23.9087 57.253 24.3707C57.3241 24.6041 57.3427 24.8547 57.3813 25.0755C57.3465 25.3126 57.333 25.524 57.2823 25.7242Z" fill="black"/>
<path d="M58.0932 16.143C57.5095 15.8457 56.3984 15.9531 56.0547 16.9304C55.8665 17.4703 55.8665 18.0584 56.0547 18.5984C56.1882 19.0016 56.45 19.2984 56.8695 19.4254C57.4253 19.5929 57.9732 19.4982 58.5127 19.346C58.569 19.3302 58.5913 19.1939 58.6295 19.1127C58.5602 19.095 58.4899 19.0548 58.422 19.0632C58.0965 19.1043 57.7709 19.1958 57.4425 19.2C56.7095 19.2102 56.237 18.618 56.3579 17.8498H56.6007C57.2123 17.8498 57.8234 17.8535 58.4346 17.8446C58.509 17.8446 58.6257 17.7947 58.6504 17.7373C58.8643 17.2272 58.5718 16.3867 58.0932 16.143ZM58.3076 17.5156H56.3095C56.3421 17.0839 56.4281 16.6914 56.837 16.4842C57.217 16.2914 57.623 16.2709 57.9839 16.5192C58.3271 16.7554 58.3164 17.1338 58.3095 17.5156H58.3076Z" fill="black"/>
</g>
<defs>
<clipPath id="clip0_1240_534">
<rect width="91" height="90" fill="white" transform="translate(0.5)"/>
</clipPath>
</defs>
</svg>
