<svg width="90" height="80" viewBox="0 0 90 80" fill="none" xmlns="http://www.w3.org/2000/svg">
<path d="M67.6191 48.0766C68.3656 48.5479 69.4839 48.9221 70.8832 49.2048C72.3208 49.5508 73.7967 49.7082 75.2743 49.6732C76.6328 49.6912 77.986 49.5015 79.2878 49.1106C80.422 48.7509 81.4922 48.212 82.4582 47.514C83.3347 46.8486 84.0378 45.9794 84.5074 44.9807C85.0046 43.9249 85.2597 42.7702 85.2538 41.6019C85.25 40.1513 84.7933 38.7385 83.9482 37.5633C83.108 36.438 81.6063 35.5013 79.5571 34.8414L75.5465 33.5277C74.0535 33.0593 72.9353 32.4937 72.3732 31.9311C72.0988 31.6649 71.8825 31.344 71.7383 30.9889C71.5941 30.6339 71.5253 30.2525 71.5359 29.8691C71.5359 28.7438 72.0014 27.807 72.8415 27.3357C73.7724 26.7731 74.9875 26.4903 76.6649 26.4903C78.5584 26.463 80.4355 26.8468 82.1683 27.6156C82.5207 27.7982 82.8988 27.9254 83.2895 27.9926C83.755 27.9926 83.9422 27.6981 83.9422 27.0529V25.9277C83.961 25.5891 83.857 25.2552 83.6494 24.988C83.4396 24.6678 83.1499 24.4088 82.8092 24.2368C82.4367 24.0083 82.0262 23.8496 81.5974 23.7684C81.132 23.5799 80.5728 23.4739 80.0108 23.2971C79.3979 23.1524 78.7742 23.0588 78.146 23.0173C77.5054 22.8613 76.8458 22.7979 76.1874 22.8287C74.9909 22.8344 73.8 22.9918 72.6425 23.2971C71.5707 23.6263 70.5613 24.1341 69.6565 24.7994C68.8302 25.4461 68.1346 26.246 67.6074 27.156C67.0482 28.0957 66.8609 29.1267 66.8609 30.3492C66.8551 31.8428 67.3479 33.2951 68.2603 34.4732C69.1942 35.787 70.6869 36.7267 72.8327 37.3836L76.931 38.6974C78.3303 39.1658 79.2732 39.6342 79.8235 40.1997C80.0772 40.458 80.2745 40.7666 80.403 41.1059C80.5315 41.4452 80.5884 41.8078 80.57 42.1704C80.5851 42.7169 80.4546 43.2575 80.192 43.7361C79.9295 44.2147 79.5444 44.6139 79.0768 44.8923C78.0493 45.5492 76.7349 45.832 74.879 45.832C73.7485 45.8466 72.6207 45.7199 71.5213 45.4549C70.4231 45.2532 69.3562 44.9066 68.3481 44.4239C68.0934 44.3416 67.8441 44.2432 67.6016 44.1293C67.4258 44.0523 67.2337 44.0199 67.0425 44.0351C66.577 44.0351 66.3895 44.3297 66.3895 44.9748V46.3828C66.4073 46.6728 66.4707 46.9582 66.577 47.2283C66.854 47.5804 67.2035 47.8679 67.6016 48.0707L67.6191 48.0766Z" fill="black"/>
<path d="M17.4956 34.1844C16.5081 34.0306 15.5086 33.9675 14.5096 33.9959C11.6174 33.9959 9.28537 34.747 7.51332 36.2493C5.74225 37.7517 4.9021 39.7224 4.9021 42.1644C4.9021 44.521 5.55491 46.2884 6.95128 47.7024C8.34765 49.1163 10.2152 49.7644 12.642 49.7644C16.0007 49.7644 18.7995 48.4506 21.038 45.823C21.28 46.404 21.5605 46.9679 21.8779 47.5109C22.1657 47.9886 22.5097 48.4298 22.9025 48.8247C23.0089 48.9427 23.1386 49.0372 23.2833 49.1021C23.4279 49.167 23.5843 49.201 23.7427 49.2017C24.0139 49.1754 24.2726 49.0734 24.4894 48.9072L26.2633 47.6876C26.635 47.393 26.8224 47.125 26.8224 46.8422C26.7917 46.6153 26.7284 46.3941 26.6349 46.1853C26.2654 45.5262 25.9532 44.8363 25.7012 44.1233C25.4914 43.2958 25.393 42.4438 25.4085 41.59V32.2019C25.4085 29.103 24.662 26.7582 23.0666 25.1616C21.4711 23.565 19.056 22.805 15.6045 22.805C14.0936 22.7959 12.588 22.985 11.1257 23.3676C9.9008 23.6771 8.71223 24.1175 7.5805 24.6814C7.28453 24.797 7.02621 24.9927 6.83407 25.247C6.64672 25.4326 6.64682 25.8097 6.64682 26.278V27.6861C6.64682 28.2487 6.83415 28.6258 7.20886 28.6258C7.36926 28.6321 7.5288 28.5998 7.67427 28.5315C7.86162 28.4372 8.23334 28.343 8.70172 28.1574C9.69945 27.7584 10.7285 27.4441 11.7783 27.2177C12.7834 26.9533 13.8194 26.8264 14.8581 26.8407C17.0976 26.8407 18.5905 27.312 19.5214 28.1574C20.4523 29.0028 20.827 30.5965 20.827 32.7557V34.8177C19.615 34.5231 18.5905 34.3493 17.4693 34.1608L17.4956 34.1844ZM20.7598 39.2687C20.7718 40.0913 20.6734 40.9117 20.4671 41.7078C20.31 42.3724 19.9887 42.9864 19.5331 43.4929C18.8195 44.3319 17.8801 44.9457 16.8281 45.2603C15.8728 45.6213 14.8627 45.8126 13.8424 45.8259C12.5368 45.8259 11.5003 45.4489 10.8592 44.792C10.2181 44.1351 9.8318 43.1041 9.8318 41.7873C9.8318 40.3793 10.2973 39.254 11.2312 38.5028C12.165 37.7517 13.573 37.3776 15.429 37.3776C16.2692 37.3776 17.2031 37.4689 18.134 37.5631C19.0132 37.666 19.8853 37.8234 20.7452 38.0345V39.2687H20.7598Z" fill="black"/>
<path d="M73.498 56.7414C72.6197 57.3306 72.8129 58.2144 73.6941 58.1202C76.8264 57.7254 83.9665 56.8387 85.1404 58.512C86.4109 60.0881 83.7702 66.7813 82.5963 69.8334C82.204 70.7172 82.9885 71.1149 83.8696 70.4226C89.1389 66.0036 90.5207 56.6383 89.4317 55.3598C88.3573 53.8868 79.0629 52.7997 73.4862 56.7385L73.498 56.7414Z" fill="black"/>
<path d="M35.7807 47.6085C35.8891 48.0189 36.0793 48.4027 36.3399 48.7367C36.5272 48.9223 36.899 49.0166 37.4611 49.0166H39.8848C40.4439 49.0166 40.8186 48.9223 41.006 48.7367C41.2665 48.4027 41.4568 48.0189 41.5652 47.6085L45.9563 29.1152L50.4323 47.6085C50.5259 48.1711 50.725 48.5482 50.9914 48.7367C51.1788 48.9223 51.6472 49.0166 52.1127 49.0166H54.5366C54.9295 49.0356 55.3193 48.9383 55.6578 48.7367C55.9549 48.4274 56.1499 48.0334 56.2167 47.6085L63.1196 25.4536C63.2017 25.2408 63.2646 25.021 63.3071 24.7967C63.3071 24.6112 63.4006 24.5022 63.4006 24.3284C63.4006 23.86 63.2134 23.6715 62.7479 23.6715H60.1338C59.5747 23.6715 59.2028 23.7657 59.0155 23.966C58.7531 24.2977 58.5626 24.6811 58.4563 25.0913L53.512 44.3358L48.954 24.9853C48.8632 24.4226 48.6758 24.0456 48.3948 23.86C48.2075 23.6715 47.7419 23.5654 47.2765 23.5654H44.9345C44.3754 23.5654 44.0009 23.6597 43.8165 23.86C43.5529 24.1914 43.3614 24.5747 43.2544 24.9853L38.7784 43.947L34.0243 24.9853C33.9173 24.5747 33.7258 24.1914 33.4622 23.86C33.2778 23.6715 32.903 23.5654 32.3439 23.5654H29.5454C29.0799 23.5654 28.8925 23.7539 28.8925 24.2223C28.9385 24.6085 29.032 24.9875 29.1706 25.3505L35.7953 47.5967L35.7807 47.6085Z" fill="black"/>
<path d="M79.6621 60.8735C68.9512 65.4395 57.4446 67.8159 45.8124 67.8643C29.6736 67.8643 14.0209 63.4454 1.40085 55.9537C0.326491 55.2644 -0.55461 56.4457 0.423141 57.3295C12.162 67.9616 27.6187 74.3602 44.8347 74.3602C57.0624 74.3602 71.3454 70.5305 81.2253 63.139C82.689 61.9606 81.3249 60.193 79.6621 60.8735Z" fill="black"/>
</svg>
