<svg width="683" height="143" viewBox="0 0 683 143" fill="none" xmlns="http://www.w3.org/2000/svg">
<path d="M170.25 37V61.4989C172.309 59.366 174.774 57.6659 177.5 56.499C180.12 55.4166 182.916 54.8236 185.75 54.7492C192.033 54.6959 198.039 57.3349 202.249 61.9991C206.81 67.1585 209.225 73.8669 208.999 80.7485C209.208 87.599 206.69 94.2522 201.999 99.2485C197.823 103.989 191.818 106.719 185.5 106.748C182.762 106.759 180.048 106.249 177.5 105.248C174.774 104.082 172.309 102.382 170.25 100.248V105.498H158V37H170.25ZM183.249 66.2494C179.568 66.0803 176.001 67.5441 173.499 70.2491C170.947 73.1371 169.604 76.8969 169.75 80.7485C169.562 84.6823 170.906 88.5344 173.499 91.4985C176 94.2036 179.568 95.6667 183.249 95.4982C186.883 95.53 190.35 93.9787 192.749 91.2485C195.377 88.3887 196.808 84.6319 196.749 80.7485C196.927 76.8543 195.582 73.0435 192.999 70.1238C190.413 67.5585 186.891 66.1589 183.249 66.2494Z" fill="black"/>
<path d="M252.994 56.2495H265.494V105.748H252.994V100.498C250.889 102.577 248.436 104.269 245.744 105.498C243.203 106.522 240.484 107.032 237.745 106.998C231.404 107.073 225.359 104.325 221.245 99.4985C216.516 94.5262 213.992 87.8562 214.246 80.9985C213.933 74.1031 216.359 67.363 220.995 62.2491C225.137 57.4896 231.188 54.8307 237.495 54.9993C240.344 54.9255 243.171 55.5251 245.744 56.749C248.47 57.916 250.935 59.616 252.994 61.749V56.2495ZM239.995 66.2494C236.396 66.1277 232.924 67.5896 230.495 70.2491C227.942 73.137 226.6 76.8969 226.746 80.7485C226.6 84.6001 227.943 88.3599 230.495 91.2485C235.494 96.6298 243.909 96.9398 249.291 91.9405C249.445 91.7965 249.597 91.6496 249.744 91.4985C252.337 88.535 253.681 84.6822 253.494 80.7485C253.639 76.8969 252.296 73.137 249.744 70.2491C247.179 67.6376 243.655 66.1918 239.995 66.2494Z" fill="black"/>
<path d="M274.496 56.2497H285.246V62.6246C286.264 60.4455 287.811 58.5548 289.745 57.1246C291.575 55.8347 293.756 55.1367 295.995 55.1248C297.727 55.2123 299.425 55.6369 300.995 56.3744L297.245 67.1239C296.166 66.538 294.971 66.1968 293.745 66.1242C291.619 66.2772 289.771 67.639 288.995 69.6238C287.745 71.8737 286.995 76.6236 286.995 83.6234V106.123H274.746V56.2497H274.496Z" fill="black"/>
<path d="M351.494 66.2495L341.244 71.999C339.65 70.1922 337.69 68.7434 335.495 67.7492C333.346 66.9043 331.055 66.4803 328.745 66.4995C324.572 66.3184 320.507 67.8542 317.496 70.7493C314.65 73.5887 313.111 77.4822 313.246 81.4993C313.112 85.3701 314.662 89.1084 317.496 91.7493C324.67 97.696 335.259 96.9243 341.495 89.9989L351.245 96.7492C345.995 103.749 338.495 106.999 328.745 106.999C319.996 106.999 313.246 104.499 308.246 99.2491C303.449 94.4879 300.749 88.0086 300.746 81.2493C300.749 76.6049 301.955 72.0397 304.246 67.9999C306.667 63.9936 310.121 60.7129 314.246 58.5001C318.712 56.1447 323.696 54.9412 328.745 55.0005C333.338 54.9268 337.882 55.9552 341.995 58.0006C345.909 59.7468 349.215 62.6186 351.494 66.2495Z" fill="black"/>
<path d="M357.742 37H369.992V61.2489C372.166 59.3234 374.608 57.7229 377.242 56.499C379.622 55.521 382.169 55.0119 384.742 54.9993C389.408 54.9327 393.909 56.7323 397.242 59.9992C400.242 62.9993 401.492 67.249 401.492 72.9985V105.748H389.242V83.998C389.371 80.0661 389.12 76.1318 388.492 72.2484C388.163 70.4602 387.183 68.8567 385.742 67.7486C384.293 66.6986 382.531 66.1697 380.742 66.2488C378.325 66.1589 375.977 67.062 374.242 68.7488C372.419 70.6287 371.125 72.9572 370.492 75.4985C370.093 78.8998 369.925 82.3244 369.992 85.7484V105.748H357.742V37Z" fill="black"/>
<path d="M446.241 56.2495H458.741V105.748H446.241V100.498C444.137 102.577 441.682 104.269 438.992 105.498C436.45 106.522 433.731 107.032 430.992 106.998C424.651 107.073 418.605 104.325 414.492 99.4985C409.762 94.5262 407.238 87.8562 407.492 80.9985C407.179 74.1031 409.605 67.363 414.242 62.2491C418.383 57.4896 424.435 54.8307 430.742 54.9993C433.591 54.9255 436.417 55.5251 438.992 56.749C441.717 57.916 444.182 59.616 446.241 61.749V56.2495ZM433.242 66.2494C429.642 66.1277 426.17 67.5896 423.742 70.2491C421.189 73.137 419.846 76.8969 419.992 80.7485C419.846 84.6001 421.189 88.3599 423.742 91.2485C428.741 96.6298 437.156 96.9398 442.537 91.9405C442.693 91.7965 442.844 91.6496 442.991 91.4985C445.584 88.535 446.928 84.6822 446.742 80.7485C446.887 76.8969 445.544 73.137 442.991 70.2491C440.372 67.7186 436.883 66.2878 433.242 66.2494Z" fill="black"/>
<path d="M467.992 56.2497H478.742V62.6246C479.76 60.4455 481.308 58.5548 483.242 57.1246C485.072 55.8347 487.253 55.1367 489.492 55.1248C491.224 55.2123 492.922 55.6369 494.492 56.3744L490.742 67.1239C489.663 66.538 488.468 66.1968 487.242 66.1242C485.116 66.2772 483.268 67.639 482.492 69.6238C481.242 71.8737 480.492 76.6236 480.492 83.6234V106.123H468.242V56.2497H467.992Z" fill="black"/>
<path d="M505.238 38.0002H517.738V56.2496H524.988V66.999H517.738V105.748H505.238V66.7495H498.988V56.2496H505.238V38.0002Z" fill="black"/>
</svg>
