<svg width="683" height="143" viewBox="0 0 683 143" fill="none" xmlns="http://www.w3.org/2000/svg">
<path d="M431.693 32C427.095 31.9914 423.35 35.7245 423.342 40.3499C423.333 44.4295 426.266 47.9288 430.269 48.6131C430.735 48.691 431.21 48.7343 431.693 48.7343C436.291 48.7257 440.018 44.9665 440.001 40.3499C439.992 36.2789 437.068 32.8142 433.073 32.1299C432.599 32.0433 432.124 32 431.65 32" fill="black"/>
<path d="M426.636 110.336H436.738C437.938 110.336 438.904 109.357 438.904 108.153V57.4132C438.904 56.2092 437.929 55.2391 436.738 55.2305H426.636C425.437 55.2305 424.471 56.2092 424.471 57.4132V108.153C424.471 109.357 425.437 110.327 426.636 110.336Z" fill="black"/>
<path d="M373.502 55.1875H362.494C361.381 55.1962 360.484 56.1056 360.492 57.223C360.492 57.4742 360.544 57.7254 360.639 57.9592L382.06 109.02C382.397 109.791 383.156 110.293 383.993 110.284H394.371C395.208 110.293 395.976 109.791 396.304 109.02L417.845 57.8033C418.26 56.8592 417.837 55.7592 416.896 55.3434C416.664 55.2395 416.405 55.1875 416.146 55.1875H404.784C404.008 55.1875 403.309 55.6812 403.05 56.4175L390.066 90.9342C389.885 91.4279 389.341 91.6791 388.85 91.4972C388.591 91.4019 388.384 91.194 388.289 90.9342L375.348 56.4867C375.063 55.7245 374.33 55.2048 373.502 55.1875Z" fill="black"/>
<path d="M319.688 77.1545C319.162 77.1632 318.731 76.7474 318.722 76.219C318.722 76.1497 318.731 76.0718 318.739 76.0025C319.688 70.8055 326.193 66.1715 333.017 66.1715C339.841 66.1715 346.355 70.8142 347.295 76.0025C347.407 76.5135 347.079 77.0246 346.562 77.1285C346.493 77.1458 346.415 77.1545 346.346 77.1458H319.688V77.1545ZM348.563 95.5432C347.838 94.7896 346.665 94.703 345.846 95.3353C342.265 98.133 337.874 99.6921 333.345 99.7788C326.469 99.5795 320.516 94.9282 318.627 88.2847C318.515 87.7737 318.843 87.2626 319.36 87.1587C319.429 87.1414 319.507 87.1327 319.576 87.1414H359.183C360.27 87.1414 361.167 86.2925 361.228 85.2012C361.305 84.1271 361.349 83.3736 361.349 82.9405C361.935 67.2802 349.762 54.1058 334.164 53.5168C333.681 53.4995 333.198 53.4908 332.706 53.4995C317.549 53.4995 304.737 66.7432 304.737 82.3948C304.513 98.4708 317.281 111.715 333.302 112C340.928 112.061 348.287 109.142 353.817 103.867C354.645 103.096 354.688 101.788 353.921 100.965C353.903 100.939 353.877 100.922 353.852 100.896L348.563 95.5432Z" fill="black"/>
<path d="M273.376 96.616C265.482 97.6727 258.236 92.1033 257.183 84.1779C256.131 76.2524 261.678 68.9766 269.572 67.9199C277.465 66.8632 284.712 72.4326 285.765 80.3581C285.929 81.6227 285.929 82.9046 285.765 84.1692C284.919 90.6568 279.838 95.7585 273.376 96.616ZM257.131 58.522V33.9056C257.131 32.8575 256.286 32 255.233 32C255.216 32 255.199 32 255.182 32H244.855C243.828 32 243 32.8315 243 33.8623V82.4282C243.078 98.6688 255.233 111.566 270.65 111.8H270.892C286.8 111.964 299.827 99.1539 299.991 83.1818C300.155 67.2097 287.395 54.1305 271.487 53.966C266.371 54.0959 261.402 55.6637 257.123 58.4874" fill="black"/>
</svg>
