<svg width="89" height="80" viewBox="0 0 89 80" fill="none" xmlns="http://www.w3.org/2000/svg">
<g clip-path="url(#clip0_17921_53)">
<path fill-rule="evenodd" clip-rule="evenodd" d="M6.40788 41.48C6.8834 45.0464 10.1575 47.5526 13.7239 47.0771C16.6433 46.6912 18.9391 44.3955 19.3211 41.4761C19.3951 40.907 19.3951 40.3301 19.3211 39.7611C18.8456 36.1946 15.5715 33.6884 12.005 34.1639C8.4386 34.6394 5.93235 37.9135 6.40788 41.48ZM6.38449 29.9167V18.8575C6.38449 18.3859 6.00251 18 5.52699 18H5.5036H0.838013C0.374183 18 0 18.3742 0 18.838V40.6926C0.0350796 48.0009 5.52699 53.8046 12.4922 53.9098H12.6014C19.7888 53.9839 25.6744 48.2191 25.7484 41.0317C25.8225 33.8443 20.0578 27.9587 12.8703 27.8847C10.5605 27.9431 8.31689 28.6477 6.38449 29.9167ZM85.2361 18C83.1657 18.0045 81.4825 19.6812 81.4786 21.7574C81.4747 23.5933 82.7999 25.1679 84.6085 25.4759C84.819 25.5109 85.0333 25.5304 85.2516 25.5304C87.3291 25.5265 89.0129 23.8349 89.0051 21.7574C89.0012 19.9255 87.6799 18.3664 85.8753 18.0585C85.6622 18.0197 85.4492 18.0002 85.2361 18ZM85.2361 18L85.2372 18H85.2321L85.2361 18ZM82.9671 53.2512H87.5314C88.0732 53.2512 88.5097 52.8107 88.5097 52.269V29.436C88.5097 28.8942 88.0693 28.4577 87.5314 28.4538H82.9671C82.4254 28.4538 81.9888 28.8942 81.9888 29.436V52.269C81.9888 52.8107 82.4254 53.2473 82.9671 53.2512ZM53.9875 28.4342H58.961C59.3352 28.442 59.6665 28.6758 59.7951 29.0188L65.6417 44.5201C65.6846 44.6371 65.7781 44.7306 65.8951 44.7735C66.1172 44.8553 66.3628 44.7423 66.4447 44.5201L72.3108 28.9877C72.4277 28.6564 72.7434 28.4342 73.0942 28.4342H78.2275C78.3444 28.4342 78.4614 28.4576 78.5666 28.5043C78.9915 28.6914 79.1825 29.1865 78.9954 29.6113L69.2627 52.6586C69.1146 53.0055 68.7677 53.2316 68.3896 53.2277H63.7006C63.3226 53.2316 62.9796 53.0055 62.8276 52.6586L53.1495 29.6815C53.1066 29.5762 53.0832 29.4632 53.0832 29.3502C53.0793 28.8473 53.4847 28.4381 53.9875 28.4342ZM34.6471 38.3189C34.4094 38.3228 34.2145 38.1357 34.2106 37.898C34.2106 37.8668 34.2145 37.8317 34.2184 37.8005C34.6471 35.4619 37.586 33.3766 40.6691 33.3766C43.7523 33.3766 46.695 35.4658 47.1199 37.8005C47.1706 38.0305 47.0225 38.2605 46.7886 38.3072C46.7574 38.315 46.7223 38.3189 46.6912 38.315H34.6471V38.3189ZM47.6929 46.5938C47.3655 46.2547 46.8354 46.2158 46.4651 46.5003C44.8475 47.7593 42.8636 48.4608 40.8173 48.4998C37.7108 48.4102 35.0213 46.3171 34.1677 43.3275C34.1171 43.0976 34.2652 42.8676 34.499 42.8208C34.5302 42.813 34.5653 42.8091 34.5965 42.813H52.491C52.9821 42.813 53.3875 42.4311 53.4147 41.9399C53.4498 41.4566 53.4693 41.1175 53.4693 40.9226C53.7344 33.8755 48.2347 27.9471 41.1875 27.682C40.9693 27.6742 40.751 27.6703 40.5288 27.6742C33.6805 27.6742 27.8924 33.6339 27.8924 40.6771C27.791 47.9113 33.5597 53.8709 40.7978 53.9995C44.2434 54.0268 47.5681 52.7133 50.0666 50.3396C50.4408 49.9927 50.4603 49.4041 50.1134 49.0338C50.1083 49.0262 50.1015 49.0202 50.0942 49.0137C50.0903 49.0103 50.0862 49.0067 50.0822 49.0026L47.6929 46.5938Z" fill="black"/>
</g>
<defs>
<clipPath id="clip0_17921_53">
<rect width="89" height="80" fill="white"/>
</clipPath>
</defs>
</svg>
