<svg width="193" height="80" viewBox="0 0 193 80" fill="none" xmlns="http://www.w3.org/2000/svg">
<g clip-path="url(#clip0_17921_132)">
<path fill-rule="evenodd" clip-rule="evenodd" d="M24.907 53.6027V26.2776H29.4328V53.6027H24.907ZM20.4286 34.1296C20.4528 35.3698 20.109 36.5894 19.4406 37.6346C18.7723 38.6798 17.8092 39.5039 16.6728 40.0029C19.7371 41.0551 21.8743 42.814 21.8743 46.4102C21.8743 51.1214 18.0243 53.6341 12.1786 53.6341H0V27.3925H11.7543C17.0343 27.3925 20.4286 29.9837 20.4286 34.1296ZM15.7143 34.852C15.7143 32.7162 14.1428 31.4756 11.1571 31.4756H4.52571V38.4325H10.8114C13.7814 38.4325 15.7143 37.2704 15.7143 34.852ZM17.1757 45.8449C17.1757 43.5992 15.4157 42.2957 11.7857 42.2957H4.52571V49.5196H12.1628C15.3214 49.5196 17.2857 48.2633 17.2857 45.892L17.1757 45.8449ZM45.5715 51.1687V53.6029H50.0187V41.9661C50.0187 36.7524 47.1744 33.6116 41.3444 33.6116C38.7431 33.553 36.163 34.0902 33.8015 35.182L35.0429 38.8096C36.8193 38.0016 38.7484 37.5838 40.7001 37.5847C43.8429 37.5847 45.5715 39.0766 45.5715 41.8091V42.2959C43.8181 41.7488 41.9864 41.4941 40.1501 41.5421C35.5458 41.5421 32.1358 43.6308 32.1358 47.9023C32.1358 51.8754 35.4201 54.0112 39.1758 54.0112C40.3877 54.0529 41.5933 53.8187 42.7013 53.3262C43.8093 52.8338 44.7908 52.096 45.5715 51.1687ZM41.1558 44.4317C42.6996 44.4166 44.2332 44.6827 45.6815 45.2169V46.3319C45.6815 48.8131 43.4501 50.4935 40.4487 50.4935C38.3115 50.4935 36.6301 49.4413 36.6301 47.5725C36.6301 45.5938 38.3115 44.4317 41.1558 44.4317ZM62.7314 54.0425C61.382 54.0595 60.0428 53.8061 58.793 53.2973C57.5432 52.7885 56.408 52.0347 55.4544 51.0803C54.5009 50.1259 53.7483 48.9903 53.2411 47.7405C52.7339 46.4907 52.4824 45.152 52.5014 43.8035C52.4784 42.4446 52.7272 41.0947 53.2331 39.8331C53.7391 38.5716 54.492 37.4237 55.4478 36.4568C56.4036 35.4899 57.543 34.7235 58.7991 34.2026C60.0553 33.6816 61.4029 33.4166 62.7628 33.4231C64.2447 33.3635 65.7209 33.6391 67.0813 34.2291C68.4418 34.8192 69.6514 35.7085 70.62 36.8309L67.8543 39.8618C67.2367 39.0969 66.4567 38.4789 65.5707 38.0524C64.6847 37.626 63.7148 37.4019 62.7314 37.3962C61.9428 37.4282 61.1685 37.617 60.4537 37.9515C59.7388 38.2859 59.0979 38.7594 58.5683 39.3443C58.0387 39.9291 57.631 40.6135 57.3691 41.3576C57.1072 42.1017 56.9963 42.8905 57.0429 43.6778C56.9917 44.4897 57.1059 45.3034 57.3785 46.0698C57.6511 46.8363 58.0764 47.5395 58.6287 48.137C59.1811 48.7345 59.8489 49.2138 60.5919 49.5459C61.3349 49.8781 62.1376 50.0562 62.9514 50.0694C63.9333 50.0431 64.8986 49.8099 65.7841 49.385C66.6696 48.9601 67.4554 48.3532 68.09 47.6039L70.8243 50.2893C69.8584 51.4986 68.6246 52.4671 67.2202 53.1185C65.8158 53.7698 64.2791 54.0861 62.7314 54.0425ZM86.4285 53.6027H91.5985L83.4899 41.8875L91.3471 33.8313H85.8314L77.6442 42.5941V26.2776H73.1028V53.6027H77.6442V47.9492L80.4099 45.1225L86.4285 53.6027ZM105.285 54.011C103.969 54.0214 102.671 53.709 101.504 53.1011C100.337 52.4933 99.3366 51.6086 98.5912 50.5247V53.6655H94.0341V26.2776H98.5755V37.1291C99.2841 35.9901 100.273 35.0514 101.447 34.4026C102.622 33.7539 103.943 33.4166 105.285 33.4229C110 33.4229 114.51 37.1291 114.51 43.7248C114.51 50.3205 110 54.011 105.285 54.011ZM104.233 37.349C103.429 37.3724 102.638 37.5579 101.908 37.8942C101.177 38.2306 100.523 38.7109 99.9826 39.3063C99.4426 39.9017 99.0285 40.6 98.7651 41.3592C98.5017 42.1185 98.3944 42.9231 98.4498 43.7248C98.3944 44.5257 98.5017 45.3296 98.7653 46.088C99.0288 46.8464 99.4432 47.5436 99.9835 48.1378C100.524 48.732 101.179 49.2108 101.909 49.5454C102.639 49.8801 103.43 50.0636 104.233 50.085C107.375 50.085 109.874 47.6509 109.874 43.7248C109.874 39.7988 107.297 37.349 104.233 37.349ZM122.661 53.3362C123.933 53.8359 125.291 54.0761 126.657 54.0425C128.758 54.0542 130.814 53.4385 132.562 52.2745C134.31 51.1105 135.671 49.4512 136.469 47.5094C137.267 45.5676 137.467 43.4317 137.042 41.3757C136.618 39.3197 135.588 37.4373 134.086 35.9699C132.584 34.5024 130.678 33.5168 128.611 33.1394C126.545 32.762 124.412 33.0101 122.488 33.8518C120.564 34.6935 118.935 36.0904 117.81 37.8635C116.685 39.6366 116.116 41.705 116.176 43.8034C116.173 45.1687 116.444 46.5207 116.973 47.7795C117.502 49.0384 118.278 50.1786 119.255 51.133C120.232 52.0873 121.39 52.8365 122.661 53.3362ZM124.299 37.8786C125.044 37.5591 125.846 37.3949 126.657 37.3962C127.479 37.4038 128.292 37.5768 129.046 37.9049C129.8 38.233 130.481 38.7095 131.047 39.3059C131.613 39.9023 132.053 40.6065 132.341 41.3765C132.629 42.1465 132.759 42.9665 132.723 43.7877C132.768 44.5993 132.646 45.4115 132.365 46.1742C132.084 46.937 131.65 47.6341 131.089 48.2226C130.528 48.8112 129.852 49.2787 129.103 49.5963C128.355 49.9139 127.549 50.0749 126.736 50.0694C125.915 50.0597 125.105 49.8851 124.353 49.5558C123.602 49.2266 122.924 48.7496 122.361 48.1532C121.798 47.5567 121.361 46.8531 121.076 46.0842C120.791 45.3153 120.663 44.4969 120.701 43.6778C120.656 42.8689 120.777 42.0593 121.056 41.2987C121.335 40.5381 121.767 39.8424 122.325 39.2543C122.882 38.6663 123.554 38.1981 124.299 37.8786ZM152.083 53.6026V51.1685C151.304 52.0976 150.322 52.8366 149.214 53.3292C148.106 53.8218 146.899 54.055 145.687 54.0109C141.931 54.0109 138.647 51.8752 138.647 47.902C138.647 43.6305 142.057 41.5419 146.661 41.5419C148.517 41.5089 150.365 41.7849 152.13 42.3585V41.8088C152.13 39.0763 150.401 37.5844 147.259 37.5844C145.307 37.5836 143.378 38.0013 141.601 38.8094L140.36 35.1817C142.716 34.0918 145.291 33.5546 147.887 33.6113C153.733 33.6113 156.593 36.7521 156.593 41.9659V53.6026H152.083ZM152.193 45.2166C150.744 44.6824 149.211 44.4164 147.667 44.4314C144.823 44.4314 143.141 45.5935 143.141 47.5722C143.141 49.441 144.823 50.4932 146.96 50.4932C149.946 50.4932 152.193 48.8129 152.193 46.3316V45.2166ZM160.112 53.6028H164.638V46.112C164.638 40.8354 167.404 38.2599 171.38 38.2599H171.647V33.4702C170.11 33.3916 168.591 33.8214 167.324 34.693C166.057 35.5646 165.113 36.8293 164.638 38.2914V33.8314H160.112V53.6028ZM188.053 53.6027V50.3048C187.341 51.4484 186.348 52.39 185.167 53.039C183.986 53.688 182.659 54.0228 181.311 54.011C176.597 54.011 172.134 50.3048 172.134 43.7248C172.134 37.1448 176.581 33.4229 181.311 33.4229C182.633 33.4184 183.936 33.7329 185.11 34.34C186.283 34.947 187.293 35.8284 188.053 36.9093V26.2776H192.578V53.6027H188.053ZM182.395 37.349C179.253 37.349 176.691 39.7517 176.691 43.7248C176.625 44.5217 176.722 45.3238 176.976 46.0819C177.231 46.8401 177.637 47.5382 178.171 48.1337C178.706 48.7292 179.356 49.2094 180.082 49.5449C180.808 49.8805 181.596 50.0642 182.395 50.085C183.193 50.0553 183.977 49.8657 184.7 49.5275C185.423 49.1892 186.07 48.7091 186.604 48.1158C187.137 47.5225 187.546 46.8281 187.806 46.0737C188.065 45.3194 188.171 44.5206 188.115 43.7248C188.173 42.9278 188.069 42.1273 187.811 41.3711C187.552 40.615 187.143 39.9186 186.61 39.3236C186.076 38.7286 185.428 38.2471 184.704 37.9079C183.98 37.5686 183.195 37.3785 182.395 37.349ZM197.735 28.7205C197.908 28.4622 198 28.1586 198 27.848C198 27.4315 197.835 27.0321 197.54 26.7376C197.245 26.443 196.846 26.2776 196.429 26.2776C196.118 26.2776 195.814 26.3697 195.556 26.5422C195.297 26.7148 195.096 26.9601 194.977 27.247C194.858 27.534 194.827 27.8497 194.888 28.1544C194.948 28.459 195.098 28.7388 195.318 28.9584C195.537 29.1781 195.817 29.3276 196.122 29.3882C196.427 29.4488 196.743 29.4177 197.03 29.2989C197.317 29.18 197.563 28.9787 197.735 28.7205ZM195.496 28.7531C195.258 28.512 195.124 28.1868 195.124 27.848C195.121 27.5882 195.196 27.3335 195.339 27.1164C195.482 26.8994 195.686 26.7299 195.926 26.6299C196.166 26.5298 196.43 26.5036 196.685 26.5547C196.94 26.6058 197.174 26.7319 197.357 26.9167C197.539 27.1015 197.663 27.3366 197.711 27.592C197.759 27.8473 197.729 28.1111 197.626 28.3496C197.523 28.5881 197.351 28.7903 197.132 28.9304C196.913 29.0705 196.657 29.142 196.397 29.1357C196.058 29.1316 195.735 28.9941 195.496 28.7531ZM197.12 27.5182C197.12 27.157 196.932 27 196.507 27L195.8 27.0314V28.696H196.193V28.0521H196.476C196.727 28.0521 196.727 28.0679 196.727 28.4133C196.707 28.5065 196.707 28.6029 196.727 28.696H197.199C197.103 28.6412 197.102 28.6342 197.094 28.4249C197.092 28.3942 197.091 28.3592 197.089 28.3191C197.073 28.005 197.057 27.9579 196.932 27.8794C196.991 27.8399 197.039 27.786 197.072 27.7229C197.105 27.6598 197.122 27.5894 197.12 27.5182ZM196.429 27.7224H196.146L196.13 27.3455H196.429C196.578 27.3455 196.644 27.3455 196.673 27.3782C196.696 27.4041 196.696 27.4506 196.696 27.5339C196.696 27.7224 196.633 27.7224 196.429 27.7224Z" fill="black"/>
</g>
<defs>
<clipPath id="clip0_17921_132">
<rect width="193" height="80" fill="white"/>
</clipPath>
</defs>
</svg>
