<svg width="202" height="80" viewBox="0 0 202 80" fill="none" xmlns="http://www.w3.org/2000/svg">
<path opacity="0.85" d="M124.32 29.2437C121.988 29.2437 120.162 30.0854 118.49 31.8354V29.6424H113.892V51.1519H118.842V38.6804C118.842 35.8228 120.536 34.0285 123.088 34.0285C123.55 34.0285 123.968 34.0949 124.254 34.1392L127.686 29.5981C126.344 29.3544 125.2 29.2437 124.32 29.2437ZM167 29.6424H161.302L156.022 36.6646L150.742 29.6424H145.044L153.096 40.4747L145.044 51.1519H150.874L156 44.3513L161.126 51.1519H167L158.882 40.4968L167 29.6424ZM63.072 24.8133C61.378 27.0949 60.982 27.8481 59.354 27.8481H35V57H44.548C46.704 57 48.794 55.9589 50.136 54.2089C51.874 51.8829 52.116 51.1741 53.81 51.1741H78.208V22.0222H68.594C66.438 22.0222 64.348 23.0633 63.072 24.8133ZM70.64 43.6424H60.454C58.232 43.6424 56.208 44.5728 54.866 46.3892C53.128 48.7152 52.776 49.424 51.148 49.424H42.502V35.4462H52.688C54.91 35.4462 56.934 34.4051 58.276 32.6551C60.014 30.3734 60.498 29.6867 62.06 29.6867H70.618V43.6424H70.64ZM107.204 36.4652C109.36 35.2468 110.878 33.076 110.878 30.2184C110.878 26.0316 107.666 22 103.024 22H89.054V51.1519H103.002C108.062 51.1519 111.56 47.5411 111.56 43C111.56 40.3196 110.35 37.9937 107.204 36.4652ZM93.982 26.5633H102.606C104.762 26.5633 106.038 28.6013 106.038 30.4177C106.038 32.6329 104.124 34.1392 102.32 34.1392H93.982V26.5633ZM102.298 46.6108H93.982V38.6804H102.606C104.828 38.6804 106.632 40.6076 106.632 42.5791C106.61 44.7943 104.344 46.6108 102.298 46.6108ZM140.094 44.9715C139.28 46.2563 137.696 47.0095 135.958 47.0095C133.23 47.0095 130.942 45.1487 130.942 42.2911H145.726C145.968 41.4272 146.012 41.0063 146.012 40.2532C146.012 33.7184 141.986 29.2437 135.936 29.2437C129.996 29.2437 125.794 33.4968 125.794 40.4304C125.794 47.1867 129.82 51.5728 136.046 51.5728C140.424 51.5728 144.252 49.424 145.352 44.9937C145.396 44.9715 140.094 44.9715 140.094 44.9715ZM135.958 33.7848C138.686 33.7848 140.798 35.5348 140.732 38.1487H131.008C131.008 35.6013 133.23 33.7848 135.958 33.7848Z" fill="black"/>
</svg>
