<svg width="232" height="80" viewBox="0 0 232 80" fill="none" xmlns="http://www.w3.org/2000/svg">
<path fill-rule="evenodd" clip-rule="evenodd" d="M28.9475 49.694H33.9366V11H28.9475V49.694ZM61.2033 26.3154L61.8414 24.053H66.1923V49.4622H61.8414L61.2033 47.1998C59.7529 48.5921 57.0264 50.2744 53.9517 50.2744C47.9765 50.2744 42.1753 45.3434 42.1753 36.6416C42.1753 28.3458 47.7444 23.1828 53.9517 23.1828C57.0844 23.1828 59.7529 24.8651 61.2033 26.3154ZM54.5899 45.3434C57.6645 45.3434 61.2033 42.6748 61.2033 36.8736V36.4675C61.2033 30.8984 57.7225 27.9978 54.1838 27.9978C49.4268 27.9978 47.3384 32.3487 47.3384 36.4675C47.3384 43.0809 51.2832 45.3434 54.5899 45.3434ZM137.953 23.1828C134.879 23.1828 132.152 24.8651 130.702 26.2574L130.064 23.9949H125.713V60.8326H130.47V48.0119H130.702C132.152 49.6363 134.821 50.9125 137.547 50.9125C143.987 50.9125 149.73 46.5616 149.73 37.0477C149.73 27.9398 144.161 23.1828 137.953 23.1828ZM137.315 45.7495C134.009 45.7495 130.702 43.0809 130.702 37.0477V36.8156C130.702 31.2465 134.241 28.1138 137.721 28.1138C142.478 28.1138 144.567 32.4647 144.567 36.5836C144.335 43.487 140.622 45.7495 137.315 45.7495ZM174.733 26.3158L175.371 24.0533H179.722V49.5206H175.371L174.733 47.2582C173.282 48.6505 170.556 50.3328 167.481 50.3328C161.506 50.3328 155.705 45.4018 155.705 36.7C155.705 28.4042 161.274 23.2412 167.481 23.2412C170.614 23.2412 173.282 24.8655 174.733 26.3158ZM168.351 45.3438C171.426 45.3438 174.965 42.6752 174.965 36.874V36.4679C174.965 30.8988 171.484 27.9982 167.945 27.9982C163.188 27.9982 161.1 32.3491 161.1 36.4679C161.1 43.0813 165.045 45.3438 168.351 45.3438ZM195.674 39.1362C199.213 40.1804 200.663 40.7605 200.663 42.6749C200.663 44.1252 199.445 45.5755 196.544 45.5755C193.876 45.5755 191.787 44.5313 189.931 43.4871L187.669 47.838C189.525 49.0563 193.238 50.5066 196.777 50.5066C202.346 50.5066 205.652 46.5617 205.652 42.6749C205.652 36.3789 199.816 34.9726 197.654 34.4517C197.545 34.4255 197.446 34.4015 197.357 34.3792C193.644 33.335 192.832 32.6969 192.832 31.0725C192.832 29.3902 194.282 28.404 196.777 28.404C198.754 28.404 200.289 29.0247 201.729 29.6072C201.936 29.691 202.141 29.774 202.346 29.8543L204.84 25.5034C202.578 24.4591 199.851 23.4149 196.777 23.4149C191.207 23.4149 187.901 27.3598 187.901 31.0725C188.017 36.6417 192.948 38.324 195.674 39.1362ZM221.723 39.1362C225.261 40.1804 226.712 40.7605 226.712 42.6749C226.712 44.1252 225.494 45.5755 222.593 45.5755C219.924 45.5755 217.836 44.5313 215.98 43.4871L213.717 47.838C215.573 49.0563 219.286 50.5066 222.825 50.5066C228.394 50.5066 231.701 46.5617 231.701 42.6749C231.701 36.3789 225.865 34.9726 223.703 34.4517C223.594 34.4255 223.494 34.4015 223.405 34.3792C219.692 33.335 218.88 32.6969 218.88 31.0725C218.88 29.3902 220.33 28.404 222.825 28.404C224.803 28.404 226.338 29.0247 227.778 29.6073C227.985 29.691 228.19 29.774 228.394 29.8543L230.889 25.5034C228.626 24.4591 225.9 23.4149 222.825 23.4149C217.256 23.4149 213.949 27.3598 213.949 31.0725C213.833 36.6417 218.822 38.324 221.723 39.1362ZM112.95 42.6749C112.95 40.7605 111.5 40.1804 107.961 39.1362C105.292 38.324 100.303 36.6417 100.187 31.0725C100.187 27.3598 103.494 23.4149 109.063 23.4149C112.138 23.4149 114.864 24.4591 117.127 25.5034L114.632 29.8543C114.428 29.774 114.223 29.6911 114.016 29.6073L114.016 29.6073C112.576 29.0247 111.041 28.404 109.063 28.404C106.569 28.404 105.118 29.3902 105.118 31.0725C105.118 32.6969 105.93 33.335 109.643 34.3792C109.732 34.4015 109.832 34.4254 109.94 34.4516L109.941 34.4517L109.941 34.4517C112.103 34.9726 117.939 36.3789 117.939 42.6749C117.939 46.5617 114.632 50.5066 109.063 50.5066C105.524 50.5066 101.812 49.0563 99.9551 47.838L102.218 43.4871C104.074 44.5313 106.162 45.5755 108.831 45.5755C111.732 45.5755 112.95 44.1252 112.95 42.6749ZM82.0867 39.1362C85.6255 40.1804 87.0758 40.7605 87.0758 42.6749C87.0758 44.1252 85.8575 45.5755 82.9569 45.5755C80.2883 45.5755 78.1999 44.5313 76.3435 43.4871L74.081 47.838C75.9374 49.0563 79.6502 50.5066 83.1889 50.5066C88.7581 50.5066 92.0648 46.5617 92.0648 42.6749C92.0648 36.3789 86.2286 34.9726 84.0667 34.4517L84.0665 34.4517C83.9576 34.4255 83.8581 34.4015 83.7691 34.3792C80.0563 33.335 79.2441 32.6969 79.2441 31.0725C79.2441 29.3902 80.6944 28.404 83.1889 28.404C85.1669 28.404 86.7015 29.0247 88.1416 29.6073L88.1417 29.6073C88.3488 29.6911 88.5539 29.774 88.7581 29.8543L91.2526 25.5034C88.9902 24.4591 86.2636 23.4149 83.1889 23.4149C77.6198 23.4149 74.3131 27.3598 74.3131 31.0725C74.4291 36.6417 79.1861 38.324 82.0867 39.1362ZM5.16308 36.6415C5.16308 41.1664 8.06369 45.1112 12.8207 45.1112C14.6771 45.1112 16.5335 44.2991 17.9838 43.4869L20.3043 47.7798C20.1734 47.8534 20.0401 47.9291 19.9045 48.0061C18.1169 49.0213 15.9106 50.2743 13.0527 50.2743C5.56917 50.2743 0 44.5311 0 36.6415C0 28.8098 5.39513 23.0086 12.9947 22.9506C15.8953 22.9506 18.5639 24.4009 20.2462 25.4451L17.9838 29.796C17.7913 29.6882 17.5988 29.5764 17.4044 29.4634C16.1342 28.7251 14.7829 27.9397 12.8207 27.9397C8.23773 27.9397 5.16308 31.4784 5.16308 36.6415Z" fill="black"/>
</svg>
