<svg width="683" height="143" viewBox="0 0 683 143" fill="none" xmlns="http://www.w3.org/2000/svg">
<path d="M512.901 76.671C518.645 78.366 520.999 79.3076 520.999 82.4151C520.999 84.7692 519.022 87.1233 514.313 87.1233C509.982 87.1233 506.592 85.4284 503.579 83.7334L499.906 90.7957C502.92 92.7732 508.946 95.1273 514.69 95.1273C523.73 95.1273 529.097 88.7241 529.097 82.4151C529.097 71.6803 518.645 69.7028 515.632 68.9495C509.605 67.2545 508.287 66.2187 508.287 63.5821C508.287 60.8513 510.641 59.2505 514.69 59.2505C518.363 59.2505 521.093 60.5688 523.73 61.6046L527.779 54.5423C524.107 52.8473 519.681 51.1523 514.69 51.1523C505.65 51.1523 500.283 57.5556 500.283 63.5821C500.095 72.6219 508.193 75.3527 512.901 76.671Z" fill="black"/>
<path d="M470.616 76.671C476.36 78.366 478.714 79.3076 478.714 82.4151C478.714 84.7692 476.737 87.1233 472.028 87.1233C467.697 87.1233 464.307 85.4284 461.294 83.7334L457.621 90.7957C460.634 92.7732 466.661 95.1273 472.405 95.1273C481.445 95.1273 486.812 88.7241 486.812 82.4151C486.812 71.6803 476.36 69.7028 473.347 68.9495C467.32 67.2545 466.002 66.2187 466.002 63.5821C466.002 60.8513 468.356 59.2505 472.405 59.2505C476.077 59.2505 478.808 60.5688 481.445 61.6046L485.494 54.5423C481.821 52.8473 477.396 51.1523 472.405 51.1523C463.365 51.1523 457.998 57.5556 457.998 63.5821C458.186 72.6219 466.19 75.3527 470.616 76.671Z" fill="black"/>
<path d="M437.664 52.1865L436.628 55.8589C434.274 53.5048 429.943 50.8682 424.858 50.8682C414.782 50.8682 405.742 59.2488 405.742 72.7144C405.742 86.8391 415.159 94.8432 424.858 94.8432C429.848 94.8432 434.274 92.1124 436.628 89.8524L437.664 93.5248H444.726V52.1865H437.664ZM437.005 72.9969C437.005 82.4134 431.261 86.745 426.27 86.745C420.903 86.745 414.5 83.0725 414.5 72.3378C414.5 65.652 417.889 58.5897 425.611 58.5897C431.355 58.5897 437.005 63.2979 437.005 72.3378V72.9969Z" fill="black"/>
<path d="M376.923 50.7744C371.933 50.7744 367.507 53.5052 365.153 55.7652L364.117 52.0927H357.055V111.887H364.776V91.077H365.153C367.507 93.7136 371.839 95.7852 376.264 95.7852C386.717 95.7852 396.039 88.7229 396.039 73.2798C396.039 58.4959 386.999 50.7744 376.923 50.7744ZM375.888 87.4046C370.52 87.4046 365.153 83.073 365.153 73.2798V72.9032C365.153 63.8633 370.897 58.7784 376.547 58.7784C384.268 58.7784 387.658 65.8408 387.658 72.5265C387.282 83.7321 381.255 87.4046 375.888 87.4046Z" fill="black"/>
<path d="M328.241 76.671C333.985 78.366 336.339 79.3076 336.339 82.4151C336.339 84.7692 334.362 87.1233 329.653 87.1233C325.322 87.1233 321.932 85.4284 318.919 83.7334L315.246 90.7957C318.259 92.7732 324.286 95.1273 330.03 95.1273C339.07 95.1273 344.437 88.7241 344.437 82.4151C344.437 71.6803 333.985 69.7028 330.972 68.9495C324.945 67.2545 323.627 66.2187 323.627 63.5821C323.627 60.8513 325.981 59.2505 330.03 59.2505C333.702 59.2505 336.433 60.5688 339.07 61.6046L343.119 54.5423C339.446 52.8473 335.021 51.1523 330.03 51.1523C320.99 51.1523 315.623 57.5556 315.623 63.5821C315.811 72.6219 323.909 75.3527 328.241 76.671Z" fill="black"/>
<path d="M286.241 76.671C291.985 78.366 294.339 79.3076 294.339 82.4151C294.339 84.7692 292.362 87.1233 287.653 87.1233C283.322 87.1233 279.932 85.4284 276.919 83.7334L273.246 90.7957C276.259 92.7732 282.286 95.1273 288.03 95.1273C297.07 95.1273 302.437 88.7241 302.437 82.4151C302.437 71.6803 291.985 69.7028 288.972 68.9495C282.945 67.2545 281.627 66.2187 281.627 63.5821C281.627 60.8513 283.981 59.2505 288.03 59.2505C291.702 59.2505 294.433 60.5688 297.07 61.6046L301.119 54.5423C297.446 52.8473 293.021 51.1523 288.03 51.1523C278.99 51.1523 273.623 57.5556 273.623 63.5821C273.811 72.6219 281.533 75.3527 286.241 76.671Z" fill="black"/>
<path d="M253.379 52.1869L252.343 55.8593C249.989 53.5052 245.657 50.7744 240.573 50.7744C230.497 50.7744 221.457 59.1551 221.457 72.6207C221.457 86.7454 230.874 94.7494 240.573 94.7494C245.563 94.7494 249.989 92.0186 252.343 89.7587L253.379 93.4311H260.441V52.1869H253.379ZM252.343 72.9973C252.343 82.4138 246.599 86.7454 241.608 86.7454C236.241 86.7454 229.838 83.073 229.838 72.3382C229.838 65.6525 233.228 58.5901 240.949 58.5901C246.693 58.5901 252.343 63.2983 252.343 72.3382V72.9973Z" fill="black"/>
<path d="M199.988 93.808H208.086V31H199.988V93.808Z" fill="black"/>
<path d="M173.81 86.3684C166.089 86.3684 161.381 79.9652 161.381 72.6204C161.381 64.2397 166.371 58.4956 173.81 58.4956C177.483 58.4956 179.837 60.1906 182.191 61.5089L185.864 54.4465C183.133 52.7516 178.801 50.3975 174.093 50.3975C161.757 50.4916 153 59.9081 153 72.6204C153 85.4268 162.04 94.7491 174.187 94.7491C179.178 94.7491 182.944 92.395 185.958 90.7L182.191 83.7318C179.837 85.0501 176.824 86.3684 173.81 86.3684Z" fill="black"/>
</svg>
