<svg width="153" height="80" viewBox="0 0 153 80" fill="none" xmlns="http://www.w3.org/2000/svg">
<g opacity="0.85">
<path d="M58.7537 56.7025C53.0606 53.0351 45.3343 52.3915 32.8737 55.8485C19.5901 58.9701 15.1611 60.9712 9.34465 56.9542C7.11009 54.9808 6.30894 51.8036 6.90717 47.227C8.29469 39.7663 12.0443 32.5866 18.7046 24.6226C22.4223 20.4797 25.8707 16.9244 30.4244 15.4967C33.9143 14.6011 33.5881 17.3438 33.1658 17.7361C32.7202 17.7361 31.9716 17.8062 31.3931 18.1838C30.9236 18.5479 29.6347 19.7237 29.5655 21.3054C29.4657 23.7266 31.9714 23.2226 33.0522 21.8933C34.2171 20.3952 35.9387 17.5265 34.5845 14.8528C34.0168 13.9011 33.0361 13.2434 31.8184 13.0195C27.6488 12.7812 23.7655 14.7688 20.1816 16.9663C12.3438 22.411 6.07408 29.9554 2.5264 38.2136C0.480979 43.1962 -1.36879 50.3337 1.40395 56.1429C3.54882 60.1737 8.00188 62.3147 13.3146 61.867C17.0407 61.4755 21.5464 60.2712 24.5768 59.5441C27.6071 58.8158 43.1192 53.4835 48.216 62.764C48.216 62.764 49.9109 59.4739 54.1465 59.4037C57.6288 59.0824 62.6523 60.4118 66.3107 63.0986C65.0919 61.2657 61.6364 58.5643 58.7537 56.7025Z" fill="black"/>
<path d="M34.4557 25.5605C31.5544 23.657 25.7232 27.2961 21.0527 33.5383C16.7817 39.1375 14.9375 45.6452 16.9445 48.6545C19.9301 52.1955 25.4725 47.0449 27.8294 44.2881L28.1335 43.9658C29.7364 42.2442 30.9747 40.1726 32.1733 38.1849C32.1733 38.1849 33.2749 36.3654 33.3275 36.2812C34.0083 36.1557 34.8284 35.9597 35.7525 35.6937C35.7394 35.7354 32.2169 41.6561 32.5763 44.5948C32.6881 45.4914 32.6027 48.7666 35.8004 49.7601C40.0622 50.4744 43.4653 47.1708 46.4675 44.2315C46.4675 44.2315 46.9791 43.7421 47.2685 43.4626C47.1952 43.7558 47.0998 44.1469 47.0998 44.1469C45.8521 48.486 47.5339 49.3964 48.586 49.7324C51.7655 50.6567 55.5639 46.0374 55.5762 46.0374C55.4777 47.4925 55.1897 48.6962 56.7235 49.662C58.1712 50.1803 59.6364 49.3902 60.7501 48.6484C64.7615 45.8211 67.9933 41.3962 70.6036 37.5712H68.9386C68.9189 37.5712 64.83 43.4976 62.1749 44.7857C62.1707 44.7857 61.6876 45.0338 61.4091 44.8375C61.0645 44.5434 61.2005 43.9322 61.4133 43.4992C61.4267 43.4709 71.6649 25.7137 71.6649 25.7137H66.8309C66.8309 25.7137 66.3028 26.568 66.2598 26.624C66.2273 26.5961 66.1498 26.4492 66.0961 26.3789C63.1011 22.236 56.3188 28.6084 51.2126 35.9983C49.2468 38.8399 46.7439 42.0394 44.1486 44.3487C44.1486 44.3487 40.3039 47.8731 38.6611 45.3409C38.0606 44.277 38.2453 42.7215 38.584 41.7001C40.4967 36.2554 43.7925 31.3141 47.5429 28.3325C48.6017 27.5072 49.7524 27.2686 50.3235 27.6185C50.8676 27.941 50.9554 28.7381 50.6111 29.2841C49.7377 29.2562 49.0379 29.5217 48.469 30.1096C47.3482 31.2854 46.9588 32.4193 47.3151 33.4832C49.0461 35.9465 52.4984 31.0756 52.3314 28.1083C52.2718 27.0444 51.7041 26.0369 50.8571 25.5465C49.5947 24.7911 47.6688 24.9867 46.4224 25.589C44.7539 26.2186 42.1128 28.4159 40.5711 30.1237C38.6303 32.2655 35.3018 34.6447 34.2608 34.3783C34.6018 33.4681 37.4134 27.7157 34.4557 25.5605ZM57.7616 34.0704C58.702 32.7689 61.4389 29.2836 62.1062 28.6958C64.3503 26.7216 65.2473 27.5902 65.325 28.2057C63.2306 31.9567 60.7587 36.2539 58.4346 40.1171C58.4394 40.1033 57.7073 41.2227 57.7073 41.2227C56.6808 42.79 55.6473 44.1337 53.9615 45.0714C53.7211 45.1418 53.3248 45.1699 53.0611 44.9733C52.7436 44.7633 52.6183 44.4133 52.6541 44.0492C52.7551 42.8459 53.9804 39.1654 57.7616 34.0704ZM31.4638 36.3237C31.4638 36.3237 31.4217 36.4501 31.4008 36.4914C31.3955 36.4914 29.2933 39.9201 29.2933 39.9201C28.0245 41.614 26.4404 43.7421 24.4602 44.7633C23.8732 44.9594 23.062 45.0856 22.6485 44.5681C21.772 43.5181 22.2237 42.0625 22.5907 40.8869L22.7206 40.4669C23.7728 37.6119 25.4425 35.092 27.0675 32.7546C27.0878 32.7408 27.1333 32.7268 27.1497 32.7268C27.1536 32.7408 27.1601 32.7408 27.1629 32.7689C28.1827 34.7281 30.0948 35.6375 31.5248 36.058C31.5334 36.058 31.5426 36.072 31.5426 36.1001C31.5428 36.1418 31.5194 36.1982 31.4638 36.3237ZM33.4554 32.2791C33.4463 32.307 32.5191 34.4343 32.5191 34.4343C32.385 34.5462 32.1731 34.4903 31.9302 34.4343L31.5141 34.3639C30.2073 33.9583 29.2216 33.0904 28.9177 32.0548C28.4984 30.0392 30.2203 28.4576 30.979 27.884C31.7068 27.3797 32.8385 27.1138 33.4956 27.6319C33.9009 28.1079 34.0544 28.7236 34.0544 29.3958C34.0546 30.3054 33.7739 31.3271 33.4554 32.2791Z" fill="black"/>
<path d="M94.5675 38.7726C94.1014 37.7651 92.9948 37.1212 91.8156 37.191C87.9862 37.5412 84.2406 40.6903 82.2739 45.2109C81.2419 47.5345 80.6787 49.4518 80.3094 52.503C81.5001 51.1318 83.929 48.8785 86.6853 47.6466C86.6853 47.6466 87.0603 44.7215 88.9728 42.118C89.6965 41.0399 91.1449 39.3045 92.7711 39.7662C94.1919 40.2424 93.6925 44.1754 91.8041 47.9817C90.4068 50.7814 88.2687 53.5815 86.1052 55.5125C84.1925 57.1362 81.3626 59.0956 78.8867 57.5842C77.3272 56.6608 76.5318 54.7288 76.6999 52.2374C77.4451 45.1694 80.6625 39.1507 85.2668 32.2925C90.0144 25.9241 95.2478 19.3877 102.298 15.902C103.736 15.1743 105.067 15.0064 106.219 15.4543C106.219 15.4543 99.6006 19.0934 96.4459 25.826C95.6434 27.5338 94.5273 29.8426 95.6513 31.8863C96.2386 32.9498 97.2815 33.034 98.1211 32.9779C101.988 32.0819 104.486 28.4709 106.527 25.1681C107.711 22.6627 108.763 20.1713 108.763 17.3999C108.763 17.064 108.745 16.6163 108.717 16.2801C110.564 15.3007 114.353 17.0359 114.353 17.0359C117.313 18.0161 123.616 22.8451 125.743 23.7685C126.78 22.565 128.484 20.7456 129.444 19.8356L128.055 18.9817C125.831 17.624 123.479 16.3361 121.165 15.0626C115.91 12.1937 111.632 13.2012 109.455 13.9851C108.599 14.2928 107.817 14.5588 107.817 14.5588C106.202 12.7953 103.552 12.9629 101.6 13.4391C94.578 15.4545 88.0589 20.3671 81.0696 28.8913C75.9311 35.5678 72.7438 41.3346 71.0449 47.031C69.7354 50.8657 69.3374 56.5065 72.5336 59.8518C75.251 62.6923 78.8544 62.077 81.399 61.0555C86.9121 58.3402 91.8672 52.4893 94.3363 45.7569C94.932 43.7556 95.5933 40.9284 94.5675 38.7726ZM107.245 17.68C106.515 26.0501 100.009 30.9633 98.399 31.3546C97.4234 31.5503 95.7588 31.1167 97.2448 27.604C99.4333 22.8727 103.17 18.856 107.178 16.7984C107.276 17.1484 107.273 17.3718 107.245 17.68Z" fill="black"/>
<path d="M145.838 18.7435C142.339 20.7313 138.711 22.0186 134.319 21.5709C133.102 22.9429 131.917 24.3564 130.825 25.8119C136.989 27.3795 143.523 23.8944 147.167 20.5775C151.023 17.2322 153 13.0195 153 13.0195C153 13.0195 150.11 16.3224 145.838 18.7435Z" fill="black"/>
<path d="M77.1088 29.9211L79.6993 25.7136H75.1086L72.519 29.9211H77.1088Z" fill="black"/>
<path d="M134.301 57.0923C133.808 57.4281 133.114 57.1699 133.374 56.4003C134.019 54.4408 136.587 50.4475 136.587 50.4475L143.739 37.7626H138.84C138.607 38.1451 138.109 39.0235 138.109 39.0235C137.883 38.646 137.205 37.8064 136.926 37.6251C135.729 36.8687 133.973 37.2264 132.762 37.912C127.495 40.9917 123.652 47.0763 120.621 51.8214C120.621 51.8214 117.431 57.0961 115.66 57.4883C114.278 57.6004 114.42 55.738 114.48 55.3041C115.015 52.1683 116.256 49.1873 117.507 46.4859C120.051 44.7224 122.954 42.4131 125.592 39.8798C131.318 34.4066 136.145 28.2061 136.85 26.8205C136.85 26.8205 136.087 26.9746 135.185 27.0023C130.78 33.1468 121.766 42.077 119.033 43.4064C120.244 40.4946 128.065 26.5963 134.721 19.9481L135.769 18.94C137.388 17.3584 139.067 15.7348 140.374 15.4688C140.513 15.4549 140.69 15.4688 140.844 15.7913C140.902 17.0227 140.444 17.9327 139.918 18.9683L139.181 20.4801C139.181 20.4801 140.225 20.2841 140.911 20.0596C141.706 18.5627 142.587 16.8825 142.262 14.8815C142.154 14.2376 141.688 13.7478 141.079 13.6357C139.093 13.2578 136.929 14.727 135.188 15.9171L135.118 15.9588C126.167 22.9712 118.609 33.0768 112.001 46.8776C111.522 47.241 109.672 47.6753 109.357 47.4651C110.01 46.1218 110.831 44.3158 111.242 42.3563C111.314 41.7963 111.38 41.2227 111.38 40.6629C111.38 39.4583 111.091 38.3249 110.011 37.5414C108.746 36.9114 107.182 37.2055 106.128 37.6812C101.404 39.6407 97.8741 44.4839 95.3267 48.4724C93.9565 51.0065 92.5904 53.7205 92.2122 56.8283C91.9457 59.2633 92.4881 60.831 93.8726 61.6151C95.2964 62.3425 97.0885 61.5864 97.7924 61.2229C102.578 58.7035 105.921 53.6511 108.557 49.0318C108.662 49.0181 110.101 48.9764 111.189 48.696C111.203 48.696 111.21 48.696 111.234 48.7107C111.171 48.9198 110.609 50.5999 110.609 50.5999C108.938 55.4984 108.166 58.83 109.744 60.8031C111.998 63.5886 115.731 60.7056 118.768 56.8978C118.116 61.4606 120.481 62.1747 122.283 61.8251C124.354 61.2655 126.661 59.0535 127.732 57.9202C127.388 59.2496 127.482 61.6293 129.365 61.867C130.656 62.1057 131.623 61.4034 132.741 60.8014C136.751 58.6177 141.552 51.3412 142.798 49.2374H141.164C139.392 51.9151 137.137 55.4259 134.301 57.0923ZM98.3046 56.605C98.0503 56.2271 97.9659 55.8138 97.9575 55.367C97.9087 52.6226 100.861 47.7076 102.946 45.0301C102.95 45.0301 102.95 45.0301 102.95 45.0301C103.824 46.9426 105.801 48.172 106.995 48.6901C105.512 51.9935 100.427 59.0683 98.3046 56.605ZM107.832 47.2133C107.691 47.3117 105.197 46.4716 104.715 44.1622C104.306 42.174 105.675 40.6205 107 39.8373C107.568 39.3892 108.425 39.2356 109.053 39.4586C109.636 39.8511 109.794 40.5514 109.794 41.3061C109.794 41.7689 109.733 42.2444 109.679 42.6781C109.679 42.6781 109.668 42.7625 109.667 42.7764C109.251 44.3296 108.615 45.8554 107.832 47.2133ZM127.836 55.7233C127.834 55.7233 127.363 56.1431 127.363 56.1431C126.69 56.7446 125.998 57.3885 125.162 57.0664C124.931 56.9825 124.769 56.675 124.73 56.4363C124.692 54.7146 125.467 53.1194 126.219 51.5661L126.412 51.1599C128.575 47.5489 131.088 43.294 134.78 40.3411C135.402 39.8922 136.077 39.5151 136.79 39.8092C136.954 39.9628 137.145 40.229 137.145 40.4946C137.145 40.579 137.07 40.8027 137.027 40.8724C135.996 42.5387 135.014 44.2881 134.059 45.9674C132.193 49.2849 130.257 52.7136 127.836 55.7233Z" fill="black"/>
</g>
</svg>
