<svg width="683" height="143" viewBox="0 0 683 143" fill="none" xmlns="http://www.w3.org/2000/svg">
<path d="M183.419 82.4063C179.922 93.0699 173.979 102.37 158.35 102.964C154.381 103.102 150.425 102.432 146.723 100.996C143.02 99.5589 139.648 97.3853 136.81 94.6065C133.972 91.8278 131.729 88.5017 130.215 84.83C128.701 81.1582 127.948 77.2173 128.003 73.2461C128.003 46.5345 149.47 40.0664 158.036 40.0664C167.79 40.0664 181.601 44.5766 181.601 56.1143C181.692 57.0828 181.588 58.0597 181.297 58.9878C181.005 59.9158 180.531 60.7763 179.903 61.5188C179.274 62.2613 178.504 62.8708 177.637 63.3116C176.77 63.7524 175.823 64.0156 174.853 64.0858C173.924 64.1254 172.997 63.9716 172.131 63.6342C171.265 63.2968 170.478 62.7831 169.82 62.1258C169.163 61.4684 168.649 60.6816 168.312 59.8153C167.975 58.949 167.821 58.0221 167.86 57.0933C167.86 51.2545 172.685 50.4853 172.685 48.8421C172.685 44.7864 163.21 43.1431 159.924 43.1431C145.519 43.1431 141.743 53.632 141.743 73.351C141.676 79.4953 142.743 85.5994 144.89 91.3568C147.127 96.3215 151.882 99.4681 159.609 99.9227C168.315 100.377 176.741 93.3147 180.342 82.4413L183.419 82.4063ZM201.949 71.5329C201.949 84.1544 201.949 100.062 217.263 100.062C232.576 100.062 232.576 84.1544 232.576 71.5329C232.576 58.9113 232.576 43.1431 217.263 43.1431C201.949 43.1431 201.949 58.9813 201.949 71.5329ZM246.247 71.5329C246.247 89.7135 233.031 102.999 217.263 102.999C201.494 102.999 188.279 89.6436 188.279 71.5329C188.279 53.4222 201.494 40.0664 217.123 40.0664C232.751 40.0664 246.107 53.2823 246.107 71.5329H246.247ZM256.91 45.0311H248.589V41.5348H251.736C254.548 41.5835 257.361 41.4785 260.162 41.2202C263.009 41.0681 265.839 40.6822 268.623 40.0664V55.9745H268.938C273.063 46.5345 279.007 40.0664 289.95 40.0664C295.335 40.0664 307.816 41.2551 307.816 55.1004V97.5801H315.928V101.076H288.307V97.5801H296.104V57.0583C296.104 46.08 292.607 44.4368 286.664 44.4368C276.455 44.4368 268.623 58.4219 268.623 69.6799V97.6501H276.734V101.146H248.589V97.6501H256.841L256.91 45.0311Z" fill="black"/>
<path d="M311.453 45.0316V41.5703H338.479V45.0316H330.543L345.087 88.1407H345.402L360.576 45.0316H351.416V41.5703H371.834V45.0316H364.631L343.899 103H338.759L318.655 45.0316H311.453Z" fill="black"/>
<path d="M412.22 62.4428V57.3382C412.22 46.5347 405.891 43.0734 398.234 43.0734C395.346 43.2189 392.56 44.1885 390.206 45.8676C387.851 47.5467 386.027 49.865 384.949 52.5483C384.039 55.7685 383.569 59.0967 383.55 62.4428H412.22ZM425.75 82.4065C422.743 96.3916 412.534 102.965 399.318 102.965C391.521 103.005 384.017 99.9966 378.406 94.5818C372.795 89.167 369.522 81.7743 369.285 73.9805C369.25 56.2894 380.963 40.0666 398.934 40.0666C402.503 39.8895 406.07 40.4567 409.408 41.7322C412.746 43.0078 415.783 44.9637 418.324 47.4757C420.866 49.9878 422.857 53.001 424.172 56.3241C425.486 59.6471 426.095 63.2072 425.96 66.7782H383.375V72.9316C383.375 87.7908 385.333 99.818 401.696 99.818C406.559 99.4815 411.19 97.6062 414.917 94.4634C418.645 91.3207 421.275 87.0736 422.429 82.3366L425.75 82.4065ZM437.393 45.0313H429.037V41.5351H432.183C434.996 41.5836 437.808 41.4786 440.609 41.2204C443.433 41.0641 446.239 40.6782 449 40.0666V55.9747H449.315C453.511 46.5347 459.384 40.0666 470.293 40.0666C475.677 40.0666 488.159 41.2554 488.159 55.1006V97.5804H496.27V101.077H468.649V97.5804H476.446V57.0585C476.446 46.0802 472.95 44.437 467.006 44.437C456.797 44.437 448.965 58.4221 448.965 69.6801V97.6503H457.077V101.147H429.107V97.6503H437.393V45.0313ZM540.848 62.4428V57.3382C540.848 46.5347 534.554 43.0734 526.862 43.0734C523.961 43.2015 521.158 44.1634 518.789 45.8438C516.42 47.5243 514.586 49.8521 513.507 52.5483C512.556 55.7742 512.05 59.1149 512.003 62.4778L540.848 62.4428ZM554.343 82.4065C551.336 96.3916 541.127 102.965 527.911 102.965C520.114 103.005 512.61 99.9966 506.999 94.5818C501.388 89.167 498.115 81.7743 497.878 73.9805C497.878 56.2544 509.591 40.0317 527.457 40.0317C531.026 39.8546 534.593 40.4218 537.931 41.6973C541.269 42.9728 544.306 44.9287 546.847 47.4408C549.389 49.9528 551.38 52.9661 552.695 56.2891C554.009 59.6121 554.618 63.1722 554.483 66.7432H512.003V72.8967C512.003 87.7558 513.961 99.783 530.324 99.783C535.187 99.4465 539.818 97.5712 543.545 94.4285C547.273 91.2858 549.903 87.0386 551.057 82.3016L554.343 82.4065Z" fill="black"/>
</svg>
