<svg width="131" height="80" viewBox="0 0 131 80" fill="none" xmlns="http://www.w3.org/2000/svg">
<g opacity="0.85">
<mask id="mask0_1353_856" style="mask-type:luminance" maskUnits="userSpaceOnUse" x="0" y="24" width="131" height="33">
<path d="M130.829 56.2465V24H0V56.2465H130.829Z" fill="white"/>
</mask>
<g mask="url(#mask0_1353_856)">
<path fill-rule="evenodd" clip-rule="evenodd" d="M75.951 48.7023C76.6654 45.7889 75.7907 43.078 73.5692 39.7128C71.4483 36.5138 70.533 34.8657 70.6358 32.3309C70.7692 28.9733 72.9348 26.2786 76.2101 24.2362C74.6673 24.2362 65.8522 24.2494 65.8522 24.2494C62.0585 27.0349 60.6287 31.0016 60.6602 33.756C60.7033 36.2742 61.4902 38.1316 63.1631 40.5304C64.5396 42.4936 65.8901 44.2171 65.9485 46.5396C66.0069 49.4731 63.8038 51.9409 60.9386 53.8418L69.7081 56.2466C72.3836 54.6224 75.2024 51.6754 75.951 48.7023ZM81.9013 31.6705H87.4493V51.2141H95.5435V31.6705H101.103V24.6382H81.9013V31.6705ZM23.896 47.8753L18.3434 42.3239C17.215 43.437 15.6986 44.1144 13.9942 44.1144C10.6123 44.1144 7.86181 41.3767 7.86181 37.9786C7.86181 34.6001 10.6123 31.8491 13.9942 31.8491C15.705 31.8491 17.2721 32.55 18.3928 33.6831L23.9472 28.136C21.4026 25.5748 17.8881 24 13.9942 24C6.26402 24 -0.00012207 30.2543 -0.00012207 37.9786C-0.00012207 45.7122 6.26402 51.9712 13.9942 51.9712C17.8578 51.9712 21.3629 50.4096 23.896 47.8753ZM115.205 40.55L117.212 32.2115H117.298L119.261 40.55H115.205ZM122.222 24.6382H112.458L104.04 51.2141H112.682L113.792 46.8888H120.803L121.897 51.2141H130.829L122.222 24.6382ZM41.0028 44.108C37.618 44.108 34.8602 41.357 34.8602 37.9752C34.8602 34.5899 37.618 31.8427 41.0028 31.8427C44.3975 31.8427 47.1455 34.5899 47.1455 37.9752C47.1455 41.357 44.3975 44.108 41.0028 44.108ZM41.0028 24C33.2722 24 27.0136 30.2543 27.0136 37.9786C27.0136 45.7122 33.2722 51.9712 41.0028 51.9712C48.7416 51.9712 54.9993 45.7122 54.9993 37.9786C54.9993 30.2543 48.7416 24 41.0028 24Z" fill="black"/>
</g>
</g>
</svg>
