<svg width="168" height="80" viewBox="0 0 168 80" fill="none" xmlns="http://www.w3.org/2000/svg">
<g clip-path="url(#clip0_17916_1399)">
<g opacity="0.85">
<path d="M74.0603 52.243C74.3203 51.9968 74.6263 51.8042 74.9609 51.6765C75.2955 51.5488 75.652 51.4884 76.0099 51.4988C76.3679 51.5092 76.7203 51.5902 77.0468 51.7372C77.3734 51.8841 77.6678 52.0941 77.913 52.355C78.4089 52.8831 78.6755 53.586 78.6545 54.3101C78.6335 55.0342 78.3267 55.7205 77.801 56.2189C73.6425 60.1731 68.1213 62.3743 62.383 62.3659C56.6993 62.372 51.2267 60.2126 47.0787 56.3269C46.5495 55.832 46.2379 55.1475 46.2121 54.4234C46.1863 53.6993 46.4484 52.9944 46.9411 52.463C47.1843 52.2002 47.477 51.9881 47.8025 51.8388C48.128 51.6895 48.4798 51.6061 48.8376 51.5933C49.1955 51.5805 49.5523 51.6386 49.8876 51.7643C50.2229 51.8899 50.5301 52.0806 50.7914 52.3254C53.9335 55.2678 58.0784 56.9029 62.383 56.8981C66.729 56.9034 70.9103 55.2371 74.0603 52.243ZM62.1103 22.7399C52.9625 22.7399 45.4939 29.9173 45.1099 39.0778L45.0995 39.2338L44.7955 42.3017C44.1932 47.786 41.5991 52.8585 37.5054 56.5573C33.3854 60.2889 28.0244 62.354 22.4658 62.3507C19.4339 62.3507 16.49 61.7564 13.7196 60.5804C11.0503 59.447 8.62615 57.8066 6.58145 55.7501C4.52844 53.6955 2.89349 51.2621 1.76719 48.5847C0.595558 45.8085 -0.00542021 42.8248 3.68323e-05 39.8114C3.68323e-05 36.7691 0.59442 33.818 1.76719 31.0372C2.89349 28.3599 4.52844 25.9265 6.58145 23.8719C8.66321 21.7783 11.1386 20.1173 13.865 18.9845C16.5914 17.8517 19.515 17.2694 22.4674 17.2712C28.384 17.2712 33.9719 19.5608 38.1949 23.7191C38.7115 24.2271 39.0057 24.9191 39.0132 25.6435C39.0207 26.368 38.7408 27.0659 38.2349 27.5845C37.9848 27.8412 37.6864 28.0459 37.3568 28.1868C37.0272 28.3276 36.673 28.4019 36.3147 28.4053C35.9563 28.4088 35.6007 28.3412 35.2685 28.2067C34.9363 28.0721 34.634 27.8732 34.379 27.6213C31.2087 24.4853 26.9268 22.7303 22.4674 22.7391C13.0845 22.7391 5.45188 30.3973 5.45188 39.8106C5.45188 49.2247 13.0845 56.8829 22.4674 56.8829C31.1535 56.8829 38.4221 50.3647 39.3765 41.7153L39.6693 38.769C39.9214 33.0039 42.383 27.5571 46.5435 23.5583C50.7506 19.5048 56.2784 17.2712 62.111 17.2712C68.0309 17.2712 73.6155 19.5608 77.8418 23.7191C78.9146 24.7758 79.0034 26.5446 77.949 27.6229C77.0914 28.5013 75.7427 28.6501 74.6915 28.1053C74.446 27.979 74.2212 27.8157 74.0251 27.6213C70.8538 24.4852 66.5711 22.7302 62.111 22.7391L62.1103 22.7399Z" fill="black"/>
<path d="M96.6108 33.4998C96.6093 33.4982 96.6074 33.4969 96.6053 33.4961C96.6033 33.4952 96.6011 33.4947 96.5988 33.4947C96.5966 33.4947 96.5944 33.4952 96.5923 33.4961C96.5903 33.4969 96.5884 33.4982 96.5868 33.4998C95.3477 34.6638 94.2181 35.3837 92.4077 35.3837C89.6726 35.3837 87.6111 33.1534 87.6111 30.1943V30.1527C87.6111 27.2552 89.7182 24.9848 92.4077 24.9848C93.8797 24.9848 95.1349 25.5464 96.482 26.8064C96.486 26.8104 96.49 26.8128 96.4948 26.8128L96.5076 26.8064L98.154 24.8944C98.1556 24.8929 98.1568 24.891 98.1577 24.8889C98.1586 24.8869 98.159 24.8847 98.159 24.8824C98.159 24.8802 98.1586 24.878 98.1577 24.8759C98.1568 24.8739 98.1556 24.872 98.154 24.8704C96.9748 23.7369 95.3733 22.5769 92.4293 22.5769C90.3182 22.5769 88.3895 23.3729 86.9975 24.8168C85.6351 26.2272 84.8864 28.1367 84.8864 30.1943V30.2375C84.8864 32.295 85.6399 34.2046 87.0087 35.6109C88.3879 37.0309 90.275 37.8133 92.3262 37.8133C93.6301 37.8133 94.7501 37.5837 95.746 37.1093C96.6156 36.6949 97.414 36.0901 98.258 35.2037C98.2596 35.2022 98.2608 35.2003 98.2617 35.1982C98.2626 35.1962 98.263 35.194 98.263 35.1917C98.263 35.1895 98.2626 35.1873 98.2617 35.1852C98.2608 35.1832 98.2596 35.1813 98.258 35.1797L96.6108 33.4998ZM122.75 22.5769C120.613 22.5769 118.653 23.3769 117.233 24.8312C115.846 26.2488 115.082 28.1543 115.082 30.1959V30.2375C115.082 32.279 115.837 34.1758 117.21 35.5805C118.618 37.0197 120.573 37.8125 122.708 37.8125C124.847 37.8125 126.805 37.0125 128.228 35.5589C129.613 34.1414 130.377 32.2358 130.377 30.1959V30.1527C130.377 28.1127 129.619 26.2144 128.247 24.8088C126.839 23.3697 124.886 22.5769 122.75 22.5769ZM117.807 30.1527C117.807 27.2072 119.914 24.9848 122.708 24.9848C125.481 24.9848 127.653 27.2744 127.653 30.1959V30.2375C127.653 33.1718 125.544 35.3853 122.75 35.3853C119.931 35.3853 117.807 33.1526 117.807 30.1959V30.1527ZM167.982 22.8289C167.994 22.8289 168 22.8369 168 22.8465V37.5445C168 37.5491 167.998 37.5536 167.995 37.5569C167.992 37.5602 167.987 37.5621 167.982 37.5621H165.835C165.83 37.5621 165.824 37.5597 165.822 37.5557L157.807 27.14V37.5445C157.807 37.5533 157.799 37.5621 157.788 37.5621H155.268C155.257 37.5621 155.249 37.5541 155.249 37.5445V22.8473C155.249 22.8385 155.257 22.8297 155.268 22.8297H157.644C157.648 22.8297 157.655 22.8321 157.657 22.8361L165.443 32.9566V22.8473C165.443 22.8385 165.45 22.8297 165.46 22.8297L167.982 22.8289ZM109.557 31.9902C111.782 31.3359 113.006 29.7503 113.006 27.5288V27.4856C113.006 26.2264 112.587 25.1256 111.79 24.3041C110.811 23.3393 109.352 22.8297 107.568 22.8297H101.064C101.054 22.8297 101.048 22.8361 101.048 22.8473V37.5429C101.048 37.5541 101.054 37.5613 101.064 37.5613H103.627C103.639 37.5613 103.647 37.5541 103.647 37.5437V32.439H106.83L110.409 37.5541C110.413 37.5589 110.417 37.5613 110.424 37.5613H113.47C113.478 37.5613 113.486 37.5541 113.486 37.5437C113.486 37.5389 113.484 37.5325 113.48 37.5309L109.557 31.9902ZM103.647 25.216H107.359C109.27 25.216 110.364 26.096 110.364 27.6328V27.6768C110.364 29.1567 109.193 30.1151 107.381 30.1151H103.647V25.216ZM152.9 22.8289C152.907 22.8289 152.912 22.8313 152.916 22.8353C152.918 22.8417 152.92 22.8465 152.918 22.8529L147.852 37.6557C147.849 37.6621 147.844 37.6661 147.834 37.6661H145.605C145.597 37.6661 145.59 37.6621 145.588 37.6557L142.02 27.1424L138.452 37.6557C138.45 37.6621 138.441 37.6661 138.434 37.6661H136.224C136.218 37.6661 136.211 37.6621 136.206 37.6557L131.122 22.8529C131.119 22.8465 131.119 22.8417 131.123 22.8353C131.125 22.8332 131.128 22.8315 131.13 22.8304C131.133 22.8293 131.136 22.8288 131.139 22.8289H133.911C133.917 22.8289 133.926 22.8329 133.928 22.8417L137.392 33.6862L140.961 22.7985C140.963 22.7921 140.969 22.7873 140.978 22.7873H143.145C143.152 22.7873 143.16 22.7921 143.162 22.7985L146.73 33.6862L150.196 22.8417C150.197 22.8337 150.204 22.8289 150.21 22.8289H152.9ZM108.342 42.7131C108.339 42.7067 108.334 42.7019 108.324 42.7019H105.924C105.921 42.7021 105.918 42.7033 105.915 42.7053C105.913 42.7073 105.911 42.71 105.91 42.7131L99.4235 57.6647C99.4213 57.6703 99.4213 57.6766 99.4235 57.6823C99.4275 57.6895 99.4315 57.6911 99.4387 57.6911H102.092C102.099 57.6911 102.107 57.6871 102.109 57.6807L103.62 54.1064H110.567L112.058 57.6807C112.06 57.6838 112.062 57.6864 112.064 57.6883C112.067 57.6902 112.07 57.6911 112.074 57.6911H114.813C114.822 57.6911 114.83 57.6831 114.83 57.6743C114.83 57.6695 114.828 57.6655 114.825 57.6607L108.342 42.7131ZM109.605 51.7585H104.582L107.083 45.8842L109.605 51.7585ZM126.331 50.5865C127.136 51.2841 127.528 52.2073 127.528 53.4104V53.452C127.528 56.1567 125.453 57.9039 122.244 57.9039C119.946 57.9039 117.815 57.0799 116.085 55.524C116.077 55.5176 116.077 55.5064 116.083 55.4984L117.641 53.632C117.643 53.6272 117.648 53.6256 117.654 53.6256C117.658 53.6256 117.662 53.6272 117.667 53.6296C119.193 54.9624 120.626 55.5568 122.307 55.5568C123.859 55.5568 124.902 54.8128 124.902 53.7072V53.664C124.902 52.6608 124.405 52.0665 121.588 51.4121C119.782 50.9745 118.696 50.5297 117.951 49.9321C117.075 49.2289 116.669 48.2842 116.669 46.9618V46.921C116.669 45.6874 117.174 44.5795 118.093 43.7995C119.005 43.0235 120.293 42.5963 121.719 42.5963C123.768 42.5963 125.522 43.2075 127.078 44.4667C127.084 44.4739 127.086 44.4843 127.082 44.4907L125.692 46.4634C125.691 46.4653 125.689 46.4669 125.687 46.468C125.685 46.4692 125.683 46.4698 125.681 46.4698C125.675 46.4722 125.671 46.4698 125.666 46.4674C124.302 45.4426 122.997 44.9443 121.677 44.9443C120.957 44.9443 120.349 45.1219 119.918 45.4554C119.516 45.7674 119.294 46.2058 119.294 46.6866V46.7282C119.294 47.8898 120.047 48.3882 122.795 49.0449C124.465 49.4545 125.588 49.9449 126.331 50.5865ZM141.154 42.8083C141.166 42.8083 141.172 42.8171 141.172 42.8259V45.2451C141.172 45.2531 141.166 45.2627 141.154 45.2627H136.498V57.6743C136.498 57.6823 136.49 57.6919 136.48 57.6919H133.87C133.859 57.6919 133.851 57.6831 133.851 57.6743V45.2627H129.193C129.185 45.2627 129.176 45.2539 129.176 45.2451V42.8259C129.176 42.8179 129.184 42.8083 129.193 42.8083H141.154ZM167.962 55.3224C167.972 55.3224 167.978 55.3304 167.978 55.3392V57.6743C167.978 57.6823 167.972 57.6911 167.962 57.6911H156.927C156.925 57.6912 156.923 57.6908 156.921 57.6901C156.919 57.6893 156.917 57.688 156.915 57.6865C156.913 57.6849 156.912 57.683 156.911 57.6809C156.91 57.6788 156.91 57.6766 156.91 57.6743V42.8259C156.91 42.8171 156.916 42.8083 156.927 42.8083H167.855C167.866 42.8083 167.873 42.8163 167.873 42.8259V45.1603C167.873 45.1683 167.866 45.1779 167.856 45.1779H159.534V49.0017H166.909C166.917 49.0017 166.926 49.0097 166.926 49.0185V51.3529C166.926 51.3617 166.918 51.3705 166.909 51.3705H159.533V55.3224H167.962ZM154.232 55.28C154.243 55.28 154.249 55.288 154.249 55.2976V57.6735C154.249 57.6839 154.243 57.6903 154.232 57.6903H143.891C143.889 57.6904 143.886 57.69 143.884 57.6892C143.882 57.6883 143.88 57.6871 143.878 57.6854C143.877 57.6837 143.875 57.6818 143.875 57.6796C143.874 57.6774 143.873 57.675 143.873 57.6727V42.8267C143.873 42.8163 143.882 42.8075 143.891 42.8075H146.482C146.493 42.8075 146.5 42.8155 146.5 42.8267V55.28H154.232ZM96.7276 53.588C96.7261 53.5864 96.7242 53.5851 96.7221 53.5843C96.7201 53.5834 96.7179 53.583 96.7156 53.583C96.7134 53.583 96.7112 53.5834 96.7091 53.5843C96.7071 53.5851 96.7052 53.5864 96.7036 53.588C95.4517 54.7632 94.3117 55.492 92.4821 55.492C89.7206 55.492 87.6351 53.2392 87.6351 50.2497V50.2065C87.6351 47.2802 89.7662 44.9867 92.4821 44.9867C93.9693 44.9867 95.2365 45.5546 96.5988 46.8266C96.6012 46.8298 96.6052 46.8314 96.6116 46.8314C96.6156 46.8314 96.6196 46.8298 96.6244 46.825L98.2884 44.8963C98.2924 44.8875 98.2924 44.8763 98.286 44.8699C97.0956 43.7259 95.4781 42.5547 92.5029 42.5547C90.3726 42.5547 88.4231 43.3571 87.0151 44.8155C85.6423 46.2418 84.8848 48.1714 84.8848 50.2497V50.2913C84.8848 52.372 85.6447 54.2992 87.0263 55.7208C88.4207 57.1559 90.3278 57.9447 92.3981 57.9447C93.7173 57.9447 94.8469 57.7127 95.854 57.2343C96.7324 56.8159 97.5396 56.2047 98.3916 55.3096C98.3932 55.308 98.3944 55.3061 98.3953 55.3041C98.3962 55.302 98.3966 55.2998 98.3966 55.2976C98.3966 55.2953 98.3962 55.2931 98.3953 55.2911C98.3944 55.289 98.3932 55.2871 98.3916 55.2856L96.7276 53.588Z" fill="black"/>
</g>
</g>
<defs>
<clipPath id="clip0_17916_1399">
<rect width="168" height="80" fill="white"/>
</clipPath>
</defs>
</svg>
