<svg width="192" height="80" viewBox="0 0 192 80" fill="none" xmlns="http://www.w3.org/2000/svg">
<path fill-rule="evenodd" clip-rule="evenodd" d="M8.93274 35.5097L18.6524 41.9009L28.7504 26.931C25.5971 22.6903 20.9004 20 15.6534 20H0V48.7504L8.93274 35.5097ZM134.241 26.4668H135.805V52.3325H134.241V26.4668ZM110.374 40.0429C110.374 33.0941 116 27.4855 122.979 27.4855C126.398 27.4855 129.807 28.9961 131.892 31.1886L130.89 32.3798C128.976 30.3298 126.156 28.9573 123.009 28.9573C116.868 28.9573 111.978 33.925 111.978 40.0407C111.978 46.219 116.838 51.1652 123.009 51.1652C126.149 51.1652 129.009 49.7474 130.927 47.6649L131.92 48.9122C129.652 51.2364 126.482 52.6434 122.962 52.6434C115.968 52.6434 110.374 47.0542 110.374 40.0429ZM147.415 35.1633C142.588 35.1611 138.604 39.1254 138.604 43.9032C138.604 48.7133 142.586 52.643 147.415 52.643C152.243 52.643 156.326 48.7133 156.326 43.9032C156.326 39.0261 152.64 35.1676 147.415 35.1633ZM147.415 36.5423C151.699 36.5379 154.761 39.8742 154.761 43.9032C154.761 47.9321 151.498 51.2598 147.415 51.2576C143.231 51.2576 140.169 47.9321 140.169 43.9032C140.169 39.9433 143.365 36.5466 147.415 36.5423ZM174.486 43.9271C174.486 39.0306 178.394 35.1764 183.157 35.1764C186.184 35.1764 188.854 36.7345 190.304 39.2032V26.4668H192V52.3303H190.304V48.5862C188.795 51.0247 186.182 52.6432 183.157 52.6432C178.394 52.6432 174.486 48.7912 174.486 43.9271ZM190.58 43.8602C190.58 39.7363 187.36 36.5446 183.321 36.5424C179.274 36.5403 176.05 39.7708 176.05 43.8602C176.05 47.9517 179.274 51.2729 183.321 51.2729C187.36 51.2729 190.58 47.9517 190.58 43.8602ZM41.6504 27.6255H51.3614C57.2505 27.6255 62.024 33.1565 62.024 39.9779C62.024 46.8014 57.2505 52.3324 51.3614 52.3324H41.6504V27.6255ZM45.36 48.6249H51.3614C55.4831 48.6249 58.8237 44.7513 58.8237 39.9779C58.8237 35.2044 55.4831 31.3329 51.3614 31.3329H45.36V48.6249ZM78.1901 47.0689C77.0119 48.7306 75.1668 49.6434 72.9635 49.6434C70.3847 49.6434 68.1792 47.9494 67.4973 45.5756H81.5113L81.5954 44.8462C81.6343 44.5096 81.6688 44.1556 81.6688 43.8406C81.6688 38.8923 77.9269 35.1633 72.9635 35.1633C68.0886 35.1633 64.1222 39.0563 64.1222 43.8406C64.1222 48.6939 68.0886 52.643 72.9656 52.643C76.2264 52.643 79.1073 51.1238 80.8725 48.4738L78.1901 47.0689ZM72.9635 38.1629C75.9264 38.1629 78.0844 40.0231 78.4577 42.7789H67.3678C67.8339 40.1332 70.1473 38.1629 72.9635 38.1629ZM96.727 37.8349V35.474H100.264V52.3323H96.7248V49.8722C95.2336 51.577 93.1209 52.643 90.7795 52.643C86.2628 52.643 82.59 48.6939 82.59 43.8384C82.59 41.4884 83.438 39.3002 84.9767 37.6752C86.511 36.0545 88.5676 35.1633 90.773 35.1633H90.7795C93.1468 35.1655 95.2466 36.184 96.727 37.8349ZM86.3341 43.8686C86.3341 46.6913 88.6669 48.9874 91.5348 48.9874C94.3985 48.9874 96.727 46.6891 96.7291 43.8686C96.7291 41.0417 94.4481 38.8254 91.5348 38.8233H91.5305C90.13 38.8233 88.8222 39.3412 87.849 40.2842C86.8714 41.2316 86.3341 42.5026 86.3341 43.8686ZM107.603 26.4668H104.064V52.3325H107.603V26.4668ZM170.459 40.4375V35.4719H172.125V40.4375V45.5325V52.3302H170.459V49.5248C169.155 51.2188 167.202 52.6409 165.016 52.6409C161.091 52.6409 157.908 49.4579 157.908 45.5325V35.4719H159.574V45.6318C159.574 48.6378 162.01 51.0742 165.016 51.0742C168.022 51.0742 170.459 48.6378 170.459 45.6318V40.4375ZM19.5467 44.364L30.4351 27.9862C32.3942 31.2728 33.5421 35.2599 33.5421 39.5589C33.5421 50.8106 25.6821 59.9311 15.9874 59.9311H0V52.2117L9.61956 37.7414L19.5467 44.364Z" fill="black"/>
</svg>
