<svg width="683" height="143" viewBox="0 0 683 143" fill="none" xmlns="http://www.w3.org/2000/svg">
<path d="M378.01 72.589C378.01 58.5437 389.381 47.207 403.488 47.207C410.397 47.207 417.289 50.2604 421.502 54.6921L419.479 57.0999C415.61 52.956 409.908 50.1819 403.549 50.1819C391.135 50.1819 381.251 60.223 381.251 72.5847C381.251 85.0729 391.074 95.0704 403.549 95.0704C409.895 95.0704 415.675 92.2046 419.553 87.9954L421.559 90.5165C416.975 95.2143 410.567 98.0583 403.453 98.0583C389.316 98.0583 378.01 86.7609 378.01 72.589Z" fill="black"/>
<path d="M426.254 45.1484H429.416V97.4304H426.254V45.1484Z" fill="black"/>
<path d="M435.074 80.3884C435.074 70.7311 443.126 62.7183 452.884 62.7227C463.444 62.7314 470.894 70.5305 470.894 80.3884C470.894 90.1112 462.642 98.0542 452.884 98.0542C443.122 98.0542 435.074 90.1112 435.074 80.3884ZM467.732 80.3884C467.732 72.2447 461.542 65.5012 452.884 65.5099C444.697 65.5187 438.237 72.3843 438.237 80.3884C438.237 88.5321 444.426 95.2539 452.884 95.2539C461.137 95.2582 467.732 88.5321 467.732 80.3884Z" fill="black"/>
<path d="M507.598 80.4407C507.598 70.5435 515.497 62.7532 525.124 62.7532C531.244 62.7532 536.639 65.9025 539.571 70.8925V45.1484H542.999V97.4261H539.571V89.8581C536.522 94.7871 531.239 98.0585 525.124 98.0585C515.497 98.0585 507.598 90.2725 507.598 80.4407ZM540.129 80.3055C540.129 71.9699 533.621 65.5186 525.455 65.5142C517.277 65.5099 510.76 72.0397 510.76 80.3055C510.76 88.5757 517.277 95.2887 525.455 95.2887C533.621 95.2887 540.129 88.5757 540.129 80.3055Z" fill="black"/>
<path d="M258.728 47.4844H239.1V97.424H258.728C270.632 97.424 280.281 86.2444 280.281 72.452C280.281 58.664 270.632 47.4844 258.728 47.4844ZM258.728 89.9302H246.598V54.9782H258.728C267.06 54.9782 273.812 62.8034 273.812 72.452C273.812 82.1006 267.06 89.9302 258.728 89.9302Z" fill="black"/>
<path d="M312.957 86.7874C310.575 90.1461 306.846 91.9911 302.392 91.9911C297.18 91.9911 292.722 88.567 291.344 83.7689H319.67L319.84 82.2946C319.918 81.6141 319.988 80.8988 319.988 80.2619C319.988 70.2601 312.425 62.7227 302.392 62.7227C292.539 62.7227 284.521 70.5916 284.521 80.2619C284.521 90.0719 292.539 98.0542 302.397 98.0542C308.988 98.0542 314.811 94.9834 318.379 89.627L312.957 86.7874ZM302.392 68.7857C308.381 68.7857 312.743 72.5457 313.498 78.1159H291.082C292.024 72.7682 296.7 68.7857 302.392 68.7857Z" fill="black"/>
<path d="M350.426 63.3508V68.1227C347.434 64.7858 343.19 62.727 338.405 62.7227C338.401 62.7227 338.396 62.7227 338.392 62.7227C333.934 62.7227 329.777 64.5241 326.676 67.7999C323.566 71.0845 321.852 75.5074 321.852 80.2576C321.852 90.0719 329.276 98.0542 338.405 98.0542C343.138 98.0542 347.408 95.8994 350.422 92.4535V97.4261H357.576V63.3508H350.426ZM339.932 90.6651C334.135 90.6651 329.419 86.024 329.419 80.3186C329.419 77.5576 330.506 74.9884 332.482 73.0735C334.449 71.1673 337.092 70.1205 339.923 70.1205C339.927 70.1205 339.927 70.1205 339.932 70.1205C345.82 70.1248 350.431 74.6045 350.431 80.3186C350.427 86.0197 345.72 90.6651 339.932 90.6651Z" fill="black"/>
<path d="M372.411 45.1484H365.258V97.4304H372.411V45.1484Z" fill="black"/>
<path d="M499.459 63.3477V73.3844V83.8836C499.459 89.9597 494.534 94.8843 488.458 94.8843C482.382 94.8843 477.457 89.9597 477.457 83.8836V63.3477H474.09V83.6829C474.09 91.6173 480.524 98.0511 488.458 98.0511C492.877 98.0511 496.824 95.1766 499.459 91.7525V97.423H502.826V83.6829V73.3844V63.3477H499.459Z" fill="black"/>
<path d="M163.735 62.2235L187.386 77.9744L211.956 41.0813C204.284 30.6301 192.856 24 180.088 24H142V94.855L163.735 62.2235Z" fill="black"/>
<path d="M214.508 44.9336L188.568 83.8855L164.918 68.1347L142 102.55V120.91H180.088C203.185 120.91 221.91 99.2177 221.91 72.4573C221.91 62.233 219.175 52.7502 214.508 44.9336Z" fill="black"/>
</svg>
