<svg width="683" height="143" viewBox="0 0 683 143" fill="none" xmlns="http://www.w3.org/2000/svg">
<path d="M525.894 92.492C523.525 94.1341 521.618 95.5794 519.574 96.8537C515.673 99.3673 511.022 100.452 506.412 99.9241C499.809 99.2142 495.995 95.6479 494.806 89.0881C494.419 86.1889 494.287 83.2612 494.413 80.339C494.413 74.4121 494.293 68.4767 494.413 62.5498C494.49 58.573 493.104 55.7592 489.178 54.425C488.477 54.1855 487.314 54.1 487.417 52.9882C487.519 51.8764 488.717 52.1329 489.444 51.9704C494.002 50.9441 498.578 49.9777 503.128 49.0199C505.591 48.4982 506.078 48.8916 506.087 51.4573C506.087 61.1472 506.087 70.8372 506.087 80.5357C506.087 81.8699 506.147 83.204 506.275 84.5382C506.933 91.5427 511.244 94.8012 518.146 93.4328C518.966 93.2846 519.772 93.0701 520.557 92.7913C525.501 91.0039 525.851 90.4907 525.851 85.2823C525.851 78.0982 525.774 70.9141 525.851 63.7301C525.92 59.2315 524.474 55.9131 519.933 54.4079C519.283 54.1941 518.282 54.0658 518.317 53.0908C518.368 51.8678 519.54 52.15 520.267 51.9961C524.911 50.9783 529.572 50.0119 534.233 49.0541C537.081 48.4639 537.508 48.7975 537.508 51.6198C537.508 63.14 537.508 74.6687 537.508 86.1974C537.495 88.0337 537.581 89.8695 537.765 91.6966C538.193 95.7761 538.817 96.4261 542.743 97.461C543.401 97.6406 544.453 97.5123 544.299 98.6326C544.162 99.5734 543.256 99.2655 542.648 99.2741C537.885 99.3596 533.121 99.3596 528.366 99.4879C527.049 99.4879 526.561 99.0175 526.45 97.7774C526.382 96.1781 526.159 94.5275 525.894 92.492Z" fill="black"/>
<path d="M365.792 58.2316C365.792 68.0897 365.792 77.9479 365.792 87.806C365.777 89.2344 365.848 90.6624 366.006 92.0822C366.459 95.8282 367.306 96.6834 371.052 97.5301C371.71 97.6755 372.762 97.4446 372.762 98.5393C372.762 99.634 371.642 99.309 371 99.309C363.588 99.3433 356.15 99.3433 348.687 99.309C348.08 99.309 347.19 99.5742 347.122 98.5735C347.054 97.5729 347.977 97.7183 348.559 97.5643C352.775 96.4867 353.742 95.546 353.801 90.979C353.972 78.1503 353.972 65.2446 354.024 52.3731C354.024 47.2417 353.921 42.1786 354.024 37.0899C354.109 33.036 352.63 30.1539 348.721 28.6572C348.029 28.4006 346.857 28.2894 347.071 27.1434C347.25 26.2283 348.294 26.3993 348.969 26.2454C353.451 25.202 357.932 24.2099 362.422 23.2349C365.185 22.6363 365.732 23.0639 365.741 25.9033C365.741 36.6794 365.741 47.4583 365.741 58.2401L365.792 58.2316Z" fill="black"/>
<path d="M287.05 71.1389C287.05 77.6473 286.939 84.1557 287.05 90.6642C287.153 95.522 287.974 96.3515 292.558 97.5061C293.191 97.6686 294.055 97.643 293.961 98.5752C293.866 99.5074 292.943 99.2594 292.353 99.2594C284.832 99.2594 277.317 99.2594 269.808 99.2594C269.21 99.2594 268.303 99.533 268.209 98.5581C268.115 97.5831 268.996 97.7028 269.629 97.5061C273.905 96.42 274.94 95.4706 275.008 91.0576C275.162 81.1282 275.077 71.1988 275.119 61.2608C275.119 57.7543 273.281 55.7274 270.159 54.53C269.364 54.2307 268.098 54.1537 268.141 53.0077C268.192 51.7248 269.543 52.0584 270.339 51.8788C274.812 50.861 279.302 49.9202 283.8 48.9966C286.426 48.4492 286.845 48.8084 286.853 51.5623C286.853 58.0736 286.853 64.5849 286.853 71.0961L287.05 71.1389Z" fill="black"/>
<path d="M280.217 40.0411C275.941 40.0411 272.82 37.2274 272.768 33.2847C272.717 29.342 275.839 26.3401 280.021 26.2973C284.203 26.2546 287.478 29.2308 287.513 33.0794C287.547 36.928 284.4 39.9984 280.217 40.0411Z" fill="black"/>
<path d="M241.782 31.8386C234.811 28.948 227.323 27.5131 219.777 27.6223C210.591 27.5795 201.397 28.0328 192.204 27.6223C191.425 27.6223 190.083 27.0407 190.04 28.4775C190.04 29.5722 191.246 29.3841 192.015 29.5209C197.72 30.5729 199.088 31.9071 199.319 37.7997C199.978 54.7507 199.943 71.7102 199.319 88.6612C199.063 96.0163 196.753 96.9656 191.725 97.4702C191.057 97.5386 189.954 97.4702 190.014 98.4708C190.065 99.8136 191.271 99.2747 191.973 99.2747C197.959 99.3261 204.006 99.2747 210.027 99.2747V99.3603C215.039 99.3603 220.059 99.4629 225.071 99.3603C243.886 98.9156 260.375 88.875 262.351 67.0747C263.788 51.4152 256.219 38.0734 241.782 31.8386ZM245.93 81.3659C241.235 95.0499 229.903 98.5136 218.177 96.1702C214.756 95.4775 213.046 93.04 212.396 89.696C211.999 87.1334 211.844 84.5391 211.934 81.9475C211.934 74.5354 211.934 67.1004 211.934 59.6427C211.934 50.7823 211.934 41.922 211.934 33.0616C211.934 31.8472 211.84 30.7268 213.568 30.59C222.847 29.8459 231.665 30.9064 238.9 37.5004C244.134 42.2726 246.64 48.5245 247.683 55.3664C249.06 64.1413 248.846 72.8819 245.93 81.3659Z" fill="black"/>
<path d="M474.469 56.4283C475.478 55.5731 477.685 56.2231 479.352 56.2145C484.407 56.2145 484.296 56.2145 484.364 51.2113C484.364 49.0305 483.603 49.1502 482.046 49.7574C479.164 50.8863 476.214 51.8271 473.348 52.9731C472.76 53.2481 472.103 53.3428 471.461 53.2454C470.819 53.148 470.22 52.8628 469.739 52.4258C461.247 46.191 446.913 47.1746 439.258 54.4014C431.604 61.6282 433.212 73.6786 442.679 78.5963C443.381 78.9641 444.296 79.0239 444.792 79.9134C442.525 81.5213 440.165 82.9581 438.266 84.9679C433.99 89.5435 434.777 93.8539 440.456 96.4538C440.806 96.6163 441.148 96.7959 441.679 97.0611C438.976 99.3189 436.299 101.337 434.409 104.134C431.151 109 432.16 114.645 436.975 118.023C438.687 119.227 440.611 120.097 442.645 120.589C451.907 122.847 460.913 122.145 469.483 117.818C474.079 115.675 477.76 111.963 479.865 107.35C484.03 97.942 480.533 91.271 470.458 89.6033C463.188 88.4145 455.79 88.5001 448.478 87.756C446.767 87.585 444.629 87.8415 444.133 85.6264C443.637 83.4113 445.467 82.2055 446.981 81.0167C448.144 80.0844 449.41 80.6917 450.599 80.8542C455.764 81.6217 461.042 80.8606 465.78 78.6647C473.254 75.2438 476.898 68.3077 475.444 60.7046C475.059 59.2507 473.135 57.5145 474.469 56.4283ZM443.979 98.8058C444.234 98.4284 444.583 98.1231 444.99 97.9194C445.398 97.7156 445.851 97.6203 446.306 97.6426C453.798 98.0788 461.315 98.2584 468.713 99.6354C471.441 100.149 474.34 100.824 475.221 103.912C476.162 107.247 474.896 110.163 472.579 112.592C468.636 116.715 463.607 118.126 458.116 118.28C452.84 118.057 447.982 116.877 444.321 112.772C442.628 110.858 441.664 108.407 441.602 105.851C441.539 103.296 442.381 100.801 443.979 98.8058ZM463.128 73.73C461.871 77.2279 459.1 78.8614 455.354 78.9213C451.608 78.9812 448.735 77.4503 447.178 73.9096C445.982 70.9594 445.445 67.7838 445.604 64.6045C445.553 61.0809 445.784 57.8566 447.315 54.8718C449.025 51.6304 451.796 50.339 455.363 50.4673C458.929 50.5956 461.555 52.0923 462.812 55.3849C465.175 61.2519 465.288 67.785 463.128 73.73Z" fill="black"/>
<path d="M421.615 55.6935C412.088 45.6957 394.521 45.6358 384.779 55.4712C375.038 65.3065 374.978 84.789 385.079 93.8717C393.529 101.475 403.535 102.347 413.636 98.0453C423.736 93.7434 427.944 85.0883 428.235 75.4069C428.064 67.4104 426.575 60.8934 421.615 55.6935ZM413.978 89.6553C412.755 93.7691 410.557 96.942 405.981 97.6433C401.405 98.3446 397.873 96.4032 395.308 92.6316C392.554 88.6034 391.356 83.9936 390.852 79.2213C390.099 72.0544 389.731 64.8703 392.1 57.9001C393.991 52.3495 398.378 49.8779 403.834 51.1351C405.259 51.492 406.598 52.1297 407.773 53.0108C408.948 53.892 409.935 54.9989 410.676 56.2665C413.439 60.5428 414.422 65.3321 415.038 70.2413C415.32 72.4734 415.372 74.7313 415.483 76.3392C415.337 81.2739 415.192 85.5245 413.978 89.6553Z" fill="black"/>
<path d="M344.472 97.2547C344.318 96.6475 343.779 96.6646 343.275 96.6047C338.52 96.0574 337.921 95.4159 337.895 90.5154C337.895 81.655 337.895 72.7947 337.895 63.9344C337.926 61.9246 337.739 59.9174 337.339 57.9476C336.966 55.7844 335.951 53.7833 334.426 52.2047C332.901 50.626 330.936 49.5428 328.787 49.0958C325.61 48.3053 322.31 48.1426 319.071 48.6169C312.417 49.5235 306.533 52.0806 302.103 57.3489C301.33 58.1329 300.829 59.1448 300.675 60.2352C300.521 61.3256 300.722 62.4366 301.248 63.4041C302.257 65.3626 304.096 65.9271 306.097 65.9698C308.372 65.9698 309.775 64.6528 310.69 62.6686C311.729 60.2147 312.4 57.6211 312.683 54.9714C312.837 53.8424 313.059 52.9701 314.35 52.4912C315.377 52.0666 316.479 51.8553 317.589 51.8702C318.7 51.8852 319.796 52.126 320.81 52.5781C321.825 53.0302 322.737 53.684 323.491 54.4998C324.244 55.3156 324.824 56.2762 325.195 57.3233C326 59.8796 326.356 62.5563 326.247 65.2343C326.247 71.221 326.247 71.1697 320.448 72.8375C314.273 74.6164 308.03 76.3098 302.651 80.0557C298.605 82.861 297.476 86.8977 298.374 91.5331C299.272 96.1686 302.3 98.8113 306.773 99.8119C311.785 100.924 316.411 99.6922 320.628 96.9468C322.509 95.7238 324.228 94.2443 326.29 92.6706C327.145 95.8094 328.676 98.187 331.635 99.1363C335.629 100.402 339.571 99.7691 343.437 98.4521C343.993 98.2554 344.686 98.11 344.472 97.2547ZM323.544 92.1232C321.544 93.3456 319.243 93.9854 316.899 93.9706C313.657 93.8594 310.972 92.7134 309.698 89.549C308.423 86.3845 308.723 83.109 311.263 80.509C315.043 76.6262 320.174 75.4973 325.135 74.0861C326.401 73.7184 326.238 74.6848 326.247 75.4032C326.247 77.6525 326.247 79.9018 326.247 82.1511C326.127 83.8937 326.127 85.6425 326.247 87.3852C326.623 89.7884 325.451 91.0456 323.544 92.1232Z" fill="black"/>
<path d="M561.542 69.64C566.553 69.7341 571.574 69.64 576.594 69.64H587.627C594.409 69.64 594.4 69.64 592.921 62.798C591.638 56.9054 588.721 52.2101 582.948 49.8753C578.27 47.9397 573.091 47.5736 568.187 48.8319C555.17 52.0989 546.874 65.2782 548.807 79.6207C550.372 91.2435 557.359 98.7012 568.187 100.087C577.509 101.276 585.078 97.8973 591.065 90.8244C591.8 89.9692 593.784 88.9771 592.519 87.7028C591.253 86.4285 590.475 88.464 589.636 89.1567C580.519 96.6914 567.836 94.1 562.474 83.5377C560.685 79.8446 559.667 75.8261 559.48 71.7268C559.369 70.1617 559.874 69.6143 561.542 69.64ZM559.557 65.0901C560.054 61.3185 560.943 57.7008 563.406 54.6647C568.118 48.8575 576.568 50.0035 579.485 56.8626C580.462 59.3504 581.059 61.9712 581.255 64.6368C581.418 66.2361 580.964 66.9118 579.254 66.8433C576.252 66.7407 573.267 66.8433 570.231 66.8433C567.195 66.8433 564.244 66.8433 561.217 66.8433C559.934 66.8519 559.386 66.467 559.557 65.0901Z" fill="black"/>
<path d="M133.602 36.337C133.705 36.2686 133.807 36.2002 133.901 36.1232L134.466 35.7469C137.194 33.981 140.375 33.0424 143.625 33.0443C146.46 33.0455 149.247 33.7704 151.722 35.1504C154.198 36.5303 156.28 38.5196 157.771 40.9297C159.483 43.5502 160.508 46.5595 160.752 49.6802C160.996 52.8009 160.45 55.9328 159.165 58.7872C158.675 59.9026 158.104 60.9803 157.455 62.0115C154.53 66.57 150.425 70.6409 146.448 74.5751C145.002 76.0033 143.506 77.4829 142.095 78.9625C140.136 81.0065 137.596 83.4183 134.893 85.9669C133.183 87.5406 131.472 89.1485 129.873 90.7478C128.755 91.8519 127.336 92.6027 125.794 92.9068C124.252 93.211 122.655 93.055 121.201 92.4583C118.77 91.3641 116.545 89.8597 114.624 88.011V74.1646C120.039 73.5051 125.03 70.9003 128.667 66.8351C132.477 62.5919 134.622 57.1134 134.707 51.4117C134.792 45.7099 132.811 40.1701 129.129 35.8153C129.026 35.687 128.915 35.5673 128.804 35.439L128.701 35.3193C126.599 32.8748 123.992 30.9143 121.06 29.5724C118.128 28.2304 114.941 27.5389 111.716 27.5451C107.954 27.5305 104.25 28.4783 100.956 30.2986C97.6631 32.1188 94.8901 34.7509 92.9008 37.9449C91.9499 39.4176 91.1613 40.9891 90.5489 42.6316L90.4035 43.0165C90.318 43.256 90.2325 43.504 90.1555 43.752C90.0785 44 90.0015 44.2395 89.9245 44.4875C89.8476 44.7355 89.8305 44.8296 89.7792 45.0007C89.668 45.4368 89.5654 45.8559 89.4713 46.3007L89.42 46.6171C89.3516 46.9506 89.2917 47.2842 89.2404 47.6263L89.1634 48.2421C89.1634 48.4559 89.1121 48.6782 89.095 48.9006C89.0779 49.1229 89.0437 49.4479 89.0265 49.7131C89.0265 49.8243 89.0265 49.9354 89.0265 50.0466C88.8483 53.8331 89.5693 57.6079 91.1305 61.0622C91.7456 62.4243 92.4602 63.7392 93.2686 64.9963C96.5185 70.0679 100.846 74.3527 105.037 78.5007C106.525 79.9717 107.919 81.3572 109.313 82.7769C111.357 84.915 113.957 87.3696 116.711 89.9695C119.465 92.5695 122.492 95.426 124.998 98.0345C125.347 98.3971 125.765 98.6857 126.228 98.8828C126.691 99.0798 127.189 99.1814 127.692 99.1814C128.195 99.1814 128.693 99.0798 129.156 98.8828C129.619 98.6857 130.038 98.3971 130.386 98.0345C132.892 95.426 135.834 92.655 138.674 89.9695C141.513 87.284 144.027 84.915 146.08 82.7769C147.44 81.3486 148.842 79.9631 150.356 78.5007C154.547 74.3527 158.909 70.0679 162.124 64.9963C162.932 63.7374 163.65 62.4227 164.271 61.0622C165.93 57.3707 166.634 53.3218 166.32 49.2871C166.007 45.2524 164.684 41.3612 162.475 37.9705C160.486 34.776 157.714 32.1434 154.42 30.3231C151.127 28.5028 147.423 27.5553 143.66 27.5707C139.347 27.5653 135.126 28.8101 131.507 31.1542C131.011 31.4792 130.514 31.8213 130.044 32.1805L133.602 36.337ZM97.8869 61.9944C97.2381 60.9632 96.6664 59.8855 96.1764 58.7701C95.0888 56.3501 94.5291 53.7261 94.5343 51.0729C94.5343 50.842 94.5343 50.6025 94.5343 50.3631C94.5343 50.1236 94.5343 50.115 94.5343 49.9953C94.5343 49.8756 94.5343 49.5848 94.5856 49.3795C94.637 49.1743 94.6284 48.969 94.6541 48.7637C94.6499 48.6811 94.6499 48.5984 94.6541 48.5157C94.7554 47.7856 94.9039 47.0628 95.0988 46.352C95.0988 46.3092 95.0988 46.2664 95.0988 46.2237C95.0988 46.1809 95.1757 45.9414 95.21 45.8303C95.304 45.5395 95.3896 45.2572 95.4922 44.975L95.6547 44.5388C96.614 42.048 98.1191 39.8036 100.059 37.9705C101.76 36.3533 103.779 35.1075 105.988 34.3124C108.196 33.5174 110.546 33.1904 112.888 33.3522C121.44 33.891 128.539 41.1777 129.069 49.9354C129.232 52.333 128.911 54.7388 128.123 57.0092C127.336 59.2795 126.098 61.3677 124.485 63.149C122.964 64.8556 121.114 66.2381 119.047 67.2138C116.979 68.1895 114.736 68.7384 112.452 68.8278C111.531 68.8633 110.659 69.2549 110.021 69.9201C109.383 70.5854 109.028 71.4724 109.031 72.3942V74.7718L108.86 74.6007C104.96 70.6409 100.846 66.57 97.9211 62.0115L97.8869 61.9944Z" fill="black"/>
</svg>
