<svg width="64" height="84" viewBox="0 0 64 84" fill="none" xmlns="http://www.w3.org/2000/svg">
<path d="M0.111328 0V61.0725H63.3025V0H0.111328ZM29.8734 14.7482C28.8698 11.6667 27.7743 10.6966 22.1918 10.6966H17.8689C16.5569 10.6966 16.2748 10.9819 16.2748 12.1169V20.8415H18.4068C22.8544 20.8415 23.8187 20.068 24.3632 17.183H25.4586V26.9221H24.3632C23.7793 23.6757 22.1 22.8705 18.4068 22.8705H16.2748V31.8741C16.2748 34.7591 17.0686 35.0761 20.4731 35.2029V36.2428H6.95983V35.1903C9.76745 35.0634 10.5677 34.7464 10.5677 31.8614V13.0489C10.5677 10.1703 9.76744 9.84059 7.03854 9.72646V8.66759H30.8771L31.0477 14.7482H29.8734ZM57.0182 14.7482C56.1063 11.7681 54.7616 10.6902 51.7703 10.6902H48.2476V31.8678C48.2476 34.7528 49.0479 35.0698 52.2753 35.1966V36.2428H38.4996V35.1903C41.7271 35.0634 42.5274 34.7464 42.5274 31.8614V10.6839H38.9982C35.9872 10.6839 34.6425 11.7618 33.7503 14.7419H32.3203L32.8975 8.6549H57.9169L58.4941 14.7419L57.0182 14.7482Z" fill="black"/>
<path d="M2.3878 71.3184C2.3878 72.054 2.59112 72.1364 3.46359 72.1744V72.4344H0V72.1744C0.721585 72.1364 0.924923 72.054 0.924923 71.3184V66.4996C0.924923 65.7577 0.721564 65.6753 0.0196588 65.6436V65.409H6.12689L6.17281 66.9625H5.87108C5.61525 66.1762 5.33318 65.929 3.90313 65.929H2.79451C2.46651 65.929 2.3878 65.9987 2.3878 66.2904V68.5222H3.63415C4.77556 68.5222 5.02485 68.3257 5.16261 67.5902H5.44468V70.082H5.16261C5.01173 69.2514 4.57877 69.0422 3.63415 69.0422H2.3878V71.3501V71.3184ZM9.60365 71.3184C9.60365 72.054 9.80697 72.1364 10.6794 72.1744V72.4344H7.04528V72.1744C7.91775 72.1364 8.12111 72.054 8.12111 71.3184V66.4996C8.12111 65.7577 7.91775 65.6753 7.04528 65.6436V65.409H10.6598V65.6753C9.78731 65.6753 9.58395 65.7895 9.58395 66.5313L9.60365 71.3184ZM18.197 66.6771C18.197 65.9924 18.0002 65.7134 17.2065 65.6246V65.409H19.7845V65.6753C18.9908 65.7641 18.794 66.0431 18.794 66.7279V72.6436H18.4332L13.4411 67.0702V71.1155C13.4411 71.8003 13.638 72.0793 14.4317 72.1681V72.4281H11.8537V72.1681C12.6474 72.0793 12.8377 71.8003 12.8377 71.1155V66.3601C12.7408 66.1756 12.6019 66.0147 12.4315 65.8895C12.261 65.7643 12.0635 65.6781 11.8537 65.6373V65.409H13.8216L18.1774 70.2722L18.197 66.6771ZM22.0936 69.8855L23.1891 67.0893L24.2781 69.8855H22.0936ZM27.3415 72.4217V72.1618C26.797 72.1618 26.6855 71.9398 26.3772 71.2741L23.8057 65.1998H23.4449L20.7685 71.496C20.6984 71.6732 20.577 71.8273 20.4188 71.9397C20.2607 72.0522 20.0723 72.1182 19.8764 72.13V72.39H22.1985V72.13C21.6934 72.13 21.4442 72.0223 21.4442 71.6799C21.5355 71.2333 21.6762 70.7975 21.864 70.3801H24.488C24.6874 70.7955 24.837 71.2316 24.934 71.6799C24.934 72.0223 24.6651 72.13 24.16 72.13V72.39L27.3415 72.4217ZM34.4261 66.6835C34.4261 65.9987 34.2359 65.7197 33.4422 65.6309V65.409H36.0202V65.6753C35.2264 65.7641 35.0296 66.0431 35.0296 66.7279V72.6436H34.6623L29.6768 67.0702V71.1155C29.6768 71.8003 29.8736 72.0793 30.6674 72.1681V72.4281H28.0828V72.1681C28.8831 72.0793 29.0733 71.8003 29.0733 71.1155V66.3601C28.9762 66.1746 28.8364 66.013 28.6647 65.8877C28.493 65.7624 28.294 65.6768 28.0828 65.6373V65.409H30.0507L34.3999 70.2722V66.6771L34.4261 66.6835ZM43.6559 70.7668C43.3524 71.3472 42.8805 71.8295 42.2981 72.1549C41.7156 72.4803 41.0477 72.6347 40.3759 72.5993C38.0013 72.5993 36.5909 71.0902 36.5909 68.833C36.596 68.3487 36.7002 67.8702 36.8975 67.425C37.0948 66.9798 37.3812 66.5767 37.7404 66.239C38.0995 65.9013 38.5243 65.6356 38.9901 65.4572C39.4559 65.2789 39.9537 65.1914 40.4547 65.1998C41.1357 65.2754 41.8079 65.4134 42.462 65.6119C42.6784 65.6119 42.7441 65.4978 42.9146 65.1998H43.282L43.4328 67.5521H43.1245C42.6916 66.4616 41.9306 65.65 40.6514 65.65C38.9262 65.65 38.1784 67.4507 38.1784 68.8203C38.1784 70.7224 39.0246 71.9905 40.8417 71.9905C41.3563 71.9648 41.8566 71.818 42.299 71.5627C42.7415 71.3074 43.1127 70.9515 43.3804 70.5259L43.6559 70.7668ZM47.1982 71.3058C47.1982 72.0413 47.4015 72.1237 48.274 72.1618V72.4217H44.6595V72.1618C45.532 72.1237 45.7353 72.0413 45.7353 71.3058V66.4869C45.7353 65.7451 45.532 65.6626 44.6595 65.6309V65.409H48.274V65.6753C47.4015 65.6753 47.1982 65.7895 47.1982 66.5313V71.3058ZM51.2653 69.8918L52.3608 67.0956L53.4497 69.8918H51.2653ZM56.5132 72.4281V72.1681C55.9688 72.1681 55.8572 71.9462 55.5489 71.2804L52.9774 65.2061H52.6232L49.9468 71.5023C49.8767 71.6796 49.7553 71.8337 49.5971 71.9461C49.4389 72.0585 49.2506 72.1245 49.0547 72.1364V72.3964H51.3768V72.1364C50.8717 72.1364 50.6225 72.0286 50.6225 71.6862C50.7137 71.2396 50.8544 70.8038 51.0422 70.3864H53.6662C53.8605 70.8031 54.0079 71.239 54.1057 71.6862C54.1057 72.0286 53.8367 72.1364 53.3382 72.1364V72.3964L56.5132 72.4281ZM57.1692 72.4281V72.1681C57.8646 72.1681 58.0745 72.0476 58.0745 71.3121V66.4933C58.0745 65.7514 57.8646 65.669 57.1692 65.6373V65.409H60.541V65.6753C59.7407 65.6753 59.5307 65.7895 59.5307 66.5313V71.4897C59.5307 71.9145 59.6619 72.0603 60.4819 72.0603C61.7939 72.0603 62.5614 71.8257 63.1911 70.5829H63.4667L62.9747 72.4851L57.1692 72.4281ZM1.63997 83.5621C2.46651 83.5621 2.66987 83.448 2.66987 82.7125V77.2849H1.77117C0.918389 77.2849 0.583807 77.6146 0.347652 78.553H0.026225L0.196788 76.746H6.60579L6.77635 78.553H6.45488C6.21873 77.5956 5.88419 77.2849 5.03797 77.2849H4.1327V82.7125C4.1327 83.448 4.33607 83.5304 5.16261 83.5621V83.8284H1.63997V83.5621ZM10.0694 82.7125C10.0694 83.448 10.2727 83.5304 11.1452 83.5621V83.8284H7.53071V83.5621C8.40317 83.5621 8.60653 83.448 8.60653 82.7125V77.8873C8.60653 77.1518 8.40317 77.0694 7.53071 77.0377V76.765H11.1452V77.0377C10.2727 77.0377 10.0694 77.1518 10.0694 77.8873V82.7125ZM18.8137 76.765H21.3327V77.0377C20.6308 77.0377 20.4274 77.1518 20.4274 77.8873V82.7125C20.4274 83.448 20.6308 83.5304 21.3327 83.5621V83.8284H18.0528V83.5621C18.7743 83.5621 18.9842 83.448 18.9842 82.7125V77.7415L16.544 83.9172H16.2094L13.8282 77.7415V82.5286C13.8282 83.2197 14.025 83.4987 14.8187 83.5811V83.8474H12.2407V83.5811C13.0344 83.4987 13.2247 83.2197 13.2247 82.5286V77.7288C13.2247 77.2405 13.0147 77.0567 12.2407 77.0567V76.784H14.8974L16.8654 81.6853L18.8137 76.765ZM22.3691 83.8284V83.5621C23.0645 83.5621 23.2744 83.448 23.2744 82.7125V77.8873C23.2744 77.1518 23.0645 77.0694 22.3691 77.0377V76.765H28.4763L28.5157 78.3248H28.2205C27.9581 77.5322 27.6761 77.2849 26.2526 77.2849H25.144C24.8094 77.2849 24.7372 77.3547 24.7372 77.6463V79.8846H25.9836C27.1185 79.8846 27.3677 79.688 27.5055 78.9462H27.7876V81.438H27.5055C27.3546 80.6074 26.9282 80.4045 25.9836 80.4045H24.7372V82.8456C24.7372 83.2704 24.8619 83.4163 26.1542 83.4163C27.4465 83.4163 28.2402 83.188 28.8634 81.9389H29.1389L28.6469 83.8411L22.3691 83.8284ZM30.0901 81.6092H30.3722C30.6805 82.5413 31.612 83.5114 32.6878 83.5114C32.8526 83.5252 33.0185 83.5047 33.1743 83.4512C33.3302 83.3977 33.4724 83.3125 33.5912 83.2012C33.71 83.09 33.8027 82.9554 33.863 82.8065C33.9233 82.6577 33.9498 82.498 33.9407 82.3384C33.9407 80.7152 30.1557 80.4362 30.1557 78.4009C30.1976 77.8964 30.4392 77.427 30.8302 77.0903C31.2213 76.7537 31.7315 76.5759 32.2548 76.5938C33.3503 76.5938 33.7374 76.9679 34.2228 76.9679C34.4261 76.9679 34.5574 76.8094 34.6098 76.5938H34.8853V78.8384H34.5967C34.5064 78.3661 34.2564 77.9361 33.886 77.6159C33.5156 77.2957 33.0457 77.1035 32.55 77.0694C32.4073 77.0528 32.2625 77.0663 32.1257 77.1089C31.9889 77.1515 31.8632 77.2222 31.7572 77.3162C31.6513 77.4101 31.5676 77.5251 31.512 77.6532C31.4564 77.7814 31.43 77.9196 31.4348 78.0585C31.4348 79.5041 35.2199 79.5485 35.2199 82.0277C35.2119 82.3027 35.1461 82.5732 35.0266 82.8228C34.9071 83.0724 34.7363 83.2959 34.5246 83.4798C34.3129 83.6636 34.0647 83.8039 33.7952 83.8922C33.5257 83.9805 33.2404 84.0149 32.9567 83.9933C31.6448 83.9933 31.3365 83.5558 30.8313 83.5558C30.6411 83.5558 30.5099 83.6826 30.464 83.9108H30.0769V81.6029L30.0901 81.6092Z" fill="black"/>
</svg>
