<svg width="141" height="80" viewBox="0 0 141 80" fill="none" xmlns="http://www.w3.org/2000/svg">
<path d="M3.18015 50.9059C2.72816 50.9059 2.30572 50.8232 1.91577 50.6593C1.52434 50.4953 1.18757 50.2664 0.902494 49.9754C0.617418 49.6844 0.395857 49.3402 0.237809 48.9429C0.0797621 48.5456 0 48.1157 0 47.6505C0 47.1852 0.0797621 46.7539 0.242241 46.358C0.403242 45.9607 0.627758 45.6136 0.915788 45.3167C1.20382 45.0198 1.54355 44.7879 1.93497 44.6239C2.32492 44.46 2.75032 44.3773 3.20969 44.3773C3.72371 44.3773 4.19637 44.4792 4.62325 44.6845C5.0516 44.8898 5.39872 45.1837 5.66459 45.5678L5.32043 45.9119C5.0841 45.5707 4.78573 45.3093 4.42237 45.1261C4.05901 44.943 3.65429 44.8514 3.20821 44.8514C2.6868 44.8514 2.223 44.9725 1.81237 45.2148C1.40322 45.457 1.08417 45.7879 0.85375 46.2103C0.624803 46.6328 0.509591 47.1128 0.509591 47.6519C0.509591 48.1911 0.624803 48.6726 0.85375 49.0936C1.0827 49.516 1.39584 49.8439 1.79317 50.0788C2.1905 50.3151 2.64544 50.4318 3.16094 50.4318C3.67644 50.4318 4.09741 50.3299 4.46373 50.1246C4.83004 49.9192 5.11364 49.6209 5.31452 49.2265C5.5154 48.8321 5.62028 48.3624 5.62619 47.8174L5.87729 48.0123H3.07823V47.5559H6.13873V47.6401C6.13873 48.3343 6.01613 48.9252 5.77094 49.4126C5.52574 49.9 5.18159 50.2693 4.73846 50.5249C4.29534 50.7789 3.77541 50.9059 3.18015 50.9059Z" fill="black"/>
<path d="M7.32764 50.8234V44.2932H7.80178V50.8234H7.32764Z" fill="black"/>
<path d="M11.1506 50.9164C10.7355 50.9164 10.3589 50.816 10.0206 50.6136C9.68236 50.4127 9.41501 50.1395 9.21561 49.7953C9.01768 49.4511 8.91724 49.0686 8.91724 48.6461C8.91724 48.2237 9.0162 47.8441 9.21561 47.5073C9.41353 47.1691 9.68236 46.9017 10.0206 46.7023C10.3589 46.5044 10.7355 46.4039 11.1506 46.4039C11.5656 46.4039 11.9526 46.5029 12.2894 46.7023C12.6277 46.9002 12.895 47.1691 13.0944 47.5073C13.2923 47.8456 13.3913 48.2252 13.3913 48.6461C13.3913 49.0671 13.2923 49.4585 13.0944 49.7997C12.8965 50.1409 12.6277 50.4127 12.2894 50.6136C11.9512 50.816 11.5715 50.9164 11.1506 50.9164ZM11.1506 50.4703C11.4859 50.4703 11.7842 50.3891 12.0486 50.2281C12.3116 50.0671 12.5198 49.8485 12.672 49.5723C12.8241 49.296 12.8994 48.9844 12.8994 48.6373C12.8994 48.2902 12.8226 47.9918 12.672 47.7259C12.5198 47.46 12.3116 47.2473 12.0486 47.0893C11.7857 46.9312 11.4859 46.8515 11.1506 46.8515C10.8153 46.8515 10.5258 46.9312 10.2629 47.0893C9.99846 47.2473 9.79019 47.46 9.6351 47.7259C9.48 47.9933 9.40319 48.299 9.40319 48.6461C9.40319 48.9932 9.48 49.3034 9.6351 49.5767C9.79019 49.8499 9.99846 50.0671 10.2629 50.2281C10.5258 50.3891 10.8227 50.4703 11.1506 50.4703Z" fill="black"/>
<path d="M14.4988 50.8234V44.2932H14.9729V47.5487L14.8607 48.6004L14.9729 49.6609V50.8234H14.4988ZM16.6937 50.9164C16.3717 50.9164 16.0748 50.8514 15.806 50.7214C15.5357 50.5915 15.3112 50.4098 15.131 50.1779C14.9508 49.946 14.8341 49.6742 14.7779 49.364V47.9505C14.8341 47.6344 14.9537 47.3596 15.1354 47.1277C15.3186 46.8943 15.5446 46.7171 15.8149 46.593C16.0852 46.4689 16.3776 46.4069 16.6937 46.4069C17.1029 46.4069 17.4692 46.5059 17.7912 46.7053C18.1132 46.9032 18.3672 47.1735 18.5534 47.5147C18.7395 47.8559 18.8325 48.24 18.8325 48.6683C18.8325 49.0967 18.7395 49.4792 18.5534 49.8175C18.3672 50.1557 18.1132 50.4231 17.7912 50.6225C17.4692 50.8204 17.1029 50.9209 16.6937 50.9209V50.9164ZM16.611 50.4703C16.9522 50.4703 17.2535 50.3935 17.5135 50.237C17.7735 50.0819 17.9773 49.8677 18.122 49.5959C18.2683 49.3227 18.3407 49.0095 18.3407 48.6565C18.3407 48.3035 18.2683 47.9918 18.122 47.7215C17.9758 47.4512 17.7749 47.24 17.5179 47.0849C17.2609 46.9298 16.964 46.853 16.6302 46.853C16.2964 46.853 16.0113 46.9313 15.7602 47.0849C15.5091 47.24 15.3126 47.4527 15.1694 47.7215C15.0261 47.9918 14.9552 48.3064 14.9552 48.6654C14.9552 49.0243 15.0246 49.33 15.1649 49.6003C15.3053 49.8707 15.5002 50.0819 15.7513 50.237C16.0024 50.3921 16.289 50.4703 16.611 50.4703Z" fill="black"/>
<path d="M21.8754 50.9164C21.4529 50.9164 21.0777 50.8174 20.7498 50.618C20.4204 50.4201 20.1605 50.1513 19.9684 49.813C19.7764 49.4748 19.6804 49.0922 19.6804 48.6639C19.6804 48.2355 19.7764 47.8603 19.9684 47.5191C20.1605 47.1779 20.4204 46.9061 20.7498 46.7053C21.0777 46.5044 21.447 46.4025 21.8562 46.4025C22.1914 46.4025 22.4898 46.466 22.7542 46.593C23.0171 46.72 23.2343 46.8988 23.4056 47.1277C23.5755 47.3567 23.6863 47.6299 23.7365 47.946V49.3596C23.6803 49.6757 23.5681 49.9504 23.3967 50.1823C23.2254 50.4142 23.0112 50.5944 22.7498 50.7214C22.4883 50.8485 22.1974 50.912 21.8754 50.912V50.9164ZM21.9403 50.4703C22.4366 50.4703 22.831 50.3049 23.1264 49.9726C23.4219 49.6402 23.5681 49.2045 23.5681 48.6653C23.5681 48.3064 23.5001 47.9888 23.3628 47.7171C23.2269 47.4438 23.0363 47.2326 22.7911 47.0804C22.5459 46.9283 22.2594 46.853 21.93 46.853C21.6006 46.853 21.286 46.9313 21.0231 47.0849C20.7587 47.24 20.5519 47.4541 20.3998 47.7274C20.2476 48.0007 20.1723 48.3108 20.1723 48.658C20.1723 49.0051 20.2476 49.3241 20.3998 49.5974C20.5519 49.8706 20.7602 50.0848 21.0275 50.2384C21.2934 50.3935 21.5977 50.4718 21.9389 50.4718L21.9403 50.4703ZM23.5489 50.8234V49.6609L23.6508 48.6004L23.5489 47.5487V46.497H24.023V50.8219H23.5489V50.8234Z" fill="black"/>
<path d="M25.4189 50.8234V44.2932H25.8931V50.8234H25.4189Z" fill="black"/>
<path d="M29.521 50.8232V44.4791H30.0143V50.8232H29.521ZM29.8194 50.8232V50.386H31.9301C32.3895 50.386 32.7558 50.2604 33.032 50.0093C33.3082 49.7582 33.4456 49.4347 33.4456 49.0374C33.4456 48.7774 33.385 48.547 33.2639 48.3491C33.1428 48.1511 32.9759 47.9931 32.7617 47.8749C32.5475 47.7568 32.2949 47.6977 32.004 47.6977H29.8179V47.2797H31.9286C32.3068 47.2797 32.6066 47.1748 32.8267 46.9636C33.0468 46.7523 33.1576 46.4643 33.1576 46.098C33.1576 45.7317 33.0364 45.4363 32.7942 45.228C32.552 45.0197 32.227 44.9163 31.8179 44.9163H29.8179V44.4791H31.8267C32.2108 44.4791 32.5387 44.5456 32.8075 44.6785C33.0778 44.8115 33.2846 44.9961 33.4308 45.2324C33.577 45.4688 33.6494 45.7435 33.6494 46.0596C33.6494 46.42 33.5549 46.7287 33.3658 46.9902C33.1768 47.2501 32.905 47.4392 32.552 47.5574L32.6081 47.3904C33.0231 47.5086 33.3511 47.7139 33.5889 48.0093C33.8282 48.3033 33.9463 48.6563 33.9463 49.0655C33.9463 49.4067 33.8621 49.7109 33.6952 49.9768C33.5283 50.2442 33.2905 50.4509 32.9833 50.6001C32.676 50.7493 32.3082 50.8232 31.8814 50.8232H29.8164H29.8194Z" fill="black"/>
<path d="M36.8694 50.9061C36.5222 50.9061 36.2121 50.8263 35.9388 50.6683C35.6655 50.5102 35.4528 50.2887 35.3022 50.0036C35.15 49.7185 35.0747 49.3891 35.0747 49.0184V46.497H35.5488V48.9992C35.5488 49.2902 35.6035 49.5472 35.7113 49.7673C35.8192 49.9873 35.9728 50.1602 36.1722 50.2842C36.3701 50.4083 36.6005 50.4703 36.8605 50.4703C37.2637 50.4703 37.5843 50.3359 37.8235 50.0656C38.0628 49.7953 38.181 49.4408 38.181 49.0007V46.4985H38.6551V49.0199C38.6551 49.3921 38.5798 49.7215 38.4277 50.0051C38.2755 50.2901 38.0643 50.5117 37.7955 50.6698C37.5267 50.8278 37.2165 50.9076 36.8694 50.9076V50.9061Z" fill="black"/>
<path d="M41.2412 50.9163C41.0049 50.9163 40.7819 50.8838 40.5721 50.8188C40.3609 50.7538 40.1718 50.6623 40.0049 50.5441C39.838 50.4259 39.6888 50.29 39.5588 50.135L39.8749 49.8189C40.0478 50.0478 40.2516 50.2177 40.4835 50.3255C40.7169 50.4348 40.9724 50.488 41.2516 50.488C41.5736 50.488 41.8276 50.423 42.0137 50.293C42.1999 50.163 42.2929 49.9799 42.2929 49.745C42.2929 49.5338 42.2338 49.3684 42.1157 49.2472C41.9975 49.1261 41.8439 49.0316 41.6548 48.9636C41.4657 48.8957 41.2678 48.8322 41.0595 48.7731C40.8513 48.714 40.6534 48.6416 40.4643 48.5545C40.2752 48.4673 40.1216 48.3447 40.0034 48.1867C39.8853 48.0286 39.8262 47.8189 39.8262 47.5589C39.8262 47.33 39.8838 47.1276 39.999 46.9548C40.1142 46.782 40.2797 46.6461 40.4968 46.5501C40.7139 46.4541 40.968 46.4053 41.259 46.4053C41.581 46.4053 41.8719 46.4615 42.129 46.5722C42.386 46.683 42.5928 46.8485 42.7479 47.0656L42.4406 47.3817C42.3106 47.2089 42.1408 47.073 41.934 46.977C41.7257 46.881 41.4923 46.8322 41.2324 46.8322C40.9222 46.8322 40.6858 46.8987 40.5248 47.0316C40.3638 47.1646 40.2826 47.3315 40.2826 47.5294C40.2826 47.7273 40.3417 47.8735 40.4599 47.9843C40.578 48.0966 40.7316 48.1823 40.9207 48.2443C41.1098 48.3063 41.3077 48.3669 41.516 48.426C41.7242 48.4851 41.9222 48.5604 42.1112 48.6534C42.3003 48.7465 42.4539 48.8735 42.5721 49.0345C42.6902 49.1955 42.7493 49.4156 42.7493 49.6948C42.7493 50.067 42.6134 50.3624 42.3402 50.5825C42.0669 50.8026 41.7006 50.9134 41.2427 50.9134L41.2412 50.9163Z" fill="black"/>
<path d="M44.0968 45.4925C43.9919 45.4925 43.9033 45.4541 43.8324 45.3758C43.7615 45.299 43.7261 45.2074 43.7261 45.101C43.7261 44.9947 43.7615 44.9075 43.8324 44.8366C43.9033 44.7657 43.9919 44.7303 44.0968 44.7303C44.2017 44.7303 44.2918 44.7657 44.3671 44.8366C44.441 44.9075 44.4794 44.9962 44.4794 45.101C44.4794 45.2059 44.4425 45.2975 44.3671 45.3758C44.2933 45.4541 44.2032 45.4925 44.0968 45.4925ZM43.8546 50.8232V46.4983H44.3287V50.8232H43.8546Z" fill="black"/>
<path d="M45.7422 50.8232V46.4983H46.2163V50.8232H45.7422ZM48.9888 50.8232V48.256C48.9888 47.8351 48.8662 47.4939 48.621 47.2324C48.3758 46.9725 48.0494 46.8425 47.6402 46.8425C47.3611 46.8425 47.1144 46.903 46.9002 47.0242C46.686 47.1453 46.5191 47.3107 46.398 47.5219C46.2769 47.7332 46.2163 47.9783 46.2163 48.256L45.9741 48.1172C45.9741 47.7893 46.0509 47.4953 46.206 47.2383C46.3611 46.9813 46.5738 46.7775 46.8426 46.6298C47.1129 46.4806 47.4142 46.4067 47.7495 46.4067C48.0848 46.4067 48.3891 46.4865 48.6476 46.6445C48.9046 46.8026 49.1055 47.0182 49.2473 47.2915C49.3891 47.5648 49.4615 47.8676 49.4615 48.2029V50.8261H48.9873L48.9888 50.8232Z" fill="black"/>
<path d="M52.7656 50.9164C52.3314 50.9164 51.9444 50.8174 51.6032 50.618C51.262 50.4201 50.9917 50.1498 50.7937 49.8086C50.5958 49.4674 50.4954 49.0834 50.4954 48.655C50.4954 48.2267 50.5914 47.8441 50.7834 47.5058C50.9754 47.1676 51.2398 46.9002 51.5781 46.7008C51.9163 46.5029 52.293 46.4025 52.708 46.4025C53.0994 46.4025 53.4466 46.4911 53.7494 46.6669C54.0536 46.8441 54.29 47.0863 54.4613 47.3965C54.6312 47.7067 54.7168 48.0657 54.7168 48.4748C54.7168 48.5117 54.7139 48.5605 54.708 48.6196C54.7021 48.6786 54.6932 48.7481 54.6799 48.8293H50.8292V48.4202H54.4111L54.253 48.5501C54.2649 48.2089 54.2102 47.9106 54.0861 47.6521C53.9621 47.3951 53.7819 47.1942 53.547 47.0524C53.3121 46.9106 53.0285 46.8382 52.7006 46.8382C52.3727 46.8382 52.0596 46.9135 51.7981 47.0657C51.5382 47.2178 51.3343 47.4276 51.1896 47.6934C51.0434 47.9608 50.971 48.2695 50.971 48.624C50.971 48.9962 51.0463 49.3197 51.1985 49.5959C51.3506 49.8721 51.5633 50.0863 51.8351 50.2384C52.1083 50.3906 52.4274 50.4659 52.7937 50.4659C53.0729 50.4659 53.3313 50.4142 53.5706 50.3123C53.8099 50.2104 54.0093 50.0568 54.1703 49.8514L54.4864 50.1587C54.2811 50.395 54.03 50.5782 53.7331 50.7126C53.4362 50.8455 53.1127 50.912 52.7656 50.912V50.9164Z" fill="black"/>
<path d="M57.0908 50.9163C56.8545 50.9163 56.6315 50.8838 56.4217 50.8188C56.2105 50.7538 56.0214 50.6623 55.8545 50.5441C55.6876 50.4259 55.5384 50.29 55.4084 50.135L55.7245 49.8189C55.8974 50.0478 56.1012 50.2177 56.3331 50.3255C56.5665 50.4348 56.822 50.488 57.1012 50.488C57.4232 50.488 57.6772 50.423 57.8633 50.293C58.0495 50.163 58.1425 49.9799 58.1425 49.745C58.1425 49.5338 58.0834 49.3684 57.9653 49.2472C57.8471 49.1261 57.6935 49.0316 57.5044 48.9636C57.3154 48.8957 57.1174 48.8322 56.9092 48.7731C56.7009 48.714 56.503 48.6416 56.3139 48.5545C56.1248 48.4673 55.9712 48.3447 55.853 48.1867C55.7349 48.0286 55.6758 47.8189 55.6758 47.5589C55.6758 47.33 55.7334 47.1276 55.8486 46.9548C55.9638 46.782 56.1293 46.6461 56.3464 46.5501C56.5635 46.4541 56.8176 46.4053 57.1086 46.4053C57.4306 46.4053 57.7201 46.4615 57.9786 46.5722C58.2356 46.6845 58.4424 46.8485 58.5975 47.0656L58.2902 47.3817C58.1602 47.2089 57.9904 47.073 57.7836 46.977C57.5753 46.881 57.3419 46.8322 57.082 46.8322C56.7718 46.8322 56.5355 46.8987 56.3745 47.0316C56.2135 47.1646 56.1322 47.3315 56.1322 47.5294C56.1322 47.7273 56.1913 47.8735 56.3095 47.9843C56.4276 48.0966 56.5812 48.1823 56.7703 48.2443C56.9594 48.3063 57.1573 48.3669 57.3656 48.426C57.5738 48.4851 57.7718 48.5604 57.9608 48.6534C58.1499 48.7465 58.3035 48.8735 58.4217 49.0345C58.5398 49.1955 58.5989 49.4156 58.5989 49.6948C58.5989 50.067 58.463 50.3624 58.1898 50.5825C57.9165 50.8026 57.5517 50.9134 57.0923 50.9134L57.0908 50.9163Z" fill="black"/>
<path d="M60.9973 50.9163C60.761 50.9163 60.538 50.8838 60.3282 50.8188C60.117 50.7538 59.9279 50.6623 59.761 50.5441C59.5941 50.4259 59.4449 50.29 59.3149 50.135L59.631 49.8189C59.8039 50.0478 60.0077 50.2177 60.2396 50.3255C60.473 50.4348 60.7285 50.488 61.0077 50.488C61.3297 50.488 61.5837 50.423 61.7698 50.293C61.956 50.163 62.049 49.9799 62.049 49.745C62.049 49.5338 61.9899 49.3684 61.8718 49.2472C61.7536 49.1261 61.6 49.0316 61.4109 48.9636C61.2218 48.8957 61.0239 48.8322 60.8157 48.7731C60.6074 48.714 60.4095 48.6416 60.2204 48.5545C60.0313 48.4673 59.8777 48.3447 59.7595 48.1867C59.6414 48.0286 59.5823 47.8189 59.5823 47.5589C59.5823 47.33 59.6399 47.1276 59.7551 46.9548C59.8703 46.782 60.0358 46.6461 60.2529 46.5501C60.47 46.4541 60.7241 46.4053 61.0151 46.4053C61.3371 46.4053 61.628 46.4615 61.8851 46.5722C62.1421 46.683 62.3489 46.8485 62.504 47.0656L62.1967 47.3817C62.0667 47.2089 61.8969 47.073 61.6901 46.977C61.4818 46.881 61.2484 46.8322 60.9885 46.8322C60.6783 46.8322 60.442 46.8987 60.281 47.0316C60.1199 47.1646 60.0387 47.3315 60.0387 47.5294C60.0387 47.7273 60.0978 47.8735 60.216 47.9843C60.3341 48.0966 60.4877 48.1823 60.6768 48.2443C60.8659 48.3063 61.0638 48.3669 61.2721 48.426C61.4803 48.4851 61.6783 48.5604 61.8673 48.6534C62.0564 48.7465 62.21 48.8735 62.3282 49.0345C62.4463 49.1955 62.5054 49.4156 62.5054 49.6948C62.5054 50.067 62.3695 50.3624 62.0963 50.5825C61.823 50.8026 61.4567 50.9134 60.9988 50.9134L60.9973 50.9163Z" fill="black"/>
<path d="M65.8435 50.8232V44.4791H66.3368V50.8232H65.8435ZM66.1596 44.9252V44.4791H69.9261V44.9252H66.1596ZM66.1596 47.7907V47.3535H69.6854V47.7907H66.1596ZM66.1596 50.8232V50.3771H69.9734V50.8232H66.1596Z" fill="black"/>
<path d="M70.699 50.8233L72.5586 48.4703L72.8097 48.8337L71.275 50.8248H70.699V50.8233ZM74.2144 50.8233L72.6605 48.7864L72.5483 48.7022L70.7714 46.4984H71.3666L72.8363 48.3581L72.9486 48.4319L74.7993 50.8218H74.2129L74.2144 50.8233ZM72.9589 48.6934L72.7078 48.3492L74.1583 46.4984H74.7255L72.9589 48.6934Z" fill="black"/>
<path d="M77.5437 50.9164C77.1227 50.9164 76.7417 50.816 76.4049 50.6136C76.0666 50.4127 75.7993 50.1395 75.5999 49.7953C75.4019 49.4511 75.303 49.0686 75.303 48.6461C75.303 48.2237 75.4019 47.8441 75.5999 47.5073C75.7978 47.1691 76.0666 46.9017 76.4049 46.7023C76.7431 46.5029 77.1227 46.4039 77.5437 46.4039C77.8598 46.4039 78.1582 46.463 78.4373 46.5812C78.7165 46.6993 78.9543 46.8663 79.1537 47.0834L78.8376 47.3995C78.6766 47.2267 78.4846 47.0908 78.2616 46.9948C78.0385 46.8988 77.7992 46.85 77.5452 46.85C77.2099 46.85 76.9115 46.9298 76.6471 47.0878C76.3827 47.2459 76.1745 47.4586 76.0194 47.7244C75.8643 47.9918 75.7875 48.2975 75.7875 48.6447C75.7875 48.9918 75.8643 49.302 76.0194 49.5752C76.1745 49.8485 76.3842 50.0656 76.6471 50.2266C76.91 50.3876 77.2099 50.4688 77.5452 50.4688C77.8051 50.4688 78.0489 50.4201 78.2749 50.3241C78.5008 50.2281 78.6943 50.0907 78.8568 49.9105L79.1729 50.2266C78.9691 50.4437 78.7254 50.6121 78.4432 50.7332C78.1611 50.8544 77.8613 50.9149 77.5452 50.9149L77.5437 50.9164Z" fill="black"/>
<path d="M82.1579 50.9164C81.7237 50.9164 81.3367 50.8174 80.9955 50.618C80.6543 50.4201 80.3855 50.1498 80.1861 49.8086C79.9881 49.4674 79.8892 49.0834 79.8892 48.655C79.8892 48.2267 79.9852 47.8441 80.1772 47.5058C80.3692 47.1676 80.6351 46.9002 80.9719 46.7008C81.3086 46.5014 81.6868 46.4025 82.1018 46.4025C82.4918 46.4025 82.8404 46.4911 83.1432 46.6669C83.4474 46.8441 83.6838 47.0863 83.8551 47.3965C84.025 47.7067 84.1106 48.0657 84.1106 48.4748C84.1106 48.5117 84.1077 48.5605 84.1018 48.6196C84.0959 48.6786 84.0855 48.7481 84.0737 48.8293H80.223V48.4202H83.8049L83.6468 48.5501C83.6587 48.2089 83.604 47.9106 83.4799 47.6521C83.3559 47.3951 83.1757 47.1942 82.9408 47.0524C82.7045 46.9091 82.4223 46.8382 82.0944 46.8382C81.7665 46.8382 81.4519 46.9135 81.1919 47.0657C80.932 47.2178 80.7281 47.4276 80.5834 47.6934C80.4372 47.9608 80.3648 48.2695 80.3648 48.624C80.3648 48.9962 80.4401 49.3197 80.5923 49.5959C80.7444 49.8721 80.9571 50.0863 81.2289 50.2384C81.5021 50.3906 81.8212 50.4659 82.1875 50.4659C82.4667 50.4659 82.7251 50.4142 82.9644 50.3123C83.2037 50.2104 83.4031 50.0568 83.5641 49.8514L83.8802 50.1587C83.6749 50.395 83.4238 50.5782 83.1269 50.7126C82.83 50.8455 82.5065 50.912 82.1594 50.912L82.1579 50.9164Z" fill="black"/>
<path d="M85.1907 50.8234V44.2932H85.6648V50.8234H85.1907Z" fill="black"/>
<path d="M87.0588 50.8234V44.2932H87.533V50.8234H87.0588Z" fill="black"/>
<path d="M90.9199 50.9164C90.4856 50.9164 90.0987 50.8174 89.7575 50.618C89.4162 50.4201 89.1474 50.1498 88.948 49.8086C88.7501 49.4674 88.6511 49.0834 88.6511 48.655C88.6511 48.2267 88.7471 47.8441 88.9392 47.5058C89.1312 47.1676 89.397 46.9002 89.7338 46.7008C90.0706 46.5014 90.4487 46.4025 90.8638 46.4025C91.2537 46.4025 91.6023 46.4911 91.9051 46.6669C92.2094 46.8441 92.4457 47.0863 92.6171 47.3965C92.7869 47.7067 92.8726 48.0657 92.8726 48.4748C92.8726 48.5117 92.8697 48.5605 92.8637 48.6196C92.8578 48.6786 92.8475 48.7481 92.8357 48.8293H88.9849V48.4202H92.5669L92.4088 48.5501C92.4206 48.2089 92.366 47.9106 92.2419 47.6521C92.1178 47.3951 91.9376 47.1942 91.7028 47.0524C91.4664 46.9091 91.1843 46.8382 90.8564 46.8382C90.5285 46.8382 90.2139 46.9135 89.9539 47.0657C89.6939 47.2178 89.4901 47.4276 89.3454 47.6934C89.1991 47.9608 89.1267 48.2695 89.1267 48.624C89.1267 48.9962 89.2021 49.3197 89.3542 49.5959C89.5064 49.8721 89.7191 50.0863 89.9908 50.2384C90.2641 50.3906 90.5831 50.4659 90.9495 50.4659C91.2286 50.4659 91.4871 50.4142 91.7264 50.3123C91.9657 50.2104 92.1651 50.0568 92.3261 49.8514L92.6422 50.1587C92.4369 50.395 92.1858 50.5782 91.8889 50.7126C91.592 50.8455 91.2685 50.912 90.9214 50.912L90.9199 50.9164Z" fill="black"/>
<path d="M93.9524 50.8232V46.4983H94.4265V50.8232H93.9524ZM97.1975 50.8232V48.256C97.1975 47.8351 97.0749 47.4939 96.8297 47.2324C96.5845 46.9725 96.2581 46.8425 95.849 46.8425C95.5698 46.8425 95.3231 46.903 95.1089 47.0242C94.8948 47.1453 94.7279 47.3107 94.6067 47.5219C94.4856 47.7332 94.4251 47.9783 94.4251 48.256L94.1828 48.1172C94.1828 47.7893 94.2596 47.4953 94.4162 47.2383C94.5713 46.9813 94.784 46.7775 95.0528 46.6298C95.3231 46.4806 95.6244 46.4067 95.9597 46.4067C96.295 46.4067 96.5993 46.4865 96.8578 46.6445C97.1148 46.8026 97.3142 47.0182 97.4575 47.2915C97.5993 47.5648 97.6717 47.8676 97.6717 48.2029V50.8261H97.1975V50.8232Z" fill="black"/>
<path d="M100.946 50.9164C100.525 50.9164 100.144 50.816 99.8072 50.6136C99.469 50.4127 99.2016 50.1395 99.0022 49.7953C98.8043 49.4511 98.7053 49.0686 98.7053 48.6461C98.7053 48.2237 98.8043 47.8441 99.0022 47.5073C99.2001 47.1691 99.469 46.9017 99.8072 46.7023C100.145 46.5029 100.525 46.4039 100.946 46.4039C101.262 46.4039 101.561 46.463 101.84 46.5812C102.119 46.6993 102.357 46.8663 102.556 47.0834L102.24 47.3995C102.079 47.2267 101.887 47.0908 101.664 46.9948C101.441 46.8988 101.202 46.85 100.948 46.85C100.612 46.85 100.314 46.9298 100.049 47.0878C99.7851 47.2459 99.5768 47.4586 99.4217 47.7244C99.2666 47.9918 99.1898 48.2975 99.1898 48.6447C99.1898 48.9918 99.2666 49.302 99.4217 49.5752C99.5768 49.8485 99.7865 50.0656 100.049 50.2266C100.312 50.3876 100.612 50.4688 100.948 50.4688C101.207 50.4688 101.451 50.4201 101.677 50.3241C101.903 50.2281 102.097 50.0907 102.259 49.9105L102.575 50.2266C102.371 50.4437 102.128 50.6121 101.846 50.7332C101.563 50.8544 101.264 50.9149 100.948 50.9149L100.946 50.9164Z" fill="black"/>
<path d="M105.561 50.9164C105.127 50.9164 104.74 50.8174 104.398 50.618C104.057 50.4201 103.788 50.1498 103.589 49.8086C103.391 49.4674 103.292 49.0834 103.292 48.655C103.292 48.2267 103.388 47.8441 103.58 47.5058C103.772 47.1676 104.038 46.9002 104.375 46.7008C104.711 46.5014 105.09 46.4025 105.505 46.4025C105.895 46.4025 106.243 46.4911 106.546 46.6669C106.85 46.8441 107.087 47.0863 107.258 47.3965C107.428 47.7067 107.513 48.0657 107.513 48.4748C107.513 48.5117 107.511 48.5605 107.505 48.6196C107.499 48.6786 107.488 48.7481 107.477 48.8293H103.626V48.4202H107.208L107.05 48.5501C107.061 48.2089 107.007 47.9106 106.883 47.6521C106.759 47.3951 106.578 47.1942 106.344 47.0524C106.107 46.9091 105.825 46.8382 105.497 46.8382C105.169 46.8382 104.855 46.9135 104.595 47.0657C104.335 47.2178 104.131 47.4276 103.986 47.6934C103.84 47.9608 103.768 48.2695 103.768 48.624C103.768 48.9962 103.843 49.3197 103.995 49.5959C104.147 49.8721 104.36 50.0863 104.632 50.2384C104.905 50.3906 105.224 50.4659 105.59 50.4659C105.869 50.4659 106.128 50.4142 106.367 50.3123C106.607 50.2104 106.806 50.0568 106.967 49.8514L107.283 50.1587C107.078 50.395 106.827 50.5782 106.53 50.7126C106.233 50.8455 105.909 50.912 105.562 50.912L105.561 50.9164Z" fill="black"/>
<path d="M110.098 50.8232L112.694 44.4791H113.084L115.66 50.8232H115.12L112.776 44.9813H112.982L110.629 50.8232H110.098ZM111.234 48.9532V48.516H114.537V48.9532H111.234Z" fill="black"/>
<path d="M117.382 50.8233L115.754 46.4984H116.247L117.633 50.3211H117.428L118.813 46.4984H119.092L120.478 50.3211H120.273L121.658 46.4984H122.151L120.524 50.8233H120.236L118.831 47.0006H119.082L117.668 50.8233H117.38H117.382Z" fill="black"/>
<path d="M124.851 50.9164C124.429 50.9164 124.055 50.8174 123.726 50.618C123.396 50.4201 123.136 50.1513 122.944 49.813C122.752 49.4748 122.656 49.0922 122.656 48.6639C122.656 48.2355 122.752 47.8603 122.944 47.5191C123.136 47.1779 123.396 46.9061 123.726 46.7053C124.055 46.5044 124.423 46.4025 124.832 46.4025C125.167 46.4025 125.466 46.466 125.73 46.593C125.993 46.72 126.21 46.8988 126.381 47.1277C126.551 47.3567 126.662 47.6299 126.712 47.946V49.3596C126.656 49.6757 126.544 49.9504 126.373 50.1823C126.201 50.4142 125.987 50.5944 125.726 50.7214C125.466 50.8485 125.173 50.912 124.851 50.912V50.9164ZM124.916 50.4703C125.412 50.4703 125.808 50.3049 126.102 49.9726C126.396 49.6402 126.544 49.2045 126.544 48.6653C126.544 48.3064 126.476 47.9888 126.34 47.7171C126.204 47.4438 126.014 47.2326 125.768 47.0804C125.523 46.9283 125.237 46.853 124.907 46.853C124.578 46.853 124.263 46.9313 124 47.0849C123.736 47.24 123.529 47.4541 123.377 47.7274C123.225 48.0007 123.15 48.3108 123.15 48.658C123.15 49.0051 123.225 49.3241 123.377 49.5974C123.529 49.8706 123.739 50.0848 124.005 50.2384C124.271 50.3935 124.575 50.4718 124.916 50.4718V50.4703ZM126.525 50.8234V49.6609L126.627 48.6004L126.525 47.5487V46.497H126.999V50.8219H126.525V50.8234Z" fill="black"/>
<path d="M128.395 50.8233V46.4985H128.869V50.8233H128.395ZM128.869 48.2458L128.637 48.1528C128.637 47.6004 128.776 47.172 129.055 46.8648C129.334 46.5575 129.701 46.4039 130.152 46.4039C130.364 46.4039 130.56 46.4409 130.743 46.5162C130.926 46.59 131.095 46.7112 131.25 46.8795L130.934 47.2148C130.816 47.0849 130.689 46.9918 130.553 46.9357C130.417 46.8795 130.254 46.8515 130.068 46.8515C129.715 46.8515 129.427 46.9711 129.203 47.2089C128.98 47.4482 128.867 47.7939 128.867 48.2458H128.869Z" fill="black"/>
<path d="M133.724 50.9164C133.321 50.9164 132.957 50.8175 132.635 50.6181C132.313 50.4201 132.058 50.1513 131.873 49.813C131.687 49.4748 131.594 49.0922 131.594 48.6639C131.594 48.2355 131.687 47.8515 131.873 47.5103C132.059 47.1691 132.313 46.9003 132.635 46.7008C132.957 46.5029 133.321 46.4025 133.724 46.4025C134.046 46.4025 134.343 46.4645 134.612 46.5886C134.88 46.7127 135.109 46.8914 135.296 47.1233C135.482 47.3552 135.6 47.6299 135.649 47.946V49.3596C135.592 49.6698 135.474 49.9416 135.296 50.1735C135.115 50.4054 134.891 50.587 134.621 50.717C134.35 50.847 134.052 50.912 133.722 50.912L133.724 50.9164ZM133.808 50.4703C134.136 50.4703 134.427 50.3935 134.678 50.237C134.929 50.0819 135.124 49.8692 135.265 49.6003C135.405 49.33 135.474 49.0184 135.474 48.6654C135.474 48.3123 135.403 47.9903 135.26 47.7215C135.117 47.4512 134.92 47.24 134.669 47.0849C134.418 46.9298 134.126 46.853 133.79 46.853C133.455 46.853 133.169 46.9313 132.912 47.0849C132.655 47.24 132.451 47.4527 132.303 47.7215C132.154 47.9918 132.08 48.3035 132.08 48.6565C132.08 49.0095 132.154 49.3227 132.303 49.5959C132.452 49.8692 132.656 50.0834 132.917 50.237C133.177 50.3921 133.476 50.4703 133.811 50.4703H133.808ZM135.929 50.8234H135.455V49.6609L135.567 48.6004L135.455 47.5487V44.2932H135.929V50.8234Z" fill="black"/>
<path d="M138.617 50.9163C138.381 50.9163 138.158 50.8838 137.948 50.8188C137.737 50.7538 137.548 50.6623 137.381 50.5441C137.214 50.4259 137.065 50.29 136.935 50.135L137.251 49.8189C137.424 50.0478 137.628 50.2177 137.86 50.3255C138.092 50.4348 138.349 50.488 138.628 50.488C138.95 50.488 139.204 50.423 139.39 50.293C139.576 50.163 139.669 49.9799 139.669 49.745C139.669 49.5338 139.61 49.3684 139.492 49.2472C139.374 49.1261 139.22 49.0316 139.031 48.9636C138.842 48.8957 138.644 48.8322 138.436 48.7731C138.227 48.714 138.03 48.6416 137.841 48.5545C137.651 48.4673 137.498 48.3447 137.38 48.1867C137.261 48.0286 137.202 47.8189 137.202 47.5589C137.202 47.33 137.26 47.1276 137.375 46.9548C137.49 46.782 137.656 46.6461 137.873 46.5501C138.09 46.4541 138.344 46.4053 138.635 46.4053C138.957 46.4053 139.247 46.4615 139.505 46.5722C139.762 46.6845 139.969 46.8485 140.124 47.0656L139.817 47.3817C139.687 47.2089 139.517 47.073 139.31 46.977C139.102 46.881 138.869 46.8322 138.609 46.8322C138.298 46.8322 138.064 46.8987 137.901 47.0316C137.74 47.1646 137.659 47.3315 137.659 47.5294C137.659 47.7273 137.718 47.8735 137.836 47.9843C137.954 48.0966 138.108 48.1823 138.297 48.2443C138.486 48.3063 138.684 48.3669 138.892 48.426C139.1 48.4851 139.298 48.5604 139.487 48.6534C139.677 48.7465 139.83 48.8735 139.948 49.0345C140.066 49.1955 140.126 49.4156 140.126 49.6948C140.126 50.067 139.99 50.3624 139.716 50.5825C139.443 50.8026 139.078 50.9134 138.619 50.9134L138.617 50.9163Z" fill="black"/>
<path d="M41.7619 62.9706L39.9998 55.5911H41.5256L42.6378 60.6605L43.9864 55.5911H45.7589L47.0528 60.7461L48.1857 55.5911H49.6864L47.8947 62.9706H46.3143L44.8446 57.4537L43.3793 62.9706H41.7634H41.7619Z" fill="black"/>
<path d="M50.3455 56.8998V55.5911H51.7605V56.8998H50.3455ZM50.3455 62.9706V57.6251H51.7605V62.9706H50.3455Z" fill="black"/>
<path d="M58.0723 62.9706H56.6573V60.2425C56.6573 59.6649 56.6263 59.2912 56.5672 59.1228C56.5066 58.953 56.4091 58.8215 56.2733 58.727C56.1374 58.6324 55.9734 58.5867 55.7829 58.5867C55.5377 58.5867 55.3176 58.6546 55.1241 58.7875C54.9291 58.922 54.7962 59.0992 54.7238 59.3208C54.6514 59.5423 54.616 59.9515 54.616 60.5497V62.9706H53.2009V57.6251H54.5155V58.4109C54.9823 57.8068 55.5687 57.5054 56.2777 57.5054C56.5893 57.5054 56.8744 57.5616 57.1329 57.6738C57.3914 57.7861 57.5864 57.9294 57.7193 58.1037C57.8522 58.2779 57.9438 58.4759 57.997 58.6974C58.0487 58.919 58.0753 59.2366 58.0753 59.6487V62.9706H58.0723Z" fill="black"/>
<path d="M64.3702 62.9706H62.9551V60.2425C62.9551 59.6649 62.9256 59.2912 62.865 59.1228C62.8045 58.9544 62.707 58.8215 62.5711 58.727C62.4352 58.6324 62.2712 58.5867 62.0807 58.5867C61.8355 58.5867 61.6154 58.6546 61.4219 58.7875C61.227 58.922 61.094 59.0992 61.0216 59.3208C60.9493 59.5423 60.9138 59.9515 60.9138 60.5497V62.9706H59.4988V57.6251H60.8119V58.4109C61.2787 57.8068 61.8651 57.5054 62.574 57.5054C62.8857 57.5054 63.1708 57.5616 63.4293 57.6738C63.6878 57.7861 63.8827 57.9294 64.0157 58.1037C64.1486 58.2779 64.2402 58.4759 64.2919 58.6974C64.3436 58.919 64.3702 59.2366 64.3702 59.6487V62.9706Z" fill="black"/>
<path d="M68.9006 61.2691L70.3098 61.5054C70.1281 62.0224 69.843 62.4153 69.4516 62.6856C69.0602 62.9559 68.5712 63.0903 67.9848 63.0903C67.0558 63.0903 66.3674 62.7861 65.9214 62.179C65.5683 61.693 65.3926 61.0786 65.3926 60.3371C65.3926 59.4508 65.6245 58.7566 66.0868 58.2559C66.5491 57.7537 67.1355 57.504 67.843 57.504C68.6377 57.504 69.2655 57.7669 69.7263 58.2913C70.1857 58.8171 70.4058 59.6207 70.3851 60.7049H66.8416C66.8519 61.1243 66.9657 61.4508 67.1843 61.6842C67.4029 61.9175 67.6747 62.0342 67.9996 62.0342C68.2212 62.0342 68.4073 61.9737 68.558 61.8525C68.7086 61.7314 68.8224 61.5379 68.9006 61.2691ZM68.9819 59.8393C68.9715 59.4301 68.8667 59.1185 68.6643 58.9058C68.4634 58.6931 68.2182 58.5867 67.9287 58.5867C67.62 58.5867 67.3645 58.699 67.1636 58.9235C66.9627 59.148 66.8637 59.4538 66.8667 59.8393H68.9804H68.9819Z" fill="black"/>
<path d="M72.8928 62.9707H71.4778V57.6251H72.7924V58.3858C73.0169 58.0269 73.2193 57.7906 73.3995 57.6754C73.5797 57.5602 73.7835 57.504 74.011 57.504C74.333 57.504 74.6432 57.5927 74.9415 57.7714L74.5043 59.0047C74.2665 58.8511 74.0449 58.7728 73.8396 58.7728C73.6343 58.7728 73.4733 58.8275 73.3359 58.9368C73.1986 59.0461 73.0908 59.2425 73.011 59.5276C72.9327 59.8127 72.8928 60.4109 72.8928 61.3193V62.9707Z" fill="black"/>
<path d="M82.8899 61.6576V62.9722H77.9314C77.9846 62.4759 78.1456 62.0048 78.4144 61.5602C78.6832 61.1156 79.2135 60.5262 80.0052 59.7906C80.6433 59.1968 81.0333 58.7936 81.178 58.5824C81.373 58.2899 81.4705 58.0019 81.4705 57.7168C81.4705 57.4022 81.3863 57.1585 81.2164 56.9901C81.0466 56.8202 80.8132 56.736 80.5148 56.736C80.2164 56.736 79.9845 56.8246 79.8102 57.0034C79.6359 57.1821 79.5355 57.476 79.5089 57.8896L78.0998 57.7493C78.184 56.9709 78.4469 56.4125 78.89 56.0728C79.3331 55.7346 79.887 55.5647 80.5517 55.5647C81.2799 55.5647 81.8516 55.7611 82.2681 56.154C82.6846 56.547 82.8929 57.0344 82.8929 57.6193C82.8929 57.9517 82.8338 58.2677 82.7142 58.5676C82.5945 58.8674 82.4069 59.1821 82.1484 59.5114C81.9771 59.7301 81.6684 60.0432 81.2223 60.4523C80.7763 60.8615 80.4927 61.1333 80.3745 61.2677C80.2548 61.4021 80.1588 61.5321 80.085 61.6606H82.8944L82.8899 61.6576Z" fill="black"/>
<path d="M86.2384 55.5602C86.9533 55.5602 87.5116 55.8157 87.9148 56.3253C88.3949 56.9294 88.6342 57.9309 88.6342 59.3312C88.6342 60.7314 88.3919 61.7314 87.9089 62.3414C87.5101 62.8451 86.9518 63.0962 86.2369 63.0962C85.522 63.0962 84.94 62.82 84.4998 62.2676C84.0597 61.7152 83.8411 60.7314 83.8411 59.3149C83.8411 57.8984 84.0833 56.925 84.5663 56.315C84.9651 55.8113 85.5235 55.5602 86.2369 55.5602H86.2384ZM86.2384 56.7345C86.067 56.7345 85.9149 56.7891 85.7805 56.8984C85.6461 57.0077 85.5427 57.2027 85.4688 57.4848C85.3713 57.8511 85.3226 58.4671 85.3226 59.3326C85.3226 60.1982 85.3654 60.7935 85.454 61.1169C85.5427 61.4404 85.6505 61.6561 85.7834 61.7639C85.9164 61.8717 86.0685 61.9249 86.2384 61.9249C86.4082 61.9249 86.5618 61.8702 86.6963 61.7609C86.8307 61.6516 86.9341 61.4567 87.0079 61.1746C87.1054 60.8127 87.1541 60.1982 87.1541 59.3326C87.1541 58.4671 87.1098 57.8718 87.0227 57.5483C86.9355 57.2248 86.8262 57.0077 86.6933 56.8984C86.5604 56.7891 86.4082 56.7345 86.2384 56.7345Z" fill="black"/>
<path d="M94.3577 61.6576V62.9722H89.3992C89.4523 62.4759 89.6133 62.0048 89.8822 61.5602C90.151 61.1156 90.6813 60.5262 91.473 59.7906C92.1111 59.1968 92.501 58.7936 92.6458 58.5824C92.8408 58.2899 92.9382 58.0019 92.9382 57.7168C92.9382 57.4022 92.8541 57.1585 92.6842 56.9901C92.5143 56.8202 92.2809 56.736 91.9826 56.736C91.6842 56.736 91.4523 56.8246 91.278 57.0034C91.1037 57.1821 91.0033 57.476 90.9767 57.8896L89.5676 57.7493C89.6518 56.9709 89.9147 56.4125 90.3578 56.0728C90.8009 55.7346 91.3548 55.5647 92.0195 55.5647C92.7477 55.5647 93.3193 55.7611 93.7359 56.154C94.1524 56.547 94.3607 57.0344 94.3607 57.6193C94.3607 57.9517 94.3016 58.2677 94.1819 58.5676C94.0623 58.8674 93.8747 59.1821 93.6162 59.5114C93.4449 59.7301 93.1362 60.0432 92.6901 60.4523C92.244 60.8615 91.9604 61.1333 91.8423 61.2677C91.7226 61.4021 91.6266 61.5321 91.5528 61.6606H94.3621L94.3577 61.6576Z" fill="black"/>
<path d="M95.2649 61.0121L96.6342 60.8466C96.677 61.1952 96.7952 61.4626 96.9872 61.6472C97.1777 61.8318 97.4096 61.9234 97.6814 61.9234C97.9739 61.9234 98.2191 61.8126 98.4185 61.5911C98.6179 61.3695 98.7183 61.0711 98.7183 60.6945C98.7183 60.3385 98.6223 60.0564 98.4318 59.8481C98.2412 59.6399 98.0064 59.5365 97.7316 59.5365C97.5499 59.5365 97.3343 59.5719 97.0817 59.6428L97.2383 58.4907C97.6208 58.501 97.9133 58.4183 98.1142 58.2411C98.3151 58.0653 98.4155 57.8304 98.4155 57.5394C98.4155 57.2913 98.3417 57.0934 98.1939 56.9457C98.0462 56.798 97.8498 56.7241 97.6046 56.7241C97.3594 56.7241 97.157 56.8083 96.9857 56.9752C96.8144 57.1436 96.711 57.3873 96.674 57.7108L95.3698 57.4892C95.4599 57.0432 95.5972 56.6857 95.7804 56.4198C95.9636 56.1525 96.2191 55.9427 96.5455 55.7906C96.8734 55.6385 97.2398 55.5616 97.646 55.5616C98.3402 55.5616 98.897 55.7832 99.3165 56.2263C99.6622 56.5882 99.835 56.9988 99.835 57.4553C99.835 58.1022 99.4805 58.6192 98.773 59.0062C99.1954 59.0963 99.5337 59.3001 99.7877 59.6147C100.04 59.9308 100.167 60.3104 100.167 60.758C100.167 61.4064 99.931 61.9574 99.4569 62.4138C98.9842 62.8702 98.3948 63.0977 97.6903 63.0977C97.0226 63.0977 96.4687 62.9057 96.0286 62.5216C95.5884 62.1376 95.3343 61.6354 95.2634 61.0135L95.2649 61.0121Z" fill="black"/>
<path d="M37 75.5067C37 74.6279 37.2541 73.9174 37.7607 73.3738C38.2688 72.8303 38.8833 72.5585 39.6085 72.5585C40.223 72.5585 40.7222 72.7579 41.1092 73.1582C41.4962 73.5585 41.6897 74.0946 41.6897 74.7667C41.6897 75.2468 41.5922 75.6914 41.3973 76.1005C41.251 76.4077 41.0679 76.6721 40.8463 76.8952C40.6247 77.1182 40.3869 77.2895 40.1329 77.4107C39.7961 77.5717 39.4401 77.6529 39.0635 77.6529C38.6868 77.6529 38.3102 77.5584 37.9867 77.3708C37.6632 77.1832 37.418 76.9203 37.2511 76.582C37.0842 76.2453 37 75.8863 37 75.5052V75.5067ZM37.6499 75.5407C37.6499 75.8302 37.7105 76.0946 37.8301 76.3368C37.9498 76.5791 38.1285 76.7681 38.3663 76.9055C38.6041 77.0429 38.8537 77.1108 39.1167 77.1108C39.3796 77.1108 39.6115 77.0503 39.8389 76.9306C40.0679 76.811 40.2717 76.6441 40.4519 76.4299C40.6321 76.2157 40.7754 75.9528 40.8788 75.6397C40.9822 75.3265 41.0354 75.0193 41.0354 74.7165C41.0354 74.2261 40.898 73.8347 40.6233 73.5437C40.3485 73.2527 40.0103 73.1065 39.607 73.1065C39.0915 73.1065 38.6366 73.3266 38.2422 73.7667C37.8478 74.2069 37.6514 74.7977 37.6514 75.5392L37.6499 75.5407Z" fill="black"/>
<path d="M44.3925 76.9245C43.9642 77.409 43.527 77.6512 43.0779 77.6512C42.8017 77.6512 42.5802 77.5729 42.4103 77.4149C42.2404 77.2568 42.1562 77.0633 42.1562 76.8344C42.1562 76.6837 42.1947 76.4267 42.27 76.0619L42.6998 74.0014H43.3084L42.8313 76.2834C42.7914 76.474 42.7707 76.6217 42.7707 76.7266C42.7707 76.861 42.8121 76.9658 42.8933 77.0412C42.9745 77.1165 43.0957 77.1534 43.2552 77.1534C43.4251 77.1534 43.592 77.1121 43.7544 77.0294C43.9169 76.9466 44.0572 76.8344 44.1739 76.6926C44.2921 76.5508 44.3881 76.3839 44.462 76.1919C44.5107 76.0693 44.5683 75.8521 44.6333 75.5434L44.9553 73.9999H45.5639L44.8179 77.57H44.2567L44.3911 76.9245H44.3925Z" fill="black"/>
<path d="M47.2063 77.0766L47.1058 77.5744C46.9596 77.6128 46.8193 77.632 46.6819 77.632C46.4397 77.632 46.2476 77.5729 46.1044 77.4533C45.9965 77.3632 45.9434 77.242 45.9434 77.087C45.9434 77.0087 45.9729 76.8285 46.0305 76.5463L46.4648 74.4725H45.9847L46.0822 74.0013H46.5623L46.7469 73.124L47.4426 72.7045L47.1708 74.0013H47.769L47.6686 74.4725H47.0733L46.6597 76.4459C46.608 76.697 46.5829 76.8477 46.5829 76.8964C46.5829 76.9688 46.6036 77.0234 46.645 77.0618C46.6863 77.1002 46.7543 77.1195 46.8488 77.1195C46.9832 77.1195 47.1029 77.1062 47.2077 77.0796L47.2063 77.0766Z" fill="black"/>
<path d="M47.7545 76.35L48.363 76.313C48.363 76.4873 48.3896 76.6365 48.4443 76.7606C48.4989 76.8847 48.5979 76.9851 48.7412 77.0634C48.8859 77.1417 49.0543 77.1816 49.2463 77.1816C49.5152 77.1816 49.7175 77.1284 49.8519 77.0206C49.9864 76.9127 50.0543 76.7872 50.0543 76.6409C50.0543 76.5361 50.0144 76.4356 49.9332 76.3411C49.8505 76.2466 49.6481 76.1314 49.3261 75.9925C49.0041 75.8551 48.7988 75.7577 48.7087 75.7015C48.558 75.61 48.4458 75.5021 48.369 75.3766C48.2922 75.2525 48.2552 75.1092 48.2552 74.9482C48.2552 74.6661 48.3675 74.4239 48.592 74.2215C48.8165 74.0191 49.1297 73.9187 49.5329 73.9187C49.9804 73.9187 50.3217 74.0221 50.5565 74.2304C50.7914 74.4386 50.9125 74.7104 50.9213 75.0487L50.3261 75.0885C50.3172 74.8729 50.2404 74.703 50.0971 74.5775C49.9539 74.4519 49.7515 74.3899 49.4886 74.3899C49.2774 74.3899 49.1149 74.4386 48.9982 74.5346C48.8815 74.6306 48.8239 74.7355 48.8239 74.8478C48.8239 74.96 48.8741 75.059 48.9746 75.1432C49.0425 75.2008 49.2153 75.2909 49.496 75.412C49.9627 75.6144 50.2552 75.7724 50.3763 75.8891C50.5683 76.0752 50.6658 76.3012 50.6658 76.5686C50.6658 76.7458 50.6112 76.9201 50.5033 77.09C50.394 77.2598 50.2286 77.3957 50.0056 77.4977C49.7825 77.5996 49.5196 77.6513 49.2168 77.6513C48.8047 77.6513 48.4532 77.5494 48.1651 77.3455C47.8771 77.1417 47.7397 76.8093 47.7545 76.35Z" fill="black"/>
<path d="M52.5608 77.0766L52.4603 77.5744C52.3141 77.6128 52.1738 77.632 52.0364 77.632C51.7942 77.632 51.6021 77.5729 51.4574 77.4533C51.3496 77.3632 51.2964 77.242 51.2964 77.087C51.2964 77.0087 51.3259 76.8285 51.3835 76.5463L51.8178 74.4725H51.3377L51.4352 74.0013H51.9153L52.0999 73.124L52.7956 72.7045L52.5238 74.0013H53.1221L53.0216 74.4725H52.4263L52.0128 76.4459C51.9611 76.697 51.936 76.8477 51.936 76.8964C51.936 76.9688 51.9566 77.0234 51.998 77.0618C52.0394 77.1002 52.1073 77.1195 52.2018 77.1195C52.3362 77.1195 52.4559 77.1062 52.5622 77.0796L52.5608 77.0766Z" fill="black"/>
<path d="M55.4588 77.1268C55.2475 77.3084 55.0452 77.4414 54.8502 77.5256C54.6552 77.6098 54.447 77.6511 54.2254 77.6511C53.896 77.6511 53.6302 77.5536 53.4293 77.3601C53.2269 77.1666 53.1265 76.9185 53.1265 76.6157C53.1265 76.4163 53.1723 76.2405 53.2624 76.0869C53.3525 75.9333 53.4736 75.8107 53.6242 75.7176C53.7749 75.6246 53.9581 75.5581 54.1752 75.5182C54.3111 75.4916 54.571 75.4695 54.9536 75.4547C55.3362 75.4385 55.6094 75.3986 55.7749 75.3336C55.8221 75.1681 55.8458 75.0293 55.8458 74.92C55.8458 74.7782 55.7941 74.6674 55.6907 74.5877C55.5489 74.4754 55.3436 74.4193 55.0718 74.4193C54.8162 74.4193 54.608 74.4754 54.4455 74.5891C54.283 74.7029 54.1649 74.8624 54.091 75.0721L53.4765 75.019C53.6021 74.6645 53.8015 74.3942 54.0733 74.2051C54.3451 74.016 54.6892 73.923 55.1043 73.923C55.5459 73.923 55.896 74.0278 56.153 74.2391C56.3494 74.3956 56.4484 74.5995 56.4484 74.8506C56.4484 75.0411 56.4203 75.2612 56.3642 75.5123L56.1663 76.4C56.1043 76.6822 56.0718 76.9126 56.0718 77.0898C56.0718 77.2021 56.0969 77.3631 56.1456 77.5743H55.5297C55.4957 77.4576 55.4721 77.3099 55.4588 77.1312V77.1268ZM55.6833 75.7619C55.5976 75.7959 55.5075 75.821 55.41 75.8387C55.3125 75.8565 55.1501 75.8757 54.9211 75.8963C54.5666 75.9274 54.317 75.9672 54.1722 76.016C54.026 76.0647 53.9167 76.1415 53.8428 76.2464C53.769 76.3513 53.7321 76.468 53.7321 76.5965C53.7321 76.7663 53.7912 76.9067 53.9078 77.016C54.026 77.1253 54.1929 77.1814 54.41 77.1814C54.6124 77.1814 54.8059 77.1282 54.992 77.0219C55.1781 76.9155 55.3244 76.7663 55.4322 76.5758C55.54 76.3853 55.6242 76.115 55.6848 75.7619H55.6833Z" fill="black"/>
<path d="M56.8796 77.57L57.6256 73.9999H58.1765L58.0451 74.6218C58.2843 74.3781 58.5089 74.1993 58.7171 74.0871C58.9254 73.9748 59.1381 73.9187 59.3552 73.9187C59.6447 73.9187 59.8707 73.997 60.0362 74.1536C60.2016 74.3101 60.2828 74.5199 60.2828 74.7828C60.2828 74.9157 60.2533 75.124 60.1957 75.4076L59.7422 77.5686H59.1337L59.6078 75.3057C59.6551 75.0856 59.6787 74.9231 59.6787 74.8182C59.6787 74.7001 59.6373 74.6026 59.5561 74.5287C59.4749 74.4549 59.3567 74.4179 59.2016 74.4179C58.8899 74.4179 58.6122 74.5302 58.37 74.7547C58.1263 74.9792 57.9476 75.3633 57.8338 75.9083L57.4882 77.5686H56.8796V77.57Z" fill="black"/>
<path d="M63.1157 77.0531C62.7686 77.4519 62.4053 77.6513 62.0271 77.6513C61.6889 77.6513 61.4068 77.5258 61.1822 77.2762C60.9563 77.0265 60.844 76.6632 60.844 76.189C60.844 75.7548 60.9326 75.3574 61.1113 74.997C61.2901 74.6366 61.5131 74.3678 61.7805 74.1891C62.0478 74.0103 62.3166 73.9202 62.5855 73.9202C63.0286 73.9202 63.3639 74.1344 63.5899 74.5628L63.9931 72.644H64.5987L63.5707 77.5716H63.0094L63.1172 77.0546L63.1157 77.0531ZM61.4481 76.0738C61.4481 76.322 61.4732 76.5184 61.522 76.6617C61.5707 76.805 61.6549 76.9246 61.7746 77.0191C61.8927 77.1137 62.036 77.1624 62.2014 77.1624C62.4776 77.1624 62.7273 77.0191 62.9518 76.7326C63.2516 76.3515 63.4023 75.8818 63.4023 75.3205C63.4023 75.0384 63.3284 74.8168 63.1807 74.6588C63.033 74.4992 62.8469 74.4195 62.6224 74.4195C62.4762 74.4195 62.3447 74.452 62.2236 74.517C62.1039 74.582 61.9843 74.6927 61.8676 74.8478C61.7494 75.0029 61.6505 75.2009 61.5707 75.4416C61.491 75.6824 61.4496 75.8921 61.4496 76.0738H61.4481Z" fill="black"/>
<path d="M64.5132 77.57L65.2591 73.9999H65.8677L65.1217 77.57H64.5132ZM65.4009 73.3308L65.5457 72.641H66.1513L66.0065 73.3308H65.4009Z" fill="black"/>
<path d="M66.0669 77.57L66.8128 73.9999H67.3638L67.2323 74.6218C67.4716 74.3781 67.6961 74.1993 67.9044 74.0871C68.1126 73.9748 68.3253 73.9187 68.5425 73.9187C68.832 73.9187 69.058 73.997 69.2234 74.1536C69.3888 74.3101 69.4701 74.5199 69.4701 74.7828C69.4701 74.9157 69.4405 75.124 69.3829 75.4076L68.9295 77.5686H68.3209L68.7951 75.3057C68.8423 75.0856 68.866 74.9231 68.866 74.8182C68.866 74.7001 68.8246 74.6026 68.7434 74.5287C68.6621 74.4549 68.544 74.4179 68.3889 74.4179C68.0772 74.4179 67.7995 74.5302 67.5573 74.7547C67.3135 74.9792 67.1348 75.3633 67.0211 75.9083L66.6754 77.5686H66.0669V77.57Z" fill="black"/>
<path d="M69.862 77.8935L70.4764 77.9511C70.472 78.09 70.4882 78.1948 70.5266 78.2643C70.5651 78.3337 70.6256 78.3868 70.7083 78.4253C70.8176 78.474 70.9609 78.4991 71.1352 78.4991C71.503 78.4991 71.7674 78.4031 71.9284 78.214C72.0333 78.0855 72.1308 77.8078 72.2209 77.381L72.2814 77.0915C71.9653 77.412 71.6285 77.5715 71.2726 77.5715C70.9166 77.5715 70.6094 77.4386 70.3671 77.1727C70.1234 76.9068 70.0023 76.5316 70.0023 76.0442C70.0023 75.6424 70.0983 75.2746 70.2903 74.9379C70.4823 74.6011 70.7098 74.3485 70.9742 74.1772C71.2386 74.0058 71.5104 73.9202 71.791 73.9202C72.2593 73.9202 72.6197 74.1417 72.8737 74.5863L72.9948 74.0014H73.5532L72.8338 77.4474C72.7556 77.8256 72.6522 78.121 72.5251 78.3337C72.3981 78.5449 72.2194 78.7089 71.9919 78.8255C71.7644 78.9422 71.5015 78.9998 71.2031 78.9998C70.9048 78.9998 70.6684 78.9629 70.4617 78.8891C70.2549 78.8152 70.0998 78.7074 69.9979 78.5641C69.8959 78.4208 69.8442 78.2583 69.8442 78.0752C69.8442 78.0191 69.8501 77.9585 69.8605 77.8935H69.862ZM70.6212 75.9896C70.6212 76.2333 70.6448 76.4179 70.6921 76.5405C70.76 76.7133 70.8546 76.8448 70.9801 76.9349C71.1057 77.025 71.243 77.0708 71.3952 77.0708C71.5946 77.0708 71.7925 77.0014 71.9904 76.861C72.1884 76.7207 72.3479 76.5036 72.469 76.2111C72.5916 75.9172 72.6522 75.638 72.6522 75.3707C72.6522 75.0767 72.5709 74.8433 72.4084 74.6705C72.246 74.4977 72.0451 74.4106 71.8058 74.4106C71.6581 74.4106 71.5148 74.4504 71.376 74.5302C71.2371 74.61 71.1071 74.7311 70.9875 74.8936C70.8679 75.056 70.7763 75.251 70.7157 75.477C70.6552 75.703 70.6227 75.8743 70.6227 75.991L70.6212 75.9896Z" fill="black"/>
<path d="M75.708 77.5701L76.7405 72.6426H78.2663C78.544 72.6426 78.7508 72.6544 78.8852 72.6766C79.1053 72.715 79.2899 72.7814 79.4421 72.876C79.5927 72.972 79.7109 73.1019 79.7936 73.2659C79.8763 73.4299 79.9177 73.613 79.9177 73.8124C79.9177 74.0842 79.8438 74.322 79.6946 74.5288C79.5455 74.7356 79.318 74.8922 79.0107 75C79.2781 75.0871 79.4775 75.2186 79.609 75.3944C79.7419 75.5701 79.8069 75.7755 79.8069 76.0118C79.8069 76.2836 79.7286 76.5435 79.5735 76.7917C79.4184 77.0398 79.2116 77.2319 78.9546 77.3677C78.6976 77.5036 78.4111 77.5716 78.0964 77.5716H75.7095L75.708 77.5701ZM76.4835 77.0118H77.6061C77.9044 77.0118 78.1053 77.0014 78.2072 76.9808C78.4155 76.9453 78.5854 76.8833 78.7153 76.7976C78.8453 76.7119 78.9472 76.5982 79.0211 76.4564C79.0949 76.3146 79.1319 76.1669 79.1319 76.0133C79.1319 75.7828 79.0595 75.6071 78.9147 75.4874C78.77 75.3678 78.4953 75.3072 78.0891 75.3072H76.838L76.482 77.0118H76.4835ZM76.9576 74.7459H77.9561C78.4332 74.7459 78.7774 74.6691 78.9871 74.517C79.1969 74.3648 79.3017 74.1433 79.3017 73.8508C79.3017 73.712 79.2692 73.5923 79.2042 73.4919C79.1393 73.3915 79.0521 73.3176 78.9443 73.2718C78.835 73.226 78.6311 73.2024 78.3313 73.2024H77.2826L76.9606 74.7459H76.9576Z" fill="black"/>
<path d="M82.665 76.9245C82.2367 77.409 81.7994 77.6512 81.3504 77.6512C81.0742 77.6512 80.8526 77.5729 80.6828 77.4149C80.5129 77.2568 80.4287 77.0633 80.4287 76.8344C80.4287 76.6837 80.4671 76.4267 80.5424 76.0619L80.9723 74.0014H81.5808L81.1037 76.2834C81.0639 76.474 81.0432 76.6217 81.0432 76.7266C81.0432 76.861 81.0845 76.9658 81.1658 77.0412C81.247 77.1165 81.3681 77.1534 81.5277 77.1534C81.6975 77.1534 81.8644 77.1121 82.0269 77.0294C82.1894 76.9466 82.3297 76.8344 82.4464 76.6926C82.5646 76.5508 82.6606 76.3839 82.7344 76.1919C82.7832 76.0693 82.8408 75.8521 82.9058 75.5434L83.2278 73.9999H83.8363L83.0904 77.57H82.5291L82.6635 76.9245H82.665Z" fill="black"/>
<path d="M84.114 76.35L84.7226 76.313C84.7226 76.4873 84.7492 76.6365 84.8038 76.7606C84.8585 76.8847 84.9574 76.9851 85.1007 77.0634C85.2455 77.1417 85.4138 77.1816 85.6073 77.1816C85.8762 77.1816 86.0785 77.1284 86.2129 77.0206C86.3473 76.9127 86.4153 76.7872 86.4153 76.6409C86.4153 76.5361 86.3754 76.4356 86.2942 76.3411C86.2115 76.2466 86.0091 76.1314 85.6871 75.9925C85.3651 75.8551 85.1598 75.7577 85.0697 75.7015C84.919 75.61 84.8068 75.5021 84.73 75.3766C84.6531 75.2525 84.6162 75.1092 84.6162 74.9482C84.6162 74.6661 84.7285 74.4239 84.953 74.2215C85.1775 74.0191 85.4906 73.9187 85.8939 73.9187C86.3414 73.9187 86.6826 74.0221 86.9175 74.2304C87.1524 74.4372 87.2735 74.7104 87.2823 75.0487L86.6871 75.0885C86.6782 74.8729 86.6014 74.703 86.4581 74.5775C86.3149 74.4519 86.1125 74.3899 85.8496 74.3899C85.6384 74.3899 85.4759 74.4386 85.3592 74.5346C85.2425 74.6306 85.1849 74.7355 85.1849 74.8478C85.1849 74.96 85.2351 75.059 85.3356 75.1432C85.4035 75.2008 85.5763 75.2909 85.857 75.412C86.3237 75.6144 86.6162 75.7724 86.7373 75.8891C86.9293 76.0752 87.0268 76.3012 87.0268 76.5686C87.0268 76.7458 86.9722 76.9201 86.8643 77.09C86.755 77.2598 86.5896 77.3957 86.3666 77.4977C86.1435 77.5996 85.8806 77.6513 85.5778 77.6513C85.1657 77.6513 84.8141 77.5494 84.5261 77.3455C84.2381 77.1417 84.1007 76.8093 84.1155 76.35H84.114Z" fill="black"/>
<path d="M87.4761 77.57L88.222 73.9999H88.8306L88.0846 77.57H87.4761ZM88.3638 73.3308L88.5086 72.641H89.1142L88.9694 73.3308H88.3638Z" fill="black"/>
<path d="M89.0281 77.57L89.774 73.9999H90.325L90.1935 74.6218C90.4328 74.3781 90.6573 74.1993 90.8656 74.0871C91.0738 73.9748 91.2865 73.9187 91.5037 73.9187C91.7932 73.9187 92.0192 73.997 92.1846 74.1536C92.3485 74.3101 92.4313 74.5199 92.4313 74.7828C92.4313 74.9157 92.4017 75.124 92.3441 75.4076L91.8907 77.5686H91.2821L91.7562 75.3057C91.8035 75.0856 91.8271 74.9231 91.8271 74.8182C91.8271 74.7001 91.7858 74.6026 91.7045 74.5287C91.6233 74.4549 91.5051 74.4179 91.35 74.4179C91.0384 74.4179 90.7607 74.5302 90.5185 74.7547C90.2747 74.9792 90.096 75.3633 89.9823 75.9083L89.6366 77.5686H89.0281V77.57Z" fill="black"/>
<path d="M95.4799 76.3559L96.0707 76.4164C95.985 76.7104 95.7901 76.9895 95.4843 77.2539C95.1786 77.5183 94.8137 77.6513 94.3898 77.6513C94.1254 77.6513 93.8832 77.5907 93.6616 77.4681C93.4415 77.3455 93.2731 77.1683 93.1579 76.9349C93.0427 76.7015 92.9851 76.4356 92.9851 76.1387C92.9851 75.7488 93.0752 75.3707 93.2554 75.0043C93.4356 74.638 93.669 74.3662 93.957 74.1875C94.2436 74.0088 94.5538 73.9202 94.8876 73.9202C95.313 73.9202 95.6527 74.0531 95.9082 74.3175C96.1623 74.5819 96.2893 74.9423 96.2893 75.4002C96.2893 75.5745 96.2731 75.7547 96.2421 75.9379H93.6129C93.604 76.0073 93.5996 76.0708 93.5996 76.1254C93.5996 76.4593 93.6764 76.7148 93.83 76.8906C93.9836 77.0663 94.1712 77.155 94.3928 77.155C94.601 77.155 94.8063 77.087 95.0087 76.9497C95.2111 76.8123 95.3676 76.6158 95.4799 76.3573V76.3559ZM93.7118 75.4726H95.7147C95.7162 75.4105 95.7177 75.3647 95.7177 75.3382C95.7177 75.0339 95.6409 74.8005 95.4887 74.6365C95.3366 74.4741 95.1402 74.3928 94.9009 74.3928C94.6409 74.3928 94.4046 74.4829 94.1904 74.6617C93.9762 74.8404 93.8167 75.1107 93.7118 75.4711V75.4726Z" fill="black"/>
<path d="M96.7434 76.35L97.352 76.313C97.352 76.4873 97.3785 76.6365 97.4332 76.7606C97.4879 76.8847 97.5868 76.9851 97.7301 77.0634C97.8748 77.1417 98.0432 77.1816 98.2367 77.1816C98.5056 77.1816 98.7079 77.1284 98.8423 77.0206C98.9767 76.9127 99.0447 76.7872 99.0447 76.6409C99.0447 76.5361 99.0048 76.4356 98.9236 76.3411C98.8408 76.2466 98.6385 76.1314 98.3165 75.9925C97.9945 75.8551 97.7892 75.7577 97.6991 75.7015C97.5484 75.61 97.4362 75.5021 97.3593 75.3766C97.2825 75.2525 97.2456 75.1092 97.2456 74.9482C97.2456 74.6661 97.3579 74.4239 97.5824 74.2215C97.8069 74.0191 98.12 73.9187 98.5233 73.9187C98.9708 73.9187 99.312 74.0221 99.5469 74.2304C99.7818 74.4372 99.9029 74.7104 99.9117 75.0487L99.3165 75.0885C99.3076 74.8729 99.2308 74.703 99.0875 74.5775C98.9443 74.4519 98.7419 74.3899 98.479 74.3899C98.2678 74.3899 98.1053 74.4386 97.9886 74.5346C97.8719 74.6306 97.8143 74.7355 97.8143 74.8478C97.8143 74.96 97.8645 75.059 97.9649 75.1432C98.0329 75.2008 98.2057 75.2909 98.4864 75.412C98.9531 75.6144 99.2456 75.7724 99.3667 75.8891C99.5587 76.0752 99.6562 76.3012 99.6562 76.5686C99.6562 76.7458 99.6016 76.9201 99.4937 77.09C99.3844 77.2598 99.219 77.3957 98.996 77.4977C98.7729 77.5996 98.51 77.6513 98.2072 77.6513C97.7951 77.6513 97.4435 77.5494 97.1555 77.3455C96.8675 77.1417 96.7301 76.8093 96.7449 76.35H96.7434Z" fill="black"/>
<path d="M100.186 76.35L100.795 76.313C100.795 76.4873 100.821 76.6365 100.876 76.7606C100.931 76.8847 101.03 76.9851 101.173 77.0634C101.318 77.1417 101.486 77.1816 101.68 77.1816C101.948 77.1816 102.151 77.1284 102.285 77.0206C102.42 76.9127 102.488 76.7872 102.488 76.6409C102.488 76.5361 102.448 76.4356 102.366 76.3411C102.284 76.2466 102.081 76.1314 101.759 75.9925C101.437 75.8551 101.232 75.7577 101.142 75.7015C100.991 75.61 100.879 75.5021 100.802 75.3766C100.725 75.2525 100.688 75.1092 100.688 74.9482C100.688 74.6661 100.801 74.4239 101.025 74.2215C101.25 74.0191 101.563 73.9187 101.966 73.9187C102.414 73.9187 102.755 74.0221 102.99 74.2304C103.225 74.4372 103.346 74.7104 103.355 75.0487L102.759 75.0885C102.75 74.8729 102.674 74.703 102.53 74.5775C102.387 74.4519 102.185 74.3899 101.922 74.3899C101.711 74.3899 101.548 74.4386 101.431 74.5346C101.315 74.6306 101.257 74.7355 101.257 74.8478C101.257 74.96 101.307 75.059 101.408 75.1432C101.476 75.2008 101.649 75.2909 101.929 75.412C102.396 75.6144 102.688 75.7724 102.81 75.8891C103.002 76.0752 103.099 76.3012 103.099 76.5686C103.099 76.7458 103.044 76.9201 102.937 77.09C102.827 77.2598 102.662 77.3957 102.439 77.4977C102.216 77.5996 101.953 77.6513 101.65 77.6513C101.238 77.6513 100.886 77.5494 100.598 77.3455C100.31 77.1417 100.173 76.8093 100.188 76.35H100.186Z" fill="black"/>
<path d="M69.952 65.6118L70.6861 67.0978L72.3257 67.3356L71.1396 68.4921L71.4188 70.1243L69.952 69.3547L68.4868 70.1243L68.7659 68.4921L67.5798 67.3356L69.2194 67.0978L69.952 65.6118Z" fill="black"/>
<path d="M99.9971 67.3517H74.1055V67.7948H99.9971V67.3517Z" fill="black"/>
<path d="M93.498 68.597H74.1055V69.0402H93.498V68.597Z" fill="black"/>
<path d="M65.8917 67.3517H40V67.7948H65.8917V67.3517Z" fill="black"/>
<path d="M65.8918 68.597H46.4993V69.0402H65.8918V68.597Z" fill="black"/>
<path d="M78.9307 35.3261C78.9307 35.3261 78.9307 35.3113 78.9277 35.2831C78.9277 35.2979 78.9292 35.3113 78.9307 35.3261Z" fill="black"/>
<path d="M68.3485 5.11377C66.8832 5.11377 65.4623 5.2984 64.1049 5.64552L64.0428 7.14918L70.1387 11.7222L62.8006 13.7798L60.3354 20.9909L56.1109 14.6483L53.0622 14.601C51.9323 16.8802 51.2957 19.4488 51.2957 22.1666C51.2957 31.5845 58.9307 39.218 68.347 39.218C77.7634 39.218 85.3984 31.583 85.3984 22.1666C85.3984 12.7503 77.7634 5.11525 68.347 5.11525L68.3485 5.11377ZM61.5539 20.6009L63.1758 16.0131C75.7427 22.0677 78.2892 31.0527 78.8018 34.193C78.2937 30.7145 75.8668 20.0706 64.8685 14.2214L69.9304 12.9408C69.9304 12.9408 77.8948 19.1563 78.9111 35.0571C78.9258 35.2314 78.9288 35.3259 78.9288 35.3259C75.4547 26.7086 61.5525 20.6009 61.5525 20.6009H61.5539Z" fill="black"/>
<path d="M56.5124 13.9141L50 13.8151L54.0398 8.70739L52.1226 2.48299L58.2288 4.74734L63.5551 1L63.2893 7.50652L68.4989 11.4149L62.2287 13.1726L60.1224 19.335L56.5124 13.9141Z" fill="black"/>
</svg>
