<svg width="228" height="81" viewBox="0 0 228 81" fill="none" xmlns="http://www.w3.org/2000/svg">
<g opacity="0.85">
<path fill-rule="evenodd" clip-rule="evenodd" d="M9.80393 50.5024C11.7235 51.2899 13.7822 51.6824 15.8568 51.6564L15.8462 51.6432C17.867 51.7134 19.8797 51.3564 21.7531 50.5957C23.6266 49.8349 25.3185 48.6875 26.7185 47.2283C27.9789 45.9 28.9576 44.3303 29.5954 42.6137C30.2331 40.8971 30.5169 39.0692 30.4296 37.2399C30.4559 36.359 30.3993 35.4776 30.261 34.6073H15.8884V38.9433H26.0395C25.8649 40.9048 25.0513 42.7547 23.7234 44.2086C21.5798 46.2475 18.7252 47.3689 15.7673 47.334C12.8095 47.2991 9.98224 46.1106 7.88732 44.0217C6.84207 42.9842 6.01526 41.7478 5.45564 40.3854C4.89602 39.023 4.61495 37.5623 4.62906 36.0895C4.60257 34.5992 4.87746 33.119 5.43739 31.7378C5.99732 30.3566 6.83069 29.1028 7.88732 28.0519C8.9054 26.9647 10.1391 26.102 11.5095 25.5191C12.88 24.9361 14.3571 24.6456 15.8462 24.6663C18.7113 24.623 21.4767 25.7173 23.5366 27.7097L26.5527 24.6505C25.1455 23.2568 23.4751 22.157 21.6387 21.4153C19.8024 20.6736 17.837 20.3048 15.8568 20.3303C13.7757 20.3135 11.7128 20.7187 9.79262 21.5214C7.8724 22.3241 6.13462 23.5077 4.68432 25.0007C3.18253 26.4157 1.99095 28.1273 1.18497 30.027C0.378994 31.9268 -0.0238142 33.9733 0.00215709 36.0368C-0.0223731 38.1002 0.380882 40.1462 1.18677 42.0457C1.99266 43.9453 3.18368 45.657 4.68432 47.0729C6.14323 48.5485 7.88436 49.7149 9.80393 50.5024ZM42.0876 51.6587C44.7566 51.6587 47.3226 50.628 49.2503 48.7815H49.2344C50.1961 47.852 50.9544 46.7326 51.4609 45.4945C51.9675 44.2563 52.2114 42.9264 52.177 41.5891C52.2137 40.2529 51.9725 38.9236 51.4687 37.6855C50.9649 36.4474 50.2095 35.3274 49.2503 34.3967C47.3219 32.5514 44.7562 31.5215 42.0876 31.5215C39.419 31.5215 36.8531 32.5514 34.9247 34.3967C33.9649 35.3273 33.2086 36.4471 32.7035 37.6851C32.1984 38.9231 31.9555 40.2524 31.9903 41.5891C31.9544 42.9259 32.1968 44.2556 32.702 45.4938C33.2071 46.732 33.964 47.8516 34.9247 48.7815C36.8524 50.628 39.4186 51.6587 42.0876 51.6587ZM39.9071 47.2327C39.2188 46.9346 38.599 46.4986 38.0858 45.9514H38.0699C37.5077 45.3757 37.0669 44.6929 36.7734 43.9436C36.48 43.1942 36.3399 42.3936 36.3617 41.5891C36.3342 40.7817 36.4701 39.9771 36.7609 39.2235C37.0516 38.4698 37.4916 37.7826 38.0542 37.2031C38.5737 36.6612 39.1973 36.23 39.8878 35.9354C40.5782 35.6408 41.3211 35.489 42.0717 35.489C42.8223 35.489 43.5652 35.6408 44.2556 35.9354C44.946 36.23 45.5699 36.6612 46.0894 37.2031C46.6482 37.7853 47.0852 38.473 47.3753 39.226C47.6654 39.9791 47.8028 40.7824 47.7791 41.5891C47.802 42.3921 47.6642 43.1916 47.374 43.9407C47.0839 44.6898 46.6472 45.3734 46.0894 45.9514C45.5762 46.4986 44.9562 46.9346 44.2679 47.2327C43.5796 47.5309 42.8377 47.6847 42.0876 47.6847C41.3376 47.6847 40.5953 47.5309 39.9071 47.2327ZM64.127 51.6587C66.7975 51.6587 69.3652 50.6281 71.295 48.7815C72.2523 47.8493 73.0064 46.7291 73.51 45.4914C74.0137 44.2536 74.256 42.925 74.2217 41.5891C74.2573 40.253 74.0156 38.924 73.5118 37.6861C73.0081 36.4482 72.2533 35.3281 71.295 34.3967C69.3665 32.5477 66.7983 31.5155 64.127 31.5155C61.4556 31.5155 58.8877 32.5477 56.9591 34.3967C56 35.3274 55.2446 36.4474 54.7408 37.6855C54.237 38.9236 53.9957 40.2529 54.0324 41.5891C53.997 42.9252 54.2389 44.2541 54.7426 45.492C55.2463 46.7299 56.001 47.85 56.9591 48.7815C58.889 50.6281 61.4564 51.6587 64.127 51.6587ZM61.9454 47.233C61.2566 46.9349 60.6362 46.4987 60.1226 45.9514H60.1043C59.5444 45.3743 59.1052 44.6912 58.8128 43.9421C58.5204 43.193 58.3805 42.393 58.4013 41.5891C58.375 40.7819 58.5113 39.9776 58.802 39.2241C59.0927 38.4706 59.5321 37.7833 60.0938 37.2031C60.6135 36.6611 61.2375 36.2298 61.9281 35.9352C62.6188 35.6406 63.3617 35.4888 64.1126 35.4888C64.8634 35.4888 65.6063 35.6406 66.297 35.9352C66.9876 36.2298 67.6118 36.6611 68.1316 37.2031C68.6902 37.7855 69.1272 38.4732 69.4177 39.2261C69.7083 39.9791 69.8464 40.7823 69.8238 41.5891C69.8452 42.3922 69.7065 43.1915 69.4159 43.9404C69.1254 44.6893 68.6889 45.373 68.1316 45.9514C67.6179 46.4987 66.9975 46.9349 66.3088 47.233C65.6201 47.5312 64.8774 47.685 64.127 47.685C63.3765 47.685 62.6341 47.5312 61.9454 47.233ZM80.1409 58.9041C81.7561 60.1322 83.7455 60.7646 85.773 60.6943H85.7784C87.0435 60.7407 88.3048 60.533 89.4883 60.0835C90.6717 59.6341 91.7532 58.952 92.6687 58.0775C93.6278 57.0164 94.3608 55.7709 94.8228 54.4171C95.2848 53.0632 95.4661 51.6294 95.3558 50.2032V32.18H91.1633V33.7833H91.0027C90.3978 33.095 89.6494 32.5477 88.8103 32.18C87.837 31.722 86.7751 31.4838 85.6995 31.4823C84.428 31.4819 83.1699 31.7448 82.0049 32.2546C80.8399 32.7643 79.793 33.5098 78.9301 34.4441C77.9904 35.3784 77.2497 36.4934 76.7521 37.7218C76.2546 38.9502 76.0105 40.2666 76.035 41.5917C76.0131 42.9075 76.2583 44.2141 76.756 45.4323C77.2536 46.6505 77.9933 47.7549 78.9301 48.6789C79.7932 49.6118 80.8404 50.3554 82.0056 50.8625C83.1708 51.3696 84.4288 51.6292 85.6995 51.6248C86.6977 51.6802 87.6949 51.5025 88.6126 51.1059C89.5303 50.7093 90.3432 50.1046 90.987 49.3397H91.1448V50.7955C91.263 52.3887 90.757 53.9653 89.734 55.1921C89.2246 55.7158 88.6082 56.1234 87.9269 56.387C87.2455 56.6505 86.5153 56.7638 85.7862 56.719C84.6392 56.7537 83.5181 56.3743 82.6279 55.6502C81.7906 54.9825 81.1331 54.1166 80.7146 53.1307L76.8536 54.734C77.5702 56.3851 78.7029 57.822 80.1409 58.9041ZM88.1803 47.279C87.5197 47.5714 86.8032 47.7158 86.081 47.7021C85.3351 47.7114 84.5957 47.562 83.912 47.2638C83.2282 46.9656 82.6157 46.5254 82.1149 45.9725C81.001 44.8071 80.3925 43.2486 80.4224 41.6365C80.3886 40.0105 80.9968 38.4366 82.1149 37.2557C82.619 36.7095 83.233 36.2762 83.9166 35.9844C84.6002 35.6926 85.3378 35.549 86.081 35.5629C86.8038 35.5451 87.5217 35.6876 88.1829 35.9803C88.8441 36.273 89.4323 36.7086 89.9052 37.2557C90.9543 38.4826 91.5023 40.0601 91.4396 41.6734C91.4964 43.261 90.9479 44.811 89.9052 46.0093C89.4296 46.5532 88.8409 46.9866 88.1803 47.279ZM98.3931 51.0509H102.815V51.0483V21.4677H98.3931V51.0509ZM111.067 50.9518C112.289 51.4501 113.601 51.6908 114.921 51.659L114.916 51.6564C116.717 51.6918 118.488 51.1985 120.011 50.2374C121.289 49.4353 122.394 48.3863 123.262 47.1519L119.877 44.8694C119.361 45.723 118.633 46.4287 117.763 46.9181C116.894 47.4074 115.914 47.6639 114.916 47.6627C113.891 47.7067 112.877 47.4389 112.007 46.8946C111.138 46.3504 110.453 45.5552 110.045 44.614L123.58 39.0512L123.122 37.8981C122.853 37.2059 122.519 36.5412 122.122 35.9131C121.638 35.1704 121.071 34.485 120.433 33.8701C119.691 33.1382 118.811 32.5626 117.843 32.1773C116.771 31.7298 115.62 31.505 114.458 31.5165C113.199 31.4947 111.949 31.7347 110.787 32.2214C109.626 32.7082 108.578 33.431 107.71 34.344C106.788 35.3045 106.069 36.4407 105.595 37.6849C105.121 38.9291 104.902 40.2559 104.952 41.5865C104.921 42.914 105.159 44.2339 105.651 45.4672C106.143 46.7004 106.879 47.8215 107.815 48.7631C108.737 49.7085 109.844 50.4536 111.067 50.9518ZM118.269 37.548L109.273 41.2837C109.216 40.496 109.334 39.7053 109.617 38.9681C109.901 38.2309 110.343 37.5653 110.913 37.0188C111.866 36.0249 113.174 35.4485 114.55 35.4155C115.362 35.4003 116.163 35.604 116.869 36.0052C117.502 36.3401 117.997 36.8859 118.269 37.548ZM141.214 50.6354C142.956 51.3426 144.823 51.6897 146.702 51.6559V51.6401C148.85 51.6727 150.978 51.2228 152.929 50.3238C154.741 49.5123 156.346 48.3019 157.625 46.7828L155.19 44.3502C154.167 45.6017 152.876 46.6065 151.411 47.2902C149.947 47.9738 148.347 48.3187 146.731 48.2992C145.338 48.3302 143.952 48.0792 142.658 47.5612C141.363 47.0432 140.187 46.2689 139.199 45.2848C138.173 44.25 137.372 43.0143 136.845 41.6552C136.319 40.2961 136.079 38.843 136.14 37.3868C136.08 35.9332 136.321 34.4827 136.847 33.1264C137.373 31.77 138.174 30.537 139.199 29.5047C140.185 28.5254 141.358 27.7547 142.648 27.2387C143.938 26.7226 145.319 26.4716 146.708 26.5008C148.155 26.442 149.595 26.7254 150.912 27.3278C152.229 27.9302 153.385 28.8348 154.287 29.968L156.727 27.5986C155.499 26.1449 153.959 24.9873 152.222 24.2123C150.484 23.4374 148.593 23.065 146.692 23.1231C144.814 23.0897 142.949 23.4366 141.209 24.1428C139.469 24.849 137.89 25.9001 136.567 27.2327C135.242 28.5645 134.2 30.1506 133.503 31.8956C132.807 33.6406 132.47 35.5084 132.514 37.3868C132.469 39.2654 132.806 41.1335 133.502 42.8786C134.199 44.6237 135.241 46.2097 136.567 47.541C137.891 48.8756 139.472 49.9282 141.214 50.6354ZM160.659 51.0472H164.157V23.7148H160.659V51.0472ZM176.781 31.7529C174.194 31.7529 171.712 32.7763 169.876 34.5999C168.981 35.5488 168.281 36.6651 167.817 37.8848C167.353 39.1045 167.135 40.4037 167.173 41.7081C167.135 43.0125 167.353 44.3117 167.817 45.5314C168.281 46.7512 168.981 47.8674 169.876 48.8163C171.711 50.6412 174.194 51.6655 176.781 51.6655C179.369 51.6655 181.851 50.6412 183.686 48.8163C184.584 47.8688 185.285 46.7528 185.749 45.5328C186.212 44.3127 186.43 43.0128 186.389 41.7081C186.43 40.4034 186.212 39.1035 185.749 37.8835C185.285 36.6634 184.584 35.5474 183.686 34.5999C181.85 32.7763 179.368 31.7529 176.781 31.7529ZM174.438 47.9775C173.701 47.6602 173.036 47.1958 172.484 46.6128L172.503 46.597C171.889 45.9436 171.412 45.1746 171.099 44.3347C170.786 43.4949 170.643 42.6011 170.679 41.7055C170.64 40.8083 170.779 39.9122 171.089 39.0693C171.399 38.2264 171.873 37.4535 172.484 36.7956C173.036 36.2129 173.701 35.7488 174.438 35.4317C175.175 35.1145 175.969 34.951 176.772 34.951C177.574 34.951 178.368 35.1145 179.105 35.4317C179.842 35.7488 180.507 36.2129 181.059 36.7956C181.673 37.4519 182.15 38.2243 182.462 39.0674C182.774 39.9105 182.914 40.8074 182.875 41.7055C182.915 42.6032 182.774 43.4998 182.462 44.3425C182.15 45.1852 181.673 45.957 181.059 46.6128C180.507 47.1958 179.843 47.6602 179.106 47.9775C178.368 48.2949 177.574 48.4586 176.772 48.4586C175.969 48.4586 175.175 48.2949 174.438 47.9775ZM205.8 51.047H202.418V48.4565H202.313C201.71 49.4385 200.858 50.244 199.844 50.7916C198.789 51.4015 197.592 51.7237 196.373 51.7262C195.384 51.7913 194.393 51.6335 193.473 51.2644C192.554 50.8954 191.729 50.3244 191.059 49.5938C189.78 47.9708 189.138 45.9363 189.254 43.873V32.3604H192.751V43.228C192.751 46.7084 194.29 48.4512 197.367 48.4565C198.053 48.4762 198.733 48.333 199.352 48.0388C199.971 47.7445 200.511 47.3075 200.928 46.7637C201.832 45.6102 202.314 44.1824 202.295 42.7173V32.3604H205.8V51.047ZM214.245 50.9108C215.325 51.4054 216.499 51.6594 217.687 51.6553C219.007 51.6728 220.31 51.3577 221.477 50.7391C222.514 50.2217 223.391 49.4329 224.016 48.4566H224.174V51.0472H227.556V23.7148H224.051V32.3605L224.201 34.951H224.051C223.427 33.9755 222.55 33.1876 221.513 32.6712C220.336 32.0467 219.019 31.7306 217.687 31.7524C216.5 31.7492 215.327 32.0029 214.247 32.4959C213.168 32.989 212.208 33.7098 211.433 34.6088C209.675 36.5467 208.733 39.0881 208.801 41.7038C208.734 44.3171 209.676 46.8557 211.433 48.791C212.206 49.6929 213.165 50.4162 214.245 50.9108ZM220.572 47.9949C219.847 48.3098 219.062 48.4672 218.271 48.4566C217.471 48.4704 216.677 48.3113 215.944 47.99C215.211 47.6688 214.555 47.1931 214.023 46.5953C213.43 45.9295 212.976 45.1527 212.685 44.3099C212.395 43.4671 212.274 42.5751 212.331 41.6854C212.275 40.7962 212.395 39.9046 212.686 39.0622C212.976 38.2199 213.431 37.4436 214.023 36.7781C214.559 36.1887 215.212 35.7178 215.94 35.3956C216.668 35.0733 217.456 34.9069 218.253 34.9069C219.049 34.9069 219.837 35.0733 220.565 35.3956C221.293 35.7178 221.946 36.1887 222.482 36.7781C223.671 38.1338 224.279 39.9033 224.174 41.7038C224.279 43.5044 223.671 45.2738 222.482 46.6295C221.949 47.2146 221.298 47.6799 220.572 47.9949Z" fill="black"/>
</g>
</svg>
