<svg width="182" height="80" viewBox="0 0 182 80" fill="none" xmlns="http://www.w3.org/2000/svg">
<g opacity="0.85" clip-path="url(#clip0_4156_12021)">
<path d="M147.202 22.5248H141.424C141.099 22.5248 140.936 22.6893 140.936 23.0182V46.117C140.936 47.2679 140.57 48.1309 140.081 48.7888C139.593 49.4465 138.942 49.6108 138.128 49.6108C137.315 49.6108 136.623 49.2818 136.134 48.7888C135.646 48.1309 135.321 47.2679 135.321 46.117V23.0182C135.321 22.6893 134.995 22.5248 134.832 22.5248H129.013C128.688 22.5248 128.525 22.6893 128.525 23.0182V46.2816C128.525 49.2819 129.176 52.118 131.007 53.9674C132.798 55.8171 135.28 56.8035 138.128 56.8035C141.098 56.8035 143.581 55.8173 145.249 53.9674C147.039 52.1593 147.731 49.4877 147.731 46.2816V23.0182C147.894 22.8539 147.568 22.5248 147.202 22.5248ZM169.379 38.9246C170.355 37.9379 172.186 35.5952 172.186 32.5538C172.186 29.0193 170.844 26.8819 169.826 25.6897C167.995 23.7169 165.554 22.6893 162.706 22.6893H153.591C153.225 22.6893 153.062 23.0182 153.062 23.1824V55.8171C153.062 56.1458 153.387 56.3105 153.591 56.3105H163.234C166.205 56.3105 169.012 55.1595 170.844 52.7757C171.82 51.4604 173 49.2406 173 45.9118C172.674 41.9249 170.233 39.5821 169.379 38.9246ZM159.776 29.3887H162.746C163.56 29.3887 164.211 29.553 164.699 30.2108C165.228 30.745 165.391 31.5672 165.391 32.5947C165.391 33.6221 165.228 34.4029 164.699 35.102C164.211 35.5951 163.56 35.9239 162.909 35.9239H159.939V29.3887H159.776ZM165.065 48.6242C164.577 49.2819 163.926 49.4464 162.909 49.4464H159.613V42.3767H162.909C163.723 42.3767 164.374 42.7466 164.862 43.2402C165.391 43.8976 165.717 44.7196 165.717 45.7471C165.879 47.1034 165.594 47.9256 165.065 48.6242ZM47.2258 41.7603C47.8768 41.2672 48.4058 40.9384 48.8941 40.2396C50.0333 38.9245 51.5388 36.5814 51.5388 32.8824C51.5388 29.3476 50.1961 27.046 48.8941 25.6897C47.2258 23.7169 44.7435 22.6893 41.9359 22.5248H32.333C32.0074 22.5248 31.8447 22.8539 31.8447 23.0182V55.6119C31.8447 55.9406 32.1702 56.1049 32.333 56.1049H38.1109C38.4365 56.1049 38.5994 55.776 38.5994 55.6119V43.5689H40.5932L44.2146 55.9406C44.2146 56.1049 44.5808 56.2693 44.7436 56.2693H50.8472C51.0099 56.2693 51.1728 56.1049 51.3355 56.1049C51.4982 56.1049 51.4982 55.776 51.4982 55.6119L47.2258 41.7603ZM43.5635 35.7182C43.0752 36.3763 42.2614 36.7457 41.2441 36.7457H38.4364V29.3887H41.2441C42.2206 29.3887 43.0343 29.7176 43.5635 30.3752C44.2145 31.0742 44.4179 31.8961 44.4179 33.047C44.4179 34.2388 44.2552 35.0606 43.5635 35.7182ZM96.1764 38.9246C97.1937 37.9379 98.9842 35.5952 98.9842 32.5538C98.9842 29.0193 97.6821 26.8819 96.6648 25.6897C94.8338 23.7169 92.3514 22.6893 89.544 22.6893H80.4697C80.1443 22.6893 79.9814 23.0182 79.9814 23.1824V55.8171C79.9814 56.1458 80.3071 56.3105 80.4697 56.3105H90.0728C93.0433 56.3105 95.851 55.1595 97.7226 52.7757C98.6993 51.4604 99.8793 49.2406 99.8793 45.9118C99.676 41.9249 97.1937 39.5821 96.1764 38.9246ZM86.614 29.3887H89.5846C90.3984 29.3887 91.0495 29.553 91.5378 30.2108C92.026 30.745 92.1889 31.5672 92.1889 32.5947C92.1889 33.6221 92.026 34.4029 91.5378 35.102C91.0494 35.5951 90.3984 35.9239 89.7473 35.9239H86.7767V29.3887H86.614ZM92.0666 48.6242C91.5786 49.2819 90.9272 49.4464 89.91 49.4464H86.614V42.3767H89.91C90.7237 42.3767 91.3748 42.7466 91.8631 43.2402C92.3513 43.8976 92.7176 44.7196 92.7176 45.7471C92.7583 47.1034 92.5957 47.9256 92.0666 48.6242ZM17.5624 22.0317C14.5918 22.0317 12.1098 23.0182 10.4415 24.8675C8.65099 26.7172 8 29.3476 8 32.5537V46.4457C8 49.4465 8.65099 52.2821 10.4415 54.132C12.2725 55.9817 14.7547 56.9682 17.5624 56.9682C20.5327 56.9682 23.0554 55.9819 24.7237 54.132C26.5142 52.3234 27.1652 49.6518 27.1652 46.4457V38.8008C27.1652 38.4312 26.8397 38.1024 26.5142 38.1024H18.0913C17.7252 38.1024 17.3997 38.4312 17.3997 38.8008V44.473C17.3997 44.8017 17.7252 45.1307 18.0913 45.1307H20.248V46.487C20.248 47.6379 19.9224 48.6655 19.4343 49.3232C18.9457 49.9809 18.2542 50.1451 17.4403 50.1451C16.6266 50.1451 15.9754 49.8164 15.4465 49.3232C14.9583 48.6655 14.6328 47.6381 14.6328 46.487V32.7594C14.6328 31.5672 14.9583 30.5397 15.4465 29.9228C15.9756 29.2653 16.6266 29.101 17.4403 29.101C18.2542 29.101 18.9458 29.4299 19.4343 29.9228C19.9225 30.5805 20.248 31.5672 20.248 32.7594V34.0746C20.248 34.403 20.5734 34.6087 20.7362 34.6087H26.5144C26.8398 34.6087 27.0026 34.403 27.0026 34.0746V32.7594C27.0026 29.7586 26.3516 26.9227 24.5206 25.0732C23.0555 23.0182 20.3699 22.0317 17.5624 22.0317ZM74.2036 22.5248H68.4255C68.0999 22.5248 67.9371 22.6893 67.9371 23.0182V46.117C67.9371 47.2679 67.571 48.1309 67.0827 48.7888C66.5943 49.4465 65.9432 49.6108 65.1295 49.6108C64.3158 49.6108 63.6239 49.2818 63.1358 48.7888C62.6475 48.1309 62.3221 47.2679 62.3221 46.117V23.0182C62.3221 22.6893 61.9558 22.5248 61.793 22.5248H56.0151C55.6895 22.5248 55.5268 22.6893 55.5268 23.0182V46.2816C55.5268 49.2819 56.2185 52.118 58.0088 53.9674C59.8398 55.8171 62.3221 56.8035 65.1296 56.8035C68.1002 56.8035 70.6229 55.8173 72.2505 53.9674C74.0815 52.1593 74.7325 49.4877 74.7325 46.2816V23.0182C74.6919 22.8539 74.529 22.5248 74.2036 22.5248ZM122.869 22.5248H117.091C116.766 22.5248 116.603 22.8539 116.603 23.0182V35.7182H110.825V23.0182C110.825 22.6893 110.5 22.5248 110.337 22.5248H104.559C104.233 22.5248 104.07 22.8539 104.07 23.0182V55.6119C104.07 55.9406 104.396 56.1049 104.559 56.1049H110.337C110.662 56.1049 110.825 55.776 110.825 55.6119V42.5826H116.603V55.6119C116.603 55.9406 116.929 56.1049 117.091 56.1049H122.869C123.195 56.1049 123.358 55.776 123.358 55.6119V23.0182C123.358 22.8539 123.195 22.5248 122.869 22.5248Z" fill="black"/>
</g>
<defs>
<clipPath id="clip0_4156_12021">
<rect width="165" height="35" fill="white" transform="translate(8 22)"/>
</clipPath>
</defs>
</svg>
