<svg width="168" height="76" viewBox="0 0 168 76" fill="none" xmlns="http://www.w3.org/2000/svg">
<path d="M42.4585 37.8957H39.1602V34.7607H48.5611V37.8957H45.2167V51.2868H42.4585V37.8957Z" fill="black"/>
<path d="M49.5322 33.875H52.2904V40.7086H52.3249C52.5869 40.2198 52.9562 39.797 53.4052 39.4719C53.8217 39.1648 54.3246 38.9977 54.8418 38.9945C56.6059 38.9945 57.9505 40.6453 57.9505 44.2635V51.2639H55.1923V44.6949C55.1923 43.113 54.7901 42.0374 53.7615 42.0374C53.026 42.0374 52.5777 42.6701 52.3824 43.3546C52.3162 43.6178 52.2853 43.8886 52.2904 44.16V51.2754H49.5322V33.875Z" fill="black"/>
<path d="M62.1059 46.489C62.1047 46.8089 62.1701 47.1255 62.298 47.4187C62.4259 47.7118 62.6134 47.975 62.8486 48.1916C63.0838 48.4081 63.3615 48.5731 63.6641 48.6761C63.9666 48.7792 64.2872 48.8179 64.6055 48.7899C65.4474 48.8027 66.2816 48.6278 67.0477 48.278L67.4212 50.8032C66.4292 51.3226 65.3226 51.5837 64.2033 51.5625C61.198 51.5625 59.4741 49.1983 59.4741 45.4537C59.4741 42.405 60.8762 39.0342 63.9447 39.0342C66.8179 39.0342 67.9039 42.0541 67.9039 45.028C67.9108 45.5226 67.8781 46.0169 67.8062 46.5063L62.1059 46.489ZM65.3411 43.9293C65.3411 43.032 65.048 41.4961 63.7953 41.4961C62.6461 41.4961 62.1576 42.9399 62.0714 43.9293H65.3411Z" fill="black"/>
<path d="M83.1546 50.5274C81.8704 51.1066 80.483 51.4216 79.0748 51.4535C76.8395 51.4535 75.2305 50.6999 74.1043 49.2389C72.978 47.7778 72.3804 45.6495 72.3804 43.2221C72.3804 37.7229 75.3569 34.5937 79.3621 34.5937C80.5443 34.5534 81.7161 34.8273 82.7581 35.3876L82.172 38.4075C81.3113 37.909 80.3269 37.6656 79.3333 37.7057C77.0348 37.7057 75.2765 39.4314 75.2765 43.0495C75.2765 46.4663 76.8682 48.4623 79.1322 48.4623C79.5939 48.4885 80.0555 48.4098 80.4826 48.2322V44.7809H78.5921V41.8645H83.1546V50.5274Z" fill="black"/>
<path d="M85.085 33.875H87.8489V51.287H85.085V33.875Z" fill="black"/>
<path d="M98.646 45.1667C98.646 49.5556 96.3476 51.5574 93.9686 51.5574C91.3828 51.5574 89.3716 49.2565 89.3716 45.3738C89.3716 41.491 91.2621 39.0176 94.1123 39.0176C96.8417 39.0176 98.646 41.5428 98.646 45.1667ZM92.2275 45.3105C92.2275 47.3583 92.871 48.9114 94.0433 48.9114C95.1178 48.9114 95.8016 47.4561 95.8016 45.2875C95.8016 43.5158 95.296 41.6981 94.049 41.6981C92.8021 41.6981 92.2275 43.5101 92.2275 45.3105Z" fill="black"/>
<path d="M100.1 51.2864C100.134 50.4926 100.169 49.066 100.169 47.7028V33.8975H102.927V40.7081H102.967C103.202 40.1967 103.58 39.7643 104.055 39.4632C104.53 39.1621 105.082 39.0051 105.645 39.0112C107.777 39.0112 109.328 41.3926 109.305 45.0682C109.305 49.3939 107.277 51.551 105.248 51.551C104.208 51.551 103.208 51.0333 102.593 49.6125H102.553L102.438 51.2806L100.1 51.2864ZM102.927 46.1957C102.925 46.4153 102.943 46.6347 102.979 46.8514C103.162 47.8466 103.794 48.6289 104.599 48.6289C105.748 48.6289 106.507 47.3921 106.507 45.2351C106.507 43.3656 105.886 41.893 104.605 41.893C103.846 41.893 103.162 42.6466 102.984 43.7337C102.947 43.9619 102.928 44.1927 102.927 44.424V46.1957Z" fill="black"/>
<path d="M115.88 51.287L115.719 50.0962H115.661C115.408 50.5446 115.039 50.9167 114.594 51.1737C114.148 51.4307 113.641 51.5631 113.127 51.5573C111.317 51.5573 110.254 49.8029 110.254 47.8874C110.254 44.7582 112.317 43.2856 115.46 43.2856V43.1303C115.46 42.4918 115.207 41.583 113.834 41.583C112.943 41.6134 112.086 41.9278 111.386 42.4803L110.88 40.0931C111.884 39.373 113.093 38.9958 114.328 39.0175C117.282 39.0175 118.218 41.3759 118.218 44.1945V48.3821C118.206 49.3523 118.252 50.3223 118.356 51.287H115.88ZM115.546 45.6153C114.092 45.6153 112.972 46.0754 112.972 47.502C112.972 48.4741 113.443 48.94 114.069 48.94C114.425 48.8998 114.757 48.7432 115.015 48.4947C115.273 48.2461 115.441 47.9194 115.495 47.5653C115.532 47.3546 115.55 47.1408 115.546 46.9268V45.6153Z" fill="black"/>
<path d="M120.223 33.875H122.97V51.287H120.206L120.223 33.875Z" fill="black"/>
<path d="M49.5444 62.4343C49.5444 67.8586 47.4183 71.1316 44.2808 71.1316C41.1434 71.1316 39.2241 67.4272 39.2241 62.7104C39.2241 57.7693 41.287 54.0821 44.4475 54.0821C47.7401 54.0648 49.5444 57.8613 49.5444 62.4343ZM41.7869 62.6414C41.7869 65.8799 42.7811 68.1635 44.4015 68.1635C46.022 68.1635 46.9759 65.7763 46.9759 62.5608C46.9759 59.5812 46.0622 57.0387 44.3958 57.0387C42.7294 57.0387 41.7869 59.4259 41.7869 62.6414Z" fill="black"/>
<path d="M59.3883 67.0189C59.3883 68.5778 59.4228 69.895 59.463 70.8614H57.0726L56.9461 69.1702H56.8887C56.6687 69.731 56.29 70.2153 55.799 70.5638C55.3081 70.9122 54.7262 71.1096 54.1247 71.1318C52.3261 71.1318 51.0103 69.6074 51.0103 65.9203V58.8623H53.7742V65.3105C53.7742 67.0707 54.1879 68.1176 55.159 68.1176C55.9118 68.1176 56.3543 67.4158 56.5324 66.8061C56.606 66.5481 56.6408 66.2806 56.6358 66.0123V58.8623H59.394L59.3883 67.0189Z" fill="black"/>
<path d="M64.4964 55.4395V58.862H66.4847V61.6116H64.4964V65.9603C64.4964 67.4098 64.7665 68.0771 65.5882 68.0771C65.8641 68.0809 66.139 68.044 66.4042 67.9678V70.7979C65.8378 71.0301 65.2288 71.1398 64.6171 71.12C64.2125 71.1253 63.8126 71.0335 63.4507 70.8524C63.0888 70.6713 62.7755 70.406 62.537 70.0788C62.0256 69.3713 61.7785 68.2266 61.7785 66.524V61.6116H60.5947V58.862H61.7785V56.2793L64.4964 55.4395Z" fill="black"/>
<path d="M67.8808 67.6116C68.565 68.1357 69.3886 68.4459 70.2482 68.5032C71.0815 68.5032 71.4377 68.1235 71.4377 67.5138C71.4377 66.904 71.1562 66.5934 70.1333 66.1275C68.2888 65.3049 67.5935 63.9474 67.605 62.5381C67.605 60.2832 69.0128 58.5921 71.2136 58.5921C72.0959 58.5819 72.9629 58.8233 73.7133 59.2881L73.2306 61.8594C72.6678 61.456 72.0023 61.2207 71.3113 61.1806C71.175 61.1608 71.036 61.1716 70.9043 61.2121C70.7727 61.2526 70.6516 61.3218 70.5499 61.4148C70.4482 61.5078 70.3685 61.6222 70.3163 61.7498C70.2641 61.8774 70.2409 62.015 70.2482 62.1527C70.2482 62.7279 70.6045 63.027 71.6906 63.539C72.4332 63.8154 73.0671 64.3237 73.4987 64.9888C73.9302 65.6539 74.1364 66.4404 74.0868 67.2319C74.0868 69.4695 72.7996 71.1204 70.254 71.1204C69.2324 71.1394 68.2296 70.8443 67.3809 70.2748L67.8808 67.6116Z" fill="black"/>
<path d="M84.3316 64.7417C84.3316 69.1306 82.0331 71.1324 79.6542 71.1324C77.0741 71.1324 75.0571 68.8315 75.0571 64.9488C75.0571 61.066 76.9477 58.6213 79.7978 58.6213C82.5273 58.5926 84.3316 61.1178 84.3316 64.7417ZM77.9188 64.8682C77.9188 66.916 78.5566 68.4691 79.7346 68.4691C80.8092 68.4691 81.4585 67.0138 81.4585 64.8452C81.4585 63.0793 80.9528 61.2558 79.7346 61.2558C78.5164 61.2558 77.9188 63.085 77.9188 64.8682Z" fill="black"/>
<path d="M94.2388 67.0189C94.2388 68.5778 94.2733 69.895 94.3135 70.8614H91.9173L91.7909 69.1702H91.7334C91.5135 69.731 91.1348 70.2153 90.6438 70.5638C90.1528 70.9122 89.5709 71.1096 88.9695 71.1318C87.1652 71.1318 85.855 69.6074 85.855 65.9203V58.8623H88.6132V65.3105C88.6132 67.0707 89.0327 68.1176 90.0038 68.1176C90.7566 68.1176 91.199 67.4158 91.3772 66.8061C91.4485 66.5477 91.4814 66.2803 91.4749 66.0123V58.8623H94.2388V67.0189Z" fill="black"/>
<path d="M96.2442 62.8198C96.2442 61.0539 96.2442 59.8919 96.1753 58.8623H98.5428L98.6462 61.0826H98.7151C99.1691 59.357 100.249 58.5919 101.106 58.5919C101.3 58.5824 101.494 58.6057 101.68 58.661V62.1698C101.438 62.0975 101.186 62.0626 100.933 62.0663C99.9219 62.0663 99.2093 62.791 99.0427 63.9587C99.0061 64.2352 98.9888 64.5139 98.991 64.7928V70.8614H96.227L96.2442 62.8198Z" fill="black"/>
<path d="M109.473 70.5627C108.712 70.962 107.861 71.16 107.002 71.1379C104.129 71.1379 102.308 68.768 102.308 64.9945C102.308 61.4857 104.083 58.6211 107.382 58.6211C108.109 58.62 108.827 58.7811 109.485 59.0928L109.054 61.8654C108.587 61.5947 108.053 61.4611 107.514 61.4799C106.054 61.4799 105.118 62.8835 105.129 64.845C105.129 67.0481 106.221 68.2215 107.554 68.2215C108.109 68.2301 108.657 68.0954 109.146 67.8304L109.473 70.5627Z" fill="black"/>
<path d="M113.644 55.5258C113.644 56.567 113.069 57.3895 112.161 57.3895C111.253 57.3895 110.725 56.567 110.731 55.5258C110.736 54.4847 111.305 53.6621 112.19 53.6621C113.075 53.6621 113.638 54.4559 113.644 55.5258ZM110.805 70.8612V58.8621H113.569V70.8612H110.805Z" fill="black"/>
<path d="M115.592 62.6931C115.592 61.1975 115.557 59.9378 115.517 58.8621H117.913L118.04 60.5245H118.097C118.325 59.9763 118.704 59.5038 119.189 59.1618C119.674 58.8198 120.246 58.6222 120.838 58.5918C122.654 58.5918 124.016 60.2254 124.016 63.7688V70.8728H121.246V64.2117C121.246 62.6643 120.838 61.606 119.844 61.606C119.086 61.606 118.637 62.325 118.448 63.0152C118.373 63.3161 118.34 63.6258 118.35 63.9356V70.8382H115.586L115.592 62.6931Z" fill="black"/>
<path d="M134.509 58.862C134.469 59.6328 134.434 60.651 134.434 62.4399V69.1182C134.434 71.4191 134.089 73.3116 133.084 74.5138C132.633 75.0142 132.076 75.4068 131.453 75.6626C130.831 75.9185 130.159 76.0311 129.487 75.9921C128.355 76.017 127.242 75.696 126.297 75.0718L126.872 72.2417C127.613 72.8027 128.512 73.1166 129.441 73.139C130.745 73.139 131.739 72.1957 131.739 69.9811V69.2103H131.705C131.491 69.6679 131.153 70.056 130.729 70.3298C130.306 70.6035 129.813 70.7518 129.308 70.7576C127.119 70.7576 125.556 68.3532 125.556 64.9134C125.556 61.0421 127.401 58.5859 129.579 58.5859C130.112 58.5883 130.631 58.7553 131.066 59.0641C131.501 59.3729 131.831 59.8086 132.009 60.3116H132.044L132.136 58.8793L134.509 58.862ZM131.67 63.7514C131.674 63.5202 131.657 63.2892 131.618 63.0611C131.429 62.0775 130.9 61.4103 130.136 61.4103C129.13 61.4103 128.332 62.6527 128.332 64.8271C128.332 66.616 128.981 68.0138 130.13 68.0138C130.843 68.0138 131.412 67.381 131.596 66.5067C131.65 66.1798 131.675 65.8487 131.67 65.5173V63.7514Z" fill="black"/>
<path d="M143.111 58.2466H143.082L140.841 59.6847L140.387 56.8891L143.507 54.9219H145.806V70.8612H143.14L143.111 58.2466Z" fill="black"/>
<path d="M157.293 62.8253C157.293 67.7377 155.817 71.1315 152.817 71.1315C149.817 71.1315 148.421 67.4385 148.41 62.9288C148.41 58.327 149.846 54.6514 152.892 54.6514C156.046 54.6514 157.293 58.4593 157.293 62.8253ZM151.168 62.9115C151.168 66.5814 151.817 68.3186 152.892 68.3186C153.966 68.3186 154.558 66.4952 154.558 62.8713C154.558 59.3394 153.984 57.4814 152.886 57.4814C151.788 57.4814 151.162 59.2014 151.168 62.9115Z" fill="black"/>
<path d="M167.171 62.8253C167.171 67.7377 165.7 71.1315 162.694 71.1315C159.689 71.1315 158.299 67.4385 158.287 62.9288C158.287 58.327 159.724 54.6514 162.775 54.6514C165.924 54.6514 167.171 58.4593 167.171 62.8253ZM161.045 62.9115C161.045 66.5814 161.695 68.3186 162.769 68.3186C163.844 68.3186 164.43 66.4952 164.43 62.8713C164.43 59.3394 163.855 57.4814 162.763 57.4814C161.672 57.4814 161.045 59.2014 161.045 62.9115Z" fill="black"/>
<path d="M42.0455 14.7256V26.765H39.1724V14.7256H42.0455Z" fill="black"/>
<path d="M48.6994 14.7256H51.6817L56.5775 26.765H53.532L52.5034 23.9924H47.7972L46.7686 26.765H43.769L48.6994 14.7256ZM48.4523 22.0597H51.8081L51.199 20.4548C51.0036 19.9601 50.8255 19.4597 50.6244 18.9592C50.4232 18.4588 50.2968 17.9468 50.1417 17.4349H50.1015C49.9463 17.9238 49.7797 18.4128 49.5958 18.919C49.4119 19.4251 49.228 19.9371 49.0212 20.4548L48.4523 22.0597Z" fill="black"/>
<path d="M63.9271 14.513C64.8121 14.5065 65.692 14.6484 66.5302 14.9329C67.2917 15.1923 67.9918 15.6054 68.5873 16.1466C69.1755 16.6948 69.6381 17.364 69.9435 18.1081C70.2848 18.9518 70.4529 19.8556 70.4377 20.7656C70.4534 21.6564 70.2811 22.5404 69.932 23.3599C69.6138 24.1009 69.1417 24.7656 68.5471 25.3099C67.9401 25.8588 67.2287 26.2794 66.4555 26.5466C65.6144 26.8359 64.7302 26.9798 63.8409 26.9723C62.9567 26.9797 62.0774 26.8417 61.2379 26.5639C60.4758 26.3114 59.775 25.9019 59.1807 25.3617C58.5958 24.8152 58.1336 24.1505 57.8246 23.4117C57.4852 22.5717 57.3191 21.6716 57.3362 20.7656C57.3214 19.87 57.4916 18.9809 57.8361 18.1542C58.1559 17.4091 58.6276 16.739 59.2209 16.1869C59.8279 15.6366 60.5392 15.214 61.3126 14.9444C62.1528 14.651 63.0373 14.5051 63.9271 14.513ZM60.3759 20.7656C60.3636 21.3969 60.4608 22.0256 60.6632 22.6236C60.8272 23.1113 61.0871 23.5611 61.4275 23.9466C61.7451 24.2927 62.1385 24.5605 62.5768 24.7289C63.4539 25.0742 64.4291 25.0742 65.3062 24.7289C65.7301 24.5582 66.108 24.2902 66.4095 23.9466C66.7361 23.5561 66.9856 23.1072 67.145 22.6236C67.5127 21.3927 67.5127 20.0811 67.145 18.8502C66.9805 18.3598 66.7186 17.9078 66.375 17.5214C66.0579 17.1775 65.6641 16.9134 65.2258 16.7506C64.7856 16.5826 64.3178 16.4987 63.8467 16.5033C63.3795 16.4982 62.9162 16.5882 62.4848 16.7679C62.0649 16.9451 61.6913 17.2168 61.393 17.5617C61.0627 17.9517 60.8127 18.4033 60.6575 18.8904C60.4606 19.4956 60.3655 20.1293 60.3759 20.7656Z" fill="black"/>
<path d="M72.7246 14.7262H78.4191C79.1241 14.7175 79.8273 14.8006 80.5108 14.9736C81.081 15.1163 81.6204 15.3619 82.1025 15.6983C82.5275 15.9978 82.8775 16.3915 83.1253 16.8488C83.3688 17.3317 83.4911 17.8668 83.4816 18.4076C83.5046 19.0024 83.3719 19.5929 83.0968 20.1206C82.8216 20.6482 82.4135 21.0948 81.9129 21.416C81.3981 21.7578 80.8257 22.0033 80.2235 22.1408C79.5503 22.3055 78.8594 22.3867 78.1663 22.3824H75.6035V26.7598H72.7304L72.7246 14.7262ZM75.5977 20.3806H77.8273C78.1739 20.3819 78.52 20.3531 78.8616 20.2944C79.1652 20.2465 79.4574 20.1432 79.7236 19.9895C79.9603 19.8491 80.158 19.6513 80.2982 19.4143C80.4451 19.1428 80.5165 18.8369 80.505 18.5284C80.524 18.2584 80.47 17.9882 80.3487 17.7463C80.2274 17.5044 80.0432 17.2997 79.8155 17.1536C79.2815 16.8411 78.6696 16.6874 78.0514 16.7107H75.592L75.5977 20.3806Z" fill="black"/>
<path d="M39.443 0V5.47034C24.5429 5.80972 11.8609 12.1659 8.24072 21.0301H11.0449C12.7228 17.7571 15.9752 14.7832 20.4343 12.4938C26.0714 9.6177 33.2772 8.00133 40.7187 8.00133H41.9886V0H39.443Z" fill="black"/>
<path d="M46.2461 5.72949V8.29497C50.8717 8.76077 55.3944 9.95669 59.6464 11.8383H64.9675C59.9912 8.62285 53.3427 6.45427 46.2461 5.72949Z" fill="black"/>
<path d="M36.1613 44.2575C21.0831 42.9403 9.72844 35.2093 9.72844 26.2301V24.9531H0V27.4784H7.25755C7.71151 32.1837 10.7053 36.6301 15.7563 40.1332C21.0544 43.7801 28.3004 46.15 36.1613 46.8058V44.246V44.2575Z" fill="black"/>
<path d="M88.447 18.5272H87.3438V17.6299H90.5042V18.5272H89.4009V24.2794H88.447V18.5272Z" fill="black"/>
<path d="M90.8315 17.6309H91.7854V20.507H92.9691V17.6309H93.9231V24.3034H92.9691V21.3295H91.7854V24.3034H90.8315V17.6309Z" fill="black"/>
<path d="M94.7275 17.6309H97.572V18.5282H95.6814V20.4897H97.3306V21.3871H95.6814V23.3486H97.572V24.3034H94.7275V17.6309Z" fill="black"/>
<path d="M99.744 17.6307H101.135C101.361 17.6096 101.59 17.6386 101.804 17.7157C102.018 17.7928 102.213 17.9162 102.374 18.077C102.535 18.2379 102.659 18.4323 102.737 18.6464C102.815 18.8605 102.844 19.0892 102.824 19.3161V19.5577C102.857 19.8064 102.811 20.0591 102.694 20.2808C102.576 20.5024 102.393 20.6819 102.169 20.7945C102.401 20.9179 102.588 21.1105 102.706 21.3456C102.823 21.5806 102.864 21.8463 102.824 22.106V22.4856C102.824 23.636 102.249 24.3033 101.037 24.3033H99.7383L99.744 17.6307ZM100.698 20.3688H101.135C101.772 20.3688 101.939 20.0409 101.939 19.4312C101.939 18.8215 101.726 18.5281 101.094 18.5281H100.704L100.698 20.3688ZM100.698 23.3484H101.135C101.899 23.3484 101.956 22.8768 101.956 22.198C101.956 21.5192 101.836 21.1856 101.14 21.1856H100.721L100.698 23.3484Z" fill="black"/>
<path d="M103.634 17.6309H106.507V18.5282H104.582V20.4897H106.226V21.3871H104.582V23.3486H106.473V24.3034H103.6L103.634 17.6309Z" fill="black"/>
<path d="M110.093 19.5522H109.139V19.3336C109.139 18.8964 108.955 18.5283 108.467 18.5283C107.978 18.5283 107.823 18.954 107.823 19.3911C107.823 19.8283 107.869 20.0871 108.363 20.2827L109.093 20.5703C109.938 20.8924 110.093 21.4274 110.093 22.3995C110.093 23.5212 109.685 24.3553 108.449 24.3553C108.237 24.3639 108.025 24.3292 107.827 24.2534C107.628 24.1776 107.447 24.0623 107.295 23.9143C107.142 23.7664 107.021 23.589 106.939 23.3929C106.857 23.1968 106.816 22.9861 106.817 22.7734V22.4168H107.771V22.7159C107.764 22.8073 107.776 22.8992 107.807 22.9854C107.838 23.0716 107.888 23.1499 107.952 23.215C108.017 23.2801 108.095 23.3304 108.18 23.3624C108.266 23.3945 108.358 23.4074 108.449 23.4004C109.093 23.4004 109.139 23.0208 109.139 22.411C109.139 21.6978 109.058 21.5827 108.564 21.3986L107.88 21.1168C107.533 20.996 107.239 20.7573 107.049 20.4421C106.859 20.1269 106.785 19.7551 106.84 19.3911C106.84 18.3787 107.386 17.5619 108.478 17.5619C108.888 17.5526 109.285 17.7057 109.583 17.9879C109.882 18.2701 110.056 18.6586 110.07 19.069L110.093 19.5522Z" fill="black"/>
<path d="M111.34 18.5272H110.236V17.6299H113.397V18.5272H112.293V24.2794H111.34V18.5272Z" fill="black"/>
<path d="M115.316 19.2068C115.303 18.9883 115.334 18.7695 115.409 18.5637C115.483 18.358 115.599 18.1697 115.749 18.0104C115.899 17.8511 116.08 17.7241 116.281 17.6374C116.481 17.5506 116.698 17.5059 116.916 17.5059C117.135 17.5059 117.351 17.5506 117.552 17.6374C117.753 17.7241 117.933 17.8511 118.083 18.0104C118.233 18.1697 118.349 18.358 118.423 18.5637C118.498 18.7695 118.53 18.9883 118.517 19.2068V22.7271C118.53 22.9456 118.498 23.1644 118.423 23.3701C118.349 23.5759 118.233 23.7642 118.083 23.9235C117.933 24.0828 117.753 24.2097 117.552 24.2965C117.351 24.3833 117.135 24.428 116.916 24.428C116.698 24.428 116.481 24.3833 116.281 24.2965C116.08 24.2097 115.899 24.0828 115.749 23.9235C115.599 23.7642 115.483 23.5759 115.409 23.3701C115.334 23.1644 115.303 22.9456 115.316 22.7271V19.2068ZM116.27 22.7271C116.261 22.8172 116.272 22.9081 116.3 22.994C116.329 23.0798 116.375 23.1587 116.436 23.2257C116.497 23.2926 116.571 23.3461 116.654 23.3827C116.736 23.4193 116.826 23.4382 116.916 23.4382C117.007 23.4382 117.096 23.4193 117.179 23.3827C117.261 23.3461 117.336 23.2926 117.396 23.2257C117.457 23.1587 117.504 23.0798 117.532 22.994C117.561 22.9081 117.571 22.8172 117.563 22.7271V19.2068C117.571 19.1166 117.561 19.0258 117.532 18.9399C117.504 18.8541 117.457 18.7751 117.396 18.7082C117.336 18.6413 117.261 18.5878 117.179 18.5512C117.096 18.5146 117.007 18.4957 116.916 18.4957C116.826 18.4957 116.736 18.5146 116.654 18.5512C116.571 18.5878 116.497 18.6413 116.436 18.7082C116.375 18.7751 116.329 18.8541 116.3 18.9399C116.272 19.0258 116.261 19.1166 116.27 19.2068V22.7271Z" fill="black"/>
<path d="M119.269 17.6299H122.142V18.5272H120.252V20.575H121.901V21.4724H120.252V24.3485H119.298L119.269 17.6299Z" fill="black"/>
<path d="M122.982 13.5576H86.4648V14.2824H122.982V13.5576Z" fill="black"/>
<path d="M122.982 27.4268H86.4648V28.1515H122.982V27.4268Z" fill="black"/>
</svg>
