<svg width="108" height="80" viewBox="0 0 108 80" fill="none" xmlns="http://www.w3.org/2000/svg">
<g opacity="0.85">
<path d="M0 58.5156H20.9986V61.5371H0V58.5156Z" fill="black"/>
<path d="M0 52.7207H20.9986V55.7528H0V52.7207Z" fill="black"/>
<path d="M5.99121 46.9351H14.9982V49.9673H5.99121V46.9351Z" fill="black"/>
<path d="M5.99121 41.1499H14.9982V44.1822H5.99121V41.1499Z" fill="black"/>
<path d="M5.99121 35.3652H14.9982V38.3975H5.99121V35.3652Z" fill="black"/>
<path d="M5.99121 29.5696H14.9982V32.6018H5.99121V29.5696Z" fill="black"/>
<path d="M20.9986 23.7844H0V26.8167H20.9986V23.7844Z" fill="black"/>
<path d="M20.9986 18H0V21.0323H20.9986V18Z" fill="black"/>
<path d="M23.9932 55.7525H56.2881C56.8336 54.817 57.2401 53.7955 57.4862 52.7202H23.9932V55.7525Z" fill="black"/>
<path d="M53.775 41.1499H29.9951V44.1822H56.2889C55.6042 43.0208 54.7591 41.9994 53.775 41.1499Z" fill="black"/>
<path d="M29.9951 35.3652V38.3975H53.775C54.7806 37.548 55.6256 36.5265 56.2889 35.3652H29.9951Z" fill="black"/>
<path d="M56.2882 23.7844H23.9932V26.8167H57.4862C57.2081 25.7414 56.8016 24.72 56.2882 23.7844Z" fill="black"/>
<path d="M46.3616 17.9998H23.9937V21.032H54.0743C52.0632 19.161 49.3355 17.9998 46.3616 17.9998Z" fill="black"/>
<path d="M38.9915 29.5696H29.9951V32.6018H38.9915V29.5696Z" fill="black"/>
<path d="M47.9985 32.6018H57.4121C57.6795 31.6341 57.8186 30.6126 57.8186 29.5696H47.9985V32.6018Z" fill="black"/>
<path d="M29.9951 46.9351H38.9915V49.9673H29.9951V46.9351Z" fill="black"/>
<path d="M47.9985 46.9351V49.9673H57.8186C57.8186 48.9243 57.6795 47.9029 57.4121 46.9351H47.9985Z" fill="black"/>
<path d="M23.9932 61.5151L46.3611 61.5474C49.3563 61.5474 52.0627 60.3861 54.0845 58.5151H23.9932V61.5151Z" fill="black"/>
<path d="M59.9995 58.5151H74.9969V61.5366H59.9995V58.5151Z" fill="black"/>
<path d="M59.9995 52.7207H74.9969V55.7528H59.9995V52.7207Z" fill="black"/>
<path d="M65.9912 46.9351H74.9982V49.9673H65.9912V46.9351Z" fill="black"/>
<path d="M65.9912 41.1499H74.9982V44.1822H65.9912V41.1499Z" fill="black"/>
<path d="M79.1689 23.7844H59.9995V26.8167H80.2065L79.1689 23.7844Z" fill="black"/>
<path d="M77.1792 18H59.9995V21.0323H78.2168L77.1792 18Z" fill="black"/>
<path d="M92.9917 58.5151H108V61.5366H92.9917V58.5151Z" fill="black"/>
<path d="M92.9917 52.7207H108V55.7528H92.9917V52.7207Z" fill="black"/>
<path d="M92.9917 46.9351H101.999V49.9673H92.9917V46.9351Z" fill="black"/>
<path d="M92.9917 41.1499H101.999V44.1822H92.9917V41.1499Z" fill="black"/>
<path d="M92.991 38.3975H101.998V35.3652H92.991H84.8398L83.9947 37.8169L83.1496 35.3652H74.9982H65.9912V38.3975H74.9982V35.6125L75.9504 38.3975H92.039L92.991 35.6125V38.3975Z" fill="black"/>
<path d="M101.998 29.5696H86.8296L85.792 32.6018H101.998V29.5696Z" fill="black"/>
<path d="M90.8199 17.9998L89.7822 21.032H108V17.9998H90.8199Z" fill="black"/>
<path d="M83.9957 61.5151L85.0332 58.5151H82.958L83.9957 61.5151Z" fill="black"/>
<path d="M82.0048 55.7528H85.9842L87.0539 52.7207H80.9458L82.0048 55.7528Z" fill="black"/>
<path d="M79.9834 49.9673H88.0063L89.0653 46.9351H78.9243L79.9834 49.9673Z" fill="black"/>
<path d="M77.9722 44.1822H90.028L91.0549 41.1499H76.9346L77.9722 44.1822Z" fill="black"/>
<path d="M65.9912 32.6018H82.1975L81.1599 29.5696H65.9912V32.6018Z" fill="black"/>
<path d="M87.7915 26.8167H107.999V23.7844H88.8185L87.7915 26.8167Z" fill="black"/>
</g>
</svg>
