<svg width="90" height="90" viewBox="0 0 90 90" fill="none" xmlns="http://www.w3.org/2000/svg">
<g opacity="0.85">
<path d="M45.0001 82.7131C65.8284 82.7131 82.7131 65.8284 82.7131 45.0001C82.7131 24.1718 65.8284 7.28711 45.0001 7.28711C24.1718 7.28711 7.28711 24.1718 7.28711 45.0001C7.28711 65.8284 24.1718 82.7131 45.0001 82.7131Z" fill="black"/>
<path d="M45 90C36.101 90 27.4018 87.3615 20.0022 82.418C12.6026 77.4746 6.83478 70.4481 3.42804 62.227C0.0212972 54.006 -0.871436 44.9594 0.862696 36.231C2.59683 27.5026 6.87996 19.4843 13.1706 13.1898C19.4612 6.8954 27.4769 2.6074 36.2043 0.867997C44.9316 -0.871407 53.9788 0.0158764 62.2019 3.41765C70.4251 6.81942 77.455 12.5829 82.4029 19.9796C87.3509 27.3762 89.9946 36.0738 90 44.9728C89.9946 56.9084 85.2527 68.354 76.8155 76.7963C68.3783 85.2386 56.9356 89.9874 45 90ZM45 2.82782C36.6498 2.82783 28.4872 5.30473 21.5452 9.94512C14.6031 14.5855 9.19343 21.1808 6.00075 28.8966C2.80807 36.6123 1.97583 45.1017 3.60933 53.2906C5.24283 61.4794 9.26866 68.9997 15.1774 74.8999C21.0862 80.8001 28.6123 84.815 36.8036 86.4367C44.9948 88.0583 53.483 87.2137 61.194 84.0098C68.9052 80.806 75.4926 75.3868 80.1229 68.438C84.7532 61.4892 87.2183 53.323 87.2062 44.9728C87.1774 33.7935 82.7195 23.0812 74.8088 15.182C66.8981 7.28273 56.1793 2.84037 45 2.82782Z" fill="black"/>
<path d="M38.3587 43.219H38.2023C37.1255 43.1681 36.0532 43.3907 35.0857 43.8662C34.1181 44.3417 33.2867 45.0545 32.6691 45.9381L32.6079 46.0536C32.472 46.2576 32.37 46.4887 32.2545 46.7334C32.1389 46.9781 32.0437 47.0801 31.9622 47.2704C31.8806 47.4607 31.765 47.8278 31.6699 48.1065C31.5747 48.3852 31.5339 48.4668 31.4795 48.6639C31.3912 49.0106 31.3368 49.3437 31.2756 49.7379C31.2756 49.8807 31.2144 50.0234 31.2008 50.173C31.1345 50.7028 31.1027 51.2364 31.1057 51.7704C31.1032 52.2793 31.1327 52.7878 31.194 53.293C31.194 53.4154 31.2416 53.5242 31.262 53.6465C31.3164 53.9932 31.3708 54.3263 31.4523 54.6662C31.4999 54.8497 31.5747 55.006 31.6291 55.176C31.6835 55.3459 31.7786 55.6654 31.8738 55.8557C31.969 56.0461 32.0573 56.2024 32.1457 56.3723C32.2341 56.5423 32.3224 56.7394 32.4312 56.9094C32.4334 56.9251 32.4334 56.9412 32.4312 56.957C33.0148 57.8606 33.8224 58.5978 34.7753 59.0969C35.7282 59.596 36.7941 59.84 37.8693 59.8051C43.1578 59.8051 45.0067 55.2304 45.0067 51.281C45.0543 48.0249 43.7356 43.287 38.3587 43.219ZM38.08 56.5287C37.04 56.5287 36.3466 55.7674 36.0407 54.5438C35.8754 53.7001 35.8047 52.8405 35.83 51.9811C35.83 50.4109 35.9251 48.3512 36.5097 47.3316C36.6787 47.0306 36.9243 46.7796 37.2215 46.6041C37.5188 46.4287 37.8572 46.3349 38.2023 46.3323C39.3171 46.3323 39.8949 47.2364 40.1193 48.2289C40.3161 49.3646 40.4094 50.5158 40.398 51.6684C40.364 53.966 40.0173 56.5287 38.08 56.5287Z" fill="#EBEBED"/>
<path d="M52.7222 43.219H52.593C51.5161 43.1681 50.4439 43.3907 49.4763 43.8662C48.5088 44.3417 47.6774 45.0545 47.0598 45.9381L46.9986 46.0536C46.8626 46.2576 46.7607 46.4887 46.6451 46.7334C46.5296 46.9781 46.4344 47.0801 46.3528 47.2704C46.2713 47.4607 46.1557 47.8278 46.0605 48.1065C45.9654 48.3852 45.9246 48.4668 45.877 48.6639C45.7901 49.0154 45.7242 49.3718 45.6799 49.7311C45.6799 49.8739 45.6119 50.0166 45.5983 50.1662C45.5319 50.696 45.5001 51.2296 45.5031 51.7636C45.5007 52.2725 45.5302 52.7811 45.5915 53.2863C45.5915 53.4086 45.6391 53.5174 45.6595 53.6397C45.7138 53.9864 45.7682 54.3195 45.8498 54.6594C45.8974 54.8429 45.9721 54.9992 46.0265 55.1692C46.0809 55.3391 46.1761 55.6586 46.2712 55.8489C46.3664 56.0393 46.4548 56.1956 46.5432 56.3656C46.6315 56.5355 46.7199 56.7326 46.8287 56.9026C46.8309 56.9183 46.8309 56.9344 46.8287 56.9501C47.4128 57.8533 48.2204 58.5902 49.1732 59.0892C50.126 59.5882 51.1917 59.8325 52.2667 59.7983C57.5552 59.7983 59.4042 55.2236 59.4042 51.2742C59.4178 48.0249 58.099 43.287 52.7222 43.219ZM52.4774 56.5287C51.4374 56.5287 50.7441 55.7674 50.4382 54.5438C50.2728 53.7001 50.2021 52.8405 50.2274 51.9811C50.2274 50.4109 50.3226 48.3512 50.9072 47.3316C51.073 47.0387 51.3114 46.7935 51.5996 46.6197C51.8877 46.4458 52.2158 46.3492 52.5522 46.3391C53.6602 46.3391 54.238 47.2432 54.4623 48.2356C54.6625 49.3709 54.7558 50.5225 54.741 51.6752C54.7274 53.966 54.3808 56.5287 52.4774 56.5287Z" fill="#EBEBED"/>
<path d="M67.0849 43.219H66.9557C65.8788 43.1681 64.8066 43.3907 63.839 43.8662C62.8715 44.3417 62.0401 45.0545 61.4225 45.9381L61.3613 46.0536C61.2253 46.2576 61.1234 46.4887 61.0078 46.7334C60.8923 46.9781 60.7971 47.0801 60.7155 47.2704C60.6339 47.4607 60.5184 47.8278 60.4232 48.1065C60.3281 48.3852 60.2873 48.4668 60.2397 48.6639C60.1502 49.0175 60.0821 49.3761 60.0358 49.7379C60.0358 49.8807 59.9678 50.0234 59.9542 50.173C59.8911 50.7031 59.8594 51.2365 59.859 51.7704C59.8566 52.2793 59.8861 52.7878 59.9474 53.293C59.9474 53.4154 59.995 53.5242 60.0154 53.6465C60.0621 53.9898 60.1279 54.3302 60.2125 54.6662C60.2533 54.8497 60.3281 55.006 60.3824 55.176C60.4368 55.3459 60.532 55.6654 60.6272 55.8557C60.7223 56.0461 60.8107 56.2024 60.8991 56.3723C60.9874 56.5423 61.0826 56.7394 61.1846 56.9094C61.1868 56.9251 61.1868 56.9412 61.1846 56.9569C61.7687 57.8601 62.5763 58.597 63.5291 59.096C64.4819 59.595 65.5476 59.8393 66.6226 59.8051C71.9179 59.8051 73.7601 55.2304 73.7601 51.281C73.7805 48.0249 72.4617 43.287 67.0849 43.219ZM66.8062 56.5287C65.7661 56.5287 65.0728 55.7674 64.7669 54.5438C64.6051 53.6996 64.5345 52.8404 64.5562 51.9811C64.5562 50.4109 64.6513 48.3512 65.2359 47.3316C65.4022 47.0391 65.6408 46.7943 65.9288 46.6205C66.2169 46.4468 66.5447 46.3499 66.8809 46.3391C67.9889 46.3391 68.5667 47.2432 68.7978 48.2356C68.9947 49.3714 69.088 50.5226 69.0765 51.6752C69.0969 53.966 68.7503 56.5287 66.8062 56.5287Z" fill="#EBEBED"/>
<path d="M29.5628 45.1436C29.0985 45.6495 28.7093 46.2195 28.4072 46.8362H29.3657L29.5628 45.1436Z" fill="#EBEBED"/>
<path d="M27.612 49.2422C26.5569 48.6626 25.3692 48.3675 24.1656 48.3857C23.2833 48.3827 22.4071 48.5322 21.5757 48.8275C21.4094 48.9005 21.2482 48.9846 21.0931 49.0791L21.3242 46.8358H28.4073C28.7094 46.2192 29.0986 45.6492 29.5629 45.1432L29.7328 43.5322H17.9526L17.0689 52.1312L21.0183 52.6138C21.2055 52.2708 21.49 51.991 21.836 51.8095C22.1819 51.6281 22.5739 51.5531 22.9624 51.5941C23.6187 51.5851 24.2516 51.8372 24.722 52.2948C25.1924 52.7525 25.4617 53.3782 25.4707 54.0345C25.4798 54.6907 25.2277 55.3237 24.7701 55.7941C24.3124 56.2644 23.6866 56.5338 23.0304 56.5428C22.5943 56.5756 22.16 56.4587 21.7992 56.2116C21.4384 55.9645 21.1726 55.6018 21.0455 55.1833C20.9494 54.806 20.9104 54.4165 20.93 54.0277L16.2192 54.5103C16.3536 55.7708 16.8761 56.9585 17.7147 57.9091C19.5229 59.7377 22.1535 59.7376 23.01 59.7376C24.3695 59.7376 26.8235 59.6221 28.5568 57.8411C28.7233 57.6732 28.8778 57.4937 29.0191 57.3041C29.7929 56.2724 30.2125 55.0182 30.2155 53.7286C30.2307 52.8147 29.9964 51.9139 29.5376 51.1234C29.0788 50.3328 28.413 49.6824 27.612 49.2422Z" fill="#EBEBED"/>
<path d="M25.2192 40.6021V37.6791H26.9662V30.3309H25.2192V27.1904H34.5591V30.3309H32.8053V37.6791H34.5591V40.6021H25.2192Z" fill="#EBEBED"/>
<path d="M42.9611 40.6021V37.6792H44.3207V34.6202C44.3207 33.6958 43.6409 33.2607 42.8184 33.2607C42.5706 33.2523 42.3237 33.2946 42.0928 33.385C41.8619 33.4754 41.6519 33.6119 41.4756 33.7863C41.2993 33.9606 41.1605 34.1692 41.0676 34.3991C40.9747 34.629 40.9298 34.8754 40.9355 35.1233V37.6588H42.329V40.5817H35.0352V37.6588H36.3539V33.2471H35.0352V30.3174H40.7995V32.3567C40.8981 32.274 40.987 32.1805 41.0646 32.078C41.5317 31.5249 42.1216 31.0887 42.7873 30.8043C43.453 30.5199 44.1759 30.395 44.8984 30.4397C47.1213 30.4397 48.9294 31.3438 48.9294 33.8385V37.7064H50.1122V40.6293L42.9611 40.6021Z" fill="#EBEBED"/>
<path d="M61.7285 34.6686L57.7859 35.1036C57.7383 34.0092 57.514 32.8536 56.1816 32.8536C54.489 32.8536 54.3531 34.2675 54.3531 35.6202C54.3531 36.9797 54.489 38.3868 56.1816 38.3868C56.3988 38.4074 56.6179 38.3812 56.8241 38.3101C57.0303 38.239 57.219 38.1246 57.3774 37.9746C57.5357 37.8246 57.6602 37.6424 57.7424 37.4404C57.8246 37.2383 57.8626 37.021 57.8538 36.803H61.7828L61.7489 37.1429C61.1031 40.3377 58.2209 40.834 56.1408 40.834C52.8916 40.834 49.6899 39.2365 49.6899 35.5998C49.6899 31.9631 52.8916 30.3657 56.1408 30.3657C56.1408 30.3657 61.2526 30.0326 61.7285 34.6278" fill="#EBEBED"/>
<path d="M64.7805 38.9916C64.7805 39.3213 64.6827 39.6435 64.4994 39.9176C64.3161 40.1916 64.0556 40.405 63.7509 40.5309C63.4462 40.6567 63.1109 40.6893 62.7877 40.6245C62.4645 40.5597 62.1677 40.4004 61.9351 40.1668C61.7024 39.9332 61.5444 39.6358 61.4809 39.3123C61.4174 38.9888 61.4513 38.6537 61.5784 38.3495C61.7055 38.0453 61.9201 37.7857 62.1948 37.6035C62.4696 37.4214 62.7922 37.3248 63.1219 37.3262C63.5624 37.328 63.9843 37.5042 64.2951 37.8164C64.606 38.1285 64.7805 38.5511 64.7805 38.9916Z" fill="#EBEBED"/>
</g>
</svg>
