<svg width="106" height="42" viewBox="0 0 106 42" fill="none" xmlns="http://www.w3.org/2000/svg">
<rect width="105.691" height="42" rx="5.47826" fill="#404979"/>
<path d="M53.8408 16.2255C54.5885 15.5964 55.1464 15.0148 55.1464 14.2195C55.1464 13.27 54.5173 12.7477 53.5678 12.7477C52.6182 12.7477 51.9772 13.3886 51.9772 14.4213V14.5637H50.6597V14.3501C50.6597 12.7714 51.7992 11.6201 53.5678 11.6201C55.4313 11.6201 56.4758 12.6409 56.4758 14.1602C56.4758 15.3946 55.728 16.1661 54.7191 17.0089L52.5114 18.8487H56.5352V20H50.6478V18.9436L53.8408 16.2255ZM57.0684 11.6913H63.0269V12.5696L59.1337 20H57.7212L61.5907 12.8426H57.0684V11.6913ZM63.5362 15.6557C63.5362 13.2462 64.8774 11.6201 66.8122 11.6201C68.7469 11.6201 70.0882 13.2462 70.0882 15.6557V16.0356C70.0882 18.54 68.7469 20.0712 66.8122 20.0712C64.8774 20.0712 63.5362 18.54 63.5362 16.0356V15.6557ZM64.8656 15.9881C64.8656 17.8516 65.6489 18.9199 66.8122 18.9199C67.9754 18.9199 68.7588 17.8516 68.7588 15.9881V15.7032C68.7588 13.8516 67.9754 12.7714 66.8122 12.7714C65.6489 12.7714 64.8656 13.8516 64.8656 15.7032V15.9881ZM71.1313 15.6557C71.1313 13.2462 72.4726 11.6201 74.4073 11.6201C76.342 11.6201 77.6833 13.2462 77.6833 15.6557V16.0356C77.6833 18.54 76.342 20.0712 74.4073 20.0712C72.4726 20.0712 71.1313 18.54 71.1313 16.0356V15.6557ZM72.4607 15.9881C72.4607 17.8516 73.2441 18.9199 74.4073 18.9199C75.5705 18.9199 76.3539 17.8516 76.3539 15.9881V15.7032C76.3539 13.8516 75.5705 12.7714 74.4073 12.7714C73.2441 12.7714 72.4607 13.8516 72.4607 15.7032V15.9881ZM80.2339 11.6913H81.5276V20H80.2101V14.3026C80.0914 14.3738 79.9134 14.4094 79.6879 14.4094H78.3347V13.2818H79.6285C80.0558 13.2818 80.2339 12.9732 80.2339 12.534V11.6913ZM54.7547 32.0712C52.3333 32.0712 50.8259 30.3976 50.8259 27.8457C50.8259 25.3174 52.3808 23.6201 54.8378 23.6201C56.7369 23.6201 58.1019 24.7596 58.3749 26.5163H56.9625C56.6895 25.4717 55.9061 24.8189 54.7785 24.8189C53.1998 24.8189 52.2265 26.0652 52.2265 27.8457C52.2265 29.6142 53.1761 30.8724 54.7429 30.8724C55.8942 30.8724 56.6895 30.2314 56.9506 29.175H58.3631C58.1019 30.9317 56.6895 32.0712 54.7547 32.0712ZM62.3646 32.0712C60.4536 32.0712 59.2548 30.8368 59.2548 28.9733C59.2548 27.0979 60.4536 25.8516 62.2459 25.8516C64.0026 25.8516 65.1777 26.9673 65.2133 28.7477C65.2133 28.902 65.2014 29.0682 65.1777 29.2344H60.596V29.3175C60.6316 30.3501 61.2845 31.0267 62.2934 31.0267C63.0768 31.0267 63.6465 30.635 63.8246 29.9584H65.1065C64.8928 31.1573 63.872 32.0712 62.3646 32.0712ZM60.6435 28.2967H63.8839C63.7771 27.3946 63.148 26.8842 62.2578 26.8842C61.4388 26.8842 60.7385 27.4302 60.6435 28.2967ZM66.3684 25.9228H67.5078L67.6503 26.8367C67.9589 26.3263 68.4455 25.9228 69.4426 25.9228H69.7274V27.1216H69.1577C68.0182 27.1216 67.6503 28.0118 67.6503 28.9495V32H66.3684V25.9228ZM71.2962 30.3501V27.0504H70.2398V25.9228H71.2962V24.2254H72.59V25.9228H74.0736V27.0504H72.59V30.2196C72.59 30.6943 72.7561 30.8724 73.2428 30.8724H74.1449V32H72.9579C71.7947 32 71.2962 31.454 71.2962 30.3501ZM75.079 25.9228H76.361V32H75.079V25.9228ZM74.9485 24.2966C74.9485 23.8456 75.2927 23.5251 75.7319 23.5251C76.171 23.5251 76.5153 23.8456 76.5153 24.2966C76.5153 24.7477 76.171 25.0682 75.7319 25.0682C75.2927 25.0682 74.9485 24.7477 74.9485 24.2966ZM78.1754 32V27.0504H77.119V25.9228H78.1754V25.3174C78.1754 24.2492 78.6977 23.6913 79.8728 23.6913H80.9529V24.8189H80.0508C79.6354 24.8189 79.4692 24.997 79.4692 25.4124V25.9228H82.9826V32H81.7007V27.0504H79.4692V32H78.1754ZM81.5701 24.2966C81.5701 23.8456 81.9143 23.5251 82.3535 23.5251C82.7927 23.5251 83.1369 23.8456 83.1369 24.2966C83.1369 24.7477 82.7927 25.0682 82.3535 25.0682C81.9143 25.0682 81.5701 24.7477 81.5701 24.2966ZM87.242 32.0712C85.331 32.0712 84.1322 30.8368 84.1322 28.9733C84.1322 27.0979 85.331 25.8516 87.1233 25.8516C88.88 25.8516 90.0551 26.9673 90.0907 28.7477C90.0907 28.902 90.0788 29.0682 90.0551 29.2344H85.4734V29.3175C85.5091 30.3501 86.1619 31.0267 87.1708 31.0267C87.9542 31.0267 88.5239 30.635 88.702 29.9584H89.9839C89.7702 31.1573 88.7494 32.0712 87.242 32.0712ZM85.5209 28.2967H88.7613C88.6545 27.3946 88.0254 26.8842 87.1352 26.8842C86.3162 26.8842 85.6159 27.4302 85.5209 28.2967ZM95.863 23.6913H97.1449V32H96.0292L95.8749 31.086C95.4832 31.6202 94.8541 32.0712 93.8927 32.0712C92.2428 32.0712 91.0202 30.908 91.0202 28.9614C91.0202 27.086 92.2428 25.8516 93.8927 25.8516C94.8185 25.8516 95.4713 26.2314 95.863 26.7655V23.6913ZM92.3378 28.9614C92.3378 30.1602 93.0381 30.9911 94.1063 30.9911C95.1746 30.9911 95.8749 30.1602 95.8749 28.9851C95.8749 27.7744 95.1746 26.9436 94.1063 26.9436C93.0381 26.9436 92.3378 27.7744 92.3378 28.9614Z" fill="white"/>
<path d="M42.5373 17.9066C42.1968 17.0084 41.4975 16.2064 40.6463 15.6282C38.1891 14.0605 34.4443 13.9489 31.9125 15.3661C30.5316 16.0735 29.624 17.4733 29.3416 18.9148C28.8293 21.2832 28.9616 24.101 30.7776 25.8762C32.8951 27.7413 35.977 28.1534 38.7175 27.3872C38.8477 27.3621 39.2604 27.2577 39.5449 27.106L39.6251 27.0715C40.4762 26.7161 41.288 26.1374 41.894 25.3538C43.2927 23.2991 43.3885 20.2204 42.5373 17.9066ZM38.0754 23.225C37.9787 23.6741 37.6781 24.1394 37.2039 24.3081C36.449 24.6418 35.4278 24.5493 34.7285 24.159C34.1419 23.7469 34.0664 23.0571 33.991 22.4043C33.9337 21.1174 33.8413 19.7547 34.2 18.5782C34.4812 17.8495 35.2569 17.662 35.9583 17.6071C36.695 17.6071 37.4121 17.72 37.8672 18.317C38.1505 18.7452 38.1331 19.3056 38.1891 19.8101C38.1692 20.8732 38.2642 22.1413 38.0754 23.225ZM15.6717 24.384C15.0474 24.3456 14.3481 24.4006 13.7437 24.326L13.7624 17.7733L13.8006 17.7187L15.6717 17.7004C15.6912 16.6368 15.7099 15.4961 15.6522 14.5267L8.52609 14.5067L7.35261 14.5271C7.33395 15.5157 7.33395 16.6718 7.35261 17.6808C7.99597 17.7008 8.59988 17.6808 9.22415 17.7392V24.0853L9.20591 24.3461L7.33395 24.3844C7.29493 25.4107 7.29493 26.4381 7.33395 27.4644H15.6713L15.6717 24.384ZM36.656 28.8629C35.8629 30.0027 34.8608 31.1038 33.7666 31.9603C33.7267 32.0187 33.6135 31.9965 33.5775 31.9428C33.1033 31.645 32.5931 31.4012 32.1385 31.1038C32.7441 30.3764 33.3306 29.6486 33.7844 28.8428H33.1962C32.7263 29.5361 32.2335 30.2635 31.6101 30.8775C30.7776 30.5422 30.0218 30.2439 29.1711 30.0181L29.0765 29.9469C29.2088 29.5698 29.454 29.2157 29.529 28.842H29.0189L28.5087 29.8506C27.3946 29.6081 26.1651 29.476 25.0306 29.4023C24.9734 29.2349 25.0485 28.992 24.9734 28.842H24.4819C24.4429 29.0665 24.5387 29.2357 24.425 29.4219C23.2528 29.476 22.1188 29.6081 21.0234 29.8344L20.5111 28.842C20.324 28.842 20.1137 28.8062 19.9831 28.862L20.4546 29.9635L20.3982 30.0181C19.5509 30.2644 18.7178 30.5577 17.9029 30.8967L17.8278 30.8584C17.2972 30.2797 16.7866 29.6478 16.3702 29.0129C16.2764 28.6937 15.8982 28.8803 15.6899 28.8428C16.142 29.6652 16.7489 30.3922 17.3528 31.14C16.8426 31.4396 16.3341 31.7736 15.8023 32.0187C14.6459 31.1337 13.6378 30.0686 12.8162 28.8637C12.5889 28.8271 12.4392 28.8437 12.2106 28.8637C13.572 30.9917 15.6899 32.8577 17.902 33.9592C17.902 33.9592 17.902 33.9426 17.9224 33.9426C17.9385 33.9426 17.9762 33.9771 17.9385 33.9967C19.433 34.7249 21.0221 35.2473 22.7032 35.4723C28.5078 36.2368 34.0478 33.7555 37.2599 28.8637C37.0591 28.8429 36.8568 28.8427 36.656 28.8629ZM28.7741 30.5426L28.8297 30.5051C29.6448 30.6917 30.4184 30.9534 31.1372 31.3071C30.5316 31.9961 29.7564 32.5948 29.0388 33.0984C28.6045 33.3588 28.1681 33.6417 27.7139 33.8642L26.9026 33.5096L26.9582 33.3805C27.6401 32.4665 28.2453 31.532 28.7741 30.5426ZM25.0485 29.9823C26.1269 30.0027 27.205 30.1144 28.2054 30.356L28.2254 30.4126C27.6969 31.4195 27.0337 32.3924 26.3165 33.3051C25.9933 33.3435 25.6922 33.2143 25.3712 33.1943L25.048 33.156C25.0111 32.0545 24.9912 31.0838 25.0485 29.9823ZM21.4012 30.318C22.3843 30.1314 23.4047 29.9823 24.4628 29.9823L24.4823 33.1402C24.0845 33.2305 23.6498 33.2305 23.2715 33.3264C22.4962 32.4094 21.8542 31.4195 21.3067 30.3922L21.4012 30.318ZM18.3558 31.3271C19.095 30.9713 19.869 30.7084 20.662 30.5047L20.7388 30.5243C21.2855 31.5512 21.967 32.5211 22.6472 33.4917C22.3847 33.6422 22.0615 33.7321 21.7978 33.8838C20.5193 33.2492 19.3559 32.4034 18.3562 31.3816L18.3558 31.3271ZM20.7956 34.5187C19.2074 34.1066 17.7315 33.3976 16.3706 32.4286V32.3706C16.8244 32.0932 17.2799 31.7937 17.7697 31.5862C18.8482 32.6531 19.9627 33.4559 21.1726 34.2195C21.0785 34.3316 20.9275 34.4441 20.7956 34.5187ZM27.8089 34.7599C25.8055 35.1919 23.5735 35.2085 21.5704 34.7241C21.5323 34.6312 21.665 34.6111 21.7214 34.5566C23.4797 33.4167 26.2198 33.4167 27.9421 34.6474C27.9981 34.7599 27.8471 34.7241 27.8089 34.7599ZM29.6245 34.2391L28.736 34.5182C28.5842 34.4437 28.4527 34.3316 28.3191 34.2191L28.3573 34.162C29.5676 33.4555 30.6635 32.5943 31.7038 31.5678C32.2144 31.7728 32.7064 32.0545 33.1614 32.3702C32.1016 33.2143 30.8722 33.7717 29.6245 34.2391ZM12.7793 13.0886C13.247 12.4383 13.7585 11.8211 14.3103 11.2414C14.8002 10.7748 15.2556 10.3269 15.7858 9.98944C16.2777 10.3065 16.8252 10.5707 17.2977 10.8681C16.712 11.5925 16.1068 12.3237 15.6721 13.1056C15.8036 13.164 16.0504 13.1457 16.24 13.1056C16.712 12.4162 17.2209 11.7258 17.8282 11.1093C18.6391 11.4088 19.4343 11.725 20.2672 11.95L20.3406 12.0241L19.8698 13.1056C20.0785 13.1457 20.2108 13.1261 20.4173 13.1056C20.587 12.7903 20.7184 12.4366 20.9076 12.1174C22.0056 12.3612 23.1591 12.4911 24.3313 12.5274C24.4814 12.6599 24.3686 12.9386 24.4255 13.1056H24.9356C24.9912 12.9224 24.9166 12.7144 24.9912 12.5482C26.0888 12.4903 27.2415 12.3782 28.3038 12.1166L28.3959 12.1362L28.9065 13.1048C29.077 13.1048 29.3034 13.1448 29.4357 13.0664L28.962 11.9866L29.0015 11.9491C29.8696 11.725 30.6839 11.3892 31.5155 11.0539C32.1033 11.6696 32.65 12.3974 33.1432 13.1043C33.3501 13.1043 33.5584 13.1248 33.7098 13.066C33.4763 12.6492 33.2039 12.2557 32.8964 11.8908C32.6467 11.5333 32.3681 11.1971 32.0634 10.8856V10.7888L33.387 10.0248L33.5779 9.95023C34.7289 10.8256 35.7363 11.877 36.5631 13.066C36.79 13.066 36.9796 13.1444 37.1691 13.0502C34.633 9.24544 30.4557 6.79742 25.9395 6.44502L25.9196 6.48124L25.881 6.44502C25.3712 6.39005 24.7448 6.36832 24.1973 6.42329C23.9899 6.4071 23.7448 6.42329 23.4984 6.44502C18.9618 6.79742 14.7841 9.13209 12.1737 13.1065C12.3629 13.0886 12.5898 13.1644 12.7793 13.0886ZM20.6264 11.4484L20.5509 11.4646C19.7748 11.2614 19.0178 11.0164 18.2994 10.7002L18.3359 10.5881C19.3757 9.59911 20.472 8.77714 21.682 8.14394C21.967 8.256 22.2503 8.34847 22.5336 8.48099L22.478 8.62672C21.7583 9.52497 21.1926 10.4935 20.6264 11.4484ZM24.3873 11.9508C23.8593 12.0254 23.3864 11.9342 22.855 11.8929C22.347 11.8179 21.7028 11.7638 21.1926 11.5933C21.7409 10.5715 22.3847 9.58037 23.1591 8.66806L24.3695 8.83381C24.4255 9.8028 24.3873 10.9235 24.3873 11.9508ZM24.973 11.9709C24.9356 10.9784 24.9552 9.87865 24.973 8.85171C25.3525 8.79717 25.7665 8.73922 26.1456 8.68425C26.8827 9.61616 27.6028 10.5715 28.0947 11.5933C27.0725 11.8418 26.0247 11.9685 24.973 11.9709ZM31.0057 10.6623C30.267 10.978 29.51 11.2772 28.6982 11.4484C28.1126 10.459 27.4701 9.47 26.7495 8.51423C27.0146 8.36807 27.3377 8.256 27.6206 8.10729C28.8518 8.7226 30.0413 9.59912 31.0422 10.6039L31.0057 10.6623ZM28.5842 7.47068C30.1724 7.8823 31.6661 8.5905 33.0274 9.56119L32.9897 9.63576L31.6864 10.3627H31.5901C30.5897 9.35836 29.4179 8.48099 28.2254 7.78856C28.2631 7.65774 28.4531 7.56357 28.5842 7.47068ZM27.8288 7.28319V7.32282C26.1829 8.51423 23.5179 8.62672 21.7795 7.52522C21.682 7.45065 21.4954 7.41443 21.475 7.28361C23.4802 6.81915 25.8419 6.78165 27.8288 7.28319ZM16.2955 9.59911C17.4877 8.7226 18.8104 8.06937 20.2099 7.6211C20.2672 7.56272 20.3037 7.50775 20.3783 7.50775V7.5461C20.5293 7.58274 20.6434 7.41358 20.7753 7.52437C20.8893 7.6211 21.0229 7.69481 21.1162 7.78771C19.9449 8.51423 18.7909 9.37455 17.7319 10.4177C17.2213 10.2345 16.7506 9.95279 16.2951 9.63576L16.2955 9.59911ZM24.4068 24.5297C22.6298 25.0159 20.7002 24.6452 19.4152 23.2991C19.2646 23.1125 19.1692 22.89 19.0174 22.7042L16.466 22.7221C16.4257 24.2336 16.4079 25.97 16.466 27.4639L19.3007 27.4456L19.3384 26.5491C19.6612 26.6982 19.9831 26.8844 20.3037 27.0519C22.2698 27.8743 24.8008 28.0609 26.7487 27.0519C28.1677 26.27 28.9243 24.7585 28.7156 23.1312C28.5087 21.5465 26.9955 20.1084 25.4653 19.7176L20.8889 18.3911L20.5505 18.2224C20.3991 18.0928 20.3041 17.9258 20.341 17.7187C20.7002 17.1043 21.5331 17.2909 22.157 17.3075C23.4802 17.4946 24.8411 17.9424 25.6167 19.1564C26.4476 19.1564 27.4115 19.1726 28.3182 19.1368C28.3568 17.6066 28.3034 16.2635 28.2809 14.7138C27.4302 14.6942 26.3899 14.6942 25.5404 14.7334C25.5022 14.9554 25.5769 15.2715 25.4823 15.4965L24.6133 15.0295C22.5327 14.1526 19.6209 14.061 17.7311 15.4237C16.5016 16.3181 16.1246 17.925 16.4461 19.3431C16.6908 20.6849 17.9762 21.6752 19.2057 22.1405C20.8881 22.7371 22.6455 23.1691 24.35 23.7469C24.5188 23.8228 24.7452 23.992 24.7088 24.1969C24.7096 24.3627 24.5383 24.4586 24.4068 24.5297Z" fill="white"/>
</svg>
