<svg width="186" height="80" viewBox="0 0 186 80" fill="none" xmlns="http://www.w3.org/2000/svg">
<path fill-rule="evenodd" clip-rule="evenodd" d="M42.4071 54H37.4659V40.336L30.054 47.6626L22.6421 40.336V54H17.7008V31H20.3278L30.1165 40.676L39.7802 31H42.4071V54ZM12.7597 41.3309H0L12.7597 53.9436V41.3309ZM48.912 53.9323H71.4877V49.3333H53.8724V44.1042H64.8104V39.5051H53.8724V35.725H70.5338V31H48.912V53.9323ZM96.4658 53.9325H101.989L95.8943 44.3451C97.3546 43.8437 98.4974 43.0291 99.3865 41.8386C100.212 40.648 100.656 39.3321 100.656 37.8282C100.656 35.6351 99.8943 33.9431 98.3705 32.7525C96.9737 31.6873 95.196 31.1234 92.9102 31.1234H77.4182V53.9325H82.3071V44.5957H90.3706L96.4658 53.9325ZM95.0054 36.3243C95.4499 36.7003 95.6404 37.2016 95.6404 37.8282C95.6404 38.3922 95.4499 38.8935 95.0054 39.4575C94.561 39.8335 93.8626 40.0213 92.8468 40.0213H82.3071V35.8231H92.8468C93.7991 35.8231 94.561 36.0109 95.0054 36.3243ZM125.718 53.9325H131.503L120.695 39.5201L130.74 31.1234H123.874L113.637 39.6453V31.1234H108.678V53.9325H113.637V45.473L117.134 42.5279L125.718 53.9325ZM137.251 53.9323H158.08V49.3333H142.204V31H137.251V53.9323ZM163.424 53.9323H186V49.3333H168.321V44.1042H179.259V39.5051H168.321V35.725H185.045V31H163.424V53.9323Z" fill="black"/>
</svg>
