<svg width="152" height="80" viewBox="0 0 152 80" fill="none" xmlns="http://www.w3.org/2000/svg">
<g opacity="0.85">
<g clip-path="url(#clip0_16181_6131)">
<path d="M84.2041 41.5306C85.5032 41.5306 86.4904 41.2676 86.4904 38.7899V28.1386L84.5892 28.0421V27.2314L90.4146 27.3279L94.1462 37.4558H94.1706L97.9509 27.3279L103.706 27.2314V28.0421L101.756 28.1386V41.4341L103.706 41.5306V42.3412C102.743 42.3412 100.937 42.2447 99.974 42.2447C99.0112 42.2447 97.3002 42.3412 96.3374 42.3412V41.5306L98.2629 41.4341V29.1856H98.2142L93.4735 42.293H92.2938L87.5019 29.1856H87.4531V38.7899C87.4531 41.2676 88.394 41.5306 89.9319 41.5306V42.3412C88.7303 42.3412 88.0332 42.2447 87.068 42.2447C86.1028 42.2447 85.4057 42.3412 84.2041 42.3412V41.5306Z" fill="black"/>
<path d="M104.113 36.952C104.113 32.9013 106.882 31.0171 109.965 31.0171C113.048 31.0171 115.839 32.6624 115.839 36.7131C115.839 40.7638 113.143 42.648 109.965 42.648C106.787 42.648 104.113 41.0267 104.113 36.952ZM112.324 36.8337C112.324 33.5913 111.674 31.8301 109.965 31.8301C108.256 31.8301 107.63 33.5937 107.63 36.8337C107.63 40.0738 108.305 41.8374 109.965 41.8374C111.625 41.8374 112.324 40.0979 112.324 36.8337Z" fill="black"/>
<path d="M117.885 33.5457C117.885 32.2357 117.478 32.2357 116.25 32.2357V31.4251L121.064 31.1862V37.7387C121.064 40.0282 121.113 41.1935 122.604 41.1935C123.784 41.1935 125.276 39.8111 125.276 37.4758V33.5433C125.276 32.2333 124.722 32.2333 123.662 32.2333V31.4227L128.454 31.1838V41.3841L130.092 41.4323V42.2405L125.468 42.4794L125.397 40.3587H125.373C124.603 41.6446 123.255 42.5976 121.351 42.5976C118.824 42.5976 117.883 41.3117 117.883 38.5952V33.5433L117.885 33.5457Z" fill="black"/>
<path d="M137.002 41.53V42.3406C135.847 42.3406 135.22 42.2441 133.824 42.2441C132.427 42.2441 131.779 42.3406 130.599 42.3406V41.53L132.235 41.4118V33.5011C132.235 32.2369 131.825 32.2369 130.599 32.2369V31.4263L135.22 31.1899L135.269 33.2622H135.294C136.112 31.9522 137.412 30.9993 139.315 30.9993C141.336 30.9993 142.781 32.2152 142.781 35.2188V41.4142L144.443 41.5324V42.3431C143.264 42.3431 142.613 42.2466 141.216 42.2466C139.82 42.2466 139.218 42.3431 138.038 42.3431V41.5324L139.627 41.4142V35.9088C139.627 33.3346 139.337 32.4058 138.062 32.4058C136.883 32.4058 135.413 33.7882 135.413 36.1235V41.4142L137.002 41.5324V41.53Z" fill="black"/>
<path d="M148.846 39.1685C148.8 40.6474 148.846 41.4556 149.833 41.4556C150.726 41.4556 151.23 40.1939 151.23 40.1939L152 40.4785C152 40.4785 151.496 42.6715 148.966 42.6715C146.004 42.6715 145.692 41.0744 145.692 39.2168V32.3531H143.886V31.4242H145.692V27.4435C147.498 27.4435 148.846 26.99 148.846 26.99V31.4218H151.542V32.3507H148.846V39.1661V39.1685Z" fill="black"/>
<path d="M86.1553 57.972C86.3478 59.0456 87.9126 63.0962 91.0642 63.0962C93.0385 63.0962 93.833 62.0009 93.833 60.7609C93.833 56.3532 85.5265 58.8067 85.5265 52.7778C85.5265 49.2289 88.4879 48.0588 90.6766 48.0588C92.6753 48.0588 93.7112 48.7006 94.0963 48.7006C94.5058 48.7006 94.6252 48.1771 94.6252 48.1771H95.4198C95.4198 48.9635 95.371 49.5353 95.371 50.2977C95.371 51.4171 95.4198 52.0613 95.4198 52.8236H94.6252C94.4326 51.7766 93.0604 48.8695 90.4841 48.8695C89.0387 48.8695 88.0516 49.75 88.0516 50.9901C88.0516 55.0407 96.5995 52.7054 96.5995 59.0914C96.5995 62.5944 93.9281 64.0009 90.9886 64.0009C88.4367 64.0009 87.1132 63.1421 86.6793 63.1421C86.1748 63.1421 86.0773 63.7138 86.0773 63.7138H85.2827C85.2827 62.5703 85.3534 61.8803 85.3534 60.7368C85.3534 59.5932 85.2827 58.9491 85.2827 57.972H86.1504H86.1553Z" fill="black"/>
<path d="M100.745 46.6741C101.732 46.6741 102.67 47.3158 102.67 48.4859C102.67 49.656 101.732 50.2977 100.745 50.2977C99.7577 50.2977 98.7949 49.656 98.7949 48.4859C98.7949 47.3158 99.7333 46.6741 100.745 46.6741Z" fill="black"/>
<path d="M103.948 62.7127V63.5209C102.791 63.5209 102.118 63.4244 100.721 63.4244C99.3246 63.4244 98.6763 63.5209 97.4941 63.5209V62.7127L99.1296 62.5921V54.7296C99.1296 53.4196 98.6958 53.4196 97.4941 53.4196V52.609L102.308 52.3701V62.5945L103.946 62.7151L103.948 62.7127Z" fill="black"/>
<path d="M110.856 62.7126V63.5233C109.698 63.5233 109.074 63.4268 107.675 63.4268C106.276 63.4268 105.63 63.5233 104.451 63.5233V62.7126L106.086 62.5944V54.6813C106.086 53.4195 105.677 53.4195 104.451 53.4195V52.6089L109.074 52.3725L109.123 54.4449H109.148C109.966 53.1324 111.266 52.1819 113.169 52.1819C115.192 52.1819 116.638 53.3978 116.638 56.4014V62.5968L118.297 62.7151V63.5257C117.118 63.5257 116.467 63.4292 115.073 63.4292C113.679 63.4292 113.074 63.5257 111.894 63.5257V62.7151L113.484 62.5968V57.0914C113.484 54.5172 113.194 53.5884 111.919 53.5884C110.739 53.5884 109.269 54.9708 109.269 57.3061V62.5968L110.859 62.7151L110.856 62.7126Z" fill="black"/>
<path d="M131.129 61.6885C131.129 61.6885 130.791 63.8574 128.312 63.8574C127.132 63.8574 126.145 63.3821 125.735 62.1879H125.687C125.158 63.1891 124.146 63.9514 122.389 63.9514C120.632 63.9514 118.706 63.1891 118.706 60.6849C118.706 57.5871 122.389 57.3025 125.662 57.3242V56.1565C125.733 54.2506 125.565 52.9864 124 52.9864C122.796 52.9864 122.267 53.5823 122.145 53.8212C122.145 53.8212 122.677 54.1083 122.677 54.9189C122.677 55.7295 122.05 56.3471 121.063 56.3471C120.076 56.3471 119.449 55.7753 119.449 54.8224C119.449 53.1312 121.641 52.1782 124.241 52.1782C128.453 52.1782 128.814 54.5353 128.768 56.7765L128.648 61.2808C128.624 62.019 128.863 62.5208 129.392 62.5208C130.091 62.5208 130.332 61.4955 130.332 61.4955L131.127 61.6861L131.129 61.6885ZM125.616 58.1372C122.63 58.089 121.958 58.8754 121.958 60.376C121.958 61.7826 122.511 62.4967 123.522 62.4967C124.461 62.4967 125.521 61.6885 125.567 59.9732L125.616 58.1372Z" fill="black"/>
<path d="M134.403 46.6741C135.39 46.6741 136.328 47.3158 136.328 48.4859C136.328 49.656 135.39 50.2977 134.403 50.2977C133.415 50.2977 132.453 49.656 132.453 48.4859C132.453 47.3158 133.391 46.6741 134.403 46.6741Z" fill="black"/>
<path d="M137.604 62.7127V63.5209C136.448 63.5209 135.773 63.4244 134.379 63.4244C132.985 63.4244 132.334 63.5209 131.152 63.5209V62.7127L132.787 62.5921V54.7296C132.787 53.4196 132.353 53.4196 131.152 53.4196V52.609L135.966 52.3701V62.5945L137.601 62.7151L137.604 62.7127Z" fill="black"/>
<path d="M27.716 63.725H21.6104L50.408 20.6514L53.6497 25.2955L27.716 63.725Z" fill="black"/>
<path d="M38.5241 63.7244H32.4185L55.7735 28.3396L59.0127 32.9862L38.5241 63.7244Z" fill="#29292B"/>
<path d="M46.4865 15.0277C46.2769 14.7286 45.9186 14 45.1216 14C44.3245 14 43.9638 14.7479 43.7566 15.0277L10.8057 63.725H16.9137L48.3511 17.6984L46.4889 15.0302L46.4865 15.0277Z" fill="black"/>
<path d="M30.828 22.195C30.6184 21.8959 30.2601 21.1697 29.4606 21.1697C28.6612 21.1697 28.3029 21.9152 28.0957 22.195L0 63.7246H6.10564L32.6536 24.9164L30.828 22.195Z" fill="black"/>
<path d="M30.8215 22.1987C30.6119 21.8995 30.2536 21.1733 29.4566 21.1733C28.6596 21.1733 28.2989 21.9212 28.0892 22.1987L26.2441 24.9345L52.736 63.7234H58.8441L30.8215 22.1987Z" fill="#919191"/>
<path d="M46.4817 15.0314C46.2721 14.7323 45.9114 14.0037 45.1168 14.0037C44.3222 14.0037 43.959 14.7516 43.7494 15.0314L41.9043 17.7672L74.3312 63.7262H80.4369L46.4817 15.0314Z" fill="#919191"/>
<path d="M53.6457 25.3026L50.4064 20.6584L47.2622 25.3581L50.5064 29.9564L53.6457 25.3026Z" fill="#919191"/>
<path d="M59.0081 32.9957L55.7688 28.3467L52.6758 33.0318L55.9199 37.6277L59.0081 32.9957Z" fill="#919191"/>
<path d="M63.5325 63.7237H69.6406L40.0118 20.5874L36.8115 25.2895L63.5325 63.7237Z" fill="#919191"/>
<path d="M46.4822 15.0314C46.2726 14.7323 45.9118 14.0037 45.1173 14.0037C45.0149 14.0037 44.9223 14.0157 44.8321 14.0374C44.2203 14.187 43.9376 14.7853 43.7548 15.0314L42.0851 17.497L41.9023 17.7672L45.1538 22.3752L48.3443 17.7069L46.4797 15.0338L46.4822 15.0314Z" fill="#919191"/>
<path d="M40.0118 20.5874L36.8115 25.2895L40.0142 29.8974L43.2023 25.2316L40.0118 20.5874Z" fill="#919191"/>
<path d="M45.358 37.5829L48.4949 32.9364L45.3019 28.2898L42.1626 32.9846L45.358 37.5829Z" fill="#919191"/>
<path d="M50.7662 45.3595L53.8495 40.7347L50.659 36.0881L47.5708 40.7661L50.7662 45.3595Z" fill="#919191"/>
<path d="M30.823 22.1987C30.6134 21.8995 30.2551 21.1733 29.4581 21.1733C29.3557 21.1733 29.2631 21.1854 29.1729 21.2047C28.5611 21.3543 28.2808 21.9526 28.0956 22.1963L26.2432 24.9345L29.441 29.6172L32.6535 24.9176L32.6291 24.8814L30.8206 22.1987H30.823Z" fill="#919191"/>
<path d="M38.0042 32.8455L34.8551 28.1797L31.6743 32.8841L34.8234 37.4993L38.0042 32.8455Z" fill="#919191"/>
<path d="M43.2816 40.6638L40.1399 36.01L37.0103 40.6952L40.152 45.3007L43.2816 40.6638Z" fill="#919191"/>
<path d="M48.6206 48.5779L45.4837 43.929L42.4004 48.5948L45.5422 53.1931L48.6206 48.5779Z" fill="#919191"/>
</g>
</g>
<defs>
<clipPath id="clip0_16181_6131">
<rect width="152" height="50" fill="white" transform="translate(0 14)"/>
</clipPath>
</defs>
</svg>
