<svg width="186" height="80" viewBox="0 0 186 80" fill="none" xmlns="http://www.w3.org/2000/svg">
<g opacity="0.85">
<path d="M63.1222 26.5991C62.7867 26.5991 62.5018 26.8414 62.4493 27.1714L58.5662 51.6749C58.5521 51.7644 58.5576 51.8559 58.5825 51.9431C58.6073 52.0302 58.6508 52.111 58.7099 52.1799C58.7691 52.2487 58.8426 52.304 58.9253 52.3419C59.008 52.3798 59.098 52.3995 59.189 52.3995H63.7941C64.1291 52.3995 64.4145 52.1567 64.4669 51.8272L65.6076 44.6315C65.6596 44.3021 65.945 44.0592 66.2805 44.0592H70.4673C75.3592 44.0592 79.5119 40.5076 80.2704 35.6951C81.0352 30.8418 77.2247 26.6097 71.8241 26.5991H63.1222ZM67.5988 32.0692H70.9486C73.7064 32.0692 74.6045 33.6884 74.3206 35.4791C74.0366 37.2736 72.6418 38.5954 69.974 38.5954H66.5644L67.5988 32.0692ZM89.6364 33.7349C88.4736 33.7392 87.1356 33.9763 85.6335 34.5988C82.1879 36.0279 80.5332 38.9814 79.8305 41.1345C79.8305 41.1345 77.5939 47.7038 82.647 51.3128C82.647 51.3128 87.3334 54.7873 92.6089 51.0988L92.518 51.6749C92.5039 51.7643 92.5094 51.8557 92.5342 51.9428C92.5589 52.0299 92.6023 52.1107 92.6614 52.1795C92.7205 52.2483 92.7938 52.3036 92.8764 52.3416C92.959 52.3796 93.0488 52.3993 93.1398 52.3995H97.5114C97.8469 52.3995 98.1318 52.1567 98.1843 51.8272L100.843 35.0471C100.858 34.9576 100.852 34.8661 100.828 34.7789C100.803 34.6916 100.76 34.6108 100.7 34.5418C100.641 34.4729 100.568 34.4175 100.485 34.3795C100.403 34.3414 100.313 34.3217 100.222 34.3216H95.85C95.5145 34.3216 95.2291 34.5644 95.1772 34.8939L95.0342 35.7971C95.0342 35.7971 93.1254 33.722 89.6364 33.7349ZM89.7794 39.035C90.2814 39.035 90.7405 39.104 91.1525 39.2357C93.0387 39.8381 94.1082 41.6412 93.7987 43.5957C93.417 46.0022 91.4336 47.7742 88.89 47.7742C88.3884 47.7742 87.9293 47.7057 87.5168 47.574C85.6311 46.9715 84.5549 45.1684 84.8644 43.214C85.246 40.8074 87.2357 39.035 89.7794 39.035Z" fill="black"/>
<path d="M126.076 26.5991C125.74 26.5991 125.455 26.8414 125.403 27.1714L121.52 51.6749C121.506 51.7644 121.511 51.8559 121.536 51.9431C121.561 52.0302 121.604 52.111 121.664 52.1799C121.723 52.2487 121.796 52.304 121.879 52.3419C121.962 52.3798 122.052 52.3995 122.143 52.3995H126.748C127.083 52.3995 127.368 52.1567 127.421 51.8272L128.561 44.6315C128.613 44.3021 128.899 44.0592 129.234 44.0592H133.421C138.313 44.0592 142.465 40.5076 143.223 35.6951C143.988 30.8418 140.178 26.6097 134.778 26.5991H126.076ZM130.552 32.0692H133.902C136.66 32.0692 137.558 33.6884 137.274 35.4791C136.99 37.2736 135.596 38.5954 132.928 38.5954H129.518L130.552 32.0692ZM152.59 33.7349C151.427 33.7392 150.089 33.9763 148.587 34.5988C145.141 36.0279 143.486 38.9814 142.784 41.1345C142.784 41.1345 140.548 47.7038 145.601 51.3128C145.601 51.3128 150.287 54.7873 155.563 51.0988L155.472 51.6749C155.457 51.7644 155.463 51.8559 155.488 51.9431C155.513 52.0302 155.556 52.111 155.615 52.1799C155.675 52.2487 155.748 52.304 155.831 52.3419C155.913 52.3798 156.003 52.3995 156.094 52.3995H160.466C160.801 52.3995 161.086 52.1567 161.138 51.8272L163.799 35.0471C163.813 34.9575 163.807 34.8659 163.783 34.7786C163.758 34.6913 163.714 34.6104 163.655 34.5415C163.596 34.4725 163.523 34.4171 163.44 34.3792C163.357 34.3412 163.267 34.3215 163.176 34.3216H158.804C158.469 34.3216 158.183 34.5644 158.131 34.8939L157.988 35.7971C157.988 35.7971 156.079 33.722 152.59 33.7349ZM152.733 39.035C153.235 39.035 153.694 39.104 154.106 39.2357C155.992 39.8381 157.061 41.6412 156.752 43.5957C156.37 46.0022 154.387 47.7742 151.843 47.7742C151.342 47.7742 150.882 47.7057 150.47 47.574C148.584 46.9715 147.508 45.1684 147.818 43.214C148.199 40.8074 150.189 39.035 152.733 39.035Z" fill="black"/>
<path d="M102.918 34.3213C102.571 34.3213 102.325 34.658 102.431 34.986L107.223 49.7848L102.89 56.7587C102.679 57.0973 102.924 57.5346 103.324 57.5346H108.446C108.592 57.5344 108.736 57.4967 108.864 57.4251C108.991 57.3534 109.098 57.2503 109.174 57.1256L122.559 35.0923C122.765 34.7537 122.519 34.3208 122.122 34.3208H117C116.853 34.3209 116.707 34.3594 116.579 34.4323C116.45 34.5053 116.343 34.6103 116.268 34.737L110.999 43.5882L108.325 34.8026C108.237 34.5167 107.972 34.3208 107.672 34.3208L102.918 34.3213Z" fill="black"/>
<path d="M168.765 26.5991C168.43 26.5991 168.145 26.8419 168.093 27.1714L164.208 51.6739C164.194 51.7635 164.2 51.8551 164.224 51.9424C164.249 52.0297 164.293 52.1106 164.352 52.1796C164.411 52.2485 164.484 52.3039 164.567 52.3419C164.65 52.3798 164.74 52.3995 164.831 52.3995H169.436C169.771 52.3995 170.057 52.1567 170.109 51.8272L173.992 27.3237C174.006 27.2343 174.001 27.1429 173.976 27.0558C173.951 26.9687 173.908 26.8879 173.849 26.8191C173.79 26.7502 173.716 26.6949 173.634 26.657C173.551 26.619 173.461 26.5993 173.37 26.5991H168.765Z" fill="black"/>
<path opacity="0.8" d="M24.7313 26.5991C24.4346 26.5994 24.1478 26.7049 23.9223 26.8967C23.6968 27.0885 23.5475 27.354 23.5011 27.6455L21.457 40.5455C21.5523 39.943 22.074 39.4991 22.6872 39.4991H28.677C34.7052 39.4991 39.8205 35.1233 40.7552 29.1934C40.8247 28.7507 40.8641 28.3038 40.8731 27.8558C39.3411 27.0565 37.5415 26.5991 35.5696 26.5991H24.7313Z" fill="black"/>
<path opacity="0.5" d="M40.8721 27.856C40.8631 28.304 40.8237 28.7508 40.7541 29.1936C39.8195 35.1234 34.7037 39.4992 28.676 39.4992H22.6862C22.0735 39.4992 21.5513 39.9427 21.456 40.5457L19.5765 52.3996L18.3993 59.8362C18.3763 59.9799 18.3849 60.1268 18.4245 60.2668C18.4642 60.4068 18.5339 60.5367 18.6288 60.6473C18.7238 60.7579 18.8417 60.8468 18.9745 60.9076C19.1073 60.9685 19.2518 61 19.398 60.9999H25.8994C26.196 60.9997 26.4828 60.8942 26.7083 60.7024C26.9338 60.5106 27.0832 60.245 27.1295 59.9535L28.842 49.1459C28.8884 48.8542 29.0379 48.5886 29.2636 48.3967C29.4893 48.2049 29.7764 48.0995 30.0732 48.0995H33.9009C39.9292 48.0995 45.0444 43.7237 45.9791 37.7938C46.6428 33.5852 44.5126 29.7553 40.8721 27.856Z" fill="black"/>
<path d="M17.3445 18C16.7318 18 16.2096 18.4435 16.1143 19.0455L11.0126 51.2359C10.9158 51.847 11.3904 52.3997 12.0122 52.3997H19.5778L21.4563 40.5457L23.5003 27.6457C23.5467 27.3542 23.6961 27.0887 23.9216 26.8969C24.1471 26.7051 24.4339 26.5996 24.7305 26.5993H35.5689C37.5413 26.5993 39.3404 27.0572 40.8723 27.856C40.9773 22.4572 36.5002 18 30.3449 18H17.3445Z" fill="black"/>
</g>
</svg>
