<svg width="193" height="80" viewBox="0 0 193 80" fill="none" xmlns="http://www.w3.org/2000/svg">
<g opacity="0.85">
<path d="M73.7039 27.1411H68.9436C68.7185 27.1087 68.4933 27.2059 68.3325 27.3679C68.1717 27.4975 68.0752 27.6919 68.0752 27.8862V44.8942C68.0752 45.1209 68.2039 45.3477 68.429 45.4449C68.8793 45.7365 69.4582 45.7365 69.9085 45.4449C70.1337 45.3477 70.2623 45.1209 70.2623 44.8942V38.3178H73.5431C74.9583 38.3826 76.3735 37.8966 77.4671 36.9895C78.5285 35.8881 79.0753 34.3654 78.9466 32.8104V32.5837C79.0753 31.0934 78.5928 29.5708 77.5635 28.4694C76.5021 27.4975 75.1191 27.0439 73.7039 27.1411ZM76.9846 32.9724C77.0489 33.9443 76.7273 34.9162 76.1162 35.6613C75.4407 36.3416 74.508 36.6656 73.5752 36.6332H70.2945V29.0525H73.5752C74.4758 28.9877 75.3764 29.344 76.0518 29.9596C76.6951 30.7047 77.0168 31.6766 76.9203 32.6485L76.9846 32.9724ZM87.9203 28.3722C86.8589 29.4736 86.3121 31.0286 86.4408 32.5837V40.2291C86.3121 41.7841 86.8589 43.3068 87.9203 44.4406C90.2683 46.2224 93.4847 46.2224 95.8327 44.4406C96.9262 43.3392 97.473 41.7841 97.3122 40.2291V32.6485C97.473 31.061 96.9262 29.506 95.8327 28.3722C93.4847 26.5904 90.2361 26.5904 87.9203 28.3722ZM95.1894 40.2291C95.2859 41.2334 94.9642 42.2053 94.3209 42.9504C93.6777 43.5983 92.7771 43.9223 91.8765 43.8575C89.6572 43.8575 88.5958 42.6264 88.5958 40.2291V32.6485C88.5958 30.2511 89.6893 29.0201 91.8765 29.0201C92.7771 28.9553 93.6777 29.2793 94.3209 29.9272C94.9642 30.6723 95.2859 31.6442 95.1894 32.6161V40.2291ZM112.783 35.6937C111.947 35.3373 111.143 34.981 110.339 34.6894C109.567 34.4302 108.859 34.0415 108.248 33.5231C107.701 33.0696 107.379 32.3245 107.444 31.6118C107.379 30.8019 107.733 30.0568 108.409 29.6032C109.149 29.1497 110.017 28.9553 110.853 28.9877C111.657 28.9553 112.461 29.1173 113.201 29.4736C113.555 29.6356 113.941 29.7976 114.327 29.9272C114.616 29.9272 114.842 29.7652 114.97 29.506C115.099 29.2793 115.227 29.0201 115.227 28.7285C115.227 28.2102 114.745 27.789 113.78 27.4651C112.815 27.1735 111.818 27.0115 110.789 27.0115C110.146 27.0115 109.502 27.0763 108.859 27.2383C108.248 27.4003 107.637 27.6271 107.09 27.951C106.511 28.3074 106.061 28.8257 105.739 29.4412C105.385 30.154 105.225 30.9639 105.225 31.7738C105.192 32.778 105.482 33.7499 106.061 34.5598C106.608 35.2725 107.315 35.8233 108.151 36.212C108.988 36.5684 109.792 36.8923 110.596 37.1839C111.368 37.4755 112.075 37.929 112.687 38.5121C113.265 39.1277 113.555 39.9376 113.523 40.7799C113.587 41.6546 113.233 42.5293 112.59 43.1448C111.85 43.7279 110.95 43.9871 110.017 43.9547C109.374 43.9871 108.763 43.8575 108.184 43.6307C107.733 43.5011 107.347 43.242 106.994 42.918L106.189 42.1405C106.029 41.9785 105.836 41.8489 105.61 41.8165C105.353 41.8489 105.128 41.9785 104.999 42.1729C104.839 42.3997 104.71 42.6588 104.71 42.9828C104.71 43.5983 105.225 44.2138 106.35 44.8294C107.508 45.5097 108.827 45.8336 110.146 45.8013C111.593 45.866 113.04 45.3801 114.166 44.473C115.227 43.4363 115.774 41.9785 115.678 40.5207C115.806 38.5121 114.649 36.5684 112.783 35.6937ZM133.014 27.1411H122.754C122.529 27.1411 122.336 27.2383 122.207 27.4327C121.918 27.8538 121.918 28.4046 122.207 28.7933C122.336 28.9553 122.529 29.0849 122.754 29.0849H126.839V44.8942C126.839 45.1209 126.967 45.3477 127.16 45.4449C127.611 45.7365 128.19 45.7365 128.64 45.4449C128.865 45.3477 128.961 45.1209 128.961 44.8942V29.0849H132.982C133.207 29.1173 133.432 28.9877 133.529 28.7933C133.657 28.5989 133.754 28.3398 133.722 28.113C133.722 27.8862 133.657 27.6595 133.529 27.4651C133.432 27.2383 133.239 27.1411 133.014 27.1411ZM153.374 27.1411C152.731 27.1411 152.184 27.5947 151.734 28.5018L147.745 36.1472L143.789 28.5018C143.339 27.5947 142.76 27.1411 142.149 27.1411H141.698C141.216 27.2383 140.862 27.6919 140.926 28.2102V44.8618C140.926 45.1209 141.055 45.3477 141.28 45.4449C141.505 45.5745 141.763 45.6717 142.052 45.6393C142.31 45.6393 142.535 45.5421 142.76 45.4125C142.985 45.3153 143.081 45.0885 143.081 44.8618V31.4498L146.909 38.7713C147.005 39.1277 147.327 39.3868 147.681 39.3868C148.067 39.3544 148.388 39.1277 148.517 38.7713L152.345 31.5794V44.8294C152.345 45.0561 152.473 45.2829 152.666 45.3801C153.117 45.6393 153.696 45.6393 154.146 45.3801C154.371 45.2829 154.467 45.0561 154.467 44.8294V28.1454C154.5 28.0482 154.5 27.9834 154.467 27.8862C154.339 27.4003 153.856 27.0439 153.374 27.1411ZM168.169 27.1411C167.462 27.1411 167.011 27.4003 166.883 27.8538L161.704 44.6026C161.672 44.6674 161.672 44.7322 161.704 44.797C161.704 45.0885 161.865 45.3477 162.122 45.4773C162.38 45.6393 162.669 45.7365 162.991 45.7365C163.313 45.8013 163.666 45.5745 163.763 45.2505L164.856 41.5574H171.386L172.479 45.2505C172.576 45.5745 172.93 45.7689 173.251 45.7365C173.573 45.7689 173.894 45.6717 174.152 45.4773C174.409 45.3801 174.57 45.1533 174.57 44.8618M174.57 44.797V44.6998L169.424 27.8862C169.295 27.4003 168.877 27.1735 168.169 27.1735L174.57 44.797ZM165.339 39.7108L168.137 30.2187L170.968 39.7108H165.339ZM192.678 27.3031C192.228 27.0439 191.649 27.0439 191.199 27.3031C191.006 27.4003 190.877 27.6271 190.877 27.8538V40.8771L184.605 28.5018C184.444 28.113 184.187 27.7566 183.897 27.4651C183.64 27.2383 183.351 27.1411 182.997 27.1411C182.289 27.1411 181.935 27.4003 181.935 27.8862V44.8942C181.903 45.1209 182.032 45.3477 182.257 45.4449C182.707 45.7365 183.286 45.7365 183.737 45.4449C183.93 45.3477 184.058 45.1209 184.058 44.8942V32.0005L190.588 44.7646C190.813 45.3153 191.327 45.7041 191.906 45.7365C192.164 45.7365 192.421 45.6717 192.678 45.5097C192.871 45.3801 193 45.1857 193 44.959V27.8862C193 27.6271 192.871 27.4327 192.678 27.3031Z" fill="black"/>
<path d="M46.0428 21.8281C45.882 21.8929 45.7855 22.0873 45.882 22.2493C45.882 22.2817 45.9142 22.2817 45.9142 22.2817C46.075 22.638 46.0428 23.0916 45.7855 23.3831C45.6569 23.5127 45.6569 23.7071 45.7534 23.8367C45.7534 23.8367 45.7534 23.8367 45.7855 23.8691C45.8498 23.9015 45.9463 23.9015 46.0107 23.8691C46.1072 23.8691 46.2036 23.8043 46.268 23.7395C46.7183 23.2211 46.7826 22.5084 46.4931 21.8929C46.3323 21.7633 46.1715 21.7309 46.0428 21.8281Z" fill="black"/>
<path d="M32.9845 7.24989C16.9347 5.14415 2.3001 16.58 0.241611 32.7456C-1.81688 48.9112 9.50482 63.6839 25.5546 65.7572C41.6044 67.8306 56.239 56.3947 58.3296 40.2615C60.3881 24.0959 49.0664 9.32324 32.9845 7.24989C33.0166 7.24989 33.0166 7.24989 32.9845 7.24989ZM39.0313 25.6185C38.4845 25.6509 37.9699 25.8452 37.5839 26.234L26.7125 37.1839L24.3967 34.8513C35.1073 24.0959 37.0371 23.9987 39.0313 25.6185ZM27.1628 37.5726L38.002 26.7523C38.6132 26.1692 39.5459 26.1692 40.157 26.7523C40.4465 27.0439 40.6073 27.465 40.6073 27.8538C40.5752 28.2749 40.4143 28.6637 40.0927 28.9553L28.6423 39.1276L27.1628 37.5726ZM27.9669 39.2248L25.2651 39.9051C25.2008 39.9375 25.1686 39.9375 25.1043 39.9051C25.0722 39.8403 25.0722 39.7756 25.1043 39.7432L26.7447 38.091L27.9669 39.2248ZM21.116 38.091L23.9786 35.2077L26.1336 37.443L21.2125 38.5121C21.116 38.5445 20.9873 38.4473 20.9873 38.3501C20.9552 38.2853 20.9873 38.2205 21.0517 38.1881L21.116 38.091ZM12.2388 53.0903C12.1744 53.0579 12.1101 53.0255 12.0779 52.9608C12.0458 52.896 12.0458 52.8312 12.0779 52.7664L14.3937 50.4339L17.385 53.4143L12.2388 53.0903ZM18.1569 49.9803C17.9318 50.1099 17.8031 50.3367 17.8674 50.5958L18.3499 52.734C18.3821 52.8636 18.3177 53.0255 18.2212 53.0903C18.1247 53.1875 17.9639 53.1875 17.8674 53.0903L14.8762 49.9803L24.0429 40.715L28.4815 39.7432L30.6043 41.8813C26.809 45.0561 22.6277 47.7774 18.1569 49.9155V49.9803ZM31.0546 41.5573L29.0283 39.5164L40.4787 29.3764C40.5752 29.2792 40.7038 29.182 40.7681 29.0525C40.3822 32.3245 35.7827 37.0219 31.0546 41.5573ZM39.964 25.6833C38.2594 23.9015 38.3237 21.0506 40.0927 19.3336C41.7009 17.7786 44.2097 17.6814 45.9465 19.0745L42.0225 23.0268C41.926 23.1564 41.926 23.3183 42.0225 23.4479L45.0781 26.5256C43.3413 27.3679 41.2828 27.0115 39.9319 25.6509L39.964 25.6833ZM46.2682 25.6833C46.043 25.8776 45.85 26.072 45.5927 26.234L42.6658 23.286L46.3968 19.528C48.005 21.245 47.9729 23.9663 46.2682 25.6833Z" fill="black"/>
</g>
</svg>
