<svg width="95" height="90" viewBox="0 0 95 90" fill="none" xmlns="http://www.w3.org/2000/svg">
<g opacity="0.85">
<path d="M94.5776 30.4974H60.54V21.7853H94.5776V30.4974Z" fill="black" fill-opacity="0.5"/>
<path d="M90.1566 30.4973H60.54V8.70752H90.1566V30.4973Z" fill="black" fill-opacity="0.5"/>
<path d="M77.9206 30.4973H60.54V0H77.9206V30.4973Z" fill="black" fill-opacity="0.5"/>
<path d="M81.34 30.4974H60.54V3.40308H81.34V30.4974Z" fill="black" fill-opacity="0.5"/>
<path d="M60.5356 3.4082V30.4946H77.9191V3.4082H60.5356Z" fill="black" fill-opacity="0.5"/>
<path d="M43.1118 30.4973H60.5405V34.8538H43.1118V30.4973Z" fill="black" fill-opacity="0.5"/>
<path d="M60.5356 8.70276V30.4946H81.3503V8.70276H60.5356Z" fill="black" fill-opacity="0.5"/>
<path d="M60.5356 8.70276V30.4946H77.9191V8.70276H60.5356Z" fill="black" fill-opacity="0.5"/>
<path d="M71.4089 30.4972H60.54V17.4187H71.4089V30.4972Z" fill="black" fill-opacity="0.5"/>
<path d="M60.5356 21.7915V30.4946H90.167V21.7915H60.5356Z" fill="black" fill-opacity="0.5"/>
<path d="M60.5356 21.7915V30.4946H81.3503V21.7915H60.5356Z" fill="black" fill-opacity="0.5"/>
<path d="M60.5356 21.7915V30.4946H77.9191V21.7915H60.5356Z" fill="black" fill-opacity="0.5"/>
<path d="M60.5356 21.7915V30.4945H71.4201V21.7915H60.5356Z" fill="black" fill-opacity="0.5"/>
<path d="M64.33 46.9057C61.3645 47.4329 59.7829 49.6735 59.7829 53.5616C59.7829 57.5156 61.8917 60.1516 64.989 60.1516C66.5047 60.1516 67.8227 59.6244 70.5905 58.2405C70.5905 61.4696 70.5905 61.4696 70.5905 61.4696C67.2296 63.0512 65.2526 63.4466 62.6166 63.4466C59.6511 63.4466 57.5423 62.7217 55.8948 60.9424C54.1814 59.229 53.2588 56.9884 53.2588 54.4183C53.2588 48.8168 57.4764 44.9287 63.6051 44.9287C67.625 44.9287 70.4587 46.8398 70.4587 49.5417C70.4587 51.321 69.1407 52.5731 67.2296 52.5731C66.2411 52.5731 65.4503 52.2436 64.33 51.6505" fill="black"/>
<path d="M49.5021 54.4183C52.204 51.0574 53.1925 49.6735 53.1925 48.026C53.1925 46.3785 51.8745 44.9287 50.0293 44.9287C48.9749 44.9287 47.9864 45.5218 47.5251 46.049C47.5251 52.9685 47.5251 52.9685 47.5251 52.9685C43.1098 58.8995 43.1098 58.8995 43.1098 58.8995C43.1098 45.4559 43.1098 45.4559 43.1098 45.4559C38.8922 45.4559 38.8922 45.4559 38.8922 45.4559C31.9068 56.9884 31.9068 56.9884 31.9068 56.9884C31.9068 45.4559 31.9068 45.4559 31.9068 45.4559C29.5344 45.4559 29.5344 45.4559 29.5344 45.4559C23.1421 46.9057 23.1421 46.9057 23.1421 46.9057C23.1421 48.5532 23.1421 48.5532 23.1421 48.5532C26.6348 48.8827 26.6348 48.8827 26.6348 48.8827C26.6348 63.183 26.6348 63.183 26.6348 63.183C31.0501 63.183 31.0501 63.183 31.0501 63.183C37.7719 52.1118 37.7719 52.1118 37.7719 52.1118C37.7719 63.183 37.7719 63.183 37.7719 63.183C42.7144 63.183 42.7144 63.183 42.7144 63.183" fill="black"/>
<path d="M9.76469 60.9423C10.2919 60.9423 10.4237 60.9423 10.7532 60.9423C14.3118 60.9423 16.2888 58.7676 16.2888 54.4182C16.2888 50.7937 14.7072 48.8167 11.7417 48.8167C11.3463 48.8167 10.7532 48.8826 9.76469 49.0803V60.9423ZM9.76469 68.7185C12.6643 69.3775 12.6643 69.3775 12.6643 69.3775C12.6643 71.025 12.6643 71.025 12.6643 71.025C1.2636 71.025 1.2636 71.025 1.2636 71.025C1.2636 69.3775 1.2636 69.3775 1.2636 69.3775C3.8996 68.7185 3.8996 68.7185 3.8996 68.7185C3.8996 48.8167 3.8996 48.8167 3.8996 48.8167C1 48.8167 1 48.8167 1 48.8167C1 47.1692 1 47.1692 1 47.1692C7.91949 45.0604 7.91949 45.0604 7.91949 45.0604C9.76469 45.0604 9.76469 45.0604 9.76469 45.0604C9.76469 47.4328 9.76469 47.4328 9.76469 47.4328C12.9938 45.4558 14.1141 45.1263 15.8275 45.1263C19.6497 45.1263 22.5493 48.6849 22.5493 53.6274C22.5493 59.2948 18.6612 63.1829 12.7302 63.1829C12.0712 63.1829 10.9509 63.117 9.76469 63.0511" fill="black"/>
</g>
</svg>
