<svg width="85" height="80" viewBox="0 0 85 80" fill="none" xmlns="http://www.w3.org/2000/svg">
<path d="M66.6724 19.8979C64.1183 19.8947 61.5923 20.4369 59.2601 21.4889C56.6537 16.7966 51.7594 13.6321 46.1478 13.6321C44.1316 13.6336 42.1366 14.0488 40.2839 14.8523C38.4312 15.6559 36.7593 16.8312 35.3697 18.3069C33.8292 16.2669 31.8431 14.6139 29.5662 13.4769C27.2893 12.3399 24.7832 11.7495 22.2433 11.752C13.1265 11.752 5.73475 19.2093 5.73475 28.4061C5.73216 30.6847 6.1943 32.9395 7.09248 35.0297C4.92744 36.3125 3.13319 38.1463 1.8887 40.3482C0.644202 42.5501 -0.00693976 45.0432 5.5778e-05 47.5787C5.5778e-05 55.5762 6.35049 62.0591 14.1862 62.0591C15.1662 62.0596 16.1437 61.9568 17.1027 61.7525C18.1832 64.7164 20.1372 67.2744 22.7014 69.0818C25.2656 70.8891 28.3166 71.8589 31.4432 71.8604C34.4442 71.8605 37.3788 70.9681 39.881 69.2943C42.3832 67.6206 44.3422 65.2398 45.5137 62.4487C47.3387 63.3481 49.3431 63.8142 51.3737 63.8116C53.7565 63.8113 56.096 63.1689 58.1511 61.9507C60.2061 60.7325 61.9023 58.9825 63.0646 56.8813C64.2535 57.1227 65.4631 57.2444 66.6757 57.2447C76.7949 57.2447 84.9999 48.8838 84.9999 38.5707C84.9999 28.2577 76.7916 19.8979 66.6724 19.8979ZM18.2001 41.5683C18.2001 43.0764 17.1199 44.0126 15.3732 44.0126C14.5177 44.0126 13.6979 43.8784 12.8316 43.4135C12.6645 43.324 12.5025 43.2249 12.3466 43.1167C12.3293 43.0927 12.2569 43.0643 12.3099 42.9225L12.6533 41.9589C12.6578 41.9343 12.6686 41.9113 12.6848 41.8923C12.7009 41.8734 12.7218 41.8591 12.7452 41.851C12.7687 41.8428 12.7938 41.8412 12.8181 41.8462C12.8424 41.8512 12.8649 41.8626 12.8834 41.8793C12.9785 41.9371 13.0487 41.9884 13.1707 42.0626C13.8413 42.4957 14.6217 42.7232 15.4175 42.7173C16.1736 42.7173 16.6446 42.3114 16.6446 41.7658V41.7363C16.6446 41.1405 15.922 40.9157 15.0827 40.656L14.8968 40.5982C13.7454 40.2654 12.5204 39.7874 12.5204 38.3176V38.2881C12.5204 36.8924 13.6352 35.918 15.2318 35.918H15.4045C16.2821 35.9159 17.1445 36.1498 17.903 36.5956C17.9386 36.6127 17.9669 36.6423 17.9825 36.6788C17.9982 36.7153 18.0003 36.7563 17.9883 36.7942C17.957 36.8793 17.6644 37.6672 17.6341 37.7578C17.5725 37.9236 17.4029 37.8134 17.4029 37.8134C16.7177 37.4533 15.9597 37.2573 15.1874 37.2405C14.5123 37.2405 14.0759 37.6028 14.0759 38.095V38.1244C14.0759 38.6995 14.8213 38.945 15.6865 39.2287L15.8356 39.2767C16.9816 39.6423 18.2044 40.1497 18.2044 41.5443L18.2001 41.5683ZM25.3379 43.5325C25.3379 43.5325 25.1565 43.5827 24.9934 43.6198C24.8303 43.6569 24.2373 43.7802 23.7523 43.8642C23.2579 43.9479 22.7575 43.9898 22.2562 43.9897C21.8177 43.9942 21.38 43.9492 20.9514 43.8555C20.5911 43.7801 20.2497 43.6316 19.9479 43.419C19.6727 43.2182 19.452 42.9506 19.3062 42.641C19.1463 42.2842 19.0688 41.8954 19.0794 41.5039C19.0713 41.1058 19.1618 40.7119 19.3429 40.3581C19.5155 40.0323 19.7602 39.7511 20.058 39.5365C20.3693 39.3149 20.7178 39.1519 21.0864 39.0552C21.4825 38.9491 21.8906 38.8962 22.3004 38.8981C22.6094 38.8981 22.8687 38.9046 23.0685 38.9199C23.0685 38.9199 23.4584 38.9559 23.8797 39.017V38.7966C23.8797 38.1332 23.7437 37.82 23.4758 37.6105C23.2079 37.4009 22.7898 37.2886 22.2573 37.2886C22.2573 37.2886 21.0583 37.2733 20.111 37.7938C20.085 37.8095 20.0579 37.8234 20.0299 37.8353C20.0141 37.841 19.9972 37.8435 19.9804 37.8426C19.9635 37.8416 19.9471 37.8373 19.9319 37.8297C19.9168 37.8222 19.9033 37.8116 19.8923 37.7987C19.8813 37.7858 19.873 37.7707 19.8679 37.7545L19.519 36.8084C19.5019 36.7753 19.4971 36.7371 19.5055 36.7007C19.5138 36.6643 19.5346 36.6321 19.5643 36.6098C20.0061 36.2595 21.0766 36.0489 21.0766 36.0489C21.5125 35.9716 21.9541 35.9304 22.3966 35.9256C23.3818 35.9256 24.1433 36.157 24.665 36.6142C25.1868 37.0714 25.4471 37.8145 25.4471 38.8119V43.3622C25.4508 43.3985 25.4418 43.4349 25.4219 43.4654C25.402 43.4958 25.3724 43.5183 25.3379 43.5292V43.5325ZM28.6455 43.6754C28.6464 43.6948 28.6434 43.7142 28.6367 43.7325C28.63 43.7507 28.6198 43.7674 28.6066 43.7815C28.5934 43.7957 28.5774 43.807 28.5598 43.8148C28.5422 43.8227 28.5233 43.8268 28.504 43.8271H27.1981C27.1789 43.8268 27.1598 43.8227 27.1422 43.8148C27.1246 43.807 27.1088 43.7957 27.0956 43.7815C27.0824 43.7674 27.0721 43.7507 27.0654 43.7325C27.0587 43.7142 27.0557 43.6948 27.0565 43.6754V33.0536C27.0557 33.0342 27.0587 33.0149 27.0654 32.9968C27.0721 32.9787 27.0824 32.9622 27.0957 32.9482C27.1089 32.9342 27.1248 32.9231 27.1424 32.9155C27.16 32.9079 27.179 32.904 27.1981 32.9041H28.504C28.5232 32.904 28.5421 32.9079 28.5597 32.9155C28.5773 32.9231 28.5932 32.9342 28.6065 32.9482C28.6197 32.9622 28.6299 32.9787 28.6366 32.9968C28.6433 33.0149 28.6464 33.0342 28.6455 33.0536V43.6754ZM36.8042 40.2577C36.8002 40.2934 36.7833 40.3264 36.7568 40.3503C36.7303 40.3743 36.6961 40.3876 36.6605 40.3876H31.7349C31.7641 41.1427 31.9444 41.6785 32.3074 42.0419C32.6703 42.4053 33.2298 42.6257 33.9935 42.6279C35.1622 42.6279 35.6624 42.3922 36.0157 42.2601C36.0334 42.2532 36.0523 42.2499 36.0712 42.2505C36.0902 42.2512 36.1089 42.2556 36.1261 42.2637C36.1433 42.2717 36.1588 42.2832 36.1716 42.2974C36.1843 42.3116 36.1941 42.3282 36.2004 42.3463L36.5244 43.2575C36.5882 43.4114 36.5373 43.4637 36.4822 43.4954C36.1744 43.6689 35.4247 43.9886 33.9978 43.993C33.3889 44.0078 32.7825 43.909 32.209 43.7016C31.7388 43.5244 31.315 43.2407 30.9701 42.8723C30.6423 42.5092 30.3986 42.0767 30.2571 41.6065C30.1033 41.0914 30.028 40.5557 30.0336 40.0177C30.0297 39.4807 30.1025 38.946 30.2496 38.43C30.3826 37.958 30.6093 37.5184 30.9161 37.138C31.2253 36.7655 31.6128 36.4673 32.0503 36.265C32.5638 36.0413 33.119 35.9326 33.6781 35.9464C34.1628 35.9454 34.6428 36.0438 35.0888 36.2355C35.4468 36.4073 35.7654 36.6526 36.0243 36.9557C36.3154 37.2935 36.5302 37.6912 36.6541 38.1211C36.8458 38.8148 36.8969 39.5404 36.8042 40.2545V40.2577ZM40.897 44.0159C40.0415 44.0159 39.2227 43.8817 38.3554 43.4168C38.1884 43.3271 38.0264 43.228 37.8703 43.12C37.853 43.096 37.7807 43.0676 37.8347 42.9258L38.1792 41.9622C38.1858 41.9392 38.1978 41.918 38.2141 41.9007C38.2305 41.8833 38.2508 41.8701 38.2733 41.8623C38.2957 41.8545 38.3197 41.8522 38.3432 41.8558C38.3667 41.8593 38.389 41.8685 38.4082 41.8826C38.5 41.9426 38.5724 41.9917 38.6956 42.0659C39.3657 42.4989 40.1458 42.7263 40.9413 42.7206C41.6974 42.7206 42.1705 42.3147 42.1705 41.7691V41.7396C42.1705 41.1438 41.4458 40.919 40.6065 40.6593L40.4217 40.6015C39.2713 40.2687 38.0453 39.7907 38.0453 38.3208V38.2914C38.0453 36.8957 39.159 35.9213 40.7555 35.9213H40.9293C41.8069 35.9192 42.6694 36.1531 43.4279 36.5989C43.4634 36.616 43.4915 36.6456 43.507 36.6822C43.5225 36.7187 43.5243 36.7597 43.5121 36.7975C43.4808 36.8826 43.1881 37.6705 43.1579 37.761C43.0963 37.9269 42.9266 37.8167 42.9266 37.8167C42.2418 37.4566 41.4841 37.2605 40.7123 37.2438C40.0361 37.2438 39.5997 37.6061 39.5997 38.0982V38.1277C39.5997 38.7028 40.3461 38.9483 41.2103 39.232L41.3604 39.28C42.5054 39.6456 43.7281 40.153 43.7281 41.5476V41.5759C43.7238 43.0764 42.6415 44.0126 40.897 44.0126V44.0159ZM49.5028 37.2886C49.4975 37.3289 49.4779 37.366 49.4474 37.3927C49.417 37.4195 49.3779 37.434 49.3376 37.4337H47.7173L46.6079 43.778C46.5139 44.3472 46.3693 44.9067 46.1759 45.4497C46.0368 45.8598 45.8196 46.2383 45.5364 46.5639C45.2894 46.8496 44.9767 47.0695 44.6258 47.2044C44.2363 47.3372 43.8271 47.4015 43.416 47.3943C43.1736 47.4009 42.9313 47.3774 42.6945 47.3244C42.5422 47.2897 42.3921 47.2456 42.2451 47.1924C42.2269 47.1847 42.2105 47.1734 42.1968 47.1592C42.183 47.1449 42.1723 47.128 42.1651 47.1095C42.158 47.091 42.1545 47.0712 42.1551 47.0513C42.1557 47.0314 42.1602 47.0119 42.1684 46.9938C42.203 46.8945 42.4924 46.0881 42.5335 45.9823C42.5398 45.9651 42.5495 45.9493 42.562 45.936C42.5744 45.9226 42.5894 45.9119 42.606 45.9045C42.6226 45.897 42.6404 45.8931 42.6586 45.8927C42.6768 45.8924 42.6948 45.8958 42.7117 45.9026C42.7967 45.9415 42.8858 45.9704 42.9774 45.9888C43.1076 46.0152 43.2399 46.0299 43.3727 46.0324C43.5689 46.036 43.7643 46.008 43.9518 45.9495C44.1354 45.8833 44.2935 45.7598 44.4032 45.5971C44.5544 45.381 44.6704 45.1419 44.7468 44.8889C44.8778 44.4888 44.9764 44.0786 45.0417 43.6623L46.1467 37.4337H45.0579C44.9272 37.4337 44.8839 37.3715 44.898 37.2733L45.0816 36.2388C45.0869 36.1984 45.1066 36.1614 45.137 36.1346C45.1675 36.1079 45.2066 36.0933 45.2469 36.0937H46.3649L46.4243 35.7565C46.5917 34.758 46.9255 33.9985 47.4148 33.4999C47.9041 33.0012 48.6106 32.7426 49.5007 32.7426C49.7251 32.7403 49.9492 32.7582 50.1704 32.796C50.3352 32.8238 50.4979 32.8624 50.6576 32.9117C50.6753 32.9165 50.6918 32.925 50.7061 32.9365C50.7204 32.9481 50.7322 32.9625 50.7407 32.9789C50.7492 32.9953 50.7544 33.0133 50.7557 33.0318C50.757 33.0503 50.7544 33.0688 50.7483 33.0863L50.3713 34.1306C50.3389 34.2091 50.3184 34.2572 50.1552 34.207C50.1153 34.1961 50.0548 34.1775 49.9025 34.1448C49.7691 34.1181 49.6334 34.1045 49.4974 34.1044C49.3185 34.1018 49.1403 34.1276 48.9693 34.1808C48.8135 34.2328 48.6723 34.3219 48.5576 34.4405C48.4041 34.5891 48.2856 34.7707 48.2109 34.9719C48.0928 35.3376 48.0061 35.7129 47.9517 36.0937H49.5266C49.6574 36.0937 49.6994 36.1548 49.6865 36.2541L49.5028 37.2886ZM56.7142 41.5519C56.5825 42.0189 56.357 42.4534 56.052 42.8286C55.7477 43.1943 55.3656 43.4857 54.934 43.6809C54.4421 43.8946 53.9107 43.9995 53.3753 43.9886C52.8396 43.9997 52.3077 43.8948 51.8155 43.6809C51.3837 43.486 51.0015 43.1946 50.6976 42.8286C50.3924 42.4535 50.167 42.0189 50.0354 41.5519C49.8885 41.0385 49.8157 40.5063 49.8194 39.9718C49.8158 39.4374 49.8886 38.9052 50.0354 38.3918C50.1665 37.9249 50.392 37.4906 50.6976 37.1161C51.0014 36.7491 51.3827 36.4553 51.8134 36.2563C52.3049 36.0369 52.8381 35.9289 53.3753 35.9398C53.9116 35.9288 54.4436 36.0369 54.934 36.2563C55.3654 36.4547 55.7474 36.7481 56.052 37.1151C56.3572 37.4901 56.5827 37.9247 56.7142 38.3918C56.8611 38.9052 56.9338 39.4374 56.9303 39.9718C56.9334 40.5052 56.8607 41.0362 56.7142 41.5487V41.5519ZM62.8031 36.3523C62.7589 36.4876 62.518 37.1707 62.4337 37.3977C62.4013 37.4828 62.3484 37.5428 62.2523 37.533C62.075 37.4917 61.8941 37.4686 61.7122 37.4642C61.4889 37.4644 61.2667 37.4964 61.0522 37.5592C60.8224 37.6308 60.6134 37.7578 60.443 37.9291C60.2444 38.1354 60.0964 38.3858 60.0109 38.6602C59.9029 38.9723 59.8468 39.4688 59.8468 39.9697V43.6798C59.8469 43.6995 59.8432 43.7191 59.8358 43.7373C59.8284 43.7556 59.8175 43.7722 59.8037 43.7862C59.79 43.8002 59.7736 43.8113 59.7556 43.8189C59.7376 43.8265 59.7183 43.8304 59.6988 43.8304H58.4025C58.3829 43.8305 58.3634 43.8267 58.3452 43.8192C58.3269 43.8117 58.3104 43.8007 58.2964 43.7867C58.2825 43.7727 58.2714 43.756 58.2638 43.7377C58.2563 43.7193 58.2523 43.6997 58.2523 43.6798V36.2595C58.2513 36.2401 58.2542 36.2207 58.2609 36.2025C58.2675 36.1843 58.2778 36.1676 58.291 36.1535C58.3043 36.1394 58.3202 36.1282 58.3379 36.1205C58.3556 36.1129 58.3746 36.1089 58.3939 36.1089H59.6642C59.6833 36.1091 59.7022 36.1131 59.7198 36.1208C59.7373 36.1286 59.7531 36.1398 59.7663 36.1539C59.7794 36.168 59.7895 36.1846 59.7961 36.2027C59.8027 36.2209 59.8056 36.2402 59.8046 36.2595V36.8663C60.0294 36.5954 60.3149 36.3825 60.6374 36.2454C60.9442 36.1057 61.2855 36.0009 61.9077 36.038C62.1866 36.0596 62.4629 36.1074 62.733 36.181C62.7633 36.1951 62.7873 36.2202 62.8003 36.2512C62.8133 36.2823 62.8143 36.3172 62.8031 36.349V36.3523ZM68.9602 43.6132C68.3003 43.859 67.6026 43.9846 66.8993 43.9842C65.6376 43.9842 64.6697 43.6176 64.0259 42.893C63.3822 42.1685 63.0538 41.1864 63.0538 39.9675C63.0486 39.4303 63.1285 38.8958 63.2904 38.3841C63.438 37.9141 63.6787 37.4794 63.9979 37.1063C64.3224 36.7378 64.7228 36.4454 65.171 36.2497C65.6832 36.031 66.2353 35.9235 66.7913 35.9344C67.1566 35.9315 67.5215 35.956 67.8833 36.0075C68.214 36.0612 68.5393 36.1445 68.8555 36.2563C68.8731 36.2608 68.8896 36.2691 68.904 36.2804C68.9183 36.2917 68.9302 36.3059 68.9388 36.3221C68.9474 36.3383 68.9526 36.3562 68.9541 36.3745C68.9556 36.3928 68.9533 36.4113 68.9473 36.4287C68.8102 36.8215 68.7172 37.0747 68.5887 37.4337C68.5347 37.5854 68.4191 37.5341 68.4191 37.5341C67.9214 37.3794 67.4026 37.3057 66.882 37.3158C66.1626 37.3158 65.6214 37.5592 65.2671 38.0339C64.9128 38.5085 64.7108 39.1382 64.7087 39.9697C64.7087 40.8841 64.9323 41.5607 65.333 41.9797C65.7338 42.3987 66.2943 42.6093 66.9975 42.6093C67.2643 42.6113 67.5309 42.5919 67.7947 42.5515C68.0266 42.5111 68.2537 42.446 68.472 42.3572C68.4899 42.3495 68.5091 42.3457 68.5286 42.346C68.548 42.3463 68.567 42.3508 68.5846 42.3592C68.6021 42.3676 68.6177 42.3796 68.6303 42.3945C68.643 42.4094 68.6523 42.4268 68.6578 42.4456L69.0154 43.4419C69.0283 43.4714 69.0303 43.5046 69.021 43.5355C69.0116 43.5663 68.9916 43.5928 68.9645 43.61L68.9602 43.6132ZM76.2547 40.2577C76.2508 40.2934 76.234 40.3264 76.2075 40.3503C76.181 40.3743 76.1466 40.3876 76.1111 40.3876H71.1855C71.2157 41.1427 71.395 41.6785 71.759 42.0419C72.123 42.4053 72.6794 42.6257 73.4441 42.6279C74.6129 42.6279 75.113 42.3922 75.4662 42.2601C75.4839 42.2532 75.5028 42.2499 75.5218 42.2505C75.5408 42.2512 75.5594 42.2556 75.5767 42.2637C75.5939 42.2717 75.6094 42.2832 75.6221 42.2974C75.6349 42.3116 75.6447 42.3282 75.6509 42.3463L75.975 43.2575C76.0387 43.4114 75.9868 43.4637 75.9317 43.4954C75.6239 43.6689 74.8742 43.9886 73.4473 43.993C72.8384 44.0079 72.232 43.9091 71.6586 43.7016C71.188 43.525 70.7641 43.2412 70.4196 42.8723C70.0911 42.5095 69.8471 42.077 69.7056 41.6065C69.5524 41.0913 69.4769 40.5556 69.4819 40.0177C69.4781 39.4807 69.5508 38.946 69.698 38.43C69.831 37.9578 70.0583 37.5182 70.3656 37.138C70.6745 36.7651 71.062 36.4669 71.4998 36.265C72.013 36.0415 72.5679 35.9328 73.1265 35.9464C73.6113 35.9451 74.0913 36.0435 74.5373 36.2355C74.8955 36.4075 75.2144 36.6528 75.4738 36.9557C75.7645 37.2936 75.9789 37.6913 76.1024 38.1211C76.2963 38.8143 76.3496 39.54 76.2591 40.2545L76.2547 40.2577Z" fill="black"/>
<path d="M53.3758 37.2866C52.7277 37.2866 52.2675 37.5125 51.964 37.9774C51.6604 38.4423 51.5049 39.1178 51.5049 39.9691C51.5049 40.8203 51.6593 41.4969 51.965 41.9683C52.2707 42.4398 52.7288 42.6668 53.3758 42.6668C54.0228 42.6668 54.4851 42.4376 54.7919 41.9683C55.0986 41.4991 55.2596 40.8203 55.2596 39.9691C55.2596 39.1178 55.1019 38.4412 54.7919 37.9774C54.4818 37.5136 54.0218 37.2866 53.3758 37.2866Z" fill="black"/>
<path d="M21.1156 40.5058C20.8197 40.7164 20.676 41.0317 20.676 41.4682C20.6632 41.6938 20.715 41.9185 20.8251 42.1152C20.8968 42.2336 20.9934 42.3345 21.108 42.4109C21.108 42.4109 21.5508 42.7634 22.552 42.7012C22.999 42.6719 23.4435 42.6125 23.8827 42.5233V40.2603C23.4395 40.1935 22.9925 40.1571 22.5445 40.1511C21.5401 40.1315 21.1134 40.5058 21.1156 40.5058Z" fill="black"/>
<path d="M33.5638 37.2544C32.9158 37.2544 32.4579 37.5119 32.1544 37.9778C31.9403 38.3356 31.8047 38.7356 31.7568 39.1508H35.2713C35.2356 38.6925 35.1471 38.2834 34.9473 37.9756C34.6373 37.5119 34.2107 37.2544 33.5638 37.2544Z" fill="black"/>
<path d="M73.0183 37.2544C72.3703 37.2544 71.9113 37.5119 71.6143 37.9778C71.3994 38.3353 71.2635 38.7354 71.2158 39.1508H74.7291C74.6945 38.6925 74.6049 38.2834 74.4051 37.9756C74.0908 37.5119 73.6653 37.2544 73.0183 37.2544Z" fill="black"/>
</svg>
