<svg width="160" height="80" viewBox="0 0 160 80" fill="none" xmlns="http://www.w3.org/2000/svg">
<path fill-rule="evenodd" clip-rule="evenodd" d="M160 56.773L148.914 39.6721L158.966 24C156.253 24.3942 150.285 25.149 150.285 25.149L142.053 38.422V25.8701C142.053 25.8701 136.928 26.3587 134.603 26.5609V54.0673C135.886 54.1566 137.372 54.3042 138.831 54.449L138.832 54.4491L138.832 54.4491C139.956 54.5606 141.063 54.6706 142.05 54.7512V41.7748L150.376 55.479C153.143 55.742 160 56.773 160 56.773ZM88.8873 34.0077C92.6477 34.0077 95.6096 34.3717 95.6096 34.3717L94.5144 28.6972C93.3351 28.6433 91.1787 28.5759 87.782 28.5759C80.3688 28.5759 75.1191 32.9328 75.1191 40.4302C75.1191 46.8527 78.1651 52.4092 86.7947 52.4092C92.0529 52.4092 95.4468 52.0723 95.6102 52.0561L95.6164 52.0555L95.6131 38.0513C93.9013 38.0648 87.9134 38.0985 86.6295 38.1052C86.4734 38.7199 86.3173 39.3464 86.1612 39.9729L86.1603 39.9766L86.1599 39.9782C85.9929 40.6481 85.826 41.318 85.6591 41.9735C85.6591 41.9735 88.2706 41.9836 89.46 41.9836C89.46 42.7502 89.4609 43.5379 89.4618 44.3255L89.4618 44.3461V44.3467V44.3472V44.3478V44.3484C89.4627 45.1285 89.4635 45.9083 89.4635 46.6674C89.3205 46.6635 89.1605 46.6587 88.9913 46.6536L88.9901 46.6536C88.43 46.6367 87.77 46.6169 87.2967 46.6169C83.5969 46.6169 81.8212 44.3255 81.8212 39.9315C81.8212 35.9183 84.7494 34.0077 88.8873 34.0077ZM108.567 42.0595H108.567H108.567H108.567H108.567C107.719 42.0586 106.871 42.0578 106.022 42.0578C106.022 43.6786 106.022 45.3398 106.025 46.9539C107.915 47.0043 109.653 47.0717 111.535 47.1447L111.535 47.1447L111.535 47.1447L111.535 47.1447L111.535 47.1447C112.674 47.1888 113.865 47.235 115.174 47.2807L114.136 52.7091C111.059 52.5608 101.951 52.1801 99.1881 52.1364V28.4917C107.127 28.2659 113.074 27.9694 113.074 27.9694L114.102 33.3675C114.102 33.3687 113.714 33.3826 113.01 33.408C111.668 33.4563 109.177 33.5459 106.022 33.6674V37.93C107.682 37.9102 109.339 37.8872 110.999 37.8642L111 37.8642L111.001 37.8642L111.002 37.8642L111.003 37.8642L111.113 37.8626V42.0612C110.264 42.0612 109.416 42.0603 108.567 42.0595ZM123.669 42.2128C124.481 42.2163 125.295 42.235 126.108 42.2536C126.873 42.2712 127.639 42.2888 128.403 42.2937V37.62C126.826 37.6503 125.246 37.6807 123.669 37.7076V32.916C125.376 32.8282 126.965 32.7288 128.625 32.625C129.642 32.5614 130.686 32.4961 131.8 32.4308C131.449 30.5337 131.115 28.7377 130.765 26.8642C126.175 27.2144 121.576 27.5019 116.986 27.7888L116.845 27.7975L116.852 52.8642C121.209 53.0631 127.47 53.538 131.813 53.8717L132.895 48.3118C131.511 48.2293 129.995 48.1193 128.532 48.0131C126.712 47.8811 124.974 47.755 123.675 47.6952C123.669 45.9531 123.669 43.9515 123.669 42.2128ZM36.247 47.5369L43.3536 27.9796C44.4485 28.0335 48.674 28.2053 49.7154 28.2458L58.2134 52.1026L51.3865 52.3184L50.0185 47.9244C48.522 47.9672 47.0403 48.0261 45.5495 48.0853L45.5493 48.0853C44.5763 48.124 43.5995 48.1628 42.6121 48.1974L41.0385 52.7665C33.7568 53.1541 28.0453 53.582 20.9421 54.1851C20.9421 50.583 20.9429 46.8319 20.9438 43.0807V43.0806V43.0806L20.9438 43.0541V43.0531C20.9446 39.311 20.9454 35.5693 20.9454 31.976H20.9421V26.1297C27.4691 26.6823 31.1014 26.935 36.5029 27.2652C36.5029 27.2652 37.2849 31.0527 37.6353 32.8285C37.6353 32.8318 33.558 32.6263 27.7657 32.2893V37.3033C29.3189 37.3332 30.8754 37.3598 32.429 37.3864L32.4299 37.3864L32.5 37.3876V41.9062C31.6346 41.9154 30.7763 41.9306 29.918 41.9458C29.202 41.9585 28.486 41.9712 27.7657 41.9804C27.7657 42.843 27.7614 43.9238 27.7572 45.0046V45.0047V45.0047C27.753 46.0855 27.7487 47.1662 27.7487 48.0288L36.247 47.5369ZM46.541 36.8215L44.1352 43.7899C44.8281 43.7791 45.519 43.7649 46.2096 43.7507L46.2099 43.7507L46.2101 43.7507C47.0374 43.7337 47.8643 43.7166 48.6942 43.7056L46.541 36.8215ZM74.0508 28.7748C67.807 28.7445 61.9136 28.6535 55.5112 28.4513L54.4632 33.8124C56.9401 33.8663 58.8843 33.9 61.3609 33.9371C61.3609 36.9276 61.3601 39.9569 61.3592 42.9862C61.3584 46.0155 61.3576 49.0449 61.3576 52.0355C63.6353 51.995 65.9166 51.9612 68.1946 51.9344L68.2249 34.0213C68.8822 34.0276 69.4992 34.034 70.097 34.0403L70.098 34.0403C71.7647 34.0578 73.2832 34.0737 75.1157 34.0786L74.0508 28.7748ZM10.8287 36.8673C14.2872 38.9963 18.7318 41.7323 18.7318 47.0414C18.7318 51.752 15.4194 56.1226 8.89581 56.119C2.97538 56.119 0 53.6054 0 53.6054V45.9665C4.0503 49.909 12.0094 52.2374 12.0094 47.7086C12.0094 45.8624 9.92135 44.5317 7.48662 42.9801C4.08226 40.8105 0 38.2089 0 33.1619C0 27.5245 4.5827 24.6502 9.83258 24.6502C13.4413 24.6502 16.4803 25.6272 17.3539 25.908C17.3792 25.9162 17.4027 25.9237 17.4244 25.9307L17.1244 32.6329C13.4044 29.9911 6.8235 29.3845 6.8235 33.0305C6.8235 34.4018 8.62613 35.5115 10.8287 36.8673Z" fill="black"/>
</svg>
