<svg width="94" height="80" viewBox="0 0 94 80" fill="none" xmlns="http://www.w3.org/2000/svg">
<path fill-rule="evenodd" clip-rule="evenodd" d="M82.1909 26.8977C82.3381 27.0019 82.5348 27.0278 82.7429 26.9757L87.0858 25.9237C87.5464 25.8067 87.9194 25.3561 87.9194 24.9095V19.7054C87.9194 19.4906 87.8306 19.3135 87.6771 19.2041C87.5756 19.1389 87.455 19.0999 87.3231 19.0999C87.2596 19.0999 87.1937 19.1085 87.1252 19.1256L82.7822 20.1788C82.3229 20.2958 81.9486 20.7451 81.9486 21.193V26.3978C81.9486 26.6125 82.0374 26.7897 82.1909 26.8978L82.1909 26.8977ZM93.9993 34.4223V37.9705C93.9993 40.1771 92.2932 42.4013 90.0312 43.1436L1.1088 74.9353C1.07074 74.9496 1.03268 74.961 0.994611 74.9744C0.918482 74.9886 0.833467 75 0.75607 75C0.588585 75 0.433786 74.9479 0.306903 74.8658C0.111504 74.7291 0.00365288 74.5118 0.00365288 74.2527V60.6305C0.00365288 60.1228 0.429981 59.6072 0.954008 59.4796L11.2234 56.9888C11.6815 56.8845 12.0532 56.425 12.0532 55.9798L12.0491 52.2571C12.0491 51.9524 11.8752 51.7259 11.5936 51.6673L4.01179 50.2423C1.57487 49.745 0 47.7411 0 45.1372L0.00316583 39.0871C0.00316583 36.756 1.95907 34.3854 4.36325 33.8015L13.7323 31.5292C14.8781 31.2518 15.9632 31.4122 16.7892 31.9875C17.6558 32.589 18.133 33.563 18.133 34.727L18.1346 39.3948C18.1346 39.9013 17.7083 40.4181 17.1856 40.5457L13.048 41.5482C12.7917 41.6134 12.5481 41.5738 12.3603 41.444C12.1636 41.3087 12.0571 41.0911 12.0571 40.8308V38.1053C12.0571 37.8906 11.9682 37.7122 11.816 37.6041C11.6675 37.4999 11.4747 37.4739 11.264 37.5261L6.92108 38.5793C6.46176 38.6963 6.08619 39.1456 6.08619 39.5935V43.8697C6.08619 44.1756 6.26002 44.4021 6.5417 44.4607L14.1461 45.9012C16.5675 46.2983 18.1337 48.1948 18.1337 50.7364L18.1401 56.0593C18.1401 56.6231 18.0259 57.1998 17.7988 57.7762L23.4504 56.4058V30.0955C23.4504 29.5877 23.8755 29.0721 24.3995 28.9459L28.5369 27.9408C28.7945 27.8756 29.0381 27.9152 29.2246 28.045C29.42 28.1803 29.5279 28.3991 29.5279 28.6569V52.5644L35.7502 51.042C36.0091 50.9768 36.2527 51.0163 36.4392 51.1462C36.6346 51.2829 36.7412 51.5003 36.7412 51.7594L36.7459 53.1802L40.3509 52.3053L40.3533 35.6678C40.3533 35.1601 40.7784 34.6445 41.3037 34.5169L45.4412 33.5132C45.6962 33.4479 45.9411 33.4876 46.1289 33.6174C46.3243 33.7527 46.4321 33.9703 46.4321 34.2293L46.4346 50.827L52.2883 49.4078V26.4044C52.2883 24.0726 54.2443 21.702 56.6485 21.1188L66.0035 18.8493C67.1467 18.5719 68.2344 18.7323 69.0596 19.3089C69.9262 19.9104 70.4034 20.8837 70.4034 22.0484L70.3987 28.416C70.3987 28.9237 69.9724 29.4393 69.4484 29.5669L65.3108 30.5707C65.0545 30.6359 64.8109 30.5963 64.6231 30.4664C64.4277 30.3309 64.3199 30.1123 64.3199 29.8545L64.3285 25.4278C64.3285 25.2131 64.2397 25.036 64.0861 24.9279C63.9389 24.8237 63.7435 24.7963 63.5342 24.8499L59.1912 25.9031C58.7319 26.0202 58.3576 26.4695 58.3576 26.9173V44.8015C58.3576 45.0162 58.4464 45.1933 58.5987 45.3027C58.7459 45.4069 58.9413 45.4329 59.1506 45.3808L63.4936 44.3275C63.953 44.2104 64.3273 43.7612 64.3273 43.3146L64.3186 41.5865C64.3186 41.0788 64.745 40.5632 65.269 40.4356L69.4065 39.4332C69.6628 39.3679 69.9077 39.4075 70.0942 39.5374C70.2896 39.6741 70.3975 39.8916 70.3975 40.1506L70.4014 45.019L75.8648 43.6938V20.6909C75.8648 18.3593 77.8215 15.9893 80.2249 15.4055L89.5947 13.1331C90.7392 12.8545 91.8256 13.016 92.651 13.5914C93.5176 14.1929 93.9948 15.166 93.9948 16.3308L93.9978 25.421C93.9978 27.752 92.0419 30.1227 89.6378 30.7058L82.7828 32.3674C82.3235 32.4845 81.9491 32.9338 81.9491 33.3816V39.0791C81.9491 39.2939 82.038 39.4723 82.1915 39.5791C82.3387 39.6833 82.5353 39.7092 82.7434 39.6571L87.0864 38.6038C87.547 38.4868 87.92 38.0375 87.92 37.5896L87.9185 35.8587C87.9185 35.351 88.3448 34.8354 88.8688 34.7091L93.0065 33.7053C93.2628 33.6401 93.509 33.6797 93.6967 33.8096C93.8922 33.9449 94 34.1624 94 34.4215L93.9993 34.4223ZM40.354 29.5125V25.9919C40.354 25.4855 40.7791 24.9686 41.3044 24.841L45.4419 23.8385C45.6969 23.7733 45.9418 23.8129 46.1283 23.9427C46.3237 24.0795 46.4316 24.2969 46.4316 24.556V28.0758C46.4316 28.5836 46.0052 29.0992 45.4812 29.2268L41.3445 30.2306C41.2683 30.2562 41.1833 30.2562 41.1059 30.2562C40.9384 30.2562 40.7836 30.2041 40.6567 30.1221C40.4613 29.9865 40.3535 29.7692 40.3535 29.5101" fill="black"/>
</svg>
