<svg width="116" height="80" viewBox="0 0 116 80" fill="none" xmlns="http://www.w3.org/2000/svg">
<path fill-rule="evenodd" clip-rule="evenodd" d="M62.866 21.8347L54.9411 23.5195V17.0904L62.866 15.4055V21.8347ZM115 39.8079C115 31.7235 111.082 25.3426 103.586 25.3426C96.0906 25.3426 91.5061 31.7252 91.5061 39.7653C91.5061 49.284 96.8948 54.0995 104.582 54.0995C108.356 54.0995 111.187 53.2478 113.332 52.0554V45.6932C111.181 46.7799 108.712 47.4409 105.577 47.4409C102.501 47.4409 99.785 46.349 99.4445 42.6509H114.897C114.928 42.225 115 40.571 115 39.8079ZM99.3698 36.8235C99.3698 33.2668 101.564 31.7764 103.536 31.7764C105.475 31.7764 107.531 33.2702 107.531 36.8235H99.3698ZM79.3718 25.3996C77.0664 25.386 74.8472 26.2743 73.1879 27.8746L72.7773 25.9242H65.8184V62.769L73.7127 61.0911L73.7298 52.1601C74.8627 52.9896 76.5507 54.1565 79.3139 54.1565C84.9612 54.1565 90.1265 49.6118 90.1265 39.5821C90.1367 30.3923 84.9152 25.3996 79.3718 25.3996ZM77.4844 47.1828C75.6326 47.1828 74.5269 46.515 73.762 45.6854L73.7143 33.9557C74.5371 33.053 75.6736 32.3921 77.4844 32.3921C80.3804 32.3921 82.3617 35.6285 82.3617 39.7559C82.3617 44.0059 80.4043 47.1828 77.4844 47.1828ZM62.868 25.9222H54.943V53.5907H62.868V25.9222ZM45.9588 25.9258L46.4529 28.2594C48.2995 24.8611 51.991 25.5492 53.0422 25.9274V33.1823C52.037 32.8569 48.8957 32.385 47.0219 34.8346V53.5925H39.1344V25.9258H45.9588ZM30.6236 19.0697L22.9167 20.7084L22.8826 46.033C22.8826 50.7055 26.397 54.1566 31.0817 54.1566C33.6627 54.1566 35.569 53.6881 36.6218 53.1107V46.6854C35.6099 47.0891 30.6286 48.537 30.6286 43.885V32.6544H36.6235V25.9242H30.6286L30.6236 19.0697ZM11.7375 32.4457C9.96309 32.4457 8.87002 32.9351 8.87002 34.2126C8.87002 35.6153 10.7392 36.2302 13.0548 36.9921C16.8236 38.2322 21.7752 39.8613 21.7752 45.9091C21.7752 51.8087 16.9386 55.1658 9.91943 55.1658C6.74452 55.159 3.60394 54.5266 0.688591 53.307V45.4905C3.52139 46.9852 7.13041 48.1054 9.9268 48.1054C11.8105 48.1054 13.1657 47.616 13.1657 46.1018C13.1657 44.5554 11.1513 43.8519 8.71868 43.0023C5.01163 41.7077 0.333496 40.074 0.333496 34.6012C0.333496 28.8059 4.89869 25.3376 11.7448 25.3376C14.6145 25.3084 17.463 25.8172 20.1338 26.8359V34.5536C17.5669 33.2089 14.3061 32.4457 11.7375 32.4457Z" fill="black"/>
</svg>
