<svg width="76" height="90" viewBox="0 0 76 90" fill="none" xmlns="http://www.w3.org/2000/svg">
<g opacity="0.85">
<g clip-path="url(#clip0_1240_639)">
<path d="M37.7236 11.8154L26.5791 28.1767H48.868L37.7236 11.8154Z" fill="black"/>
<path d="M17.8625 84.1697L0.986816 72.9518L1.32434 72.3097C4.69176 65.6762 9.81242 60.0688 16.1425 56.0832C22.6223 51.9775 30.1571 49.798 37.852 49.8037C45.5469 49.8094 53.0784 52 59.552 56.1153C65.8617 60.1304 70.9375 65.7806 74.2273 72.4509L74.448 72.8876L57.806 84.1119L57.5464 83.4698C56.057 79.4464 53.3534 75.9732 49.8018 73.521C46.2503 71.0687 42.0225 69.7559 37.6914 69.7604C29.1043 69.7604 21.2377 75.2955 18.1222 83.5276L17.8625 84.1697ZM2.47962 72.5665L17.3043 82.4103C20.7509 74.0948 28.8576 68.5597 37.6914 68.5597C42.1326 68.5513 46.4746 69.8588 50.1579 72.3136C53.8412 74.7685 56.6972 78.2582 58.3577 82.3332L72.9811 72.4766C69.7663 66.1943 64.9155 60.8744 58.9289 57.0657C52.6351 53.0685 45.3134 50.9436 37.8343 50.9436C30.3552 50.9436 23.0334 53.0685 16.7396 57.0657C10.6803 60.8894 5.75855 66.2394 2.47962 72.5665Z" fill="black"/>
<path d="M14.7416 67.5899C14.4732 67.452 14.1838 67.3588 13.8849 67.3138C13.6317 67.3138 13.5278 67.3138 13.1903 67.6927L12.736 68.2064L15.9813 70.9739C16.533 71.4491 16.6304 71.4298 17.2211 70.8583L17.4482 71.0574L15.5789 73.1828L15.3518 72.9838C15.8256 72.3416 15.8256 72.2582 15.2674 71.7766L12.0221 69.009L11.6001 69.4906C11.2756 69.863 11.2302 70.0107 11.3016 70.2868C11.3945 70.5632 11.5232 70.8266 11.6845 71.0702L11.4769 71.3014C11.055 70.8583 10.6006 70.3896 10.2695 70.0814L10.4318 69.8952C10.6784 69.9337 10.7563 69.8566 10.9251 69.664L13.2682 66.9992C13.3389 66.9355 13.3912 66.8543 13.4197 66.7641C13.4482 66.6738 13.4519 66.5776 13.4305 66.4855L13.5927 66.3057C13.8913 66.5561 14.4755 67.0056 14.8909 67.3395L14.7416 67.5899Z" fill="black"/>
<path d="M20.2444 61.7275C19.7122 62.2091 19.6928 62.2862 20.1341 62.877L22.2241 65.6445C22.6655 66.2353 22.7563 66.2224 23.36 65.8628L23.5417 66.1004L21.4193 67.6415L21.2375 67.4039C21.7632 66.9095 21.7957 66.8517 21.3479 66.2609L20.3224 64.8996L18.1999 66.46L19.2319 67.8277C19.6798 68.412 19.7641 68.3992 20.3678 68.0525L20.543 68.2901L18.4401 69.8504L18.2583 69.6064C18.7646 69.1441 18.81 69.0606 18.3687 68.4634L16.2786 65.7023C15.8308 65.1115 15.7334 65.1115 15.1363 65.4711L14.9546 65.2335L17.0641 63.6796L17.2457 63.9172C16.7265 64.3795 16.7006 64.4758 17.1484 65.0602L17.9403 66.1197L20.0627 64.5529L19.2644 63.4998C18.823 62.909 18.7127 62.9155 18.122 63.2686L17.9403 63.0311L20.0562 61.4707L20.2444 61.7275Z" fill="black"/>
<path d="M27.7806 62.588C27.8391 62.8192 28.0272 63.8145 28.0597 64.0842L23.9317 65.9592L23.8084 65.6959C24.5223 65.2913 24.5482 65.2143 24.2367 64.54L22.7893 61.4322C22.4648 60.7387 22.3544 60.7323 21.7573 60.9442L21.6274 60.6681L24.2237 59.493C25.048 59.1141 25.3401 58.9728 25.4439 58.915L26.093 60.1608L25.8205 60.3341C25.6422 60.1086 25.4218 59.919 25.1714 59.7755C24.9377 59.6407 24.7819 59.6535 24.3406 59.8526L23.7305 60.1287C23.4384 60.2635 23.4189 60.2956 23.5422 60.5525L24.3406 62.2669L25.1714 61.8881C25.6842 61.6569 25.6971 61.5092 25.5478 60.8928L25.8399 60.758L26.6513 62.5045L26.3592 62.6394C25.9632 62.1064 25.8529 62.0422 25.3467 62.2734L24.5158 62.6522L25.1649 64.1098C25.4245 64.6685 25.5543 64.752 26.0281 64.5593L26.6772 64.2639C27.1445 64.052 27.2289 63.9429 27.3263 63.6218C27.406 63.2939 27.4431 62.9573 27.4366 62.6201L27.7806 62.588Z" fill="black"/>
<path d="M32.9208 58.4269C32.6417 57.9003 32.2717 57.3352 31.4604 57.4958C31.3419 57.5125 31.2284 57.554 31.1274 57.6175C31.0264 57.681 30.9401 57.7651 30.8744 57.864C30.8087 57.963 30.7651 58.0747 30.7464 58.1917C30.7277 58.3086 30.7344 58.4282 30.7659 58.5424C30.8698 59.0626 31.2722 59.2873 32.1095 59.5249C33.1869 59.8202 33.8165 60.167 33.9853 60.9954C34.18 61.9842 33.4855 62.8768 32.2717 63.1079C31.7796 63.1886 31.2775 63.1886 30.7854 63.1079C30.6881 62.9024 30.3959 62.1319 30.2467 61.7145L30.5517 61.5797C30.8373 62.1062 31.4669 62.8639 32.3496 62.7291C32.4753 62.7126 32.5959 62.6696 32.7032 62.603C32.8106 62.5363 32.9022 62.4476 32.9718 62.3428C33.0413 62.238 33.0873 62.1197 33.1065 61.9957C33.1257 61.8718 33.1177 61.7452 33.0831 61.6246C32.9727 61.0596 32.5833 60.8412 31.7849 60.5844C30.7724 60.2697 30.1169 59.9422 29.9416 59.0818C29.7664 58.2214 30.3246 57.3609 31.5838 57.1169C31.9997 57.0482 32.4214 57.0203 32.8429 57.0335C32.9403 57.3481 33.0701 57.7526 33.2518 58.3177L32.9208 58.4269Z" fill="black"/>
<path d="M39.5285 58.1189C39.4497 57.8294 39.3247 57.5541 39.1585 57.3034C39.0027 57.1043 38.9249 57.0337 38.4056 57.0466H37.724L37.8019 61.2589C37.8019 61.9845 37.8993 62.0551 38.7171 62.0936V62.3955L35.8677 62.4468V62.145C36.6531 62.0744 36.7245 62.0102 36.7115 61.2782L36.6336 57.0658H35.9845C35.4847 57.0658 35.3355 57.1429 35.1797 57.3805C35.0383 57.6337 34.9292 57.9033 34.8551 58.1831H34.5371C34.589 57.541 34.6345 56.8989 34.6475 56.4751H34.8941C35.0304 56.6741 35.1343 56.6805 35.4004 56.6805L38.9703 56.6099C39.0647 56.6197 39.1599 56.6047 39.2466 56.5664C39.3332 56.528 39.4081 56.4677 39.4636 56.3916H39.7037C39.7037 56.7769 39.7686 57.5089 39.8205 58.0611L39.5285 58.1189Z" fill="black"/>
<path d="M45.3248 61.8106C45.2404 62.0354 44.825 62.96 44.6757 63.1976L40.1973 62.4271L40.2492 62.1381C41.0735 62.2023 41.1383 62.1381 41.2682 61.4318L41.8588 58.0542C41.9951 57.3029 41.8978 57.2387 41.2876 57.0718L41.3395 56.7764L44.15 57.2644C45.0393 57.4185 45.3638 57.4635 45.4482 57.4763C45.4482 57.6561 45.3443 58.356 45.2924 58.8761H44.9679C44.9508 58.5938 44.8803 58.3172 44.7601 58.0606C44.6433 57.8166 44.507 57.7396 44.0332 57.6561L43.3841 57.5405C43.0726 57.4891 43.0401 57.502 42.9882 57.7845L42.6637 59.6467L43.5659 59.8008C44.1176 59.8971 44.2149 59.8008 44.4486 59.1586L44.7666 59.2164L44.4356 61.1428L44.1111 61.0914C44.1111 60.4493 44.0397 60.3145 43.462 60.2182L42.5663 60.0641L42.2872 61.6501C42.1769 62.2537 42.2353 62.4078 42.7415 62.5041L43.4361 62.6197C43.9489 62.7096 44.0851 62.6647 44.3123 62.4656C44.5604 62.239 44.7785 61.9823 44.9614 61.7015L45.3248 61.8106Z" fill="black"/>
<path d="M52.653 60.2503C52.0753 60.1027 51.8871 60.1155 51.277 60.7705C50.7967 61.2842 48.9403 63.2234 47.8629 64.392L47.4669 64.2379C47.4669 63.2298 47.4669 60.3466 47.4669 59.1972C47.4669 58.4845 47.376 58.324 46.8633 58.0735L46.9737 57.791L49.3752 58.7028L49.2649 58.9789C48.6158 58.8248 48.5768 58.889 48.5768 59.2743C48.5768 60.0256 48.5379 61.9456 48.5379 63.0436C49.4596 62.0804 50.4137 61.0594 50.9524 60.443C51.3613 59.9806 51.3289 59.8458 50.6604 59.5055L50.7707 59.223L52.7179 59.9678L52.653 60.2503Z" fill="black"/>
<path d="M50.7388 65.5413L50.888 65.2845C51.5371 65.5734 51.6215 65.5734 52.0044 64.9249L53.7504 61.9711C54.1334 61.329 54.0944 61.2327 53.5232 60.8282L53.679 60.5713L55.9572 61.8941L55.8014 62.1509C55.1524 61.862 55.068 61.862 54.6851 62.5105L52.9326 65.4707C52.5562 66.1128 52.6016 66.1899 53.1663 66.6008L53.017 66.8641L50.7388 65.5413Z" fill="black"/>
<path d="M58.2338 68.9902C58.0456 69.1443 57.2278 69.7543 57.0071 69.902L53.4697 67.0767L53.6515 66.8455C54.3395 67.3014 54.4173 67.2886 54.8911 66.7171L57.0656 64.0523C57.5524 63.4551 57.5004 63.3524 57.0656 62.9157L57.2537 62.6846L59.4736 64.4568C60.1811 65.0154 60.4407 65.2145 60.5381 65.2787C60.4277 65.4264 60.0123 66.0043 59.7137 66.4281L59.4346 66.2676C59.5531 66.0097 59.6277 65.7341 59.6553 65.4521C59.6553 65.1824 59.5904 65.0476 59.2139 64.7458L58.6882 64.3284C58.4416 64.1293 58.4026 64.1293 58.2208 64.3284L57.0266 65.7989L57.7405 66.3704C58.1754 66.7171 58.3182 66.6657 58.805 66.2612L59.0582 66.4602L57.8379 67.9564L57.5848 67.7573C57.8963 67.1666 57.9029 67.0446 57.4615 66.6914L56.754 66.1263L55.735 67.4106C55.3455 67.8922 55.3196 68.0527 55.735 68.3738L56.2866 68.8168C56.6891 69.1379 56.8254 69.1572 57.124 69.0929C57.4565 69.0239 57.7776 68.9094 58.0781 68.7526L58.2338 68.9902Z" fill="black"/>
<path d="M63.0114 70.0044C63.3294 69.5036 63.6604 68.9064 63.0893 68.29C63.0141 68.1931 62.9187 68.1134 62.8095 68.0563C62.7003 67.9993 62.5799 67.9663 62.4566 67.9596C62.3333 67.9529 62.2101 67.9726 62.0952 68.0175C61.9804 68.0623 61.8766 68.1312 61.7911 68.2193C61.3887 68.5725 61.4018 69.0348 61.6159 69.8632C61.9015 70.9291 61.934 71.6354 61.2784 72.2133C60.519 72.8555 59.3896 72.7335 58.5718 71.8152C58.2527 71.4299 57.9985 70.9963 57.8188 70.531C57.9487 70.3383 58.468 69.7026 58.76 69.3687L59.0326 69.5549C58.721 70.0686 58.3447 71.0062 58.9418 71.6676C59.0188 71.767 59.1166 71.8488 59.2286 71.9073C59.3406 71.9658 59.4642 71.9995 59.5906 72.0063C59.7171 72.013 59.8435 71.9925 59.9612 71.9462C60.0789 71.8999 60.185 71.8289 60.2723 71.7382C60.7072 71.3593 60.7007 70.9162 60.506 70.0751C60.2658 69.0541 60.214 68.3349 60.889 67.7506C61.564 67.1662 62.583 67.2048 63.4333 68.1551C63.7014 68.4756 63.9363 68.822 64.1343 69.1889L63.245 70.1778L63.0114 70.0044Z" fill="black"/>
<path d="M64.6675 70.1521L64.4857 69.8953L64.5766 69.8311L65.018 70.4732L64.9271 70.5374L64.7454 70.2805L63.9924 70.8071L63.9146 70.6979L64.6675 70.1521Z" fill="black"/>
<path d="M65.1148 71.5842C65.2316 71.4943 65.368 71.3851 65.4718 71.3144C65.342 71.3617 65.2099 71.4024 65.0759 71.4364L64.5566 71.5777L64.4982 71.4942L64.8033 71.0769C64.8941 70.9548 64.9785 70.8457 65.0629 70.7494L64.68 70.9934L64.2971 71.2246L64.2256 71.1218L65.1148 70.5889L65.2122 70.7237L64.9071 71.1539C64.8228 71.2631 64.7514 71.3594 64.68 71.4364C64.7943 71.3925 64.9113 71.3561 65.0304 71.3273L65.5497 71.186L65.6471 71.3273L64.8357 71.9694L64.7579 71.8667L65.1148 71.5842Z" fill="black"/>
<path d="M15.9741 56.8656L7.14031 44.9992L37.6983 3.83907L68.2628 44.9992L59.5134 56.7821C60.1624 57.1995 60.8115 57.6297 61.4022 58.0664L71.1382 44.9863L37.7243 -0.0136719L4.31689 44.9863L14.0918 58.1498C14.7019 57.7132 15.338 57.283 15.9741 56.8656Z" fill="black"/>
<path d="M48.3234 71.8916L37.7242 86.166L27.1899 71.9687C26.5185 72.3627 25.8686 72.7914 25.2427 73.2529L37.6982 90.0316L50.2317 73.1566C49.619 72.7014 48.982 72.2791 48.3234 71.8916Z" fill="black"/>
<path d="M37.6913 69.1563C36.3847 69.157 35.081 69.2773 33.7969 69.5159V69.6379C33.9397 72.4825 34.9198 79.4881 34.9912 81.0099C35.0626 81.7034 35.4845 84.06 35.6403 84.548C35.7961 85.036 37.5355 86.9752 37.5355 86.9752H37.9509C37.9509 86.9752 39.7034 85.1002 39.8462 84.548C39.989 83.9958 40.4044 81.6328 40.4953 81.0099C40.6381 79.4881 41.5467 72.4825 41.6895 69.6379V69.5095C40.3704 69.2718 39.0321 69.1536 37.6913 69.1563Z" fill="black"/>
<path d="M27.1568 29.91C27.5253 30.6022 27.7629 31.3551 27.8578 32.1318C27.9941 32.7739 28.7665 37.2687 28.9742 38.7199C29.1819 40.1711 29.3247 41.4233 29.3247 41.9755C29.3557 42.7037 29.4733 43.4257 29.6752 44.1266C29.9867 45.2054 31.2589 48.6729 31.9859 50.7919C33.9201 50.511 35.8725 50.3693 37.8275 50.3681C39.7191 50.3671 41.6084 50.5002 43.4808 50.7662C44.2078 48.6151 45.48 45.154 45.7915 44.1266C45.983 43.4235 46.1004 42.7026 46.142 41.9755C46.2015 40.885 46.3185 39.7984 46.4925 38.7199C46.6288 37.1917 47.4726 32.7546 47.6154 32.1318C47.7037 31.3537 47.9416 30.5996 48.3163 29.91C48.8031 29.1523 49.2251 28.4588 49.5042 27.9836C49.6766 27.6146 49.7266 27.201 49.6469 26.8021C49.6064 26.6838 49.5587 26.568 49.5042 26.4554C49.3418 26.4027 49.1669 26.4016 49.004 26.4523C48.841 26.5029 48.6981 26.6028 48.5954 26.7379C48.3813 26.9434 46.6483 28.3304 46.4211 28.5359C45.772 29.0239 45.1619 29.5119 45.1619 30.1348C45.1619 30.9631 45.5124 31.0337 45.3696 31.5217C45.0905 32.562 43.2666 38.5851 43.1238 39.4263C42.9875 39.9079 42.9162 40.8775 42.7085 41.6416C42.5657 42.1296 41.657 44.4862 41.4103 45.1797C41.2675 45.5971 40.5665 46.8428 40.4951 46.9841C40.216 47.2602 40.1446 47.2602 40.0083 46.9134C39.9369 46.7015 39.7941 46.2199 39.7227 45.9438C39.6869 45.5908 39.7358 45.2344 39.8655 44.9036C40.1535 44.0084 40.2485 43.0634 40.1446 42.1296C40.0919 41.5885 39.8552 41.0811 39.4732 40.6904C39.0912 40.2996 38.5865 40.0487 38.0416 39.9785H37.4834C36.9456 40.0653 36.4504 40.3215 36.0715 40.7091C35.6926 41.0967 35.4502 41.5949 35.3805 42.1296C35.2766 43.0634 35.3716 44.0084 35.6595 44.9036C35.7925 45.2336 35.8416 45.5907 35.8024 45.9438C35.731 46.2906 35.5882 46.7015 35.5233 46.9134C35.3805 47.2602 35.3091 47.2602 35.03 46.9841C34.656 46.4203 34.3509 45.8146 34.1213 45.1797C33.8357 44.4862 32.927 42.1296 32.7842 41.6416C32.5765 40.8775 32.5051 39.9079 32.3688 39.4263C32.1546 38.5915 30.3373 32.562 30.1231 31.5217C29.9868 30.9631 30.3372 30.9631 30.3372 30.1348C30.3372 29.4926 29.6882 29.0239 29.0391 28.5359C28.2839 27.9735 27.5582 27.3734 26.8647 26.7379C26.7621 26.6028 26.6192 26.5029 26.4562 26.4523C26.2933 26.4016 26.1184 26.4027 25.956 26.4554C25.8676 26.5501 25.8169 26.6733 25.8133 26.8021C25.7533 26.9982 25.735 27.2043 25.7596 27.4077C25.7842 27.611 25.8511 27.8071 25.956 27.9836C26.2416 28.4716 26.6635 29.1523 27.1568 29.91Z" fill="black"/>
</g>
</g>
<defs>
<clipPath id="clip0_1240_639">
<rect width="73.4483" height="90" fill="white" transform="translate(1)"/>
</clipPath>
</defs>
</svg>
