<svg width="316" height="80" viewBox="0 0 316 80" fill="none" xmlns="http://www.w3.org/2000/svg">
<g clip-path="url(#clip0_16179_5977)">
<path fill-rule="evenodd" clip-rule="evenodd" d="M268.784 39.8378C268.784 33.4002 273.842 28.1755 280.08 28.1755C286.317 28.1755 291.376 33.4002 291.376 39.8378C291.376 46.2753 286.317 51.5 280.08 51.5C273.842 51.5 268.784 46.2753 268.784 39.8378ZM272.956 39.8378C272.956 45.0491 276.141 48.0879 280.08 48.0879C284.012 48.0879 287.204 45.0491 287.204 39.8378C287.204 34.6264 284.012 31.5876 280.08 31.5876C276.148 31.5876 272.956 34.6264 272.956 39.8378ZM0 31.8541H7.34388V51.0202H11.3157V31.8541H18.6596V28.662H0V31.8541ZM37.8253 38.245H27.2027V28.662H23.2242V51.0202H27.2027V41.4371H37.8253V51.0202H41.8038V28.662H37.8253V38.245ZM48.1416 31.8541V28.662H62.1096V31.8541H57.1115V47.828H62.1096V51.0202H48.1416V47.828H53.133V31.8541H48.1416ZM226.7 28.662V31.8541H231.698V47.828H226.7V51.0202H240.668V47.828H235.677V31.8541H240.668V28.662H226.7ZM89.2989 31.8541V28.662H107.958V31.8541H100.615V51.0202H96.6361V31.8541H89.2989ZM121.614 38.9781L115.196 28.662H110.958L119.528 42.4434V51.0202H123.506V42.6167L123.566 42.65L132.263 28.662H128.025L121.614 38.9781ZM152.009 28.662L159.606 39.4179L167.203 28.662H171.182V51.0202H167.203V34.1932L160.912 43.0965H158.3L152.009 34.1932V51.0202H148.031V28.662H152.009ZM312.022 28.662V45.4889L300.133 28.662H296.154V51.0202H300.133V34.1932L312.022 51.0202H316V28.662H312.022ZM185.029 28.6624L175.619 51.0138L179.751 51.0072L181.737 46.0291H192.086L194.072 51.0072L198.204 51.0138L188.788 28.6624H185.029ZM183.01 42.8436L186.908 33.0607L190.807 42.8436H183.01ZM203.189 28.662H211.659C217.897 28.662 222.955 33.3935 222.955 39.8377C222.955 46.2819 217.897 51.0135 211.659 51.0135H203.189V28.662ZM207.168 47.828H211.659C215.598 47.828 218.903 45.0491 218.903 39.8377C218.903 34.6264 215.598 31.8541 211.659 31.8541H207.168V47.828ZM81.2623 41.0904H81.2357C84.0346 40.2508 86.0738 37.9516 86.0738 34.8128C86.0738 31.1142 82.7951 28.6552 78.8233 28.6552H72.4057H68.4272V41.437V51.0067H72.4057V41.4503H74.8714C80.1627 41.6036 82.3486 48.381 82.3486 51.02H86.607C85.1075 42.7165 81.2623 41.0904 81.2623 41.0904ZM78.8233 38.5314H72.4057V31.7273H78.8233C80.7025 31.7273 82.222 33.2534 82.222 35.126C82.222 37.012 80.7025 38.5314 78.8233 38.5314ZM254.849 31.3006C250.644 31.3006 250.171 33.8396 250.171 34.4261C250.171 36.5761 252.728 37.168 255.655 37.8454C259.567 38.751 264.139 39.8093 264.139 44.9487C264.139 49.2871 259.254 51.413 255.262 51.413C250.977 51.413 245.786 48.6607 245.786 43.4293H249.731L249.742 43.493C249.952 44.7115 250.562 48.2608 255.269 48.2608C259.474 48.2608 260.467 46.3749 260.467 45.2486C260.467 42.6541 257.79 42.0742 254.802 41.4269C251.028 40.6096 246.759 39.6848 246.759 34.4594C246.759 30.1277 250.857 28.2951 254.849 28.2551C259.334 28.2085 263.766 30.6808 263.766 35.8522H259.927C259.913 35.7665 259.899 35.6685 259.884 35.5606C259.695 34.2095 259.286 31.3006 254.849 31.3006Z" fill="black"/>
</g>
<defs>
<clipPath id="clip0_16179_5977">
<rect width="316" height="80" fill="white"/>
</clipPath>
</defs>
</svg>
