<svg width="683" height="143" viewBox="0 0 683 143" fill="none" xmlns="http://www.w3.org/2000/svg">
<path d="M322.434 36.8809C325.656 36.8963 328.878 36.9157 332.1 36.9311C332.615 36.9311 333.125 36.9311 333.748 36.9311C336.796 51.0464 339.841 65.1345 342.885 79.2226C342.97 79.2226 343.055 79.2304 343.14 79.2343C346.188 65.1655 349.237 51.0966 352.296 36.9737H363.534V104.865C363.22 104.881 362.911 104.912 362.601 104.912C359.573 104.912 356.54 104.877 353.511 104.935C352.567 104.954 352.324 104.672 352.327 103.747C352.358 93.7866 352.347 83.8259 352.347 73.8651C352.347 73.5286 352.347 73.1882 352.347 72.8517L352.118 72.8323C351.825 74.2906 351.519 75.749 351.233 77.2073C349.484 86.201 347.747 95.1946 345.98 104.184C345.925 104.451 345.62 104.869 345.419 104.877C343.686 104.931 341.953 104.908 340.166 104.908C338.096 94.274 336.038 83.7175 333.984 73.1611C333.899 73.1611 333.81 73.1611 333.725 73.1611C333.725 73.517 333.725 73.869 333.725 74.2249C333.725 83.9264 333.725 93.6318 333.725 103.333C333.725 105.252 333.771 104.892 332.197 104.904C328.944 104.935 325.691 104.943 322.434 104.958V36.8809Z" fill="black"/>
<path d="M569.999 104.966C566.583 104.95 563.168 104.908 559.752 104.935C558.986 104.943 558.65 104.738 558.391 103.979C554.371 92.305 550.314 80.6462 546.264 68.9834C546.151 68.6585 546.028 68.3335 545.912 68.0086C545.83 68.0163 545.749 68.0279 545.664 68.0357V104.865H534.527V36.9157C536.597 36.9157 538.651 36.9157 540.701 36.9157C542.086 36.9157 543.475 36.9505 544.859 36.9002C545.494 36.877 545.757 37.1246 545.95 37.6932C549.884 49.089 553.838 60.481 557.787 71.8691C558.015 72.5306 558.263 73.1843 558.499 73.8419C558.58 73.8342 558.661 73.8226 558.746 73.811V36.8809H569.999V104.966Z" fill="black"/>
<path d="M408.007 36.9721C408.247 36.9489 408.433 36.918 408.618 36.918C413.964 36.9799 419.318 36.9567 424.66 37.1578C426.559 37.2313 428.482 37.7071 430.315 38.2641C434.973 39.6838 437.541 43.0685 438.396 47.7142C438.852 50.2015 439.085 52.7623 439.104 55.2883C439.181 65.6667 439.193 76.0452 439.096 86.4237C439.073 89.1083 438.783 91.8277 438.253 94.4619C437.205 99.6686 433.851 102.837 428.71 103.9C426.018 104.457 423.233 104.693 420.482 104.802C416.684 104.949 412.877 104.817 409.075 104.856C408.197 104.864 407.938 104.612 407.938 103.715C407.965 81.7973 407.957 59.8799 407.961 37.9585C407.961 37.6452 407.992 37.3319 408.011 36.9683L408.007 36.9721ZM419.105 93.7502C420.892 93.5723 422.525 93.4949 424.126 93.2241C426.138 92.8876 427.244 91.5337 427.631 89.5841C427.77 88.8917 427.867 88.1799 427.867 87.4759C427.882 76.4824 427.878 65.4888 427.878 54.4991C427.878 54.1781 427.878 53.8531 427.847 53.5321C427.569 50.2595 426.288 48.7432 423.349 48.2945C422.366 48.1436 421.36 48.1049 420.362 48.0701C419.101 48.0276 419.097 48.0546 419.097 49.3544C419.097 63.7017 419.097 78.0451 419.097 92.3924V93.7502H419.105Z" fill="black"/>
<path d="M497.399 70.8518C497.399 65.0185 497.356 59.189 497.418 53.3557C497.449 50.4855 497.871 47.6578 498.83 44.9229C500.706 39.5693 504.566 36.7764 510.09 36.1691C512.725 35.879 515.37 35.9293 517.962 36.5791C523.208 37.8905 526.194 41.4609 527.366 46.5321C527.969 49.1432 528.317 51.8703 528.341 54.551C528.441 65.765 528.406 76.9791 528.348 88.1931C528.333 91.1562 527.88 94.0844 526.863 96.9044C525.026 101.987 521.355 104.753 516.078 105.48C513.216 105.875 510.349 105.797 507.545 105.055C502.354 103.678 499.464 100.049 498.342 95.0167C497.739 92.3051 497.453 89.4851 497.375 86.7038C497.228 81.4237 497.333 76.1358 497.333 70.8518C497.356 70.8518 497.379 70.8518 497.402 70.8518H497.399ZM508.64 70.7667C508.617 70.7667 508.593 70.7667 508.566 70.7667C508.566 75.9849 508.524 81.2032 508.589 86.4215C508.613 88.2125 508.767 90.0305 509.127 91.779C509.522 93.6821 510.763 94.4365 512.837 94.4403C514.96 94.4403 516.202 93.6628 516.616 91.7326C516.964 90.1079 517.165 88.4213 517.173 86.7619C517.219 76.1319 517.231 65.502 517.165 54.8682C517.154 53.0888 516.875 51.2785 516.457 49.5416C516.067 47.9092 514.914 47.2826 513.077 47.271C510.868 47.2555 509.773 47.8048 509.259 49.4875C508.899 50.6712 508.671 51.9438 508.659 53.1778C508.597 59.0382 508.632 64.9024 508.632 70.7628L508.64 70.7667Z" fill="black"/>
<path d="M402.284 104.87H391.074C390.9 103.113 390.722 101.392 390.556 99.6707C390.351 97.5586 390.173 95.4388 389.929 93.3307C389.902 93.0908 389.534 92.704 389.318 92.7001C386.776 92.6576 384.235 92.673 381.581 92.673C381.175 96.7618 380.777 100.785 380.37 104.862H369.176C372.12 82.2056 375.056 59.615 377.999 36.9858C378.359 36.9665 378.641 36.9394 378.928 36.9394C383.438 36.9394 387.952 36.9587 392.463 36.9162C393.298 36.9085 393.515 37.1599 393.615 37.9838C394.451 44.6875 395.364 51.3795 396.234 58.0755C397.104 64.7753 397.948 71.4751 398.818 78.1749C399.688 84.8747 400.582 91.5667 401.46 98.2665C401.743 100.433 402.006 102.599 402.292 104.877L402.284 104.87ZM385.871 50.0025C385.79 50.0025 385.713 50.0025 385.631 50.0025C384.637 60.4119 383.643 70.8213 382.641 81.3043H388.85C387.852 70.8136 386.861 60.408 385.871 50.0063V50.0025Z" fill="black"/>
<path d="M486.623 56.8731C485.076 56.8731 483.528 56.846 481.981 56.8847C481.265 56.904 481.107 56.641 481.029 55.9408C480.793 53.7785 480.631 51.5736 480.058 49.4886C479.482 47.3881 477.208 46.6532 475.378 47.6899C474.302 48.2972 473.854 49.33 473.645 50.4634C472.798 55.0511 473.819 59.0315 477.529 62.0952C480.136 64.2498 482.816 66.3154 485.37 68.5319C489.946 72.5046 492.344 77.5952 492.824 83.622C493.172 87.9815 493.125 92.31 491.806 96.5342C490.155 101.834 486.186 104.979 480.677 105.539C478.059 105.806 475.463 105.752 472.894 105.234C468.164 104.278 465.328 101.246 463.85 96.7895C462.57 92.9289 462.195 88.9369 462.079 84.9024C462.056 84.032 462.04 83.1655 462.005 82.2952C461.982 81.7188 462.241 81.4906 462.814 81.4906C466.036 81.5022 469.258 81.506 472.481 81.4867C473.161 81.4828 473.223 81.8155 473.258 82.3841C473.421 85.0455 473.618 87.7068 473.85 90.3604C473.9 90.9252 474.117 91.4861 474.333 92.0199C475.208 94.1861 477.273 95.0642 479.467 94.2403C480.662 93.7916 481.184 92.8013 481.424 91.6679C481.958 89.1535 481.938 86.6121 481.552 84.0823C481.188 81.6994 480.062 79.6686 478.302 78.0788C475.869 75.8777 473.335 73.7812 470.806 71.6884C466.879 68.443 463.881 64.5979 462.81 59.4996C461.808 54.7301 461.816 49.9644 463.266 45.2799C464.945 39.8451 469.069 36.5957 474.743 36.1702C477.544 35.9613 480.345 35.9962 483.041 36.9555C487.408 38.5105 489.752 41.8527 491.029 46.1077C491.988 49.3106 492.232 52.6103 492.325 55.9331C492.344 56.6487 492.062 56.9001 491.361 56.8847C489.783 56.8537 488.205 56.8731 486.623 56.8769V56.8731Z" fill="black"/>
<path d="M456.76 104.916C454.416 104.916 452.138 104.916 449.856 104.916C448.761 104.916 447.662 104.862 446.571 104.931C445.732 104.986 445.465 104.653 445.562 103.879C445.585 103.69 445.562 103.492 445.562 103.299C445.562 81.7103 445.562 60.1217 445.562 38.5291C445.562 38.239 445.577 37.9489 445.562 37.6588C445.539 37.1482 445.72 36.9122 446.289 36.9161C449.674 36.9393 453.055 36.9315 456.439 36.9354C456.528 36.9354 456.617 36.978 456.76 37.0166V104.908V104.916Z" fill="black"/>
<path d="M244.951 47.3809C242.223 47.3809 239.651 47.3384 237.083 47.4041C236.154 47.4274 235.868 47.1721 235.883 46.2282C235.941 43.1994 235.922 40.1667 235.895 37.1378C235.887 36.3758 236.162 36.1321 236.908 36.1321C248.738 36.1205 260.563 36.0857 272.392 36.0586C272.581 36.0586 272.771 36.0818 273.03 36.0973C275.045 46.1315 277.053 56.1425 279.061 66.1535C279.138 66.1535 279.219 66.1535 279.297 66.1535C281.308 56.1502 283.32 46.1508 285.335 36.1089H297.276C297.176 36.5576 297.102 36.956 296.99 37.3429C293.025 51.3536 289.056 65.3644 285.103 79.379C284.94 79.9593 284.867 80.5821 284.867 81.1816C284.851 88.4346 284.844 95.6875 284.875 102.941C284.875 103.726 284.681 104.008 283.861 103.997C280.767 103.954 277.672 103.95 274.577 103.997C273.703 104.008 273.51 103.703 273.514 102.879C273.545 96.3684 273.498 89.8542 273.548 83.344C273.564 81.3286 273.313 79.3984 272.755 77.4565C269.951 67.7279 267.208 57.9799 264.47 48.232C264.292 47.6053 264.06 47.3461 263.367 47.3577C261.019 47.4041 258.671 47.3732 256.226 47.3732C256.203 47.9148 256.161 48.3867 256.161 48.8586C256.161 66.6835 256.161 84.5083 256.161 102.333C256.161 102.689 256.145 103.041 256.157 103.397C256.168 103.888 255.948 104.07 255.453 104.066C252.068 104.051 248.683 104.055 245.299 104.047C245.21 104.047 245.121 104 244.947 103.954V47.3809H244.951Z" fill="black"/>
<path d="M145.703 36.1074H156.801V64.2914H166.928V36.1267H178.142V37.2795C178.142 59.0654 178.142 80.8552 178.142 102.641C178.142 103.98 178.142 103.98 176.842 103.983C173.941 103.983 171.04 103.949 168.142 104.003C167.225 104.018 166.939 103.771 166.943 102.823C166.978 94.1852 166.951 85.5474 166.986 76.9096C166.986 75.9619 166.788 75.6138 165.767 75.6447C163.191 75.7182 160.611 75.7182 158.034 75.6447C157.013 75.6138 156.812 75.9619 156.816 76.9096C156.851 85.5474 156.82 94.1852 156.859 102.823C156.862 103.771 156.576 104.022 155.659 104.003C152.696 103.949 149.729 103.964 146.766 103.995C145.969 104.003 145.641 103.825 145.641 102.931C145.664 80.9519 145.66 58.9687 145.66 36.9893C145.66 36.734 145.683 36.4787 145.703 36.1035V36.1074Z" fill="black"/>
<path d="M132.347 104.07H131.129C128.1 104.07 125.071 104.043 122.042 104.089C121.222 104.101 120.924 103.834 121.017 103.045C121.052 102.759 121.021 102.465 121.021 102.175C121.021 84.4503 121.021 66.7222 121.021 48.9979V47.3771H112.089C112.058 47.0367 112.012 46.7891 112.012 46.5416C112.008 43.3851 112.019 40.2247 112 37.0682C111.996 36.43 112.159 36.1399 112.859 36.136C122.17 36.1244 131.484 36.0896 140.795 36.0625C140.95 36.0625 141.105 36.0973 141.302 36.1205V47.3616H132.351V104.07H132.347Z" fill="black"/>
<path d="M185.16 36.1074H196.246C196.261 36.4633 196.292 36.8076 196.292 37.148C196.292 59.0345 196.292 80.9249 196.316 102.811C196.316 103.744 196.064 104.022 195.132 104.007C192.134 103.953 189.136 103.964 186.138 103.999C185.33 104.011 185.102 103.736 185.102 102.943C185.121 80.9597 185.117 58.9726 185.117 36.9894C185.117 36.7341 185.14 36.4788 185.16 36.1074Z" fill="black"/>
<path fill-rule="evenodd" clip-rule="evenodd" d="M203.426 36.1551C203.403 36.1754 203.373 36.2023 203.332 36.237H203.335C203.332 36.3147 203.327 36.3937 203.322 36.4735C203.311 36.6436 203.301 36.8175 203.301 36.9913C203.301 40.1267 203.301 43.2622 203.301 46.3978C203.301 65.2425 203.302 84.0893 203.285 102.933C203.285 103.722 203.506 104.005 204.318 103.993C207.347 103.954 210.376 103.951 213.404 103.993C214.252 104.005 214.484 103.749 214.484 102.898C214.457 96.9348 214.46 90.969 214.463 85.0043C214.464 83.1692 214.464 81.3342 214.464 79.4994V78.1687C214.958 78.2062 215.44 78.2348 215.912 78.2629C216.902 78.3217 217.853 78.3782 218.793 78.5091C221.098 78.8302 222.499 80.1995 222.913 82.4934C223.091 83.4721 223.203 84.4739 223.21 85.4642C223.225 87.5284 223.223 89.5934 223.221 91.6588C223.218 94.1374 223.216 96.6167 223.241 99.0959C223.25 100.086 223.378 101.078 223.505 102.067C223.542 102.353 223.579 102.64 223.613 102.925C223.702 103.68 224.123 104.001 224.928 103.993C227.035 103.969 229.144 103.973 231.254 103.976C232.238 103.977 233.223 103.979 234.208 103.978C234.432 103.978 234.656 103.951 234.748 103.94C234.773 103.937 234.788 103.935 234.792 103.935C234.75 103.254 234.702 102.581 234.653 101.912C234.545 100.408 234.438 98.9302 234.417 97.4519C234.392 95.657 234.405 93.8614 234.419 92.0656C234.435 89.9641 234.451 87.8625 234.405 85.7621C234.301 81.0699 232.742 77.1784 228.046 75.225C228.035 75.2206 228.029 75.2037 228.018 75.1729C228.01 75.1495 227.998 75.1181 227.98 75.078C228.166 74.9223 228.356 74.7681 228.548 74.613C228.965 74.275 229.388 73.9329 229.783 73.5616C232.958 70.5637 234.161 66.6646 234.328 62.5023C234.502 58.1041 234.359 53.6827 234.154 49.2807C234.03 46.7005 233.272 44.2094 231.833 42.0006C229.701 38.732 226.448 37.293 222.789 36.6702C218.174 35.883 213.525 35.9681 208.877 36.0532C207.085 36.086 205.292 36.1188 203.502 36.1016C203.487 36.1016 203.47 36.1165 203.426 36.1551ZM214.508 67.1287C214.508 67.1287 214.507 67.1287 214.507 67.1287V47.2537C214.745 47.2566 214.983 47.2578 215.221 47.259C217.198 47.2691 219.135 47.279 220.92 48.2633C221.98 48.8467 222.635 49.7979 222.836 50.8904C222.874 51.0964 222.896 51.3076 222.902 51.5226C222.999 55.209 223.064 58.9109 222.879 62.5896C222.759 64.9106 221.181 66.2954 218.91 66.6938C217.941 66.8637 216.956 66.9389 215.934 67.0168C215.467 67.0525 214.992 67.0887 214.508 67.1348V67.1309V67.1287Z" fill="black"/>
</svg>
