<svg width="206" height="80" viewBox="0 0 206 80" fill="none" xmlns="http://www.w3.org/2000/svg">
<g opacity="0.85" clip-path="url(#clip0_5490_17353)">
<path d="M0 24.6494H37.5703V62.2197H0V24.6494ZM3.89365 58.326H33.6766V28.5431H3.89365V58.326ZM18.9218 34.3494H22.8154V45.7229C22.8154 50.8803 19.9122 53.9542 14.9598 53.9542C10.144 53.9542 7.27497 50.9144 7.27497 45.7229V34.3494H11.1686V45.7229C11.1686 48.5919 12.364 50.2997 15.0623 50.2997C17.658 50.2997 18.9218 48.6602 18.9218 45.7229V34.3494ZM30.1928 34.3494C30.1928 35.7156 29.2023 36.6719 27.802 36.6719C26.4358 36.6719 25.4112 35.7156 25.4112 34.3494C25.4112 32.949 26.4017 31.9585 27.802 31.9585C29.2023 31.9585 30.1928 32.949 30.1928 34.3494ZM25.8893 38.5163H29.783V53.7835H25.8893V38.5163ZM55.8431 40.8729C55.8431 45.0398 53.0765 47.5331 48.8413 47.5331H45.3234V53.8176H41.4298V34.3494H48.8413C53.1448 34.3494 55.8431 36.8768 55.8431 40.8729ZM51.9153 40.8729C51.9153 38.7553 50.6857 37.4916 48.4656 37.4916H45.3576V44.425H48.4656C50.6857 44.425 51.9153 43.1613 51.9153 40.8729ZM68.9244 38.5163H72.818V53.7835H68.9244V52.0757C67.8997 53.3053 66.2603 53.9884 63.9719 53.9884C59.8392 53.9884 56.9019 50.7437 56.9019 46.1669C56.9019 41.6585 59.7709 38.3113 63.9719 38.3113C66.192 38.3113 67.8997 39.0969 68.9244 40.4289V38.5163ZM68.9244 46.1669C68.9244 43.537 67.3532 41.7268 64.8941 41.7268C62.435 41.7268 60.8638 43.4687 60.8638 46.1669C60.8638 48.6944 62.23 50.5729 64.8941 50.5729C67.2849 50.5729 68.9244 48.831 68.9244 46.1669ZM82.313 50.4704H83.85V53.7835H81.8007C78.112 53.7835 76.5067 52.0416 76.5067 48.4212V41.8293H74.6965V38.5504H76.5067V34.3494H80.4004V38.5163H83.8158V41.7951H80.4004V48.4553C80.4004 49.8215 80.8102 50.4704 82.313 50.4704ZM100.62 44.9032V53.7835H96.7264V45.3472C96.7264 43.0247 95.5309 41.5219 93.2426 41.5219C90.9542 41.5219 89.588 43.093 89.588 45.6888V53.7835H85.6944V33.4272H89.588V40.1215C90.5443 38.9603 92.0813 38.3455 94.1989 38.3455C97.8193 38.3113 100.62 40.9071 100.62 44.9032Z" fill="black"/>
<path d="M99.8345 33.4277H101.884V33.8034H101.132V36.2284H100.62V33.8034H99.8345V33.4277Z" fill="black"/>
<path d="M105.538 33.4277V36.2284H105.06V34.1108L104.206 36.2284H103.796L102.908 34.1108V36.2284H102.464V33.4277H103.045L103.967 35.6478L104.958 33.4277H105.538Z" fill="black"/>
<path d="M114.556 47.5334V53.8178H110.663V34.3496H118.074C122.378 34.3496 125.076 36.8429 125.076 40.839C125.076 45.0059 122.309 47.4992 118.074 47.4992H114.556V47.5334ZM121.114 40.839C121.114 38.7214 119.884 37.4919 117.63 37.4919H114.556V44.4253H117.63C119.884 44.4253 121.114 43.1274 121.114 40.839Z" fill="black"/>
<path d="M141.3 38.5497V53.8168H137.406V52.075C136.382 53.2704 134.742 53.9876 132.488 53.9876C128.321 53.9876 125.418 50.7429 125.418 46.2003C125.418 41.6919 128.287 38.3447 132.488 38.3447C134.708 38.3447 136.382 39.1303 137.406 40.4282V38.5497H141.3ZM137.372 46.1662C137.372 43.5363 135.835 41.6919 133.342 41.6919C130.849 41.6919 129.312 43.4338 129.312 46.1662C129.312 48.6936 130.678 50.538 133.342 50.538C135.733 50.538 137.372 48.7961 137.372 46.1662Z" fill="black"/>
<path d="M152.57 38.3115V41.8295C148.13 41.8295 147.071 43.3664 147.071 47.1576V53.7836H143.178V38.5506H147.071V40.4633C148.13 39.1654 149.872 38.3115 152.57 38.3115Z" fill="black"/>
<path d="M162.27 50.4707V53.8179H160.221C156.532 53.8179 154.927 52.0418 154.927 48.4897V41.8295H153.117V38.5165H154.927V34.3838H158.821V38.5507H162.236V41.8637H158.821V48.4897C158.821 49.8559 159.23 50.4707 160.733 50.4707H162.27Z" fill="black"/>
<path d="M178.63 44.9376V53.8178H174.737V45.3816C174.737 43.059 173.541 41.5562 171.253 41.5562C168.964 41.5562 167.598 43.1273 167.598 45.7231V53.8178H163.705V38.5506H167.598V40.0876C168.589 38.9263 170.092 38.3115 172.209 38.3115C175.795 38.3115 178.63 40.9073 178.63 44.9376Z" fill="black"/>
<path d="M195.127 47.3625H183.651C184.095 49.6168 185.598 50.778 187.408 50.778C189.047 50.778 190.345 50.0949 190.755 48.6263H194.888C194.102 51.9734 191.131 53.9544 187.545 53.9544C182.695 53.9544 179.723 50.8122 179.723 46.0988C179.723 41.3171 182.797 38.3115 187.545 38.3115C190.482 38.3115 192.907 39.5753 194.205 41.7953C195.059 43.4689 195.468 45.5182 195.127 47.3625ZM191.131 44.5277C191.131 42.9224 189.594 41.4879 187.545 41.4879C185.188 41.4879 184.061 42.9566 183.651 44.5277H191.131Z" fill="black"/>
<path d="M205.716 38.3115V41.8295C201.276 41.8295 200.217 43.3664 200.217 47.1576V53.7836H196.323V38.5506H200.217V40.4633C201.276 39.1654 203.018 38.3115 205.716 38.3115Z" fill="black"/>
<path d="M116.025 25.0599H112.883L112.302 26.6994H110.663L113.566 18.8438H115.342L118.211 26.6994H116.537L116.025 25.0599ZM113.327 23.8303H115.581L114.454 20.5515L113.327 23.8303Z" fill="black"/>
<path d="M121.388 23.4546C121.388 24.0694 121.524 24.5476 121.797 24.8208C122.071 25.1282 122.446 25.299 122.959 25.299C123.471 25.299 123.847 25.1282 124.12 24.8208C124.393 24.5134 124.53 24.0694 124.53 23.4546V18.8438H126.101V23.4546C126.101 24.1719 125.964 24.7867 125.691 25.299C125.418 25.8113 125.042 26.187 124.564 26.4261C124.086 26.6652 123.539 26.8018 122.924 26.8018C121.968 26.8018 121.217 26.5286 120.67 25.9479C120.09 25.4015 119.816 24.5818 119.816 23.4888V18.8438H121.388V23.4546Z" fill="black"/>
<path d="M133.922 20.1075H131.737V26.7335H130.165V20.1075H128.014V18.8438H133.922V20.1075Z" fill="black"/>
<path d="M142.358 26.6994H140.787V23.2839H137.44V26.6994H135.869V18.8438H137.44V22.0201H140.787V18.8438H142.358V26.6994Z" fill="black"/>
<path d="M150.624 19.2877C151.204 19.6293 151.682 20.1074 152.024 20.7222C152.366 21.337 152.536 22.0201 152.536 22.7715C152.536 23.5229 152.366 24.2402 152.024 24.8549C151.682 25.4697 151.204 25.9479 150.624 26.2894C150.009 26.631 149.36 26.8018 148.608 26.8018C147.857 26.8018 147.208 26.631 146.628 26.2894C146.013 25.9479 145.569 25.4697 145.227 24.8549C144.886 24.2402 144.715 23.5571 144.715 22.7715C144.715 22.0201 144.886 21.337 145.227 20.7222C145.569 20.1074 146.047 19.6293 146.628 19.2877C147.208 18.9462 147.891 18.7754 148.608 18.7754C149.326 18.7754 150.009 18.9462 150.624 19.2877ZM147.413 20.5173C147.072 20.7222 146.798 21.0296 146.593 21.4053C146.388 21.781 146.286 22.225 146.286 22.7373C146.286 23.2497 146.388 23.6937 146.593 24.0694C146.798 24.4451 147.072 24.7525 147.413 24.9574C147.755 25.1623 148.164 25.2648 148.643 25.2648C149.121 25.2648 149.497 25.1623 149.872 24.9574C150.248 24.7525 150.487 24.4451 150.692 24.0694C150.897 23.6937 150.965 23.2497 150.965 22.7373C150.965 22.225 150.863 21.781 150.692 21.4053C150.487 21.0296 150.214 20.7222 149.872 20.5173C149.531 20.3124 149.121 20.2099 148.643 20.2099C148.164 20.2099 147.755 20.3124 147.413 20.5173Z" fill="black"/>
<path d="M159.162 23.9328L160.665 26.6994H158.923L157.523 24.1719H156.43V26.6994H154.859V18.8438H157.865C159.606 18.8438 160.836 19.8684 160.836 21.4737C160.802 22.7032 160.153 23.523 159.162 23.9328ZM156.396 22.9082H157.66C158.548 22.9082 159.162 22.3958 159.162 21.4737C159.162 20.6198 158.548 20.1075 157.66 20.1075H156.396V22.9082Z" fill="black"/>
<path d="M164.695 26.6994H163.124V18.8438H164.695V26.6994Z" fill="black"/>
<path d="M172.38 25.4356V26.6994H166.983V25.5039L170.57 20.1075H167.052V18.8438H172.346V20.0392L168.725 25.4356H172.38Z" fill="black"/>
<path d="M176.308 22.1226H179.075V23.3522H176.308V25.4698H179.417V26.6994H174.737V18.8438H179.417V20.0733H176.308V22.1226Z" fill="black"/>
<path d="M188.261 24.8209C187.954 25.4356 187.476 25.8797 186.861 26.2212C186.246 26.5628 185.495 26.7335 184.641 26.7335H181.84V18.8779H184.641C185.495 18.8779 186.246 19.0487 186.861 19.3561C187.476 19.6635 187.954 20.1417 188.261 20.7223C188.569 21.3029 188.74 21.986 188.74 22.7716C188.774 23.523 188.603 24.2061 188.261 24.8209ZM186.485 24.6159C186.929 24.1719 187.168 23.523 187.168 22.7374C187.168 21.9177 186.929 21.3029 186.485 20.8589C186.007 20.4149 185.358 20.21 184.504 20.21H183.411V25.299H184.504C185.358 25.299 186.007 25.0941 186.485 24.6159Z" fill="black"/>
</g>
<defs>
<clipPath id="clip0_5490_17353">
<rect width="205.714" height="80" fill="white"/>
</clipPath>
</defs>
</svg>
