<svg width="152" height="80" viewBox="0 0 152 80" fill="none" xmlns="http://www.w3.org/2000/svg">
<g opacity="0.85">
<path d="M37.6691 34.2805C37.5312 37.2735 35.4468 41.3711 31.4107 46.5735C27.2385 52.007 23.709 54.7238 20.8223 54.7238C19.0351 54.7238 17.5203 53.0701 16.2846 49.7611C15.4591 46.7282 14.6336 43.6953 13.8082 40.6624C12.8897 37.355 11.9047 35.6997 10.8517 35.6997C10.6225 35.6997 9.8186 36.1838 8.44335 37.1471L7 35.2804C8.51477 33.9478 10.0079 32.6135 11.4779 31.2793C13.4976 29.5308 15.014 28.6107 16.0238 28.5176C18.4123 28.288 19.8822 29.9234 20.4336 33.4238C21.0299 37.202 21.4418 39.5511 21.6743 40.4694C22.3636 43.6038 23.1193 45.1693 23.9481 45.1693C24.5909 45.1693 25.5543 44.1528 26.8415 42.1198C28.1254 40.0868 28.8147 38.5396 28.9077 37.4765C29.0904 35.7213 28.4028 34.8429 26.8415 34.8429C26.1057 34.8429 25.35 35.0126 24.571 35.347C26.0791 30.3975 28.9608 27.9935 33.2128 28.1316C36.3636 28.2264 37.8501 30.2744 37.6691 34.2805Z" fill="black"/>
<path d="M56.607 43.9747C55.3198 46.4103 53.5526 48.618 51.302 50.5945C48.2226 53.2614 45.1466 54.594 42.0705 54.594C40.6455 54.594 39.5542 54.1348 38.7968 53.2148C38.0395 52.2948 37.684 51.1019 37.7305 49.6295C37.7754 48.1139 38.2454 45.7682 39.1423 42.5955C40.0376 39.4229 40.4877 37.721 40.4877 37.4914C40.4877 36.2968 40.0724 35.6979 39.247 35.6979C38.9712 35.6979 38.1906 36.1821 36.9034 37.1453L35.3188 35.282C36.7888 33.9494 38.2587 32.6151 39.7286 31.2809C41.7035 29.5323 43.1734 28.6123 44.1401 28.5192C45.6548 28.3827 46.7677 28.8269 47.4802 29.8601C48.1911 30.8932 48.4552 32.2325 48.2741 33.8812C47.6762 36.6778 47.0317 40.2298 46.3425 44.537C46.2959 46.5102 47.0085 47.4934 48.4784 47.4934C49.1212 47.4934 50.2689 46.8146 51.9232 45.4504C53.3001 44.3174 54.4262 43.2493 55.2999 42.2495L56.607 43.9747ZM50.6127 19.4322C50.5662 20.5784 49.9932 21.6765 48.8887 22.7296C47.6479 23.9191 46.178 24.5147 44.4789 24.5147C41.8613 24.5147 40.5973 23.3717 40.6903 21.0825C40.7351 19.893 41.4344 18.7467 42.7897 17.6487C44.1467 16.5507 45.6498 16 47.3041 16C48.2691 16 49.0714 16.3793 49.7158 17.133C50.3586 17.8899 50.6576 18.6569 50.6127 19.4322Z" fill="black"/>
<path d="M99.6334 43.9749C98.3462 46.4106 96.579 48.6183 94.3284 50.5947C91.2507 53.2616 88.173 54.5942 85.097 54.5942C82.109 54.5942 80.6639 52.9405 80.7553 49.6281C80.8001 48.1558 81.0875 46.3873 81.6157 44.3177C82.1438 42.248 82.4312 40.6393 82.4777 39.4897C82.5242 37.7428 81.9943 36.8677 80.8865 36.8677C79.689 36.8677 78.2606 38.2951 76.6013 41.1467C74.849 44.138 73.9039 47.0361 73.7661 49.8411C73.6731 51.8208 73.8674 53.3398 74.3458 54.3962C71.1402 54.4894 68.8946 53.9587 67.614 52.8091C66.4663 51.7959 65.9414 50.1189 66.0328 47.7714C66.0776 46.2991 66.3019 44.8267 66.7088 43.3544C67.1141 41.882 67.3383 40.5711 67.3848 39.4198C67.4778 37.7179 66.855 36.866 65.5229 36.866C64.3719 36.866 63.1295 38.1787 61.7958 40.8006C60.462 43.4226 59.7262 46.161 59.5884 49.0125C59.4954 51.5896 59.6615 53.383 60.0817 54.3945C56.9292 54.4877 54.6903 53.8222 53.3649 52.3981C52.2653 51.2069 51.7637 49.3952 51.8567 46.9629C51.9016 45.7717 52.1109 44.1064 52.4896 41.9735C52.8682 39.839 53.0792 38.1787 53.124 36.9842C53.2154 36.159 53.0078 35.7464 52.5045 35.7464C52.2288 35.7464 51.4481 36.2122 50.1609 37.1422L48.5083 35.2789C48.7375 35.0976 50.1842 33.7616 52.85 31.2778C54.7783 29.4843 56.0871 28.566 56.7764 28.5194C57.9706 28.4262 58.9356 28.9203 59.6698 30.0017C60.4039 31.0831 60.7726 32.3375 60.7726 33.7633C60.7726 34.2225 60.7261 34.66 60.6364 35.0743C61.3257 34.0178 62.1279 33.0962 63.0481 32.3126C65.1608 30.4742 67.526 29.4361 70.1436 29.2065C72.3942 29.0235 74.0019 29.5509 74.9686 30.7936C75.7476 31.8068 76.1146 33.2559 76.0698 35.1425C76.392 34.868 76.7358 34.5685 77.1046 34.2458C78.1593 33.003 79.1924 32.0148 80.2039 31.2794C81.903 30.0367 83.6735 29.3479 85.5089 29.2081C87.7129 29.0251 89.2975 29.5509 90.2625 30.7886C91.0879 31.7968 91.4567 33.2409 91.3653 35.1192C91.3188 36.4035 91.0082 38.2719 90.4352 40.7241C89.8589 43.1764 89.5732 44.5838 89.5732 44.9515C89.5267 45.9148 89.6197 46.5786 89.8489 46.9463C90.0781 47.3139 90.6279 47.4953 91.5015 47.4953C92.1443 47.4953 93.2903 46.8165 94.9463 45.4523C96.3232 44.3193 97.4493 43.2512 98.323 42.2514L99.6334 43.9749Z" fill="black"/>
<path d="M125.469 43.9032C124.136 46.1093 121.52 48.3136 117.615 50.518C112.747 53.3213 107.807 54.7205 102.803 54.7205C99.0822 54.7205 96.4164 53.4777 94.8087 50.9955C93.661 49.2936 93.1095 47.2705 93.156 44.9231C93.2009 41.1981 94.8552 37.6561 98.1172 34.2972C101.7 30.6188 105.925 28.7771 110.793 28.7771C115.295 28.7771 117.683 30.6138 117.959 34.2855C118.141 36.6247 116.856 39.0353 114.1 41.5142C111.159 44.2227 107.46 45.9429 103.007 46.6766C103.833 47.8245 105.073 48.3968 106.728 48.3968C110.034 48.3968 113.64 47.555 117.545 45.8697C120.345 44.6852 122.551 43.4557 124.159 42.1813L125.469 43.9032ZM109.83 36.6979C109.875 35.4634 109.372 34.8445 108.315 34.8445C106.938 34.8445 105.54 35.7945 104.12 37.6944C102.698 39.5943 101.964 41.4127 101.919 43.1513C101.893 43.1513 101.893 43.4491 101.919 44.0447C104.166 43.2211 106.115 41.9634 107.766 40.2698C109.094 38.8057 109.784 37.6145 109.83 36.6979Z" fill="black"/>
<path d="M144.173 39.2782C143.989 43.5056 142.428 47.1574 139.488 50.2352C136.548 53.313 132.895 54.8519 128.532 54.8519C124.905 54.8519 122.148 53.6807 120.266 51.3365C118.889 49.5913 118.13 47.4103 117.992 44.7916C117.761 40.8404 119.184 37.2103 122.264 33.9029C125.571 30.2278 129.726 28.3911 134.732 28.3911C137.946 28.3911 140.38 29.4725 142.036 31.6303C143.599 33.6067 144.309 36.1555 144.173 39.2782ZM136.387 39.017C136.433 37.7726 136.261 36.6313 135.87 35.5948C135.48 34.5584 134.915 34.0376 134.183 34.0376C131.839 34.0376 129.911 35.307 128.396 37.8408C127.107 39.9154 126.418 42.1281 126.328 44.4772C126.282 45.6301 126.489 46.645 126.948 47.5201C127.451 48.5349 128.163 49.0407 129.084 49.0407C131.15 49.0407 132.919 47.8212 134.389 45.3756C135.629 43.3492 136.295 41.2297 136.387 39.017Z" fill="black"/>
</g>
</svg>
